<?xml version="1.0" encoding="UTF-8" standalone="no"?>
<!DOCTYPE svg PUBLIC "-//W3C//DTD SVG 1.1//EN"
 "http://www.w3.org/Graphics/SVG/1.1/DTD/svg11.dtd">
<!-- Generated by graphviz version 14.0.4 (20251115.1723)
 -->
<!-- Title: DhanaadhyaBusinessModel Pages: 1 -->
<svg width="1562pt" height="408pt"
 viewBox="0.00 0.00 1562.00 408.00" xmlns="http://www.w3.org/2000/svg" xmlns:xlink="http://www.w3.org/1999/xlink">
<g id="graph0" class="graph" transform="scale(1 1) rotate(0) translate(4 403.5)">
<title>DhanaadhyaBusinessModel</title>
<polygon fill="white" stroke="none" points="-4,4 -4,-403.5 1558.12,-403.5 1558.12,4 -4,4"/>
<!-- Revenue -->
<g id="node1" class="node">
<title>Revenue</title>
<ellipse fill="lightgreen" stroke="black" cx="208.12" cy="-381.5" rx="71.23" ry="18"/>
<text xml:space="preserve" text-anchor="middle" x="208.12" y="-377.23" font-family="Arial" font-size="12.00">Revenue Streams</text>
</g>
<!-- FreeUser -->
<g id="node2" class="node">
<title>FreeUser</title>
<path fill="lightyellow" stroke="black" d="M108.25,-320.5C108.25,-320.5 12,-320.5 12,-320.5 6,-320.5 0,-314.5 0,-308.5 0,-308.5 0,-264.5 0,-264.5 0,-258.5 6,-252.5 12,-252.5 12,-252.5 108.25,-252.5 108.25,-252.5 114.25,-252.5 120.25,-258.5 120.25,-264.5 120.25,-264.5 120.25,-308.5 120.25,-308.5 120.25,-314.5 114.25,-320.5 108.25,-320.5"/>
<text xml:space="preserve" text-anchor="middle" x="60.12" y="-307" font-family="Arial" font-size="10.00">Free Tier</text>
<text xml:space="preserve" text-anchor="middle" x="60.12" y="-295" font-family="Arial" font-size="10.00">• Simulation only</text>
<text xml:space="preserve" text-anchor="middle" x="60.12" y="-283" font-family="Arial" font-size="10.00">• Basic dashboard</text>
<text xml:space="preserve" text-anchor="middle" x="60.12" y="-271" font-family="Arial" font-size="10.00">• Limited features</text>
<text xml:space="preserve" text-anchor="middle" x="60.12" y="-259" font-family="Arial" font-size="10.00">• Conversion target: 5%</text>
</g>
<!-- Revenue&#45;&gt;FreeUser -->
<g id="edge1" class="edge">
<title>Revenue&#45;&gt;FreeUser</title>
<path fill="none" stroke="black" d="M182.35,-364.3C165.83,-353.92 143.63,-339.97 122.69,-326.81"/>
<polygon fill="black" stroke="black" points="124.79,-324 114.46,-321.64 121.06,-329.93 124.79,-324"/>
</g>
<!-- Premium -->
<g id="node3" class="node">
<title>Premium</title>
<path fill="gold" stroke="black" d="M266.38,-326.5C266.38,-326.5 149.88,-326.5 149.88,-326.5 143.88,-326.5 137.88,-320.5 137.88,-314.5 137.88,-314.5 137.88,-258.5 137.88,-258.5 137.88,-252.5 143.88,-246.5 149.88,-246.5 149.88,-246.5 266.38,-246.5 266.38,-246.5 272.38,-246.5 278.38,-252.5 278.38,-258.5 278.38,-258.5 278.38,-314.5 278.38,-314.5 278.38,-320.5 272.38,-326.5 266.38,-326.5"/>
<text xml:space="preserve" text-anchor="middle" x="208.12" y="-313" font-family="Arial" font-size="10.00">Premium Tier</text>
<text xml:space="preserve" text-anchor="middle" x="208.12" y="-301" font-family="Arial" font-size="10.00">• ₹99/month</text>
<text xml:space="preserve" text-anchor="middle" x="208.12" y="-289" font-family="Arial" font-size="10.00">• Expert tips</text>
<text xml:space="preserve" text-anchor="middle" x="208.12" y="-277" font-family="Arial" font-size="10.00">• Advanced analytics</text>
<text xml:space="preserve" text-anchor="middle" x="208.12" y="-265" font-family="Arial" font-size="10.00">• Email support</text>
<text xml:space="preserve" text-anchor="middle" x="208.12" y="-253" font-family="Arial" font-size="10.00">• Est: 100K&#45;150K users/year</text>
</g>
<!-- Revenue&#45;&gt;Premium -->
<g id="edge2" class="edge">
<title>Revenue&#45;&gt;Premium</title>
<path fill="none" stroke="black" d="M208.12,-363.01C208.12,-355.83 208.12,-347.12 208.12,-338.2"/>
<polygon fill="black" stroke="black" points="211.63,-338.4 208.13,-328.4 204.63,-338.4 211.63,-338.4"/>
</g>
<!-- Enterprise -->
<g id="node4" class="node">
<title>Enterprise</title>
<path fill="orange" stroke="black" d="M377.38,-326.5C377.38,-326.5 308.88,-326.5 308.88,-326.5 302.88,-326.5 296.88,-320.5 296.88,-314.5 296.88,-314.5 296.88,-258.5 296.88,-258.5 296.88,-252.5 302.88,-246.5 308.88,-246.5 308.88,-246.5 377.38,-246.5 377.38,-246.5 383.38,-246.5 389.38,-252.5 389.38,-258.5 389.38,-258.5 389.38,-314.5 389.38,-314.5 389.38,-320.5 383.38,-326.5 377.38,-326.5"/>
<text xml:space="preserve" text-anchor="middle" x="343.12" y="-313" font-family="Arial" font-size="10.00">Enterprise/B2B</text>
<text xml:space="preserve" text-anchor="middle" x="343.12" y="-301" font-family="Arial" font-size="10.00">• ₹5000+/month</text>
<text xml:space="preserve" text-anchor="middle" x="343.12" y="-289" font-family="Arial" font-size="10.00">• Org dashboard</text>
<text xml:space="preserve" text-anchor="middle" x="343.12" y="-277" font-family="Arial" font-size="10.00">• Custom content</text>
<text xml:space="preserve" text-anchor="middle" x="343.12" y="-265" font-family="Arial" font-size="10.00">• White&#45;label</text>
<text xml:space="preserve" text-anchor="middle" x="343.12" y="-253" font-family="Arial" font-size="10.00">• Est: 500+ orgs</text>
</g>
<!-- Revenue&#45;&gt;Enterprise -->
<g id="edge3" class="edge">
<title>Revenue&#45;&gt;Enterprise</title>
<path fill="none" stroke="black" d="M232.02,-364.25C245.87,-354.81 263.82,-342.54 286.92,-326.62"/>
<polygon fill="black" stroke="black" points="288.91,-329.51 295.15,-320.95 284.93,-323.75 288.91,-329.51"/>
</g>
<!-- UnitEcon -->
<g id="node21" class="node">
<title>UnitEcon</title>
<polygon fill="lightgreen" stroke="black" points="162.12,-152.38 8.12,-152.38 8.12,-47.62 162.12,-47.62 162.12,-152.38"/>
<text xml:space="preserve" text-anchor="middle" x="85.12" y="-138.88" font-family="Arial" font-size="10.00">UNIT ECONOMICS</text>
<text xml:space="preserve" text-anchor="middle" x="85.12" y="-126.88" font-family="Arial" font-size="10.00">(Free to Premium)</text>
<text xml:space="preserve" text-anchor="middle" x="85.12" y="-102.88" font-family="Arial" font-size="10.00">CAC: ₹500 (avg acquisition)</text>
<text xml:space="preserve" text-anchor="middle" x="85.12" y="-90.88" font-family="Arial" font-size="10.00">LTV: ₹18,000 (₹99×18 months)</text>
<text xml:space="preserve" text-anchor="middle" x="85.12" y="-78.88" font-family="Arial" font-size="10.00">LTV/CAC Ratio: 36x (excellent)</text>
<text xml:space="preserve" text-anchor="middle" x="85.12" y="-66.88" font-family="Arial" font-size="10.00">Payback period: 5 months</text>
<text xml:space="preserve" text-anchor="middle" x="85.12" y="-54.88" font-family="Arial" font-size="10.00">CLV &gt; 3x CAC ✓</text>
</g>
<!-- FreeUser&#45;&gt;UnitEcon -->
<g id="edge19" class="edge">
<title>FreeUser&#45;&gt;UnitEcon</title>
<path fill="none" stroke="black" d="M64.65,-252.09C67.98,-227.5 72.61,-193.35 76.62,-163.73"/>
<polygon fill="black" stroke="black" points="80.05,-164.51 77.93,-154.13 73.11,-163.57 80.05,-164.51"/>
<text xml:space="preserve" text-anchor="middle" x="81.67" y="-219.95" font-family="Arial" font-size="9.00">funnel</text>
</g>
<!-- Financials -->
<g id="node20" class="node">
<title>Financials</title>
<polygon fill="gold" stroke="black" points="390.38,-152 207.88,-152 207.88,-48 390.38,-48 390.38,-152"/>
<text xml:space="preserve" text-anchor="middle" x="299.12" y="-138.5" font-family="Arial" font-size="10.00">FINANCIAL PROJECTIONS</text>
<text xml:space="preserve" text-anchor="middle" x="299.12" y="-114.5" font-family="Arial" font-size="10.00">Year 1: &#45;₹20L (investment phase)</text>
<text xml:space="preserve" text-anchor="middle" x="299.12" y="-102.5" font-family="Arial" font-size="10.00">Year 2: &#45;₹5L (pre&#45;profitability)</text>
<text xml:space="preserve" text-anchor="middle" x="299.12" y="-90.5" font-family="Arial" font-size="10.00">Year 3: +₹10L (break&#45;even)</text>
<text xml:space="preserve" text-anchor="middle" x="299.12" y="-78.5" font-family="Arial" font-size="10.00">Year 4: +₹30L (profitable)</text>
<text xml:space="preserve" text-anchor="middle" x="299.12" y="-54.5" font-family="Arial" font-size="10.00">MARKET SIZE: ₹100&#45;200 Cr potential</text>
</g>
<!-- Premium&#45;&gt;Financials -->
<g id="edge16" class="edge">
<title>Premium&#45;&gt;Financials</title>
<path fill="none" stroke="black" d="M227.42,-246.37C239.46,-221.97 255.2,-190.05 268.87,-162.34"/>
<polygon fill="black" stroke="black" points="271.85,-164.21 273.13,-153.7 265.57,-161.12 271.85,-164.21"/>
<text xml:space="preserve" text-anchor="middle" x="258.91" y="-219.95" font-family="Arial" font-size="9.00">Revenue</text>
</g>
<!-- Premium&#45;&gt;UnitEcon -->
<g id="edge20" class="edge">
<title>Premium&#45;&gt;UnitEcon</title>
<path fill="none" stroke="black" d="M182.04,-246.37C165.69,-221.85 144.28,-189.74 125.75,-161.93"/>
<polygon fill="black" stroke="black" points="128.88,-160.32 120.42,-153.94 123.06,-164.21 128.88,-160.32"/>
<text xml:space="preserve" text-anchor="middle" x="176.21" y="-219.95" font-family="Arial" font-size="9.00">LTV</text>
</g>
<!-- Enterprise&#45;&gt;Financials -->
<g id="edge17" class="edge">
<title>Enterprise&#45;&gt;Financials</title>
<path fill="none" stroke="black" d="M333.79,-246.37C328.05,-222.29 320.56,-190.89 314.01,-163.43"/>
<polygon fill="black" stroke="black" points="317.44,-162.73 311.72,-153.81 310.64,-164.35 317.44,-162.73"/>
<text xml:space="preserve" text-anchor="middle" x="347.64" y="-219.95" font-family="Arial" font-size="9.00">Revenue</text>
</g>
<!-- Segments -->
<g id="node5" class="node">
<title>Segments</title>
<ellipse fill="lightblue" stroke="black" cx="977.12" cy="-381.5" rx="79.34" ry="18"/>
<text xml:space="preserve" text-anchor="middle" x="977.12" y="-377.23" font-family="Arial" font-size="12.00">Customer Segments</text>
</g>
<!-- Newbies -->
<g id="node6" class="node">
<title>Newbies</title>
<path fill="lightyellow" stroke="black" d="M814.5,-314.5C814.5,-314.5 725.75,-314.5 725.75,-314.5 719.75,-314.5 713.75,-308.5 713.75,-302.5 713.75,-302.5 713.75,-270.5 713.75,-270.5 713.75,-264.5 719.75,-258.5 725.75,-258.5 725.75,-258.5 814.5,-258.5 814.5,-258.5 820.5,-258.5 826.5,-264.5 826.5,-270.5 826.5,-270.5 826.5,-302.5 826.5,-302.5 826.5,-308.5 820.5,-314.5 814.5,-314.5"/>
<text xml:space="preserve" text-anchor="middle" x="770.12" y="-301" font-family="Arial" font-size="10.00">Newbie Entrepreneurs</text>
<text xml:space="preserve" text-anchor="middle" x="770.12" y="-289" font-family="Arial" font-size="10.00">(18&#45;35 years)</text>
<text xml:space="preserve" text-anchor="middle" x="770.12" y="-277" font-family="Arial" font-size="10.00">Pre&#45;launch planning</text>
<text xml:space="preserve" text-anchor="middle" x="770.12" y="-265" font-family="Arial" font-size="10.00">60% of users</text>
</g>
<!-- Segments&#45;&gt;Newbies -->
<g id="edge4" class="edge">
<title>Segments&#45;&gt;Newbies</title>
<path fill="none" stroke="black" d="M933.41,-366.13C904.89,-356.22 867.16,-342.05 835.12,-326.5 831.18,-324.58 827.15,-322.5 823.14,-320.34"/>
<polygon fill="black" stroke="black" points="825,-317.37 814.56,-315.55 821.59,-323.48 825,-317.37"/>
</g>
<!-- Students -->
<g id="node7" class="node">
<title>Students</title>
<path fill="lightyellow" stroke="black" d="M959.62,-314.5C959.62,-314.5 856.62,-314.5 856.62,-314.5 850.62,-314.5 844.62,-308.5 844.62,-302.5 844.62,-302.5 844.62,-270.5 844.62,-270.5 844.62,-264.5 850.62,-258.5 856.62,-258.5 856.62,-258.5 959.62,-258.5 959.62,-258.5 965.62,-258.5 971.62,-264.5 971.62,-270.5 971.62,-270.5 971.62,-302.5 971.62,-302.5 971.62,-308.5 965.62,-314.5 959.62,-314.5"/>
<text xml:space="preserve" text-anchor="middle" x="908.12" y="-301" font-family="Arial" font-size="10.00">Students</text>
<text xml:space="preserve" text-anchor="middle" x="908.12" y="-289" font-family="Arial" font-size="10.00">(18&#45;25 years)</text>
<text xml:space="preserve" text-anchor="middle" x="908.12" y="-277" font-family="Arial" font-size="10.00">Entrepreneurship courses</text>
<text xml:space="preserve" text-anchor="middle" x="908.12" y="-265" font-family="Arial" font-size="10.00">20% of users</text>
</g>
<!-- Segments&#45;&gt;Students -->
<g id="edge5" class="edge">
<title>Segments&#45;&gt;Students</title>
<path fill="none" stroke="black" d="M964.47,-363.44C956.25,-352.36 945.22,-337.5 935.1,-323.86"/>
<polygon fill="black" stroke="black" points="937.96,-321.83 929.19,-315.89 932.34,-326 937.96,-321.83"/>
</g>
<!-- NGOs -->
<g id="node8" class="node">
<title>NGOs</title>
<path fill="lightyellow" stroke="black" d="M1088.75,-314.5C1088.75,-314.5 1001.5,-314.5 1001.5,-314.5 995.5,-314.5 989.5,-308.5 989.5,-302.5 989.5,-302.5 989.5,-270.5 989.5,-270.5 989.5,-264.5 995.5,-258.5 1001.5,-258.5 1001.5,-258.5 1088.75,-258.5 1088.75,-258.5 1094.75,-258.5 1100.75,-264.5 1100.75,-270.5 1100.75,-270.5 1100.75,-302.5 1100.75,-302.5 1100.75,-308.5 1094.75,-314.5 1088.75,-314.5"/>
<text xml:space="preserve" text-anchor="middle" x="1045.12" y="-301" font-family="Arial" font-size="10.00">NGOs &amp; Training</text>
<text xml:space="preserve" text-anchor="middle" x="1045.12" y="-289" font-family="Arial" font-size="10.00">Programs</text>
<text xml:space="preserve" text-anchor="middle" x="1045.12" y="-277" font-family="Arial" font-size="10.00">Women entrepreneurs</text>
<text xml:space="preserve" text-anchor="middle" x="1045.12" y="-265" font-family="Arial" font-size="10.00">15% of users</text>
</g>
<!-- Segments&#45;&gt;NGOs -->
<g id="edge6" class="edge">
<title>Segments&#45;&gt;NGOs</title>
<path fill="none" stroke="black" d="M989.6,-363.44C997.7,-352.36 1008.57,-337.5 1018.54,-323.86"/>
<polygon fill="black" stroke="black" points="1021.29,-326.03 1024.36,-315.89 1015.64,-321.9 1021.29,-326.03"/>
</g>
<!-- Govt -->
<g id="node9" class="node">
<title>Govt</title>
<path fill="lightyellow" stroke="black" d="M1229.38,-314.5C1229.38,-314.5 1130.88,-314.5 1130.88,-314.5 1124.88,-314.5 1118.88,-308.5 1118.88,-302.5 1118.88,-302.5 1118.88,-270.5 1118.88,-270.5 1118.88,-264.5 1124.88,-258.5 1130.88,-258.5 1130.88,-258.5 1229.38,-258.5 1229.38,-258.5 1235.38,-258.5 1241.38,-264.5 1241.38,-270.5 1241.38,-270.5 1241.38,-302.5 1241.38,-302.5 1241.38,-308.5 1235.38,-314.5 1229.38,-314.5"/>
<text xml:space="preserve" text-anchor="middle" x="1180.12" y="-301" font-family="Arial" font-size="10.00">Government Programs</text>
<text xml:space="preserve" text-anchor="middle" x="1180.12" y="-289" font-family="Arial" font-size="10.00">NITI Aayog, NASSCOM</text>
<text xml:space="preserve" text-anchor="middle" x="1180.12" y="-277" font-family="Arial" font-size="10.00">Bulk licensing</text>
<text xml:space="preserve" text-anchor="middle" x="1180.12" y="-265" font-family="Arial" font-size="10.00">5% of users</text>
</g>
<!-- Segments&#45;&gt;Govt -->
<g id="edge7" class="edge">
<title>Segments&#45;&gt;Govt</title>
<path fill="none" stroke="black" d="M1017.55,-365.57C1044.2,-355.37 1079.67,-341.1 1110.12,-326.5 1114.29,-324.5 1118.55,-322.37 1122.81,-320.17"/>
<polygon fill="black" stroke="black" points="1124.17,-323.41 1131.38,-315.64 1120.9,-317.22 1124.17,-323.41"/>
</g>
<!-- Metrics -->
<g id="node22" class="node">
<title>Metrics</title>
<polygon fill="lightblue" stroke="black" points="1021.38,-200 916.88,-200 916.88,0 1021.38,0 1021.38,-200"/>
<text xml:space="preserve" text-anchor="middle" x="969.12" y="-186.5" font-family="Arial" font-size="10.00">TARGET METRICS</text>
<text xml:space="preserve" text-anchor="middle" x="969.12" y="-162.5" font-family="Arial" font-size="10.00">Year 1:</text>
<text xml:space="preserve" text-anchor="middle" x="969.12" y="-150.5" font-family="Arial" font-size="10.00">• 10K users (free)</text>
<text xml:space="preserve" text-anchor="middle" x="969.12" y="-138.5" font-family="Arial" font-size="10.00">• 500 premium</text>
<text xml:space="preserve" text-anchor="middle" x="969.12" y="-126.5" font-family="Arial" font-size="10.00">• 50 B2B orgs</text>
<text xml:space="preserve" text-anchor="middle" x="969.12" y="-102.5" font-family="Arial" font-size="10.00">Year 3:</text>
<text xml:space="preserve" text-anchor="middle" x="969.12" y="-90.5" font-family="Arial" font-size="10.00">• 100K users (free)</text>
<text xml:space="preserve" text-anchor="middle" x="969.12" y="-78.5" font-family="Arial" font-size="10.00">• 10K premium</text>
<text xml:space="preserve" text-anchor="middle" x="969.12" y="-66.5" font-family="Arial" font-size="10.00">• 500 B2B orgs</text>
<text xml:space="preserve" text-anchor="middle" x="969.12" y="-42.5" font-family="Arial" font-size="10.00">Year 5:</text>
<text xml:space="preserve" text-anchor="middle" x="969.12" y="-30.5" font-family="Arial" font-size="10.00">• 500K users (free)</text>
<text xml:space="preserve" text-anchor="middle" x="969.12" y="-18.5" font-family="Arial" font-size="10.00">• 50K premium</text>
<text xml:space="preserve" text-anchor="middle" x="969.12" y="-6.5" font-family="Arial" font-size="10.00">• 2000 B2B orgs</text>
</g>
<!-- Newbies&#45;&gt;Metrics -->
<g id="edge21" class="edge">
<title>Newbies&#45;&gt;Metrics</title>
<path fill="none" stroke="black" d="M815.44,-258.11C854.17,-234.59 904.26,-203.88 908.12,-200 908.3,-199.82 908.48,-199.64 908.66,-199.46"/>
<polygon fill="black" stroke="black" points="911.23,-201.84 915.43,-192.11 906.08,-197.09 911.23,-201.84"/>
<text xml:space="preserve" text-anchor="middle" x="892.83" y="-219.95" font-family="Arial" font-size="9.00">targets</text>
</g>
<!-- Acquisition -->
<g id="node10" class="node">
<title>Acquisition</title>
<ellipse fill="lightcyan" stroke="black" cx="1342.12" cy="-286.5" rx="82.68" ry="18"/>
<text xml:space="preserve" text-anchor="middle" x="1342.12" y="-282.23" font-family="Arial" font-size="12.00">Acquisition Channels</text>
</g>
<!-- Organic -->
<g id="node11" class="node">
<title>Organic</title>
<path fill="lightyellow" stroke="black" d="M1197,-140C1197,-140 1129.25,-140 1129.25,-140 1123.25,-140 1117.25,-134 1117.25,-128 1117.25,-128 1117.25,-72 1117.25,-72 1117.25,-66 1123.25,-60 1129.25,-60 1129.25,-60 1197,-60 1197,-60 1203,-60 1209,-66 1209,-72 1209,-72 1209,-128 1209,-128 1209,-134 1203,-140 1197,-140"/>
<text xml:space="preserve" text-anchor="middle" x="1163.12" y="-126.5" font-family="Arial" font-size="10.00">Organic</text>
<text xml:space="preserve" text-anchor="middle" x="1163.12" y="-114.5" font-family="Arial" font-size="10.00">• Word&#45;of&#45;mouth</text>
<text xml:space="preserve" text-anchor="middle" x="1163.12" y="-102.5" font-family="Arial" font-size="10.00">• Media coverage</text>
<text xml:space="preserve" text-anchor="middle" x="1163.12" y="-90.5" font-family="Arial" font-size="10.00">• SEO</text>
<text xml:space="preserve" text-anchor="middle" x="1163.12" y="-78.5" font-family="Arial" font-size="10.00">Cost: Low</text>
<text xml:space="preserve" text-anchor="middle" x="1163.12" y="-66.5" font-family="Arial" font-size="10.00">Speed: Slow</text>
</g>
<!-- Acquisition&#45;&gt;Organic -->
<g id="edge8" class="edge">
<title>Acquisition&#45;&gt;Organic</title>
<path fill="none" stroke="black" d="M1311.12,-269.5C1284.06,-254.38 1245.02,-229.62 1218.12,-200 1204.99,-185.53 1193.77,-167.38 1184.95,-150.58"/>
<polygon fill="black" stroke="black" points="1188.09,-149.04 1180.46,-141.69 1181.84,-152.2 1188.09,-149.04"/>
</g>
<!-- SocialMedia -->
<g id="node12" class="node">
<title>SocialMedia</title>
<path fill="lightyellow" stroke="black" d="M1311.62,-140C1311.62,-140 1238.62,-140 1238.62,-140 1232.62,-140 1226.62,-134 1226.62,-128 1226.62,-128 1226.62,-72 1226.62,-72 1226.62,-66 1232.62,-60 1238.62,-60 1238.62,-60 1311.62,-60 1311.62,-60 1317.62,-60 1323.62,-66 1323.62,-72 1323.62,-72 1323.62,-128 1323.62,-128 1323.62,-134 1317.62,-140 1311.62,-140"/>
<text xml:space="preserve" text-anchor="middle" x="1275.12" y="-126.5" font-family="Arial" font-size="10.00">Social Media</text>
<text xml:space="preserve" text-anchor="middle" x="1275.12" y="-114.5" font-family="Arial" font-size="10.00">• YouTube channel</text>
<text xml:space="preserve" text-anchor="middle" x="1275.12" y="-102.5" font-family="Arial" font-size="10.00">• Instagram</text>
<text xml:space="preserve" text-anchor="middle" x="1275.12" y="-90.5" font-family="Arial" font-size="10.00">• LinkedIn</text>
<text xml:space="preserve" text-anchor="middle" x="1275.12" y="-78.5" font-family="Arial" font-size="10.00">Cost: Medium</text>
<text xml:space="preserve" text-anchor="middle" x="1275.12" y="-66.5" font-family="Arial" font-size="10.00">Speed: Medium</text>
</g>
<!-- Acquisition&#45;&gt;SocialMedia -->
<g id="edge9" class="edge">
<title>Acquisition&#45;&gt;SocialMedia</title>
<path fill="none" stroke="black" d="M1335.82,-268.14C1326.17,-241.58 1307.38,-189.82 1293.25,-150.9"/>
<polygon fill="black" stroke="black" points="1296.62,-149.93 1289.91,-141.72 1290.04,-152.32 1296.62,-149.93"/>
</g>
<!-- Partnerships -->
<g id="node13" class="node">
<title>Partnerships</title>
<path fill="lightyellow" stroke="black" d="M1430.5,-140C1430.5,-140 1353.75,-140 1353.75,-140 1347.75,-140 1341.75,-134 1341.75,-128 1341.75,-128 1341.75,-72 1341.75,-72 1341.75,-66 1347.75,-60 1353.75,-60 1353.75,-60 1430.5,-60 1430.5,-60 1436.5,-60 1442.5,-66 1442.5,-72 1442.5,-72 1442.5,-128 1442.5,-128 1442.5,-134 1436.5,-140 1430.5,-140"/>
<text xml:space="preserve" text-anchor="middle" x="1392.12" y="-126.5" font-family="Arial" font-size="10.00">Partnerships</text>
<text xml:space="preserve" text-anchor="middle" x="1392.12" y="-114.5" font-family="Arial" font-size="10.00">• B2B deals</text>
<text xml:space="preserve" text-anchor="middle" x="1392.12" y="-102.5" font-family="Arial" font-size="10.00">• Referral programs</text>
<text xml:space="preserve" text-anchor="middle" x="1392.12" y="-90.5" font-family="Arial" font-size="10.00">• Affiliate</text>
<text xml:space="preserve" text-anchor="middle" x="1392.12" y="-78.5" font-family="Arial" font-size="10.00">Cost: Medium</text>
<text xml:space="preserve" text-anchor="middle" x="1392.12" y="-66.5" font-family="Arial" font-size="10.00">Speed: Fast</text>
</g>
<!-- Acquisition&#45;&gt;Partnerships -->
<g id="edge10" class="edge">
<title>Acquisition&#45;&gt;Partnerships</title>
<path fill="none" stroke="black" d="M1346.83,-268.14C1354,-241.69 1367.93,-190.26 1378.47,-151.4"/>
<polygon fill="black" stroke="black" points="1381.84,-152.33 1381.08,-141.76 1375.08,-150.5 1381.84,-152.33"/>
</g>
<!-- Paid -->
<g id="node14" class="node">
<title>Paid</title>
<path fill="lightyellow" stroke="black" d="M1542.12,-140C1542.12,-140 1472.12,-140 1472.12,-140 1466.12,-140 1460.12,-134 1460.12,-128 1460.12,-128 1460.12,-72 1460.12,-72 1460.12,-66 1466.12,-60 1472.12,-60 1472.12,-60 1542.12,-60 1542.12,-60 1548.12,-60 1554.12,-66 1554.12,-72 1554.12,-72 1554.12,-128 1554.12,-128 1554.12,-134 1548.12,-140 1542.12,-140"/>
<text xml:space="preserve" text-anchor="middle" x="1507.12" y="-126.5" font-family="Arial" font-size="10.00">Paid Ads</text>
<text xml:space="preserve" text-anchor="middle" x="1507.12" y="-114.5" font-family="Arial" font-size="10.00">• Google Ads</text>
<text xml:space="preserve" text-anchor="middle" x="1507.12" y="-102.5" font-family="Arial" font-size="10.00">• Facebook</text>
<text xml:space="preserve" text-anchor="middle" x="1507.12" y="-90.5" font-family="Arial" font-size="10.00">• YouTube Pre&#45;roll</text>
<text xml:space="preserve" text-anchor="middle" x="1507.12" y="-78.5" font-family="Arial" font-size="10.00">Cost: High</text>
<text xml:space="preserve" text-anchor="middle" x="1507.12" y="-66.5" font-family="Arial" font-size="10.00">Speed: Fast</text>
</g>
<!-- Acquisition&#45;&gt;Paid -->
<g id="edge11" class="edge">
<title>Acquisition&#45;&gt;Paid</title>
<path fill="none" stroke="black" d="M1368.29,-269.27C1391.99,-253.65 1426.82,-228.27 1451.12,-200 1463.81,-185.25 1475.03,-167.18 1484.03,-150.54"/>
<polygon fill="black" stroke="black" points="1487.1,-152.23 1488.64,-141.74 1480.9,-148.98 1487.1,-152.23"/>
</g>
<!-- Acquisition&#45;&gt;Metrics -->
<g id="edge22" class="edge">
<title>Acquisition&#45;&gt;Metrics</title>
<path fill="none" stroke="black" d="M1307.02,-269.79C1289.98,-262.38 1269.13,-253.63 1250.12,-246.5 1187.94,-223.19 1167.4,-229.94 1108.12,-200 1081.39,-186.5 1054.1,-168.23 1030.86,-151.05"/>
<polygon fill="black" stroke="black" points="1033.14,-148.39 1023.04,-145.19 1028.94,-153.99 1033.14,-148.39"/>
<text xml:space="preserve" text-anchor="middle" x="1206.61" y="-219.95" font-family="Arial" font-size="9.00">channels</text>
</g>
<!-- CostStructure -->
<g id="node15" class="node">
<title>CostStructure</title>
<ellipse fill="lightcoral" stroke="black" cx="586.12" cy="-286.5" rx="58.36" ry="18"/>
<text xml:space="preserve" text-anchor="middle" x="586.12" y="-282.23" font-family="Arial" font-size="12.00">Cost Structure</text>
</g>
<!-- Infrastructure -->
<g id="node16" class="node">
<title>Infrastructure</title>
<path fill="lightyellow" stroke="black" d="M501.38,-134C501.38,-134 420.88,-134 420.88,-134 414.88,-134 408.88,-128 408.88,-122 408.88,-122 408.88,-78 408.88,-78 408.88,-72 414.88,-66 420.88,-66 420.88,-66 501.38,-66 501.38,-66 507.38,-66 513.38,-72 513.38,-78 513.38,-78 513.38,-122 513.38,-122 513.38,-128 507.38,-134 501.38,-134"/>
<text xml:space="preserve" text-anchor="middle" x="461.12" y="-120.5" font-family="Arial" font-size="10.00">Infrastructure</text>
<text xml:space="preserve" text-anchor="middle" x="461.12" y="-108.5" font-family="Arial" font-size="10.00">• Servers</text>
<text xml:space="preserve" text-anchor="middle" x="461.12" y="-96.5" font-family="Arial" font-size="10.00">• Database</text>
<text xml:space="preserve" text-anchor="middle" x="461.12" y="-84.5" font-family="Arial" font-size="10.00">• CDN</text>
<text xml:space="preserve" text-anchor="middle" x="461.12" y="-72.5" font-family="Arial" font-size="10.00">Monthly: ₹50K&#45;100K</text>
</g>
<!-- CostStructure&#45;&gt;Infrastructure -->
<g id="edge12" class="edge">
<title>CostStructure&#45;&gt;Infrastructure</title>
<path fill="none" stroke="black" d="M572.91,-268.8C559.64,-251.79 538.81,-224.53 522.12,-200 509.86,-181.97 497.09,-161.54 486.42,-143.93"/>
<polygon fill="black" stroke="black" points="489.66,-142.53 481.5,-135.77 483.67,-146.14 489.66,-142.53"/>
</g>
<!-- ContentCreation -->
<g id="node17" class="node">
<title>ContentCreation</title>
<path fill="lightyellow" stroke="black" d="M629,-134C629,-134 543.25,-134 543.25,-134 537.25,-134 531.25,-128 531.25,-122 531.25,-122 531.25,-78 531.25,-78 531.25,-72 537.25,-66 543.25,-66 543.25,-66 629,-66 629,-66 635,-66 641,-72 641,-78 641,-78 641,-122 641,-122 641,-128 635,-134 629,-134"/>
<text xml:space="preserve" text-anchor="middle" x="586.12" y="-120.5" font-family="Arial" font-size="10.00">Content</text>
<text xml:space="preserve" text-anchor="middle" x="586.12" y="-108.5" font-family="Arial" font-size="10.00">• Video production</text>
<text xml:space="preserve" text-anchor="middle" x="586.12" y="-96.5" font-family="Arial" font-size="10.00">• Article writing</text>
<text xml:space="preserve" text-anchor="middle" x="586.12" y="-84.5" font-family="Arial" font-size="10.00">• Design</text>
<text xml:space="preserve" text-anchor="middle" x="586.12" y="-72.5" font-family="Arial" font-size="10.00">Monthly: ₹100K&#45;150K</text>
</g>
<!-- CostStructure&#45;&gt;ContentCreation -->
<g id="edge13" class="edge">
<title>CostStructure&#45;&gt;ContentCreation</title>
<path fill="none" stroke="black" d="M586.12,-268.14C586.12,-240.36 586.12,-185.04 586.12,-145.65"/>
<polygon fill="black" stroke="black" points="589.63,-145.76 586.13,-135.76 582.63,-145.76 589.63,-145.76"/>
</g>
<!-- DataAPIs -->
<g id="node18" class="node">
<title>DataAPIs</title>
<path fill="lightyellow" stroke="black" d="M759.12,-134C759.12,-134 671.12,-134 671.12,-134 665.12,-134 659.12,-128 659.12,-122 659.12,-122 659.12,-78 659.12,-78 659.12,-72 665.12,-66 671.12,-66 671.12,-66 759.12,-66 759.12,-66 765.12,-66 771.12,-72 771.12,-78 771.12,-78 771.12,-122 771.12,-122 771.12,-128 765.12,-134 759.12,-134"/>
<text xml:space="preserve" text-anchor="middle" x="715.12" y="-120.5" font-family="Arial" font-size="10.00">Data &amp; APIs</text>
<text xml:space="preserve" text-anchor="middle" x="715.12" y="-108.5" font-family="Arial" font-size="10.00">• Market data</text>
<text xml:space="preserve" text-anchor="middle" x="715.12" y="-96.5" font-family="Arial" font-size="10.00">• Gov APIs</text>
<text xml:space="preserve" text-anchor="middle" x="715.12" y="-84.5" font-family="Arial" font-size="10.00">• Payment processing</text>
<text xml:space="preserve" text-anchor="middle" x="715.12" y="-72.5" font-family="Arial" font-size="10.00">Monthly: ₹20K&#45;40K</text>
</g>
<!-- CostStructure&#45;&gt;DataAPIs -->
<g id="edge14" class="edge">
<title>CostStructure&#45;&gt;DataAPIs</title>
<path fill="none" stroke="black" d="M599.19,-268.69C612.35,-251.61 633.09,-224.29 650.12,-200 662.88,-181.82 676.44,-161.36 687.86,-143.78"/>
<polygon fill="black" stroke="black" points="690.65,-145.91 693.14,-135.61 684.77,-142.11 690.65,-145.91"/>
</g>
<!-- Team -->
<g id="node19" class="node">
<title>Team</title>
<path fill="lightyellow" stroke="black" d="M887,-140C887,-140 801.25,-140 801.25,-140 795.25,-140 789.25,-134 789.25,-128 789.25,-128 789.25,-72 789.25,-72 789.25,-66 795.25,-60 801.25,-60 801.25,-60 887,-60 887,-60 893,-60 899,-66 899,-72 899,-72 899,-128 899,-128 899,-134 893,-140 887,-140"/>
<text xml:space="preserve" text-anchor="middle" x="844.12" y="-126.5" font-family="Arial" font-size="10.00">Team</text>
<text xml:space="preserve" text-anchor="middle" x="844.12" y="-114.5" font-family="Arial" font-size="10.00">• Eng (2&#45;3)</text>
<text xml:space="preserve" text-anchor="middle" x="844.12" y="-102.5" font-family="Arial" font-size="10.00">• Product</text>
<text xml:space="preserve" text-anchor="middle" x="844.12" y="-90.5" font-family="Arial" font-size="10.00">• Support</text>
<text xml:space="preserve" text-anchor="middle" x="844.12" y="-78.5" font-family="Arial" font-size="10.00">• Marketing</text>
<text xml:space="preserve" text-anchor="middle" x="844.12" y="-66.5" font-family="Arial" font-size="10.00">Monthly: ₹300K&#45;400K</text>
</g>
<!-- CostStructure&#45;&gt;Team -->
<g id="edge15" class="edge">
<title>CostStructure&#45;&gt;Team</title>
<path fill="none" stroke="black" d="M629.79,-274.21C671.94,-261.61 735.73,-237.85 780.12,-200 796.29,-186.22 809.86,-167.34 820.29,-149.76"/>
<polygon fill="black" stroke="black" points="823.1,-151.91 825.01,-141.49 817.02,-148.44 823.1,-151.91"/>
</g>
<!-- CostStructure&#45;&gt;Financials -->
<g id="edge18" class="edge">
<title>CostStructure&#45;&gt;Financials</title>
<path fill="none" stroke="black" d="M548.12,-272.46C509.05,-258.06 447.39,-232.56 400.12,-200 383.58,-188.6 367.28,-174.37 352.78,-160.29"/>
<polygon fill="black" stroke="black" points="355.56,-158.11 345.99,-153.56 350.63,-163.09 355.56,-158.11"/>
<text xml:space="preserve" text-anchor="middle" x="454.87" y="-219.95" font-family="Arial" font-size="9.00">Costs</text>
</g>
</g>
</svg>
