<?xml version="1.0" encoding="UTF-8" standalone="no"?>
<!DOCTYPE svg PUBLIC "-//W3C//DTD SVG 1.1//EN"
 "http://www.w3.org/Graphics/SVG/1.1/DTD/svg11.dtd">
<!-- Generated by graphviz version 14.0.4 (20251115.1723)
 -->
<!-- Title: DhanaadhyaDataFlow Pages: 1 -->
<svg width="592pt" height="834pt"
 viewBox="0.00 0.00 592.00 834.00" xmlns="http://www.w3.org/2000/svg" xmlns:xlink="http://www.w3.org/1999/xlink">
<g id="graph0" class="graph" transform="scale(1 1) rotate(0) translate(4 829.67)">
<title>DhanaadhyaDataFlow</title>
<polygon fill="white" stroke="none" points="-4,4 -4,-829.67 587.75,-829.67 587.75,4 -4,4"/>
<!-- UserData -->
<g id="node1" class="node">
<title>UserData</title>
<path fill="lightgreen" stroke="black" d="M418.75,-825.67C418.75,-825.67 334.5,-825.67 334.5,-825.67 328.5,-825.67 322.5,-819.67 322.5,-813.67 322.5,-813.67 322.5,-750.92 322.5,-750.92 322.5,-744.92 328.5,-738.92 334.5,-738.92 334.5,-738.92 418.75,-738.92 418.75,-738.92 424.75,-738.92 430.75,-744.92 430.75,-750.92 430.75,-750.92 430.75,-813.67 430.75,-813.67 430.75,-819.67 424.75,-825.67 418.75,-825.67"/>
<text xml:space="preserve" text-anchor="middle" x="376.62" y="-808.37" font-family="Arial" font-size="14.00">User Input</text>
<text xml:space="preserve" text-anchor="middle" x="376.62" y="-792.62" font-family="Arial" font-size="14.00">&#45; Business type</text>
<text xml:space="preserve" text-anchor="middle" x="376.62" y="-776.87" font-family="Arial" font-size="14.00">&#45; Location</text>
<text xml:space="preserve" text-anchor="middle" x="376.62" y="-761.12" font-family="Arial" font-size="14.00">&#45; Capital</text>
<text xml:space="preserve" text-anchor="middle" x="376.62" y="-745.37" font-family="Arial" font-size="14.00">&#45; Decisions</text>
</g>
<!-- TransactionProcessor -->
<g id="node5" class="node">
<title>TransactionProcessor</title>
<ellipse fill="lightpink" stroke="black" cx="234.62" cy="-666.42" rx="61.16" ry="27.93"/>
<text xml:space="preserve" text-anchor="middle" x="234.62" y="-668.87" font-family="Arial" font-size="14.00">Transaction</text>
<text xml:space="preserve" text-anchor="middle" x="234.62" y="-653.12" font-family="Arial" font-size="14.00">Processor</text>
</g>
<!-- UserData&#45;&gt;TransactionProcessor -->
<g id="edge1" class="edge">
<title>UserData&#45;&gt;TransactionProcessor</title>
<path fill="none" stroke="black" d="M323.35,-738.57C306.64,-725.17 288.53,-710.65 273.05,-698.24"/>
<polygon fill="black" stroke="black" points="275.45,-695.68 265.46,-692.15 271.07,-701.14 275.45,-695.68"/>
</g>
<!-- RealData -->
<g id="node2" class="node">
<title>RealData</title>
<path fill="lightblue" stroke="black" d="M135.25,-825.67C135.25,-825.67 12,-825.67 12,-825.67 6,-825.67 0,-819.67 0,-813.67 0,-813.67 0,-750.92 0,-750.92 0,-744.92 6,-738.92 12,-738.92 12,-738.92 135.25,-738.92 135.25,-738.92 141.25,-738.92 147.25,-744.92 147.25,-750.92 147.25,-750.92 147.25,-813.67 147.25,-813.67 147.25,-819.67 141.25,-825.67 135.25,-825.67"/>
<text xml:space="preserve" text-anchor="middle" x="73.62" y="-808.37" font-family="Arial" font-size="14.00">Real Data Sources</text>
<text xml:space="preserve" text-anchor="middle" x="73.62" y="-792.62" font-family="Arial" font-size="14.00">&#45; GST rates (gov.in)</text>
<text xml:space="preserve" text-anchor="middle" x="73.62" y="-776.87" font-family="Arial" font-size="14.00">&#45; Market prices (APIs)</text>
<text xml:space="preserve" text-anchor="middle" x="73.62" y="-761.12" font-family="Arial" font-size="14.00">&#45; Tax rates (IT dept)</text>
<text xml:space="preserve" text-anchor="middle" x="73.62" y="-745.37" font-family="Arial" font-size="14.00">&#45; License costs</text>
</g>
<!-- TaxCalculator -->
<g id="node6" class="node">
<title>TaxCalculator</title>
<ellipse fill="lightpink" stroke="black" cx="367.62" cy="-666.42" rx="54.27" ry="27.93"/>
<text xml:space="preserve" text-anchor="middle" x="367.62" y="-668.87" font-family="Arial" font-size="14.00">Tax</text>
<text xml:space="preserve" text-anchor="middle" x="367.62" y="-653.12" font-family="Arial" font-size="14.00">Calculator</text>
</g>
<!-- RealData&#45;&gt;TaxCalculator -->
<g id="edge2" class="edge">
<title>RealData&#45;&gt;TaxCalculator</title>
<path fill="none" stroke="black" d="M147.47,-742.16C150.2,-741.02 152.93,-739.94 155.62,-738.92 219.48,-714.88 241.06,-726.74 304.62,-701.92 310.73,-699.54 316.98,-696.68 323.06,-693.65"/>
<polygon fill="black" stroke="black" points="324.49,-696.85 331.74,-689.12 321.25,-690.64 324.49,-696.85"/>
</g>
<!-- ForecastEngine -->
<g id="node8" class="node">
<title>ForecastEngine</title>
<ellipse fill="lightpink" stroke="black" cx="194.62" cy="-135.93" rx="48.44" ry="27.93"/>
<text xml:space="preserve" text-anchor="middle" x="194.62" y="-138.38" font-family="Arial" font-size="14.00">Forecast</text>
<text xml:space="preserve" text-anchor="middle" x="194.62" y="-122.63" font-family="Arial" font-size="14.00">Engine</text>
</g>
<!-- RealData&#45;&gt;ForecastEngine -->
<g id="edge3" class="edge">
<title>RealData&#45;&gt;ForecastEngine</title>
<path fill="none" stroke="black" d="M74.18,-738.58C74.41,-717.21 74.62,-690.95 74.62,-667.42 74.62,-667.42 74.62,-667.42 74.62,-244.86 74.62,-204.74 112.17,-175.73 145.25,-157.96"/>
<polygon fill="black" stroke="black" points="146.68,-161.17 153.98,-153.5 143.49,-154.93 146.68,-161.17"/>
</g>
<!-- SimData -->
<g id="node3" class="node">
<title>SimData</title>
<path fill="lightcyan" stroke="black" d="M292.12,-817.8C292.12,-817.8 177.12,-817.8 177.12,-817.8 171.12,-817.8 165.12,-811.8 165.12,-805.8 165.12,-805.8 165.12,-758.8 165.12,-758.8 165.12,-752.8 171.12,-746.8 177.12,-746.8 177.12,-746.8 292.12,-746.8 292.12,-746.8 298.12,-746.8 304.12,-752.8 304.12,-758.8 304.12,-758.8 304.12,-805.8 304.12,-805.8 304.12,-811.8 298.12,-817.8 292.12,-817.8"/>
<text xml:space="preserve" text-anchor="middle" x="234.62" y="-800.5" font-family="Arial" font-size="14.00">Simulation Data</text>
<text xml:space="preserve" text-anchor="middle" x="234.62" y="-784.75" font-family="Arial" font-size="14.00">&#45; Customer behavior</text>
<text xml:space="preserve" text-anchor="middle" x="234.62" y="-769" font-family="Arial" font-size="14.00">&#45; Demand curves</text>
<text xml:space="preserve" text-anchor="middle" x="234.62" y="-753.25" font-family="Arial" font-size="14.00">&#45; Competitor moves</text>
</g>
<!-- SimData&#45;&gt;TransactionProcessor -->
<g id="edge4" class="edge">
<title>SimData&#45;&gt;TransactionProcessor</title>
<path fill="none" stroke="black" d="M234.62,-746.51C234.62,-733.79 234.62,-719.33 234.62,-706.27"/>
<polygon fill="black" stroke="black" points="238.13,-706.29 234.63,-696.29 231.13,-706.29 238.13,-706.29"/>
</g>
<!-- HistoricalData -->
<g id="node4" class="node">
<title>HistoricalData</title>
<path fill="lightyellow" stroke="black" d="M571.75,-701.92C571.75,-701.92 451.5,-701.92 451.5,-701.92 445.5,-701.92 439.5,-695.92 439.5,-689.92 439.5,-689.92 439.5,-642.92 439.5,-642.92 439.5,-636.92 445.5,-630.92 451.5,-630.92 451.5,-630.92 571.75,-630.92 571.75,-630.92 577.75,-630.92 583.75,-636.92 583.75,-642.92 583.75,-642.92 583.75,-689.92 583.75,-689.92 583.75,-695.92 577.75,-701.92 571.75,-701.92"/>
<text xml:space="preserve" text-anchor="middle" x="511.62" y="-684.62" font-family="Arial" font-size="14.00">Historical Data</text>
<text xml:space="preserve" text-anchor="middle" x="511.62" y="-668.87" font-family="Arial" font-size="14.00">&#45; MSME benchmarks</text>
<text xml:space="preserve" text-anchor="middle" x="511.62" y="-653.12" font-family="Arial" font-size="14.00">&#45; Seasonal patterns</text>
<text xml:space="preserve" text-anchor="middle" x="511.62" y="-637.37" font-family="Arial" font-size="14.00">&#45; Cost structures</text>
</g>
<!-- GoalCalculator -->
<g id="node7" class="node">
<title>GoalCalculator</title>
<ellipse fill="lightpink" stroke="black" cx="425.62" cy="-534.28" rx="54.27" ry="27.93"/>
<text xml:space="preserve" text-anchor="middle" x="425.62" y="-536.73" font-family="Arial" font-size="14.00">Goal</text>
<text xml:space="preserve" text-anchor="middle" x="425.62" y="-520.98" font-family="Arial" font-size="14.00">Calculator</text>
</g>
<!-- HistoricalData&#45;&gt;GoalCalculator -->
<g id="edge5" class="edge">
<title>HistoricalData&#45;&gt;GoalCalculator</title>
<path fill="none" stroke="black" d="M488.58,-630.55C476.35,-612.04 461.35,-589.34 449.06,-570.75"/>
<polygon fill="black" stroke="black" points="452,-568.84 443.56,-562.43 446.16,-572.7 452,-568.84"/>
</g>
<!-- RecommendationEngine -->
<g id="node9" class="node">
<title>RecommendationEngine</title>
<ellipse fill="lightpink" stroke="black" cx="356.62" cy="-135.93" rx="87.15" ry="27.93"/>
<text xml:space="preserve" text-anchor="middle" x="356.62" y="-138.38" font-family="Arial" font-size="14.00">Recommendation</text>
<text xml:space="preserve" text-anchor="middle" x="356.62" y="-122.63" font-family="Arial" font-size="14.00">Engine</text>
</g>
<!-- HistoricalData&#45;&gt;RecommendationEngine -->
<g id="edge6" class="edge">
<title>HistoricalData&#45;&gt;RecommendationEngine</title>
<path fill="none" stroke="black" d="M511.62,-630.62C511.62,-604.41 511.62,-567.59 511.62,-535.28 511.62,-535.28 511.62,-535.28 511.62,-244.86 511.62,-202.42 472,-175.3 432.82,-158.87"/>
<polygon fill="black" stroke="black" points="434.35,-155.71 423.77,-155.27 431.77,-162.21 434.35,-155.71"/>
</g>
<!-- BusinessState -->
<g id="node10" class="node">
<title>BusinessState</title>
<path fill="gold" stroke="black" d="M338.88,-583.08C338.88,-589.06 310.08,-593.92 274.62,-593.92 239.17,-593.92 210.38,-589.06 210.38,-583.08 210.38,-583.08 210.38,-485.49 210.38,-485.49 210.38,-479.5 239.17,-474.64 274.62,-474.64 310.08,-474.64 338.88,-479.5 338.88,-485.49 338.88,-485.49 338.88,-583.08 338.88,-583.08"/>
<path fill="none" stroke="black" d="M338.88,-583.08C338.88,-577.1 310.08,-572.24 274.62,-572.24 239.17,-572.24 210.38,-577.1 210.38,-583.08"/>
<text xml:space="preserve" text-anchor="middle" x="274.62" y="-560.36" font-family="Arial" font-size="14.00">Business State DB</text>
<text xml:space="preserve" text-anchor="middle" x="274.62" y="-544.61" font-family="Arial" font-size="14.00">&#45; Daily metrics</text>
<text xml:space="preserve" text-anchor="middle" x="274.62" y="-528.86" font-family="Arial" font-size="14.00">&#45; Inventory levels</text>
<text xml:space="preserve" text-anchor="middle" x="274.62" y="-513.11" font-family="Arial" font-size="14.00">&#45; Customer list</text>
<text xml:space="preserve" text-anchor="middle" x="274.62" y="-497.36" font-family="Arial" font-size="14.00">&#45; Transactions</text>
</g>
<!-- TransactionProcessor&#45;&gt;BusinessState -->
<g id="edge7" class="edge">
<title>TransactionProcessor&#45;&gt;BusinessState</title>
<path fill="none" stroke="black" d="M242.91,-638.46C245.93,-628.65 249.49,-617.07 253.12,-605.27"/>
<polygon fill="black" stroke="black" points="256.41,-606.44 256.01,-595.86 249.72,-604.39 256.41,-606.44"/>
</g>
<!-- TaxCalculator&#45;&gt;BusinessState -->
<g id="edge8" class="edge">
<title>TaxCalculator&#45;&gt;BusinessState</title>
<path fill="none" stroke="black" d="M349.25,-639.71C341.51,-628.88 332.1,-615.71 322.61,-602.43"/>
<polygon fill="black" stroke="black" points="325.59,-600.58 316.93,-594.48 319.89,-604.65 325.59,-600.58"/>
</g>
<!-- UserProgress -->
<g id="node11" class="node">
<title>UserProgress</title>
<path fill="gold" stroke="black" d="M483,-426.8C483,-432.78 455.04,-437.64 420.62,-437.64 386.21,-437.64 358.25,-432.78 358.25,-426.8 358.25,-426.8 358.25,-329.21 358.25,-329.21 358.25,-323.22 386.21,-318.36 420.62,-318.36 455.04,-318.36 483,-323.22 483,-329.21 483,-329.21 483,-426.8 483,-426.8"/>
<path fill="none" stroke="black" d="M483,-426.8C483,-420.82 455.04,-415.96 420.62,-415.96 386.21,-415.96 358.25,-420.82 358.25,-426.8"/>
<text xml:space="preserve" text-anchor="middle" x="420.62" y="-404.08" font-family="Arial" font-size="14.00">User Progress DB</text>
<text xml:space="preserve" text-anchor="middle" x="420.62" y="-388.33" font-family="Arial" font-size="14.00">&#45; Goals</text>
<text xml:space="preserve" text-anchor="middle" x="420.62" y="-372.58" font-family="Arial" font-size="14.00">&#45; Achievements</text>
<text xml:space="preserve" text-anchor="middle" x="420.62" y="-356.83" font-family="Arial" font-size="14.00">&#45; Focus status</text>
<text xml:space="preserve" text-anchor="middle" x="420.62" y="-341.08" font-family="Arial" font-size="14.00">&#45; Analytics</text>
</g>
<!-- GoalCalculator&#45;&gt;UserProgress -->
<g id="edge9" class="edge">
<title>GoalCalculator&#45;&gt;UserProgress</title>
<path fill="none" stroke="black" d="M424.74,-506.06C424.23,-490.22 423.56,-469.46 422.9,-449.33"/>
<polygon fill="black" stroke="black" points="426.41,-449.31 422.58,-439.43 419.41,-449.54 426.41,-449.31"/>
</g>
<!-- DashboardData -->
<g id="node12" class="node">
<title>DashboardData</title>
<polygon fill="lightcyan" stroke="black" points="260.75,-421.38 150.5,-421.38 146.5,-417.38 146.5,-334.63 256.75,-334.63 260.75,-338.63 260.75,-421.38"/>
<polyline fill="none" stroke="black" points="256.75,-417.38 146.5,-417.38"/>
<polyline fill="none" stroke="black" points="256.75,-417.38 256.75,-334.63"/>
<polyline fill="none" stroke="black" points="256.75,-417.38 260.75,-421.38"/>
<text xml:space="preserve" text-anchor="middle" x="203.62" y="-404.08" font-family="Arial" font-size="14.00">Dashboard Data</text>
<text xml:space="preserve" text-anchor="middle" x="203.62" y="-388.33" font-family="Arial" font-size="14.00">&#45; KPIs</text>
<text xml:space="preserve" text-anchor="middle" x="203.62" y="-372.58" font-family="Arial" font-size="14.00">&#45; Health score</text>
<text xml:space="preserve" text-anchor="middle" x="203.62" y="-356.83" font-family="Arial" font-size="14.00">&#45; Alerts</text>
<text xml:space="preserve" text-anchor="middle" x="203.62" y="-341.08" font-family="Arial" font-size="14.00">&#45; Forecasts</text>
</g>
<!-- ForecastEngine&#45;&gt;DashboardData -->
<g id="edge15" class="edge">
<title>ForecastEngine&#45;&gt;DashboardData</title>
<path fill="none" stroke="black" d="M190.5,-164.06C188.6,-177.88 186.56,-194.98 185.62,-210.36 183.7,-241.86 182.69,-249.94 185.62,-281.36 186.9,-295.03 189.18,-309.66 191.7,-323.26"/>
<polygon fill="black" stroke="black" points="188.23,-323.75 193.56,-332.91 195.1,-322.42 188.23,-323.75"/>
</g>
<!-- ReportData -->
<g id="node14" class="node">
<title>ReportData</title>
<polygon fill="lightcyan" stroke="black" points="425.75,-71 291.5,-71 287.5,-67 287.5,0 421.75,0 425.75,-4 425.75,-71"/>
<polyline fill="none" stroke="black" points="421.75,-67 287.5,-67"/>
<polyline fill="none" stroke="black" points="421.75,-67 421.75,0"/>
<polyline fill="none" stroke="black" points="421.75,-67 425.75,-71"/>
<text xml:space="preserve" text-anchor="middle" x="356.62" y="-53.7" font-family="Arial" font-size="14.00">Report Data</text>
<text xml:space="preserve" text-anchor="middle" x="356.62" y="-37.95" font-family="Arial" font-size="14.00">&#45; Goals progress</text>
<text xml:space="preserve" text-anchor="middle" x="356.62" y="-22.2" font-family="Arial" font-size="14.00">&#45; Achievements</text>
<text xml:space="preserve" text-anchor="middle" x="356.62" y="-6.45" font-family="Arial" font-size="14.00">&#45; Recommendations</text>
</g>
<!-- RecommendationEngine&#45;&gt;ReportData -->
<g id="edge16" class="edge">
<title>RecommendationEngine&#45;&gt;ReportData</title>
<path fill="none" stroke="black" d="M356.62,-107.51C356.62,-99.77 356.62,-91.12 356.62,-82.6"/>
<polygon fill="black" stroke="black" points="360.13,-82.67 356.63,-72.67 353.13,-82.67 360.13,-82.67"/>
</g>
<!-- BusinessState&#45;&gt;DashboardData -->
<g id="edge10" class="edge">
<title>BusinessState&#45;&gt;DashboardData</title>
<path fill="none" stroke="black" d="M247.58,-474.52C241.15,-460.54 234.32,-445.7 228.01,-432"/>
<polygon fill="black" stroke="black" points="231.3,-430.77 223.94,-423.15 224.94,-433.7 231.3,-430.77"/>
</g>
<!-- FocusData -->
<g id="node13" class="node">
<title>FocusData</title>
<polygon fill="lightcyan" stroke="black" points="445.25,-281.36 338,-281.36 334,-277.36 334,-210.36 441.25,-210.36 445.25,-214.36 445.25,-281.36"/>
<polyline fill="none" stroke="black" points="441.25,-277.36 334,-277.36"/>
<polyline fill="none" stroke="black" points="441.25,-277.36 441.25,-210.36"/>
<polyline fill="none" stroke="black" points="441.25,-277.36 445.25,-281.36"/>
<text xml:space="preserve" text-anchor="middle" x="389.62" y="-264.06" font-family="Arial" font-size="14.00">Focus Data</text>
<text xml:space="preserve" text-anchor="middle" x="389.62" y="-248.31" font-family="Arial" font-size="14.00">&#45; Daily priorities</text>
<text xml:space="preserve" text-anchor="middle" x="389.62" y="-232.56" font-family="Arial" font-size="14.00">&#45; Weekly review</text>
<text xml:space="preserve" text-anchor="middle" x="389.62" y="-216.81" font-family="Arial" font-size="14.00">&#45; Nudges</text>
</g>
<!-- BusinessState&#45;&gt;FocusData -->
<g id="edge11" class="edge">
<title>BusinessState&#45;&gt;FocusData</title>
<path fill="none" stroke="black" d="M292.15,-474.29C305.89,-430.49 326.51,-369.72 349.62,-318.36 353.61,-309.5 358.32,-300.29 363.07,-291.53"/>
<polygon fill="black" stroke="black" points="366.11,-293.27 367.91,-282.83 359.99,-289.87 366.11,-293.27"/>
</g>
<!-- BusinessState&#45;&gt;ReportData -->
<g id="edge12" class="edge">
<title>BusinessState&#45;&gt;ReportData</title>
<path fill="none" stroke="black" d="M209.95,-500.25C184.32,-484.36 156.53,-463.17 137.62,-437.64 121.32,-415.62 118.62,-406.4 118.62,-379 118.62,-379 118.62,-379 118.62,-134.93 118.62,-65.26 206.81,-43.93 275.82,-37.91"/>
<polygon fill="black" stroke="black" points="275.93,-41.42 285.64,-37.16 275.4,-34.44 275.93,-41.42"/>
</g>
<!-- AnalyticsData -->
<g id="node15" class="node">
<title>AnalyticsData</title>
<polygon fill="lightcyan" stroke="black" points="316.12,-281.36 199.12,-281.36 195.12,-277.36 195.12,-210.36 312.12,-210.36 316.12,-214.36 316.12,-281.36"/>
<polyline fill="none" stroke="black" points="312.12,-277.36 195.12,-277.36"/>
<polyline fill="none" stroke="black" points="312.12,-277.36 312.12,-210.36"/>
<polyline fill="none" stroke="black" points="312.12,-277.36 316.12,-281.36"/>
<text xml:space="preserve" text-anchor="middle" x="255.62" y="-264.06" font-family="Arial" font-size="14.00">Analytics Data</text>
<text xml:space="preserve" text-anchor="middle" x="255.62" y="-248.31" font-family="Arial" font-size="14.00">&#45; User behavior</text>
<text xml:space="preserve" text-anchor="middle" x="255.62" y="-232.56" font-family="Arial" font-size="14.00">&#45; Engagement</text>
<text xml:space="preserve" text-anchor="middle" x="255.62" y="-216.81" font-family="Arial" font-size="14.00">&#45; Learning impact</text>
</g>
<!-- BusinessState&#45;&gt;AnalyticsData -->
<g id="edge17" class="edge">
<title>BusinessState&#45;&gt;AnalyticsData</title>
<path fill="none" stroke="black" d="M275.95,-474.27C276.26,-430.99 275.33,-370.86 269.62,-318.36 268.72,-310.06 267.35,-301.29 265.82,-292.84"/>
<polygon fill="black" stroke="black" points="269.27,-292.24 263.94,-283.08 262.4,-293.56 269.27,-292.24"/>
</g>
<!-- UserProgress&#45;&gt;FocusData -->
<g id="edge14" class="edge">
<title>UserProgress&#45;&gt;FocusData</title>
<path fill="none" stroke="black" d="M406.58,-318.02C404.57,-309.61 402.54,-301.07 400.6,-292.95"/>
<polygon fill="black" stroke="black" points="404.03,-292.21 398.3,-283.29 397.22,-293.83 404.03,-292.21"/>
</g>
<!-- UserProgress&#45;&gt;ReportData -->
<g id="edge13" class="edge">
<title>UserProgress&#45;&gt;ReportData</title>
<path fill="none" stroke="black" d="M446.05,-317.97C466.46,-261.06 486.62,-174.08 452.62,-108 446.89,-96.85 438.53,-86.99 429.09,-78.42"/>
<polygon fill="black" stroke="black" points="431.62,-75.97 421.72,-72.2 427.11,-81.33 431.62,-75.97"/>
</g>
<!-- UserProgress&#45;&gt;AnalyticsData -->
<g id="edge18" class="edge">
<title>UserProgress&#45;&gt;AnalyticsData</title>
<path fill="none" stroke="black" d="M357.77,-327.43C341.64,-314.7 324.43,-301.13 308.83,-288.83"/>
<polygon fill="black" stroke="black" points="311.06,-286.13 301.04,-282.68 306.72,-291.62 311.06,-286.13"/>
</g>
<!-- DashboardData&#45;&gt;AnalyticsData -->
<g id="edge19" class="edge">
<title>DashboardData&#45;&gt;AnalyticsData</title>
<path fill="none" stroke="black" d="M220.65,-334.39C226.03,-320.94 231.99,-306.02 237.44,-292.37"/>
<polygon fill="black" stroke="black" points="240.66,-293.74 241.12,-283.16 234.16,-291.15 240.66,-293.74"/>
</g>
<!-- AnalyticsData&#45;&gt;ForecastEngine -->
<g id="edge21" class="edge">
<title>AnalyticsData&#45;&gt;ForecastEngine</title>
<path fill="none" stroke="black" d="M235.99,-210.12C229.19,-198.08 221.55,-184.58 214.72,-172.48"/>
<polygon fill="black" stroke="black" points="217.91,-171.01 209.94,-164.03 211.81,-174.45 217.91,-171.01"/>
<text xml:space="preserve" text-anchor="middle" x="262.62" y="-183.81" font-family="Arial" font-size="9.00">Model Refinement</text>
</g>
<!-- AnalyticsData&#45;&gt;RecommendationEngine -->
<g id="edge20" class="edge">
<title>AnalyticsData&#45;&gt;RecommendationEngine</title>
<path fill="none" stroke="black" d="M288.14,-210.12C299.76,-197.7 312.84,-183.72 324.43,-171.33"/>
<polygon fill="black" stroke="black" points="326.87,-173.85 331.15,-164.15 321.76,-169.06 326.87,-173.85"/>
<text xml:space="preserve" text-anchor="middle" x="344.05" y="-183.81" font-family="Arial" font-size="9.00">Personalization</text>
</g>
</g>
</svg>
