<?xml version="1.0" encoding="UTF-8" standalone="no"?>
<!DOCTYPE svg PUBLIC "-//W3C//DTD SVG 1.1//EN"
 "http://www.w3.org/Graphics/SVG/1.1/DTD/svg11.dtd">
<!-- Generated by graphviz version 14.0.4 (20251115.1723)
 -->
<!-- Title: DhanaadhyaArchitectureOverview Pages: 1 -->
<svg width="944pt" height="574pt"
 viewBox="0.00 0.00 944.00 574.00" xmlns="http://www.w3.org/2000/svg" xmlns:xlink="http://www.w3.org/1999/xlink">
<g id="graph0" class="graph" transform="scale(1 1) rotate(0) translate(4 569.75)">
<title>DhanaadhyaArchitectureOverview</title>
<polygon fill="white" stroke="none" points="-4,4 -4,-569.75 940.18,-569.75 940.18,4 -4,4"/>
<!-- Overview -->
<g id="node1" class="node">
<title>Overview</title>
<ellipse fill="lightblue" stroke="black" cx="86.09" cy="-307.25" rx="86.09" ry="39.07"/>
<text xml:space="preserve" text-anchor="middle" x="86.09" y="-317.57" font-family="Arial" font-size="14.00">DHANAADHYA</text>
<text xml:space="preserve" text-anchor="middle" x="86.09" y="-301.82" font-family="Arial" font-size="14.00">ARCHITECTURE</text>
<text xml:space="preserve" text-anchor="middle" x="86.09" y="-286.07" font-family="Arial" font-size="14.00">DIAGRAMS</text>
</g>
<!-- SystemFlow -->
<g id="node2" class="node">
<title>SystemFlow</title>
<path fill="lightgreen" stroke="black" d="M306.93,-469.75C306.93,-469.75 227.18,-469.75 227.18,-469.75 221.18,-469.75 215.18,-463.75 215.18,-457.75 215.18,-457.75 215.18,-366.75 215.18,-366.75 215.18,-360.75 221.18,-354.75 227.18,-354.75 227.18,-354.75 306.93,-354.75 306.93,-354.75 312.93,-354.75 318.93,-360.75 318.93,-366.75 318.93,-366.75 318.93,-457.75 318.93,-457.75 318.93,-463.75 312.93,-469.75 306.93,-469.75"/>
<text xml:space="preserve" text-anchor="middle" x="267.06" y="-455.3" font-family="Arial" font-size="11.00">1. System Flow</text>
<text xml:space="preserve" text-anchor="middle" x="267.06" y="-441.8" font-family="Arial" font-size="11.00">&amp; Modules</text>
<text xml:space="preserve" text-anchor="middle" x="267.06" y="-415.3" font-family="Arial" font-size="11.00">What: Component</text>
<text xml:space="preserve" text-anchor="middle" x="267.06" y="-401.8" font-family="Arial" font-size="11.00">interactions</text>
<text xml:space="preserve" text-anchor="middle" x="267.06" y="-375.3" font-family="Arial" font-size="11.00">Who: Engineers,</text>
<text xml:space="preserve" text-anchor="middle" x="267.06" y="-361.8" font-family="Arial" font-size="11.00">Product</text>
</g>
<!-- Overview&#45;&gt;SystemFlow -->
<g id="edge1" class="edge">
<title>Overview&#45;&gt;SystemFlow</title>
<path fill="none" stroke="black" d="M139.82,-338.19C160.29,-350.2 183.87,-364.03 205.07,-376.47"/>
<polygon fill="black" stroke="black" points="203.23,-379.45 213.63,-381.49 206.78,-373.41 203.23,-379.45"/>
</g>
<!-- DataFlow -->
<g id="node3" class="node">
<title>DataFlow</title>
<path fill="lightgreen" stroke="black" d="M495.81,-507.75C495.81,-507.75 428.06,-507.75 428.06,-507.75 422.06,-507.75 416.06,-501.75 416.06,-495.75 416.06,-495.75 416.06,-404.75 416.06,-404.75 416.06,-398.75 422.06,-392.75 428.06,-392.75 428.06,-392.75 495.81,-392.75 495.81,-392.75 501.81,-392.75 507.81,-398.75 507.81,-404.75 507.81,-404.75 507.81,-495.75 507.81,-495.75 507.81,-501.75 501.81,-507.75 495.81,-507.75"/>
<text xml:space="preserve" text-anchor="middle" x="461.93" y="-493.3" font-family="Arial" font-size="11.00">2. Data Flow</text>
<text xml:space="preserve" text-anchor="middle" x="461.93" y="-479.8" font-family="Arial" font-size="11.00">Pipeline</text>
<text xml:space="preserve" text-anchor="middle" x="461.93" y="-453.3" font-family="Arial" font-size="11.00">What: Data</text>
<text xml:space="preserve" text-anchor="middle" x="461.93" y="-439.8" font-family="Arial" font-size="11.00">processing</text>
<text xml:space="preserve" text-anchor="middle" x="461.93" y="-413.3" font-family="Arial" font-size="11.00">Who: Data eng,</text>
<text xml:space="preserve" text-anchor="middle" x="461.93" y="-399.8" font-family="Arial" font-size="11.00">Backend</text>
</g>
<!-- Overview&#45;&gt;DataFlow -->
<g id="edge2" class="edge">
<title>Overview&#45;&gt;DataFlow</title>
<path fill="none" stroke="black" d="M101.89,-346.11C120.08,-387.7 155.33,-451.44 209.18,-479.25 270.8,-511.08 351.99,-492.71 405.29,-473.9"/>
<polygon fill="black" stroke="black" points="406.28,-477.26 414.47,-470.54 403.87,-470.69 406.28,-477.26"/>
</g>
<!-- FeatureGaps -->
<g id="node4" class="node">
<title>FeatureGaps</title>
<path fill="lightcoral" stroke="black" d="M511.18,-259.75C511.18,-259.75 412.68,-259.75 412.68,-259.75 406.68,-259.75 400.68,-253.75 400.68,-247.75 400.68,-247.75 400.68,-156.75 400.68,-156.75 400.68,-150.75 406.68,-144.75 412.68,-144.75 412.68,-144.75 511.18,-144.75 511.18,-144.75 517.18,-144.75 523.18,-150.75 523.18,-156.75 523.18,-156.75 523.18,-247.75 523.18,-247.75 523.18,-253.75 517.18,-259.75 511.18,-259.75"/>
<text xml:space="preserve" text-anchor="middle" x="461.93" y="-245.3" font-family="Arial" font-size="11.00">3. Feature Gaps</text>
<text xml:space="preserve" text-anchor="middle" x="461.93" y="-231.8" font-family="Arial" font-size="11.00">&amp; Coverage</text>
<text xml:space="preserve" text-anchor="middle" x="461.93" y="-205.3" font-family="Arial" font-size="11.00">What: What&#39;s missing,</text>
<text xml:space="preserve" text-anchor="middle" x="461.93" y="-191.8" font-family="Arial" font-size="11.00">priorities</text>
<text xml:space="preserve" text-anchor="middle" x="461.93" y="-165.3" font-family="Arial" font-size="11.00">Who: Product,</text>
<text xml:space="preserve" text-anchor="middle" x="461.93" y="-151.8" font-family="Arial" font-size="11.00">Leadership</text>
</g>
<!-- Overview&#45;&gt;FeatureGaps -->
<g id="edge3" class="edge">
<title>Overview&#45;&gt;FeatureGaps</title>
<path fill="none" stroke="black" d="M156.54,-284.5C167.76,-280.97 179.27,-277.44 190.18,-274.25 257.32,-254.59 334.49,-234.29 389.22,-220.28"/>
<polygon fill="black" stroke="black" points="389.91,-223.72 398.74,-217.85 388.18,-216.93 389.91,-223.72"/>
</g>
<!-- UserJourney -->
<g id="node5" class="node">
<title>UserJourney</title>
<path fill="lightgreen" stroke="black" d="M312.93,-221.75C312.93,-221.75 221.18,-221.75 221.18,-221.75 215.18,-221.75 209.18,-215.75 209.18,-209.75 209.18,-209.75 209.18,-118.75 209.18,-118.75 209.18,-112.75 215.18,-106.75 221.18,-106.75 221.18,-106.75 312.93,-106.75 312.93,-106.75 318.93,-106.75 324.93,-112.75 324.93,-118.75 324.93,-118.75 324.93,-209.75 324.93,-209.75 324.93,-215.75 318.93,-221.75 312.93,-221.75"/>
<text xml:space="preserve" text-anchor="middle" x="267.06" y="-207.3" font-family="Arial" font-size="11.00">4. User Journey</text>
<text xml:space="preserve" text-anchor="middle" x="267.06" y="-193.8" font-family="Arial" font-size="11.00">&amp; Experience</text>
<text xml:space="preserve" text-anchor="middle" x="267.06" y="-167.3" font-family="Arial" font-size="11.00">What: Full user path,</text>
<text xml:space="preserve" text-anchor="middle" x="267.06" y="-153.8" font-family="Arial" font-size="11.00">engagement loops</text>
<text xml:space="preserve" text-anchor="middle" x="267.06" y="-127.3" font-family="Arial" font-size="11.00">Who: UX/Design,</text>
<text xml:space="preserve" text-anchor="middle" x="267.06" y="-113.8" font-family="Arial" font-size="11.00">Product</text>
</g>
<!-- Overview&#45;&gt;UserJourney -->
<g id="edge4" class="edge">
<title>Overview&#45;&gt;UserJourney</title>
<path fill="none" stroke="black" d="M129.5,-273.36C150.49,-256.59 176.31,-235.96 199.83,-217.17"/>
<polygon fill="black" stroke="black" points="201.9,-219.99 207.53,-211.01 197.53,-214.52 201.9,-219.99"/>
</g>
<!-- TechArch -->
<g id="node6" class="node">
<title>TechArch</title>
<path fill="lightgreen" stroke="black" d="M739.43,-565.75C739.43,-565.75 621.43,-565.75 621.43,-565.75 615.43,-565.75 609.43,-559.75 609.43,-553.75 609.43,-553.75 609.43,-462.75 609.43,-462.75 609.43,-456.75 615.43,-450.75 621.43,-450.75 621.43,-450.75 739.43,-450.75 739.43,-450.75 745.43,-450.75 751.43,-456.75 751.43,-462.75 751.43,-462.75 751.43,-553.75 751.43,-553.75 751.43,-559.75 745.43,-565.75 739.43,-565.75"/>
<text xml:space="preserve" text-anchor="middle" x="680.43" y="-551.3" font-family="Arial" font-size="11.00">5. Technical</text>
<text xml:space="preserve" text-anchor="middle" x="680.43" y="-537.8" font-family="Arial" font-size="11.00">Architecture</text>
<text xml:space="preserve" text-anchor="middle" x="680.43" y="-511.3" font-family="Arial" font-size="11.00">What: Frontend, Backend,</text>
<text xml:space="preserve" text-anchor="middle" x="680.43" y="-497.8" font-family="Arial" font-size="11.00">Infra, APIs</text>
<text xml:space="preserve" text-anchor="middle" x="680.43" y="-471.3" font-family="Arial" font-size="11.00">Who: Devops,</text>
<text xml:space="preserve" text-anchor="middle" x="680.43" y="-457.8" font-family="Arial" font-size="11.00">CTO</text>
</g>
<!-- Overview&#45;&gt;TechArch -->
<g id="edge5" class="edge">
<title>Overview&#45;&gt;TechArch</title>
<path fill="none" stroke="black" d="M97.6,-346.08C112.97,-393.93 146.8,-472.53 209.18,-502.25 334.32,-561.87 500.31,-545.05 597.92,-526.96"/>
<polygon fill="black" stroke="black" points="598.53,-530.4 607.7,-525.09 597.22,-523.53 598.53,-530.4"/>
</g>
<!-- GapDeps -->
<g id="node7" class="node">
<title>GapDeps</title>
<path fill="lightcoral" stroke="black" d="M735.31,-297.75C735.31,-297.75 625.56,-297.75 625.56,-297.75 619.56,-297.75 613.56,-291.75 613.56,-285.75 613.56,-285.75 613.56,-194.75 613.56,-194.75 613.56,-188.75 619.56,-182.75 625.56,-182.75 625.56,-182.75 735.31,-182.75 735.31,-182.75 741.31,-182.75 747.31,-188.75 747.31,-194.75 747.31,-194.75 747.31,-285.75 747.31,-285.75 747.31,-291.75 741.31,-297.75 735.31,-297.75"/>
<text xml:space="preserve" text-anchor="middle" x="680.43" y="-283.3" font-family="Arial" font-size="11.00">6. Gap Dependencies</text>
<text xml:space="preserve" text-anchor="middle" x="680.43" y="-269.8" font-family="Arial" font-size="11.00">&amp; Priorities</text>
<text xml:space="preserve" text-anchor="middle" x="680.43" y="-243.3" font-family="Arial" font-size="11.00">What: What to build first,</text>
<text xml:space="preserve" text-anchor="middle" x="680.43" y="-229.8" font-family="Arial" font-size="11.00">dependencies</text>
<text xml:space="preserve" text-anchor="middle" x="680.43" y="-203.3" font-family="Arial" font-size="11.00">Who: PM,</text>
<text xml:space="preserve" text-anchor="middle" x="680.43" y="-189.8" font-family="Arial" font-size="11.00">Engineering</text>
</g>
<!-- Overview&#45;&gt;GapDeps -->
<g id="edge6" class="edge">
<title>Overview&#45;&gt;GapDeps</title>
<path fill="none" stroke="black" d="M171.77,-302.3C259.84,-296.59 401.57,-285.8 523.18,-269.25 548.9,-265.75 576.82,-260.91 601.85,-256.18"/>
<polygon fill="black" stroke="black" points="602.48,-259.62 611.65,-254.3 601.17,-252.75 602.48,-259.62"/>
</g>
<!-- BusinessModel -->
<g id="node8" class="node">
<title>BusinessModel</title>
<path fill="gold" stroke="black" d="M924.18,-383.75C924.18,-383.75 823.43,-383.75 823.43,-383.75 817.43,-383.75 811.43,-377.75 811.43,-371.75 811.43,-371.75 811.43,-280.75 811.43,-280.75 811.43,-274.75 817.43,-268.75 823.43,-268.75 823.43,-268.75 924.18,-268.75 924.18,-268.75 930.18,-268.75 936.18,-274.75 936.18,-280.75 936.18,-280.75 936.18,-371.75 936.18,-371.75 936.18,-377.75 930.18,-383.75 924.18,-383.75"/>
<text xml:space="preserve" text-anchor="middle" x="873.81" y="-369.3" font-family="Arial" font-size="11.00">7. Business Model</text>
<text xml:space="preserve" text-anchor="middle" x="873.81" y="-355.8" font-family="Arial" font-size="11.00">&amp; Financials</text>
<text xml:space="preserve" text-anchor="middle" x="873.81" y="-329.3" font-family="Arial" font-size="11.00">What: Revenue, costs,</text>
<text xml:space="preserve" text-anchor="middle" x="873.81" y="-315.8" font-family="Arial" font-size="11.00">projections</text>
<text xml:space="preserve" text-anchor="middle" x="873.81" y="-289.3" font-family="Arial" font-size="11.00">Who: Leadership,</text>
<text xml:space="preserve" text-anchor="middle" x="873.81" y="-275.8" font-family="Arial" font-size="11.00">Investors</text>
</g>
<!-- Overview&#45;&gt;BusinessModel -->
<g id="edge7" class="edge">
<title>Overview&#45;&gt;BusinessModel</title>
<path fill="none" stroke="black" d="M167.97,-319.5C198.62,-323.17 233.87,-326.25 266.06,-326.25 266.06,-326.25 266.06,-326.25 681.43,-326.25 720.55,-326.25 764.18,-326.25 799.88,-326.25"/>
<polygon fill="black" stroke="black" points="799.67,-329.75 809.67,-326.25 799.67,-322.75 799.67,-329.75"/>
</g>
<!-- Usage -->
<g id="node9" class="node">
<title>Usage</title>
<polygon fill="lightyellow" stroke="black" points="319.31,-88.5 214.81,-88.5 214.81,0 319.31,0 319.31,-88.5"/>
<text xml:space="preserve" text-anchor="middle" x="267.06" y="-74.05" font-family="Arial" font-size="11.00">USAGE</text>
<text xml:space="preserve" text-anchor="middle" x="267.06" y="-47.55" font-family="Arial" font-size="11.00">Pitch: 7 + 1</text>
<text xml:space="preserve" text-anchor="middle" x="267.06" y="-34.05" font-family="Arial" font-size="11.00">Engineering: 5 + 2</text>
<text xml:space="preserve" text-anchor="middle" x="267.06" y="-20.55" font-family="Arial" font-size="11.00">Product: 3 + 6</text>
<text xml:space="preserve" text-anchor="middle" x="267.06" y="-7.05" font-family="Arial" font-size="11.00">Design: 4 + 1</text>
</g>
<!-- Overview&#45;&gt;Usage -->
<g id="edge14" class="edge">
<title>Overview&#45;&gt;Usage</title>
<path fill="none" stroke="black" d="M105.17,-268.71C125.67,-226.94 161.67,-159.04 209.29,-97.76"/>
<polygon fill="black" stroke="black" points="212,-99.97 215.46,-89.96 206.51,-95.63 212,-99.97"/>
</g>
<!-- SystemFlow&#45;&gt;DataFlow -->
<g id="edge8" class="edge">
<title>SystemFlow&#45;&gt;DataFlow</title>
<path fill="none" stroke="black" d="M319.24,-422.33C345.5,-427.51 377.57,-433.83 404.54,-439.14"/>
<polygon fill="black" stroke="black" points="403.79,-442.56 414.28,-441.06 405.14,-435.69 403.79,-442.56"/>
<text xml:space="preserve" text-anchor="middle" x="362.81" y="-437.15" font-family="Arial" font-size="10.00">explains</text>
</g>
<!-- SystemFlow&#45;&gt;BusinessModel -->
<g id="edge13" class="edge">
<title>SystemFlow&#45;&gt;BusinessModel</title>
<path fill="none" stroke="black" d="M319.17,-400.25C343.72,-394.8 373.61,-388.61 400.68,-384.25 574.09,-356.3 619.58,-365.29 793.43,-340.25 795.61,-339.94 797.83,-339.61 800.06,-339.27"/>
<polygon fill="black" stroke="black" points="800.51,-342.74 809.84,-337.72 799.42,-335.83 800.51,-342.74"/>
<text xml:space="preserve" text-anchor="middle" x="566.31" y="-368.31" font-family="Arial" font-size="10.00">delivers</text>
</g>
<!-- DataFlow&#45;&gt;TechArch -->
<g id="edge9" class="edge">
<title>DataFlow&#45;&gt;TechArch</title>
<path fill="none" stroke="black" d="M508.05,-462.34C534.1,-469.32 567.64,-478.3 598.14,-486.47"/>
<polygon fill="black" stroke="black" points="597.19,-489.84 607.75,-489.05 599,-483.08 597.19,-489.84"/>
<text xml:space="preserve" text-anchor="middle" x="566.31" y="-486.94" font-family="Arial" font-size="10.00">implements</text>
</g>
<!-- FeatureGaps&#45;&gt;GapDeps -->
<g id="edge11" class="edge">
<title>FeatureGaps&#45;&gt;GapDeps</title>
<path fill="none" stroke="black" d="M523.53,-212.89C547.83,-217.15 576.13,-222.12 601.9,-226.64"/>
<polygon fill="black" stroke="black" points="601.21,-230.07 611.66,-228.36 602.42,-223.18 601.21,-230.07"/>
<text xml:space="preserve" text-anchor="middle" x="566.31" y="-227.15" font-family="Arial" font-size="10.00">prioritizes</text>
</g>
<!-- UserJourney&#45;&gt;FeatureGaps -->
<g id="edge10" class="edge">
<title>UserJourney&#45;&gt;FeatureGaps</title>
<path fill="none" stroke="black" d="M325.4,-175.55C345.45,-179.5 368.21,-183.98 389.28,-188.13"/>
<polygon fill="black" stroke="black" points="388.48,-191.54 398.97,-190.04 389.83,-184.68 388.48,-191.54"/>
<text xml:space="preserve" text-anchor="middle" x="362.81" y="-189.15" font-family="Arial" font-size="10.00">uncovers</text>
</g>
<!-- GapDeps&#45;&gt;BusinessModel -->
<g id="edge12" class="edge">
<title>GapDeps&#45;&gt;BusinessModel</title>
<path fill="none" stroke="black" d="M747.56,-269.97C764.81,-277.72 783.48,-286.11 801.01,-293.99"/>
<polygon fill="black" stroke="black" points="799.24,-297.03 809.8,-297.94 802.11,-290.64 799.24,-297.03"/>
<text xml:space="preserve" text-anchor="middle" x="781.43" y="-290.9" font-family="Arial" font-size="10.00">funds</text>
</g>
</g>
</svg>
