<?xml version="1.0" encoding="UTF-8" standalone="no"?>
<!DOCTYPE svg PUBLIC "-//W3C//DTD SVG 1.1//EN"
 "http://www.w3.org/Graphics/SVG/1.1/DTD/svg11.dtd">
<!-- Generated by graphviz version 14.0.4 (20251115.1723)
 -->
<!-- Title: DhanaadhyaGaps Pages: 1 -->
<svg width="1280pt" height="337pt"
 viewBox="0.00 0.00 1280.00 337.00" xmlns="http://www.w3.org/2000/svg" xmlns:xlink="http://www.w3.org/1999/xlink">
<g id="graph0" class="graph" transform="scale(1 1) rotate(0) translate(4 333.47)">
<title>DhanaadhyaGaps</title>
<polygon fill="white" stroke="none" points="-4,4 -4,-333.47 1276.37,-333.47 1276.37,4 -4,4"/>
<!-- Vision -->
<g id="node1" class="node">
<title>Vision</title>
<ellipse fill="lightgreen" stroke="black" cx="625.12" cy="-301.54" rx="81.32" ry="27.93"/>
<text xml:space="preserve" text-anchor="middle" x="625.12" y="-303.99" font-family="Arial" font-size="14.00">Dhanaadhya</text>
<text xml:space="preserve" text-anchor="middle" x="625.12" y="-288.24" font-family="Arial" font-size="14.00">Complete Vision</text>
</g>
<!-- Core -->
<g id="node2" class="node">
<title>Core</title>
<path fill="lightgreen" stroke="black" d="M138.25,-236.61C138.25,-236.61 12,-236.61 12,-236.61 6,-236.61 0,-230.61 0,-224.61 0,-224.61 0,-114.36 0,-114.36 0,-108.36 6,-102.36 12,-102.36 12,-102.36 138.25,-102.36 138.25,-102.36 144.25,-102.36 150.25,-108.36 150.25,-114.36 150.25,-114.36 150.25,-224.61 150.25,-224.61 150.25,-230.61 144.25,-236.61 138.25,-236.61"/>
<text xml:space="preserve" text-anchor="middle" x="75.12" y="-219.31" font-family="Arial" font-size="14.00">✓ CORE FEATURES</text>
<text xml:space="preserve" text-anchor="middle" x="75.12" y="-203.56" font-family="Arial" font-size="14.00">(85% Complete)</text>
<text xml:space="preserve" text-anchor="middle" x="75.12" y="-171.81" font-family="Arial" font-size="14.00">&#45; Dashboard</text>
<text xml:space="preserve" text-anchor="middle" x="75.12" y="-156.06" font-family="Arial" font-size="14.00">&#45; Focus Guide</text>
<text xml:space="preserve" text-anchor="middle" x="75.12" y="-140.31" font-family="Arial" font-size="14.00">&#45; Tax Engine</text>
<text xml:space="preserve" text-anchor="middle" x="75.12" y="-124.56" font-family="Arial" font-size="14.00">&#45; Market Sim</text>
<text xml:space="preserve" text-anchor="middle" x="75.12" y="-108.81" font-family="Arial" font-size="14.00">&#45; Goals System</text>
</g>
<!-- Vision&#45;&gt;Core -->
<g id="edge1" class="edge">
<title>Vision&#45;&gt;Core</title>
<path fill="none" stroke="black" d="M546.08,-294.73C436.84,-285.89 244.58,-267.2 161.27,-236.84"/>
<polygon fill="black" stroke="black" points="162.72,-233.65 152.13,-233.23 160.15,-240.16 162.72,-233.65"/>
</g>
<!-- UX -->
<g id="node3" class="node">
<title>UX</title>
<path fill="lightcoral" stroke="black" d="M320,-236.61C320,-236.61 180.25,-236.61 180.25,-236.61 174.25,-236.61 168.25,-230.61 168.25,-224.61 168.25,-224.61 168.25,-114.36 168.25,-114.36 168.25,-108.36 174.25,-102.36 180.25,-102.36 180.25,-102.36 320,-102.36 320,-102.36 326,-102.36 332,-108.36 332,-114.36 332,-114.36 332,-224.61 332,-224.61 332,-230.61 326,-236.61 320,-236.61"/>
<text xml:space="preserve" text-anchor="middle" x="250.12" y="-219.31" font-family="Arial" font-size="14.00">✗ USER EXPERIENCE</text>
<text xml:space="preserve" text-anchor="middle" x="250.12" y="-203.56" font-family="Arial" font-size="14.00">(10% Complete)</text>
<text xml:space="preserve" text-anchor="middle" x="250.12" y="-171.81" font-family="Arial" font-size="14.00">&#45; Onboarding Tutorial</text>
<text xml:space="preserve" text-anchor="middle" x="250.12" y="-156.06" font-family="Arial" font-size="14.00">&#45; Failure Recovery</text>
<text xml:space="preserve" text-anchor="middle" x="250.12" y="-140.31" font-family="Arial" font-size="14.00">&#45; Real&#45;world Bridge</text>
<text xml:space="preserve" text-anchor="middle" x="250.12" y="-124.56" font-family="Arial" font-size="14.00">&#45; Personalization</text>
<text xml:space="preserve" text-anchor="middle" x="250.12" y="-108.81" font-family="Arial" font-size="14.00">&#45; Accessibility</text>
</g>
<!-- Vision&#45;&gt;UX -->
<g id="edge2" class="edge">
<title>Vision&#45;&gt;UX</title>
<path fill="none" stroke="black" d="M548.3,-291.86C492.21,-283.59 414.97,-268.18 342.52,-236.86"/>
<polygon fill="black" stroke="black" points="344.27,-233.81 333.71,-232.95 341.43,-240.21 344.27,-233.81"/>
</g>
<!-- Content -->
<g id="node4" class="node">
<title>Content</title>
<path fill="orange" stroke="black" d="M516.12,-236.61C516.12,-236.61 362.12,-236.61 362.12,-236.61 356.12,-236.61 350.12,-230.61 350.12,-224.61 350.12,-224.61 350.12,-114.36 350.12,-114.36 350.12,-108.36 356.12,-102.36 362.12,-102.36 362.12,-102.36 516.12,-102.36 516.12,-102.36 522.12,-102.36 528.12,-108.36 528.12,-114.36 528.12,-114.36 528.12,-224.61 528.12,-224.61 528.12,-230.61 522.12,-236.61 516.12,-236.61"/>
<text xml:space="preserve" text-anchor="middle" x="439.12" y="-219.31" font-family="Arial" font-size="14.00">⚠ CONTENT STRATEGY</text>
<text xml:space="preserve" text-anchor="middle" x="439.12" y="-203.56" font-family="Arial" font-size="14.00">(20% Complete)</text>
<text xml:space="preserve" text-anchor="middle" x="439.12" y="-171.81" font-family="Arial" font-size="14.00">&#45; Educational Content</text>
<text xml:space="preserve" text-anchor="middle" x="439.12" y="-156.06" font-family="Arial" font-size="14.00">&#45; Expert Tips</text>
<text xml:space="preserve" text-anchor="middle" x="439.12" y="-140.31" font-family="Arial" font-size="14.00">&#45; Help Resources</text>
<text xml:space="preserve" text-anchor="middle" x="439.12" y="-124.56" font-family="Arial" font-size="14.00">&#45; Video Library</text>
<text xml:space="preserve" text-anchor="middle" x="439.12" y="-108.81" font-family="Arial" font-size="14.00">&#45; Maintenance Plan</text>
</g>
<!-- Vision&#45;&gt;Content -->
<g id="edge3" class="edge">
<title>Vision&#45;&gt;Content</title>
<path fill="none" stroke="black" d="M590.14,-276.08C575.04,-265.52 556.54,-252.58 537.73,-239.43"/>
<polygon fill="black" stroke="black" points="539.93,-236.7 529.72,-233.84 535.91,-242.43 539.93,-236.7"/>
</g>
<!-- Business -->
<g id="node5" class="node">
<title>Business</title>
<path fill="lightcoral" stroke="black" d="M691.62,-228.74C691.62,-228.74 558.62,-228.74 558.62,-228.74 552.62,-228.74 546.62,-222.74 546.62,-216.74 546.62,-216.74 546.62,-122.24 546.62,-122.24 546.62,-116.24 552.62,-110.24 558.62,-110.24 558.62,-110.24 691.62,-110.24 691.62,-110.24 697.62,-110.24 703.62,-116.24 703.62,-122.24 703.62,-122.24 703.62,-216.74 703.62,-216.74 703.62,-222.74 697.62,-228.74 691.62,-228.74"/>
<text xml:space="preserve" text-anchor="middle" x="625.12" y="-211.44" font-family="Arial" font-size="14.00">✗ BUSINESS MODEL</text>
<text xml:space="preserve" text-anchor="middle" x="625.12" y="-195.69" font-family="Arial" font-size="14.00">(15% Complete)</text>
<text xml:space="preserve" text-anchor="middle" x="625.12" y="-163.94" font-family="Arial" font-size="14.00">&#45; Premium Tiers</text>
<text xml:space="preserve" text-anchor="middle" x="625.12" y="-148.19" font-family="Arial" font-size="14.00">&#45; B2B Partnerships</text>
<text xml:space="preserve" text-anchor="middle" x="625.12" y="-132.44" font-family="Arial" font-size="14.00">&#45; Distribution</text>
<text xml:space="preserve" text-anchor="middle" x="625.12" y="-116.69" font-family="Arial" font-size="14.00">&#45; Pricing Strategy</text>
</g>
<!-- Vision&#45;&gt;Business -->
<g id="edge4" class="edge">
<title>Vision&#45;&gt;Business</title>
<path fill="none" stroke="black" d="M625.12,-273.28C625.12,-263.51 625.12,-252.01 625.12,-240.3"/>
<polygon fill="black" stroke="black" points="628.63,-240.57 625.13,-230.57 621.63,-240.57 628.63,-240.57"/>
</g>
<!-- Community -->
<g id="node6" class="node">
<title>Community</title>
<path fill="orange" stroke="black" d="M830.62,-228.74C830.62,-228.74 733.62,-228.74 733.62,-228.74 727.62,-228.74 721.62,-222.74 721.62,-216.74 721.62,-216.74 721.62,-122.24 721.62,-122.24 721.62,-116.24 727.62,-110.24 733.62,-110.24 733.62,-110.24 830.62,-110.24 830.62,-110.24 836.62,-110.24 842.62,-116.24 842.62,-122.24 842.62,-122.24 842.62,-216.74 842.62,-216.74 842.62,-222.74 836.62,-228.74 830.62,-228.74"/>
<text xml:space="preserve" text-anchor="middle" x="782.12" y="-211.44" font-family="Arial" font-size="14.00">⚠ COMMUNITY</text>
<text xml:space="preserve" text-anchor="middle" x="782.12" y="-195.69" font-family="Arial" font-size="14.00">(20% Complete)</text>
<text xml:space="preserve" text-anchor="middle" x="782.12" y="-163.94" font-family="Arial" font-size="14.00">&#45; Support System</text>
<text xml:space="preserve" text-anchor="middle" x="782.12" y="-148.19" font-family="Arial" font-size="14.00">&#45; User Forums</text>
<text xml:space="preserve" text-anchor="middle" x="782.12" y="-132.44" font-family="Arial" font-size="14.00">&#45; Feedback Loop</text>
<text xml:space="preserve" text-anchor="middle" x="782.12" y="-116.69" font-family="Arial" font-size="14.00">&#45; Leaderboards</text>
</g>
<!-- Vision&#45;&gt;Community -->
<g id="edge5" class="edge">
<title>Vision&#45;&gt;Community</title>
<path fill="none" stroke="black" d="M661.07,-276.1C677.35,-264.6 696.61,-250.42 713.12,-236.61 713.22,-236.53 713.31,-236.46 713.4,-236.38"/>
<polygon fill="black" stroke="black" points="715.51,-239.18 720.82,-230.01 710.96,-233.87 715.51,-239.18"/>
</g>
<!-- Legal -->
<g id="node7" class="node">
<title>Legal</title>
<path fill="lightcoral" stroke="black" d="M1037.62,-228.74C1037.62,-228.74 874.62,-228.74 874.62,-228.74 868.62,-228.74 862.62,-222.74 862.62,-216.74 862.62,-216.74 862.62,-122.24 862.62,-122.24 862.62,-116.24 868.62,-110.24 874.62,-110.24 874.62,-110.24 1037.62,-110.24 1037.62,-110.24 1043.62,-110.24 1049.62,-116.24 1049.62,-122.24 1049.62,-122.24 1049.62,-216.74 1049.62,-216.74 1049.62,-222.74 1043.62,-228.74 1037.62,-228.74"/>
<text xml:space="preserve" text-anchor="middle" x="956.12" y="-211.44" font-family="Arial" font-size="14.00">✗ LEGAL &amp; COMPLIANCE</text>
<text xml:space="preserve" text-anchor="middle" x="956.12" y="-195.69" font-family="Arial" font-size="14.00">(5% Complete)</text>
<text xml:space="preserve" text-anchor="middle" x="956.12" y="-163.94" font-family="Arial" font-size="14.00">&#45; Privacy Policy</text>
<text xml:space="preserve" text-anchor="middle" x="956.12" y="-148.19" font-family="Arial" font-size="14.00">&#45; Data Security</text>
<text xml:space="preserve" text-anchor="middle" x="956.12" y="-132.44" font-family="Arial" font-size="14.00">&#45; Regional Laws</text>
<text xml:space="preserve" text-anchor="middle" x="956.12" y="-116.69" font-family="Arial" font-size="14.00">&#45; Tax Compliance</text>
</g>
<!-- Vision&#45;&gt;Legal -->
<g id="edge6" class="edge">
<title>Vision&#45;&gt;Legal</title>
<path fill="none" stroke="black" d="M694.49,-286.55C740.4,-275.96 801.29,-259.34 852.12,-236.61 853.87,-235.83 855.62,-235.02 857.37,-234.19"/>
<polygon fill="black" stroke="black" points="858.67,-237.46 866.07,-229.88 855.55,-231.19 858.67,-237.46"/>
</g>
<!-- Analytics -->
<g id="node8" class="node">
<title>Analytics</title>
<path fill="orange" stroke="black" d="M1223.62,-228.74C1223.62,-228.74 1090.62,-228.74 1090.62,-228.74 1084.62,-228.74 1078.62,-222.74 1078.62,-216.74 1078.62,-216.74 1078.62,-122.24 1078.62,-122.24 1078.62,-116.24 1084.62,-110.24 1090.62,-110.24 1090.62,-110.24 1223.62,-110.24 1223.62,-110.24 1229.62,-110.24 1235.62,-116.24 1235.62,-122.24 1235.62,-122.24 1235.62,-216.74 1235.62,-216.74 1235.62,-222.74 1229.62,-228.74 1223.62,-228.74"/>
<text xml:space="preserve" text-anchor="middle" x="1157.12" y="-211.44" font-family="Arial" font-size="14.00">⚠ ANALYTICS</text>
<text xml:space="preserve" text-anchor="middle" x="1157.12" y="-195.69" font-family="Arial" font-size="14.00">(10% Complete)</text>
<text xml:space="preserve" text-anchor="middle" x="1157.12" y="-163.94" font-family="Arial" font-size="14.00">&#45; Engagement Tracking</text>
<text xml:space="preserve" text-anchor="middle" x="1157.12" y="-148.19" font-family="Arial" font-size="14.00">&#45; Learning Outcomes</text>
<text xml:space="preserve" text-anchor="middle" x="1157.12" y="-132.44" font-family="Arial" font-size="14.00">&#45; Success Metrics</text>
<text xml:space="preserve" text-anchor="middle" x="1157.12" y="-116.69" font-family="Arial" font-size="14.00">&#45; A/B Testing</text>
</g>
<!-- Vision&#45;&gt;Analytics -->
<g id="edge7" class="edge">
<title>Vision&#45;&gt;Analytics</title>
<path fill="none" stroke="black" d="M706.65,-299.26C795.98,-295.43 942.14,-281.97 1059.12,-236.61 1062.13,-235.45 1065.14,-234.18 1068.13,-232.82"/>
<polygon fill="black" stroke="black" points="1069.44,-236.07 1076.89,-228.54 1066.37,-229.78 1069.44,-236.07"/>
</g>
<!-- CoreSub -->
<g id="node9" class="node">
<title>CoreSub</title>
<ellipse fill="lightgrey" stroke="black" cx="75.12" cy="-27.93" rx="70.52" ry="18"/>
<text xml:space="preserve" text-anchor="middle" x="75.12" y="-22.51" font-family="Arial" font-size="14.00">✓✓✓ Ready</text>
</g>
<!-- Core&#45;&gt;CoreSub -->
<g id="edge8" class="edge">
<title>Core&#45;&gt;CoreSub</title>
<path fill="none" stroke="black" d="M75.12,-101.98C75.12,-86.34 75.12,-70.48 75.12,-57.55"/>
<polygon fill="black" stroke="black" points="78.63,-57.67 75.13,-47.67 71.63,-57.67 78.63,-57.67"/>
<text xml:space="preserve" text-anchor="middle" x="110" y="-75.81" font-family="Arial" font-size="9.00">Solid Foundation</text>
</g>
<!-- UXCritical -->
<g id="node10" class="node">
<title>UXCritical</title>
<ellipse fill="red" stroke="black" cx="250.12" cy="-27.93" rx="73.36" ry="27.93"/>
<text xml:space="preserve" text-anchor="middle" x="250.12" y="-30.38" font-family="Arial" font-size="14.00">CRITICAL</text>
<text xml:space="preserve" text-anchor="middle" x="250.12" y="-14.63" font-family="Arial" font-size="14.00">Blocks Launch</text>
</g>
<!-- UX&#45;&gt;UXCritical -->
<g id="edge9" class="edge">
<title>UX&#45;&gt;UXCritical</title>
<path fill="none" stroke="black" d="M250.12,-101.98C250.12,-90.25 250.12,-78.39 250.12,-67.74"/>
<polygon fill="black" stroke="black" points="253.63,-67.82 250.13,-57.82 246.63,-67.82 253.63,-67.82"/>
<text xml:space="preserve" text-anchor="middle" x="293.62" y="-75.81" font-family="Arial" font-size="9.00">MUST&#45;HAVE for MVP</text>
</g>
<!-- ContentMust -->
<g id="node11" class="node">
<title>ContentMust</title>
<ellipse fill="orange" stroke="black" cx="435.12" cy="-27.93" rx="80.26" ry="27.93"/>
<text xml:space="preserve" text-anchor="middle" x="435.12" y="-30.38" font-family="Arial" font-size="14.00">HIGH</text>
<text xml:space="preserve" text-anchor="middle" x="435.12" y="-14.63" font-family="Arial" font-size="14.00">Education Value</text>
</g>
<!-- Content&#45;&gt;ContentMust -->
<g id="edge10" class="edge">
<title>Content&#45;&gt;ContentMust</title>
<path fill="none" stroke="black" d="M437.22,-101.98C436.88,-90.25 436.54,-78.39 436.24,-67.74"/>
<polygon fill="black" stroke="black" points="439.74,-67.71 435.95,-57.82 432.74,-67.91 439.74,-67.71"/>
<text xml:space="preserve" text-anchor="middle" x="485.77" y="-75.81" font-family="Arial" font-size="9.00">MUST&#45;HAVE for Launch</text>
</g>
<!-- BizMust -->
<g id="node12" class="node">
<title>BizMust</title>
<ellipse fill="orange" stroke="black" cx="611.12" cy="-27.93" rx="77.6" ry="27.93"/>
<text xml:space="preserve" text-anchor="middle" x="611.12" y="-30.38" font-family="Arial" font-size="14.00">HIGH</text>
<text xml:space="preserve" text-anchor="middle" x="611.12" y="-14.63" font-family="Arial" font-size="14.00">Revenue Driver</text>
</g>
<!-- Business&#45;&gt;BizMust -->
<g id="edge11" class="edge">
<title>Business&#45;&gt;BizMust</title>
<path fill="none" stroke="black" d="M619.27,-110.11C617.82,-95.67 616.3,-80.56 614.98,-67.34"/>
<polygon fill="black" stroke="black" points="618.5,-67.39 614.02,-57.78 611.54,-68.08 618.5,-67.39"/>
<text xml:space="preserve" text-anchor="middle" x="661.83" y="-75.81" font-family="Arial" font-size="9.00">MUST&#45;HAVE for Scale</text>
</g>
<!-- CommMust -->
<g id="node13" class="node">
<title>CommMust</title>
<ellipse fill="yellow" stroke="black" cx="782.12" cy="-27.93" rx="74.95" ry="27.93"/>
<text xml:space="preserve" text-anchor="middle" x="782.12" y="-30.38" font-family="Arial" font-size="14.00">MEDIUM</text>
<text xml:space="preserve" text-anchor="middle" x="782.12" y="-14.63" font-family="Arial" font-size="14.00">User Retention</text>
</g>
<!-- Community&#45;&gt;CommMust -->
<g id="edge12" class="edge">
<title>Community&#45;&gt;CommMust</title>
<path fill="none" stroke="black" d="M782.12,-110.11C782.12,-95.81 782.12,-80.86 782.12,-67.74"/>
<polygon fill="black" stroke="black" points="785.63,-67.79 782.13,-57.79 778.63,-67.79 785.63,-67.79"/>
<text xml:space="preserve" text-anchor="middle" x="831.62" y="-75.81" font-family="Arial" font-size="9.00">SHOULD&#45;HAVE for Beta</text>
</g>
<!-- LegalCrit -->
<g id="node14" class="node">
<title>LegalCrit</title>
<ellipse fill="red" stroke="black" cx="958.12" cy="-27.93" rx="83.44" ry="27.93"/>
<text xml:space="preserve" text-anchor="middle" x="958.12" y="-30.38" font-family="Arial" font-size="14.00">CRITICAL</text>
<text xml:space="preserve" text-anchor="middle" x="958.12" y="-14.63" font-family="Arial" font-size="14.00">Compliance Risk</text>
</g>
<!-- Legal&#45;&gt;LegalCrit -->
<g id="edge13" class="edge">
<title>Legal&#45;&gt;LegalCrit</title>
<path fill="none" stroke="black" d="M956.96,-110.11C957.17,-95.81 957.38,-80.86 957.57,-67.74"/>
<polygon fill="black" stroke="black" points="961.07,-67.84 957.71,-57.79 954.07,-67.74 961.07,-67.84"/>
<text xml:space="preserve" text-anchor="middle" x="989.35" y="-75.81" font-family="Arial" font-size="9.00">CRITICAL RISK</text>
</g>
<!-- AnalMust -->
<g id="node15" class="node">
<title>AnalMust</title>
<ellipse fill="orange" stroke="black" cx="1166.12" cy="-27.93" rx="106.24" ry="27.93"/>
<text xml:space="preserve" text-anchor="middle" x="1166.12" y="-30.38" font-family="Arial" font-size="14.00">HIGH</text>
<text xml:space="preserve" text-anchor="middle" x="1166.12" y="-14.63" font-family="Arial" font-size="14.00">Data&#45;Driven Decisions</text>
</g>
<!-- Analytics&#45;&gt;AnalMust -->
<g id="edge14" class="edge">
<title>Analytics&#45;&gt;AnalMust</title>
<path fill="none" stroke="black" d="M1160.89,-110.11C1161.81,-95.81 1162.78,-80.86 1163.62,-67.74"/>
<polygon fill="black" stroke="black" points="1167.11,-67.99 1164.26,-57.79 1160.13,-67.54 1167.11,-67.99"/>
<text xml:space="preserve" text-anchor="middle" x="1213.46" y="-75.81" font-family="Arial" font-size="9.00">MUST&#45;HAVE for Iteration</text>
</g>
</g>
</svg>
