<?xml version="1.0" encoding="UTF-8" standalone="no"?>
<!DOCTYPE svg PUBLIC "-//W3C//DTD SVG 1.1//EN"
 "http://www.w3.org/Graphics/SVG/1.1/DTD/svg11.dtd">
<!-- Generated by graphviz version 14.0.4 (20251115.1723)
 -->
<!-- Title: FrontendArchitecture Pages: 1 -->
<svg width="2699pt" height="731pt"
 viewBox="0.00 0.00 2699.00 731.00" xmlns="http://www.w3.org/2000/svg" xmlns:xlink="http://www.w3.org/1999/xlink">
<g id="graph0" class="graph" transform="scale(1 1) rotate(0) translate(4 727)">
<title>FrontendArchitecture</title>
<polygon fill="#f8f9fa" stroke="none" points="-4,4 -4,-727 2694.56,-727 2694.56,4 -4,4"/>
<g id="clust1" class="cluster">
<title>cluster_routes</title>
<polygon fill="#ecf0f1" stroke="#2c3e50" points="683,-418 683,-494.5 1418,-494.5 1418,-418 683,-418"/>
<text xml:space="preserve" text-anchor="middle" x="1050.5" y="-477.2" font-family="Times New Roman,serif" font-size="14.00">Main Routes</text>
</g>
<g id="clust3" class="cluster">
<title>cluster_dashboard</title>
<polygon fill="#e8f8f5" stroke="#2c3e50" points="155,-261.5 155,-410 965,-410 965,-261.5 155,-261.5"/>
<text xml:space="preserve" text-anchor="middle" x="560" y="-392.7" font-family="Times New Roman,serif" font-size="14.00">Dashboard Components</text>
</g>
<g id="clust6" class="cluster">
<title>cluster_simulation</title>
<polygon fill="#fef5e7" stroke="#2c3e50" points="1451,-177 1451,-410 2673,-410 2673,-177 1451,-177"/>
<text xml:space="preserve" text-anchor="middle" x="2062" y="-392.7" font-family="Times New Roman,serif" font-size="14.00">Simulation Components</text>
</g>
<g id="clust13" class="cluster">
<title>cluster_focus_guide</title>
<polygon fill="#f4ecf7" stroke="#2c3e50" points="533,-177 533,-253.5 1066,-253.5 1066,-177 533,-177"/>
<text xml:space="preserve" text-anchor="middle" x="799.5" y="-236.2" font-family="Times New Roman,serif" font-size="14.00">Focus Guide (Daily Coach)</text>
</g>
<g id="clust15" class="cluster">
<title>cluster_goals</title>
<polygon fill="#fdeef4" stroke="#2c3e50" points="8,-177 8,-253.5 525,-253.5 525,-177 8,-177"/>
<text xml:space="preserve" text-anchor="middle" x="266.5" y="-236.2" font-family="Times New Roman,serif" font-size="14.00">Goals &amp; Milestones</text>
</g>
<g id="clust17" class="cluster">
<title>cluster_analytics</title>
<polygon fill="#e8f4f8" stroke="#2c3e50" points="973,-333.5 973,-410 1443,-410 1443,-333.5 973,-333.5"/>
<text xml:space="preserve" text-anchor="middle" x="1208" y="-392.7" font-family="Times New Roman,serif" font-size="14.00">Analytics View</text>
</g>
<g id="clust19" class="cluster">
<title>cluster_modals</title>
<polygon fill="#fff3cd" stroke="#2c3e50" points="1751,-638.5 1751,-715 2158,-715 2158,-638.5 1751,-638.5"/>
<text xml:space="preserve" text-anchor="middle" x="1954.5" y="-697.7" font-family="Times New Roman,serif" font-size="14.00">Modals &amp; Dialogs</text>
</g>
<g id="clust20" class="cluster">
<title>cluster_state</title>
<polygon fill="#e8f5e9" stroke="#2c3e50" points="1881,-92.5 1881,-169 2647,-169 2647,-92.5 1881,-92.5"/>
<text xml:space="preserve" text-anchor="middle" x="2264" y="-151.7" font-family="Times New Roman,serif" font-size="14.00">Client State (No Backend)</text>
</g>
<g id="clust21" class="cluster">
<title>cluster_storage</title>
<polygon fill="#f3e5f5" stroke="#2c3e50" points="2043,-8 2043,-84.5 2266,-84.5 2266,-8 2043,-8"/>
<text xml:space="preserve" text-anchor="middle" x="2154.5" y="-67.2" font-family="Times New Roman,serif" font-size="14.00">Client Storage</text>
</g>
<g id="clust22" class="cluster">
<title>cluster_utils</title>
<polygon fill="#f1f8e9" stroke="#2c3e50" points="1080,-92.5 1080,-169 1514,-169 1514,-92.5 1080,-92.5"/>
<text xml:space="preserve" text-anchor="middle" x="1297" y="-151.7" font-family="Times New Roman,serif" font-size="14.00">Utility Modules</text>
</g>
<!-- AppShell -->
<g id="node1" class="node">
<title>AppShell</title>
<path fill="#3498db" stroke="#2c3e50" d="M1214,-682.5C1214,-682.5 1090,-682.5 1090,-682.5 1084,-682.5 1078,-676.5 1078,-670.5 1078,-670.5 1078,-658.5 1078,-658.5 1078,-652.5 1084,-646.5 1090,-646.5 1090,-646.5 1214,-646.5 1214,-646.5 1220,-646.5 1226,-652.5 1226,-658.5 1226,-658.5 1226,-670.5 1226,-670.5 1226,-676.5 1220,-682.5 1214,-682.5"/>
<text xml:space="preserve" text-anchor="middle" x="1152" y="-667.55" font-family="Arial" font-size="11.00" fill="white">App Shell</text>
<text xml:space="preserve" text-anchor="middle" x="1152" y="-654.05" font-family="Arial" font-size="11.00" fill="white">(Auth, Navigation, Themes)</text>
</g>
<!-- Router -->
<g id="node2" class="node">
<title>Router</title>
<path fill="none" stroke="#2c3e50" d="M1185.88,-610.5C1185.88,-610.5 1118.12,-610.5 1118.12,-610.5 1112.12,-610.5 1106.12,-604.5 1106.12,-598.5 1106.12,-598.5 1106.12,-586.5 1106.12,-586.5 1106.12,-580.5 1112.12,-574.5 1118.12,-574.5 1118.12,-574.5 1185.88,-574.5 1185.88,-574.5 1191.88,-574.5 1197.88,-580.5 1197.88,-586.5 1197.88,-586.5 1197.88,-598.5 1197.88,-598.5 1197.88,-604.5 1191.88,-610.5 1185.88,-610.5"/>
<text xml:space="preserve" text-anchor="middle" x="1152" y="-595" font-family="Arial" font-size="10.00">React Router</text>
<text xml:space="preserve" text-anchor="middle" x="1152" y="-583" font-family="Arial" font-size="10.00">(URL Navigation)</text>
</g>
<!-- AppShell&#45;&gt;Router -->
<g id="edge1" class="edge">
<title>AppShell&#45;&gt;Router</title>
<path fill="none" stroke="#34495e" d="M1152,-646.2C1152,-638.91 1152,-630.23 1152,-622.04"/>
<polygon fill="#34495e" stroke="#34495e" points="1155.5,-622.12 1152,-612.12 1148.5,-622.12 1155.5,-622.12"/>
</g>
<!-- AuthGuard -->
<g id="node3" class="node">
<title>AuthGuard</title>
<path fill="none" stroke="#2c3e50" d="M870.62,-538.5C870.62,-538.5 807.38,-538.5 807.38,-538.5 801.38,-538.5 795.38,-532.5 795.38,-526.5 795.38,-526.5 795.38,-514.5 795.38,-514.5 795.38,-508.5 801.38,-502.5 807.38,-502.5 807.38,-502.5 870.62,-502.5 870.62,-502.5 876.62,-502.5 882.62,-508.5 882.62,-514.5 882.62,-514.5 882.62,-526.5 882.62,-526.5 882.62,-532.5 876.62,-538.5 870.62,-538.5"/>
<text xml:space="preserve" text-anchor="middle" x="839" y="-523" font-family="Arial" font-size="10.00">Auth Guard</text>
<text xml:space="preserve" text-anchor="middle" x="839" y="-511" font-family="Arial" font-size="10.00">(Login Required)</text>
</g>
<!-- Router&#45;&gt;AuthGuard -->
<g id="edge2" class="edge">
<title>Router&#45;&gt;AuthGuard</title>
<path fill="none" stroke="#34495e" d="M1105.82,-581.17C1049.42,-568.56 954.15,-547.25 894.01,-533.8"/>
<polygon fill="#34495e" stroke="#34495e" points="894.85,-530.4 884.32,-531.64 893.32,-537.23 894.85,-530.4"/>
</g>
<!-- Dashboard -->
<g id="node7" class="node">
<title>Dashboard</title>
<path fill="none" stroke="#2c3e50" d="M1081.62,-462C1081.62,-462 1018.38,-462 1018.38,-462 1012.38,-462 1006.38,-456 1006.38,-450 1006.38,-450 1006.38,-438 1006.38,-438 1006.38,-432 1012.38,-426 1018.38,-426 1018.38,-426 1081.62,-426 1081.62,-426 1087.62,-426 1093.62,-432 1093.62,-438 1093.62,-438 1093.62,-450 1093.62,-450 1093.62,-456 1087.62,-462 1081.62,-462"/>
<text xml:space="preserve" text-anchor="middle" x="1050" y="-446.5" font-family="Arial" font-size="10.00">Main Dashboard</text>
<text xml:space="preserve" text-anchor="middle" x="1050" y="-434.5" font-family="Arial" font-size="10.00">(Hub)</text>
</g>
<!-- Router&#45;&gt;Dashboard -->
<g id="edge5" class="edge">
<title>Router&#45;&gt;Dashboard</title>
<path fill="none" stroke="#34495e" d="M1139.9,-574.12C1122.26,-548.79 1089.34,-501.51 1068.61,-471.73"/>
<polygon fill="#34495e" stroke="#34495e" points="1071.54,-469.81 1062.95,-463.6 1065.79,-473.81 1071.54,-469.81"/>
</g>
<!-- Simulation -->
<g id="node8" class="node">
<title>Simulation</title>
<path fill="none" stroke="#2c3e50" d="M1287.75,-462C1287.75,-462 1222.25,-462 1222.25,-462 1216.25,-462 1210.25,-456 1210.25,-450 1210.25,-450 1210.25,-438 1210.25,-438 1210.25,-432 1216.25,-426 1222.25,-426 1222.25,-426 1287.75,-426 1287.75,-426 1293.75,-426 1299.75,-432 1299.75,-438 1299.75,-438 1299.75,-450 1299.75,-450 1299.75,-456 1293.75,-462 1287.75,-462"/>
<text xml:space="preserve" text-anchor="middle" x="1255" y="-446.5" font-family="Arial" font-size="10.00">Simulation Arena</text>
<text xml:space="preserve" text-anchor="middle" x="1255" y="-434.5" font-family="Arial" font-size="10.00">(Business Ops)</text>
</g>
<!-- Router&#45;&gt;Simulation -->
<g id="edge6" class="edge">
<title>Router&#45;&gt;Simulation</title>
<path fill="none" stroke="#34495e" d="M1164.22,-574.12C1182.03,-548.79 1215.27,-501.51 1236.21,-471.73"/>
<polygon fill="#34495e" stroke="#34495e" points="1239.04,-473.79 1241.93,-463.6 1233.31,-469.76 1239.04,-473.79"/>
</g>
<!-- Analytics -->
<g id="node9" class="node">
<title>Analytics</title>
<path fill="none" stroke="#2c3e50" d="M1180.62,-462C1180.62,-462 1123.38,-462 1123.38,-462 1117.38,-462 1111.38,-456 1111.38,-450 1111.38,-450 1111.38,-438 1111.38,-438 1111.38,-432 1117.38,-426 1123.38,-426 1123.38,-426 1180.62,-426 1180.62,-426 1186.62,-426 1192.62,-432 1192.62,-438 1192.62,-438 1192.62,-450 1192.62,-450 1192.62,-456 1186.62,-462 1180.62,-462"/>
<text xml:space="preserve" text-anchor="middle" x="1152" y="-446.5" font-family="Arial" font-size="10.00">Analytics View</text>
<text xml:space="preserve" text-anchor="middle" x="1152" y="-434.5" font-family="Arial" font-size="10.00">(Reports)</text>
</g>
<!-- Router&#45;&gt;Analytics -->
<g id="edge7" class="edge">
<title>Router&#45;&gt;Analytics</title>
<path fill="none" stroke="#34495e" d="M1152,-574.12C1152,-549.34 1152,-503.55 1152,-473.7"/>
<polygon fill="#34495e" stroke="#34495e" points="1155.5,-473.87 1152,-463.87 1148.5,-473.87 1155.5,-473.87"/>
</g>
<!-- Profile -->
<g id="node10" class="node">
<title>Profile</title>
<path fill="none" stroke="#2c3e50" d="M1398.25,-462C1398.25,-462 1329.75,-462 1329.75,-462 1323.75,-462 1317.75,-456 1317.75,-450 1317.75,-450 1317.75,-438 1317.75,-438 1317.75,-432 1323.75,-426 1329.75,-426 1329.75,-426 1398.25,-426 1398.25,-426 1404.25,-426 1410.25,-432 1410.25,-438 1410.25,-438 1410.25,-450 1410.25,-450 1410.25,-456 1404.25,-462 1398.25,-462"/>
<text xml:space="preserve" text-anchor="middle" x="1364" y="-440.5" font-family="Arial" font-size="10.00">Profile &amp; Settings</text>
</g>
<!-- Router&#45;&gt;Profile -->
<g id="edge8" class="edge">
<title>Router&#45;&gt;Profile</title>
<path fill="none" stroke="#34495e" d="M1183.76,-574.12C1216.27,-555.83 1267.72,-525.43 1309,-494.5 1318.87,-487.1 1329.07,-478.29 1337.97,-470.17"/>
<polygon fill="#34495e" stroke="#34495e" points="1340.32,-472.76 1345.26,-463.39 1335.56,-467.63 1340.32,-472.76"/>
</g>
<!-- Landing -->
<g id="node4" class="node">
<title>Landing</title>
<path fill="none" stroke="#2c3e50" d="M766.62,-462C766.62,-462 703.38,-462 703.38,-462 697.38,-462 691.38,-456 691.38,-450 691.38,-450 691.38,-438 691.38,-438 691.38,-432 697.38,-426 703.38,-426 703.38,-426 766.62,-426 766.62,-426 772.62,-426 778.62,-432 778.62,-438 778.62,-438 778.62,-450 778.62,-450 778.62,-456 772.62,-462 766.62,-462"/>
<text xml:space="preserve" text-anchor="middle" x="735" y="-446.5" font-family="Arial" font-size="10.00">Landing Page</text>
<text xml:space="preserve" text-anchor="middle" x="735" y="-434.5" font-family="Arial" font-size="10.00">(Marketing/CTA)</text>
</g>
<!-- AuthGuard&#45;&gt;Landing -->
<g id="edge3" class="edge">
<title>AuthGuard&#45;&gt;Landing</title>
<path fill="none" stroke="#34495e" d="M800.42,-502.13C796.13,-499.74 791.9,-497.19 788,-494.5 777.89,-487.53 767.8,-478.69 759.17,-470.42"/>
<polygon fill="#34495e" stroke="#34495e" points="761.73,-468.03 752.16,-463.48 756.81,-473 761.73,-468.03"/>
</g>
<!-- Auth -->
<g id="node5" class="node">
<title>Auth</title>
<path fill="none" stroke="#2c3e50" d="M869.5,-462C869.5,-462 808.5,-462 808.5,-462 802.5,-462 796.5,-456 796.5,-450 796.5,-450 796.5,-438 796.5,-438 796.5,-432 802.5,-426 808.5,-426 808.5,-426 869.5,-426 869.5,-426 875.5,-426 881.5,-432 881.5,-438 881.5,-438 881.5,-450 881.5,-450 881.5,-456 875.5,-462 869.5,-462"/>
<text xml:space="preserve" text-anchor="middle" x="839" y="-446.5" font-family="Arial" font-size="10.00">Authentication</text>
<text xml:space="preserve" text-anchor="middle" x="839" y="-434.5" font-family="Arial" font-size="10.00">(Login/Register)</text>
</g>
<!-- AuthGuard&#45;&gt;Auth -->
<g id="edge4" class="edge">
<title>AuthGuard&#45;&gt;Auth</title>
<path fill="none" stroke="#34495e" d="M839,-502.22C839,-493.82 839,-483.49 839,-473.93"/>
<polygon fill="#34495e" stroke="#34495e" points="842.5,-473.96 839,-463.96 835.5,-473.96 842.5,-473.96"/>
</g>
<!-- Onboarding -->
<g id="node6" class="node">
<title>Onboarding</title>
<path fill="none" stroke="#2c3e50" d="M976.75,-462C976.75,-462 911.25,-462 911.25,-462 905.25,-462 899.25,-456 899.25,-450 899.25,-450 899.25,-438 899.25,-438 899.25,-432 905.25,-426 911.25,-426 911.25,-426 976.75,-426 976.75,-426 982.75,-426 988.75,-432 988.75,-438 988.75,-438 988.75,-450 988.75,-450 988.75,-456 982.75,-462 976.75,-462"/>
<text xml:space="preserve" text-anchor="middle" x="944" y="-446.5" font-family="Arial" font-size="10.00">Onboarding Flow</text>
<text xml:space="preserve" text-anchor="middle" x="944" y="-434.5" font-family="Arial" font-size="10.00">(Setup Wizard)</text>
</g>
<!-- DashHeader -->
<g id="node11" class="node">
<title>DashHeader</title>
<path fill="none" stroke="#2c3e50" d="M532.62,-377.5C532.62,-377.5 451.38,-377.5 451.38,-377.5 445.38,-377.5 439.38,-371.5 439.38,-365.5 439.38,-365.5 439.38,-353.5 439.38,-353.5 439.38,-347.5 445.38,-341.5 451.38,-341.5 451.38,-341.5 532.62,-341.5 532.62,-341.5 538.62,-341.5 544.62,-347.5 544.62,-353.5 544.62,-353.5 544.62,-365.5 544.62,-365.5 544.62,-371.5 538.62,-377.5 532.62,-377.5"/>
<text xml:space="preserve" text-anchor="middle" x="492" y="-362" font-family="Arial" font-size="10.00">Header</text>
<text xml:space="preserve" text-anchor="middle" x="492" y="-350" font-family="Arial" font-size="10.00">(Logo, User, Logout)</text>
</g>
<!-- Dashboard&#45;&gt;DashHeader -->
<g id="edge9" class="edge">
<title>Dashboard&#45;&gt;DashHeader</title>
<path fill="none" stroke="#34495e" d="M1019.18,-425.53C1012.4,-422.45 1005.11,-419.69 998,-418 949.88,-406.58 599.46,-426.95 553,-410 538.99,-404.89 525.81,-395.11 515.32,-385.58"/>
<polygon fill="#34495e" stroke="#34495e" points="517.9,-383.21 508.27,-378.8 513.05,-388.25 517.9,-383.21"/>
</g>
<!-- NavSidebar -->
<g id="node12" class="node">
<title>NavSidebar</title>
<path fill="none" stroke="#2c3e50" d="M673.62,-377.5C673.62,-377.5 574.38,-377.5 574.38,-377.5 568.38,-377.5 562.38,-371.5 562.38,-365.5 562.38,-365.5 562.38,-353.5 562.38,-353.5 562.38,-347.5 568.38,-341.5 574.38,-341.5 574.38,-341.5 673.62,-341.5 673.62,-341.5 679.62,-341.5 685.62,-347.5 685.62,-353.5 685.62,-353.5 685.62,-365.5 685.62,-365.5 685.62,-371.5 679.62,-377.5 673.62,-377.5"/>
<text xml:space="preserve" text-anchor="middle" x="624" y="-362" font-family="Arial" font-size="10.00">Sidebar Navigation</text>
<text xml:space="preserve" text-anchor="middle" x="624" y="-350" font-family="Arial" font-size="10.00">(Menu, Business Select)</text>
</g>
<!-- Dashboard&#45;&gt;NavSidebar -->
<g id="edge10" class="edge">
<title>Dashboard&#45;&gt;NavSidebar</title>
<path fill="none" stroke="#34495e" d="M1019.17,-425.57C1012.39,-422.49 1005.11,-419.72 998,-418 965.27,-410.08 726.99,-420.52 695,-410 679.19,-404.8 663.77,-394.84 651.36,-385.2"/>
<polygon fill="#34495e" stroke="#34495e" points="653.64,-382.54 643.67,-378.94 649.21,-387.97 653.64,-382.54"/>
</g>
<!-- DashGrid -->
<g id="node13" class="node">
<title>DashGrid</title>
<path fill="none" stroke="#2c3e50" d="M765.88,-377.5C765.88,-377.5 716.12,-377.5 716.12,-377.5 710.12,-377.5 704.12,-371.5 704.12,-365.5 704.12,-365.5 704.12,-353.5 704.12,-353.5 704.12,-347.5 710.12,-341.5 716.12,-341.5 716.12,-341.5 765.88,-341.5 765.88,-341.5 771.88,-341.5 777.88,-347.5 777.88,-353.5 777.88,-353.5 777.88,-365.5 777.88,-365.5 777.88,-371.5 771.88,-377.5 765.88,-377.5"/>
<text xml:space="preserve" text-anchor="middle" x="741" y="-362" font-family="Arial" font-size="10.00">Grid Layout</text>
<text xml:space="preserve" text-anchor="middle" x="741" y="-350" font-family="Arial" font-size="10.00">(Responsive)</text>
</g>
<!-- Dashboard&#45;&gt;DashGrid -->
<g id="edge11" class="edge">
<title>Dashboard&#45;&gt;DashGrid</title>
<path fill="none" stroke="#34495e" d="M1016.63,-425.58C1010.53,-422.8 1004.15,-420.14 998,-418 978.46,-411.22 858.17,-385.3 789.3,-370.68"/>
<polygon fill="#34495e" stroke="#34495e" points="790.29,-367.32 779.78,-368.67 788.84,-374.16 790.29,-367.32"/>
</g>
<!-- SimHeader -->
<g id="node21" class="node">
<title>SimHeader</title>
<path fill="none" stroke="#2c3e50" d="M2378.12,-377.5C2378.12,-377.5 2293.88,-377.5 2293.88,-377.5 2287.88,-377.5 2281.88,-371.5 2281.88,-365.5 2281.88,-365.5 2281.88,-353.5 2281.88,-353.5 2281.88,-347.5 2287.88,-341.5 2293.88,-341.5 2293.88,-341.5 2378.12,-341.5 2378.12,-341.5 2384.12,-341.5 2390.12,-347.5 2390.12,-353.5 2390.12,-353.5 2390.12,-365.5 2390.12,-365.5 2390.12,-371.5 2384.12,-377.5 2378.12,-377.5"/>
<text xml:space="preserve" text-anchor="middle" x="2336" y="-362" font-family="Arial" font-size="10.00">Time Control</text>
<text xml:space="preserve" text-anchor="middle" x="2336" y="-350" font-family="Arial" font-size="10.00">(Play, Pause, Speed)</text>
</g>
<!-- Simulation&#45;&gt;SimHeader -->
<g id="edge19" class="edge">
<title>Simulation&#45;&gt;SimHeader</title>
<path fill="none" stroke="#34495e" d="M1286.77,-425.62C1293.89,-422.49 1301.54,-419.69 1309,-418 1344.93,-409.86 1935.26,-412.71 1972,-410 2076.9,-402.26 2197.72,-383.95 2270.4,-371.9"/>
<polygon fill="#34495e" stroke="#34495e" points="2270.86,-375.37 2280.15,-370.27 2269.71,-368.47 2270.86,-375.37"/>
</g>
<!-- SimNav -->
<g id="node22" class="node">
<title>SimNav</title>
<path fill="none" stroke="#2c3e50" d="M1951.38,-377.5C1951.38,-377.5 1808.62,-377.5 1808.62,-377.5 1802.62,-377.5 1796.62,-371.5 1796.62,-365.5 1796.62,-365.5 1796.62,-353.5 1796.62,-353.5 1796.62,-347.5 1802.62,-341.5 1808.62,-341.5 1808.62,-341.5 1951.38,-341.5 1951.38,-341.5 1957.38,-341.5 1963.38,-347.5 1963.38,-353.5 1963.38,-353.5 1963.38,-365.5 1963.38,-365.5 1963.38,-371.5 1957.38,-377.5 1951.38,-377.5"/>
<text xml:space="preserve" text-anchor="middle" x="1880" y="-362" font-family="Arial" font-size="10.00">Simulation Tabs</text>
<text xml:space="preserve" text-anchor="middle" x="1880" y="-350" font-family="Arial" font-size="10.00">(Operations, Market, Finance, Tax)</text>
</g>
<!-- Simulation&#45;&gt;SimNav -->
<g id="edge20" class="edge">
<title>Simulation&#45;&gt;SimNav</title>
<path fill="none" stroke="#34495e" d="M1287.41,-425.62C1294.36,-422.58 1301.79,-419.81 1309,-418 1368.59,-403.05 1385.79,-415.27 1447,-410 1563.63,-399.96 1697.45,-383.98 1785.07,-372.9"/>
<polygon fill="#34495e" stroke="#34495e" points="1785.34,-376.39 1794.82,-371.66 1784.46,-369.45 1785.34,-376.39"/>
</g>
<!-- PerfSummary -->
<g id="node47" class="node">
<title>PerfSummary</title>
<path fill="none" stroke="#2c3e50" d="M1085.25,-377.5C1085.25,-377.5 992.75,-377.5 992.75,-377.5 986.75,-377.5 980.75,-371.5 980.75,-365.5 980.75,-365.5 980.75,-353.5 980.75,-353.5 980.75,-347.5 986.75,-341.5 992.75,-341.5 992.75,-341.5 1085.25,-341.5 1085.25,-341.5 1091.25,-341.5 1097.25,-347.5 1097.25,-353.5 1097.25,-353.5 1097.25,-365.5 1097.25,-365.5 1097.25,-371.5 1091.25,-377.5 1085.25,-377.5"/>
<text xml:space="preserve" text-anchor="middle" x="1039" y="-356" font-family="Arial" font-size="10.00">Performance Summary</text>
</g>
<!-- Analytics&#45;&gt;PerfSummary -->
<g id="edge45" class="edge">
<title>Analytics&#45;&gt;PerfSummary</title>
<path fill="none" stroke="#34495e" d="M1128.04,-425.5C1111.71,-413.58 1089.88,-397.64 1071.92,-384.53"/>
<polygon fill="#34495e" stroke="#34495e" points="1074.29,-381.93 1064.15,-378.86 1070.16,-387.59 1074.29,-381.93"/>
</g>
<!-- TrendCharts -->
<g id="node48" class="node">
<title>TrendCharts</title>
<path fill="none" stroke="#2c3e50" d="M1176.5,-377.5C1176.5,-377.5 1127.5,-377.5 1127.5,-377.5 1121.5,-377.5 1115.5,-371.5 1115.5,-365.5 1115.5,-365.5 1115.5,-353.5 1115.5,-353.5 1115.5,-347.5 1121.5,-341.5 1127.5,-341.5 1127.5,-341.5 1176.5,-341.5 1176.5,-341.5 1182.5,-341.5 1188.5,-347.5 1188.5,-353.5 1188.5,-353.5 1188.5,-365.5 1188.5,-365.5 1188.5,-371.5 1182.5,-377.5 1176.5,-377.5"/>
<text xml:space="preserve" text-anchor="middle" x="1152" y="-362" font-family="Arial" font-size="10.00">Trend Charts</text>
<text xml:space="preserve" text-anchor="middle" x="1152" y="-350" font-family="Arial" font-size="10.00">(6&#45;month)</text>
</g>
<!-- Analytics&#45;&gt;TrendCharts -->
<g id="edge46" class="edge">
<title>Analytics&#45;&gt;TrendCharts</title>
<path fill="none" stroke="#34495e" d="M1152,-425.5C1152,-415 1152,-401.39 1152,-389.33"/>
<polygon fill="#34495e" stroke="#34495e" points="1155.5,-389.48 1152,-379.48 1148.5,-389.48 1155.5,-389.48"/>
</g>
<!-- BusinessComparison -->
<g id="node49" class="node">
<title>BusinessComparison</title>
<path fill="none" stroke="#2c3e50" d="M1307,-377.5C1307,-377.5 1219,-377.5 1219,-377.5 1213,-377.5 1207,-371.5 1207,-365.5 1207,-365.5 1207,-353.5 1207,-353.5 1207,-347.5 1213,-341.5 1219,-341.5 1219,-341.5 1307,-341.5 1307,-341.5 1313,-341.5 1319,-347.5 1319,-353.5 1319,-353.5 1319,-365.5 1319,-365.5 1319,-371.5 1313,-377.5 1307,-377.5"/>
<text xml:space="preserve" text-anchor="middle" x="1263" y="-362" font-family="Arial" font-size="10.00">Business Comparison</text>
<text xml:space="preserve" text-anchor="middle" x="1263" y="-350" font-family="Arial" font-size="10.00">(Try different types)</text>
</g>
<!-- Analytics&#45;&gt;BusinessComparison -->
<g id="edge47" class="edge">
<title>Analytics&#45;&gt;BusinessComparison</title>
<path fill="none" stroke="#34495e" d="M1176.44,-425.66C1183.44,-420.65 1191.04,-415.14 1198,-410 1209.03,-401.85 1221,-392.79 1231.62,-384.68"/>
<polygon fill="#34495e" stroke="#34495e" points="1233.54,-387.62 1239.36,-378.76 1229.29,-382.06 1233.54,-387.62"/>
</g>
<!-- LearningInsights -->
<g id="node50" class="node">
<title>LearningInsights</title>
<path fill="none" stroke="#2c3e50" d="M1423.25,-377.5C1423.25,-377.5 1348.75,-377.5 1348.75,-377.5 1342.75,-377.5 1336.75,-371.5 1336.75,-365.5 1336.75,-365.5 1336.75,-353.5 1336.75,-353.5 1336.75,-347.5 1342.75,-341.5 1348.75,-341.5 1348.75,-341.5 1423.25,-341.5 1423.25,-341.5 1429.25,-341.5 1435.25,-347.5 1435.25,-353.5 1435.25,-353.5 1435.25,-365.5 1435.25,-365.5 1435.25,-371.5 1429.25,-377.5 1423.25,-377.5"/>
<text xml:space="preserve" text-anchor="middle" x="1386" y="-362" font-family="Arial" font-size="10.00">Learning Insights</text>
<text xml:space="preserve" text-anchor="middle" x="1386" y="-350" font-family="Arial" font-size="10.00">(What you learned)</text>
</g>
<!-- Analytics&#45;&gt;LearningInsights -->
<g id="edge48" class="edge">
<title>Analytics&#45;&gt;LearningInsights</title>
<path fill="none" stroke="#34495e" d="M1181.54,-425.51C1187.78,-422.51 1194.46,-419.79 1201,-418 1228.27,-410.53 1301.79,-420.61 1328,-410 1341.1,-404.7 1353.35,-395.21 1363.2,-385.95"/>
<polygon fill="#34495e" stroke="#34495e" points="1365.5,-388.59 1370.11,-379.05 1360.56,-383.64 1365.5,-388.59"/>
</g>
<!-- HealthScore -->
<g id="node14" class="node">
<title>HealthScore</title>
<path fill="none" stroke="#2c3e50" d="M239,-305.5C239,-305.5 175,-305.5 175,-305.5 169,-305.5 163,-299.5 163,-293.5 163,-293.5 163,-281.5 163,-281.5 163,-275.5 169,-269.5 175,-269.5 175,-269.5 239,-269.5 239,-269.5 245,-269.5 251,-275.5 251,-281.5 251,-281.5 251,-293.5 251,-293.5 251,-299.5 245,-305.5 239,-305.5"/>
<text xml:space="preserve" text-anchor="middle" x="207" y="-290" font-family="Arial" font-size="10.00">Business Health</text>
<text xml:space="preserve" text-anchor="middle" x="207" y="-278" font-family="Arial" font-size="10.00">Score Card</text>
</g>
<!-- DashGrid&#45;&gt;HealthScore -->
<g id="edge12" class="edge">
<title>DashGrid&#45;&gt;HealthScore</title>
<path fill="none" stroke="#34495e" d="M713.61,-341.13C707.68,-338.09 701.29,-335.32 695,-333.5 512.41,-280.79 452.62,-339.27 262.55,-305.66"/>
<polygon fill="#34495e" stroke="#34495e" points="263.28,-302.23 252.82,-303.87 262.02,-309.12 263.28,-302.23"/>
</g>
<!-- MetricsRow -->
<g id="node15" class="node">
<title>MetricsRow</title>
<path fill="none" stroke="#2c3e50" d="M393.38,-305.5C393.38,-305.5 280.62,-305.5 280.62,-305.5 274.62,-305.5 268.62,-299.5 268.62,-293.5 268.62,-293.5 268.62,-281.5 268.62,-281.5 268.62,-275.5 274.62,-269.5 280.62,-269.5 280.62,-269.5 393.38,-269.5 393.38,-269.5 399.38,-269.5 405.38,-275.5 405.38,-281.5 405.38,-281.5 405.38,-293.5 405.38,-293.5 405.38,-299.5 399.38,-305.5 393.38,-305.5"/>
<text xml:space="preserve" text-anchor="middle" x="337" y="-290" font-family="Arial" font-size="10.00">Key Metrics</text>
<text xml:space="preserve" text-anchor="middle" x="337" y="-278" font-family="Arial" font-size="10.00">(Revenue, Cash, Inventory)</text>
</g>
<!-- DashGrid&#45;&gt;MetricsRow -->
<g id="edge13" class="edge">
<title>DashGrid&#45;&gt;MetricsRow</title>
<path fill="none" stroke="#34495e" d="M713.07,-341.05C707.28,-338.09 701.08,-335.37 695,-333.5 578.56,-297.66 540.18,-323.66 417.15,-305.84"/>
<polygon fill="#34495e" stroke="#34495e" points="417.68,-302.38 407.27,-304.33 416.62,-309.3 417.68,-302.38"/>
</g>
<!-- AlertsPanel -->
<g id="node16" class="node">
<title>AlertsPanel</title>
<path fill="none" stroke="#2c3e50" d="M836.62,-305.5C836.62,-305.5 761.38,-305.5 761.38,-305.5 755.38,-305.5 749.38,-299.5 749.38,-293.5 749.38,-293.5 749.38,-281.5 749.38,-281.5 749.38,-275.5 755.38,-269.5 761.38,-269.5 761.38,-269.5 836.62,-269.5 836.62,-269.5 842.62,-269.5 848.62,-275.5 848.62,-281.5 848.62,-281.5 848.62,-293.5 848.62,-293.5 848.62,-299.5 842.62,-305.5 836.62,-305.5"/>
<text xml:space="preserve" text-anchor="middle" x="799" y="-290" font-family="Arial" font-size="10.00">Alerts Panel</text>
<text xml:space="preserve" text-anchor="middle" x="799" y="-278" font-family="Arial" font-size="10.00">(Critical, Warnings)</text>
</g>
<!-- DashGrid&#45;&gt;AlertsPanel -->
<g id="edge14" class="edge">
<title>DashGrid&#45;&gt;AlertsPanel</title>
<path fill="none" stroke="#34495e" d="M755.34,-341.2C762.08,-333.06 770.26,-323.19 777.7,-314.2"/>
<polygon fill="#34495e" stroke="#34495e" points="780.18,-316.7 783.86,-306.77 774.79,-312.24 780.18,-316.7"/>
</g>
<!-- ForecastCard -->
<g id="node17" class="node">
<title>ForecastCard</title>
<path fill="none" stroke="#2c3e50" d="M945.12,-305.5C945.12,-305.5 878.88,-305.5 878.88,-305.5 872.88,-305.5 866.88,-299.5 866.88,-293.5 866.88,-293.5 866.88,-281.5 866.88,-281.5 866.88,-275.5 872.88,-269.5 878.88,-269.5 878.88,-269.5 945.12,-269.5 945.12,-269.5 951.12,-269.5 957.12,-275.5 957.12,-281.5 957.12,-281.5 957.12,-293.5 957.12,-293.5 957.12,-299.5 951.12,-305.5 945.12,-305.5"/>
<text xml:space="preserve" text-anchor="middle" x="912" y="-290" font-family="Arial" font-size="10.00">4&#45;Week Forecast</text>
<text xml:space="preserve" text-anchor="middle" x="912" y="-278" font-family="Arial" font-size="10.00">(Chart)</text>
</g>
<!-- DashGrid&#45;&gt;ForecastCard -->
<g id="edge15" class="edge">
<title>DashGrid&#45;&gt;ForecastCard</title>
<path fill="none" stroke="#34495e" d="M778.1,-343.31C801.76,-333.63 832.78,-320.93 859.01,-310.19"/>
<polygon fill="#34495e" stroke="#34495e" points="860.22,-313.48 868.15,-306.45 857.57,-307 860.22,-313.48"/>
</g>
<!-- RecommendCard -->
<g id="node18" class="node">
<title>RecommendCard</title>
<path fill="none" stroke="#2c3e50" d="M718.88,-305.5C718.88,-305.5 645.12,-305.5 645.12,-305.5 639.12,-305.5 633.12,-299.5 633.12,-293.5 633.12,-293.5 633.12,-281.5 633.12,-281.5 633.12,-275.5 639.12,-269.5 645.12,-269.5 645.12,-269.5 718.88,-269.5 718.88,-269.5 724.88,-269.5 730.88,-275.5 730.88,-281.5 730.88,-281.5 730.88,-293.5 730.88,-293.5 730.88,-299.5 724.88,-305.5 718.88,-305.5"/>
<text xml:space="preserve" text-anchor="middle" x="682" y="-290" font-family="Arial" font-size="10.00">Recommendations</text>
<text xml:space="preserve" text-anchor="middle" x="682" y="-278" font-family="Arial" font-size="10.00">(Action Items)</text>
</g>
<!-- DashGrid&#45;&gt;RecommendCard -->
<g id="edge16" class="edge">
<title>DashGrid&#45;&gt;RecommendCard</title>
<path fill="none" stroke="#34495e" d="M726.42,-341.2C719.56,-333.06 711.24,-323.19 703.66,-314.2"/>
<polygon fill="#34495e" stroke="#34495e" points="706.51,-312.15 697.39,-306.76 701.16,-316.66 706.51,-312.15"/>
</g>
<!-- FocusGuideCard -->
<g id="node19" class="node">
<title>FocusGuideCard</title>
<path fill="none" stroke="#2c3e50" d="M602.88,-305.5C602.88,-305.5 547.12,-305.5 547.12,-305.5 541.12,-305.5 535.12,-299.5 535.12,-293.5 535.12,-293.5 535.12,-281.5 535.12,-281.5 535.12,-275.5 541.12,-269.5 547.12,-269.5 547.12,-269.5 602.88,-269.5 602.88,-269.5 608.88,-269.5 614.88,-275.5 614.88,-281.5 614.88,-281.5 614.88,-293.5 614.88,-293.5 614.88,-299.5 608.88,-305.5 602.88,-305.5"/>
<text xml:space="preserve" text-anchor="middle" x="575" y="-290" font-family="Arial" font-size="10.00">Today&#39;s Focus</text>
<text xml:space="preserve" text-anchor="middle" x="575" y="-278" font-family="Arial" font-size="10.00">Guide Card</text>
</g>
<!-- DashGrid&#45;&gt;FocusGuideCard -->
<g id="edge17" class="edge">
<title>DashGrid&#45;&gt;FocusGuideCard</title>
<path fill="none" stroke="#34495e" d="M710.62,-341.22C705.47,-338.51 700.13,-335.84 695,-333.5 682.15,-327.63 652.51,-316.51 625.91,-306.79"/>
<polygon fill="#34495e" stroke="#34495e" points="627.16,-303.52 616.56,-303.39 624.76,-310.1 627.16,-303.52"/>
</g>
<!-- GoalsCard -->
<g id="node20" class="node">
<title>GoalsCard</title>
<path fill="none" stroke="#2c3e50" d="M504.62,-305.5C504.62,-305.5 435.38,-305.5 435.38,-305.5 429.38,-305.5 423.38,-299.5 423.38,-293.5 423.38,-293.5 423.38,-281.5 423.38,-281.5 423.38,-275.5 429.38,-269.5 435.38,-269.5 435.38,-269.5 504.62,-269.5 504.62,-269.5 510.62,-269.5 516.62,-275.5 516.62,-281.5 516.62,-281.5 516.62,-293.5 516.62,-293.5 516.62,-299.5 510.62,-305.5 504.62,-305.5"/>
<text xml:space="preserve" text-anchor="middle" x="470" y="-290" font-family="Arial" font-size="10.00">Profitability Goals</text>
<text xml:space="preserve" text-anchor="middle" x="470" y="-278" font-family="Arial" font-size="10.00">Progress</text>
</g>
<!-- DashGrid&#45;&gt;GoalsCard -->
<g id="edge18" class="edge">
<title>DashGrid&#45;&gt;GoalsCard</title>
<path fill="none" stroke="#34495e" d="M712.47,-341.1C706.83,-338.21 700.85,-335.51 695,-333.5 626.23,-309.87 602.29,-321.63 527.79,-305.68"/>
<polygon fill="#34495e" stroke="#34495e" points="528.93,-302.35 518.41,-303.57 527.4,-309.17 528.93,-302.35"/>
</g>
<!-- Notifications -->
<g id="node66" class="node">
<title>Notifications</title>
<path fill="none" stroke="#2c3e50" d="M1152.38,-136.5C1152.38,-136.5 1099.62,-136.5 1099.62,-136.5 1093.62,-136.5 1087.62,-130.5 1087.62,-124.5 1087.62,-124.5 1087.62,-112.5 1087.62,-112.5 1087.62,-106.5 1093.62,-100.5 1099.62,-100.5 1099.62,-100.5 1152.38,-100.5 1152.38,-100.5 1158.38,-100.5 1164.38,-106.5 1164.38,-112.5 1164.38,-112.5 1164.38,-124.5 1164.38,-124.5 1164.38,-130.5 1158.38,-136.5 1152.38,-136.5"/>
<text xml:space="preserve" text-anchor="middle" x="1126" y="-121" font-family="Arial" font-size="10.00">Notifications</text>
<text xml:space="preserve" text-anchor="middle" x="1126" y="-109" font-family="Arial" font-size="10.00">(Toast, Alerts)</text>
</g>
<!-- AlertsPanel&#45;&gt;Notifications -->
<g id="edge68" class="edge">
<title>AlertsPanel&#45;&gt;Notifications</title>
<path fill="none" stroke="#34495e" d="M834.51,-269.02C842.09,-265.98 850.18,-263.24 858,-261.5 881.01,-256.37 1050.63,-266.93 1070,-253.5 1104.72,-229.42 1117.98,-179.44 1123,-147.79"/>
<polygon fill="#34495e" stroke="#34495e" points="1126.43,-148.54 1124.34,-138.15 1119.5,-147.57 1126.43,-148.54"/>
</g>
<!-- DataViz -->
<g id="node65" class="node">
<title>DataViz</title>
<path fill="none" stroke="#2c3e50" d="M1265.75,-136.5C1265.75,-136.5 1194.25,-136.5 1194.25,-136.5 1188.25,-136.5 1182.25,-130.5 1182.25,-124.5 1182.25,-124.5 1182.25,-112.5 1182.25,-112.5 1182.25,-106.5 1188.25,-100.5 1194.25,-100.5 1194.25,-100.5 1265.75,-100.5 1265.75,-100.5 1271.75,-100.5 1277.75,-106.5 1277.75,-112.5 1277.75,-112.5 1277.75,-124.5 1277.75,-124.5 1277.75,-130.5 1271.75,-136.5 1265.75,-136.5"/>
<text xml:space="preserve" text-anchor="middle" x="1230" y="-121" font-family="Arial" font-size="10.00">Data Visualization</text>
<text xml:space="preserve" text-anchor="middle" x="1230" y="-109" font-family="Arial" font-size="10.00">(Charts, Graphs)</text>
</g>
<!-- ForecastCard&#45;&gt;DataViz -->
<g id="edge66" class="edge">
<title>ForecastCard&#45;&gt;DataViz</title>
<path fill="none" stroke="#34495e" d="M957.27,-283.27C1010.65,-278.79 1095.59,-269.42 1123,-253.5 1166.49,-228.25 1199.17,-177.99 1216.37,-146.71"/>
<polygon fill="#34495e" stroke="#34495e" points="1219.28,-148.7 1220.89,-138.23 1213.1,-145.4 1219.28,-148.7"/>
</g>
<!-- DailyChecklist -->
<g id="node38" class="node">
<title>DailyChecklist</title>
<path fill="none" stroke="#2c3e50" d="M611.38,-221C611.38,-221 552.62,-221 552.62,-221 546.62,-221 540.62,-215 540.62,-209 540.62,-209 540.62,-197 540.62,-197 540.62,-191 546.62,-185 552.62,-185 552.62,-185 611.38,-185 611.38,-185 617.38,-185 623.38,-191 623.38,-197 623.38,-197 623.38,-209 623.38,-209 623.38,-215 617.38,-221 611.38,-221"/>
<text xml:space="preserve" text-anchor="middle" x="582" y="-205.5" font-family="Arial" font-size="10.00">Daily Checklist</text>
<text xml:space="preserve" text-anchor="middle" x="582" y="-193.5" font-family="Arial" font-size="10.00">(3&#45;5 Tasks)</text>
</g>
<!-- FocusGuideCard&#45;&gt;DailyChecklist -->
<g id="edge36" class="edge">
<title>FocusGuideCard&#45;&gt;DailyChecklist</title>
<path fill="none" stroke="#34495e" d="M576.48,-269C577.38,-258.5 578.53,-244.89 579.55,-232.83"/>
<polygon fill="#34495e" stroke="#34495e" points="583.03,-233.24 580.39,-222.98 576.06,-232.65 583.03,-233.24"/>
</g>
<!-- WeeklyReview -->
<g id="node39" class="node">
<title>WeeklyReview</title>
<path fill="none" stroke="#2c3e50" d="M726.88,-221C726.88,-221 653.12,-221 653.12,-221 647.12,-221 641.12,-215 641.12,-209 641.12,-209 641.12,-197 641.12,-197 641.12,-191 647.12,-185 653.12,-185 653.12,-185 726.88,-185 726.88,-185 732.88,-185 738.88,-191 738.88,-197 738.88,-197 738.88,-209 738.88,-209 738.88,-215 732.88,-221 726.88,-221"/>
<text xml:space="preserve" text-anchor="middle" x="690" y="-205.5" font-family="Arial" font-size="10.00">Weekly Deep Dive</text>
<text xml:space="preserve" text-anchor="middle" x="690" y="-193.5" font-family="Arial" font-size="10.00">(60&#45;min Review)</text>
</g>
<!-- FocusGuideCard&#45;&gt;WeeklyReview -->
<g id="edge37" class="edge">
<title>FocusGuideCard&#45;&gt;WeeklyReview</title>
<path fill="none" stroke="#34495e" d="M607.29,-269.17C615.54,-264.38 624.25,-258.98 632,-253.5 642.48,-246.08 653.35,-237.18 662.8,-228.98"/>
<polygon fill="#34495e" stroke="#34495e" points="665.06,-231.66 670.24,-222.41 660.43,-226.41 665.06,-231.66"/>
</g>
<!-- MonthlyStrategy -->
<g id="node40" class="node">
<title>MonthlyStrategy</title>
<path fill="none" stroke="#2c3e50" d="M835.12,-221C835.12,-221 768.88,-221 768.88,-221 762.88,-221 756.88,-215 756.88,-209 756.88,-209 756.88,-197 756.88,-197 756.88,-191 762.88,-185 768.88,-185 768.88,-185 835.12,-185 835.12,-185 841.12,-185 847.12,-191 847.12,-197 847.12,-197 847.12,-209 847.12,-209 847.12,-215 841.12,-221 835.12,-221"/>
<text xml:space="preserve" text-anchor="middle" x="802" y="-205.5" font-family="Arial" font-size="10.00">Monthly Strategy</text>
<text xml:space="preserve" text-anchor="middle" x="802" y="-193.5" font-family="Arial" font-size="10.00">(Planning)</text>
</g>
<!-- FocusGuideCard&#45;&gt;MonthlyStrategy -->
<g id="edge38" class="edge">
<title>FocusGuideCard&#45;&gt;MonthlyStrategy</title>
<path fill="none" stroke="#34495e" d="M604.54,-269.02C610.78,-266.02 617.46,-263.3 624,-261.5 650.63,-254.19 722.6,-264.33 748,-253.5 760.36,-248.23 771.72,-238.88 780.79,-229.71"/>
<polygon fill="#34495e" stroke="#34495e" points="783.18,-232.28 787.42,-222.58 778.05,-227.52 783.18,-232.28"/>
</g>
<!-- HabitTracker -->
<g id="node41" class="node">
<title>HabitTracker</title>
<path fill="none" stroke="#2c3e50" d="M948.38,-221C948.38,-221 877.62,-221 877.62,-221 871.62,-221 865.62,-215 865.62,-209 865.62,-209 865.62,-197 865.62,-197 865.62,-191 871.62,-185 877.62,-185 877.62,-185 948.38,-185 948.38,-185 954.38,-185 960.38,-191 960.38,-197 960.38,-197 960.38,-209 960.38,-209 960.38,-215 954.38,-221 948.38,-221"/>
<text xml:space="preserve" text-anchor="middle" x="913" y="-205.5" font-family="Arial" font-size="10.00">Habit Tracker</text>
<text xml:space="preserve" text-anchor="middle" x="913" y="-193.5" font-family="Arial" font-size="10.00">(Streaks, Badges)</text>
</g>
<!-- FocusGuideCard&#45;&gt;HabitTracker -->
<g id="edge39" class="edge">
<title>FocusGuideCard&#45;&gt;HabitTracker</title>
<path fill="none" stroke="#34495e" d="M603.97,-269.12C610.37,-266.03 617.25,-263.25 624,-261.5 673.94,-248.58 807.99,-272.38 856,-253.5 869.21,-248.3 881.44,-238.65 891.16,-229.23"/>
<polygon fill="#34495e" stroke="#34495e" points="893.51,-231.84 897.96,-222.23 888.48,-226.97 893.51,-231.84"/>
</g>
<!-- Nudges -->
<g id="node42" class="node">
<title>Nudges</title>
<path fill="none" stroke="#2c3e50" d="M1045.5,-221C1045.5,-221 990.5,-221 990.5,-221 984.5,-221 978.5,-215 978.5,-209 978.5,-209 978.5,-197 978.5,-197 978.5,-191 984.5,-185 990.5,-185 990.5,-185 1045.5,-185 1045.5,-185 1051.5,-185 1057.5,-191 1057.5,-197 1057.5,-197 1057.5,-209 1057.5,-209 1057.5,-215 1051.5,-221 1045.5,-221"/>
<text xml:space="preserve" text-anchor="middle" x="1018" y="-205.5" font-family="Arial" font-size="10.00">Smart Nudges</text>
<text xml:space="preserve" text-anchor="middle" x="1018" y="-193.5" font-family="Arial" font-size="10.00">(Reminders)</text>
</g>
<!-- FocusGuideCard&#45;&gt;Nudges -->
<g id="edge40" class="edge">
<title>FocusGuideCard&#45;&gt;Nudges</title>
<path fill="none" stroke="#34495e" d="M603.96,-269.06C610.35,-265.97 617.24,-263.21 624,-261.5 661.18,-252.11 933.79,-268.67 969,-253.5 980.78,-248.42 991.21,-239.05 999.39,-229.82"/>
<polygon fill="#34495e" stroke="#34495e" points="1001.91,-232.27 1005.55,-222.32 996.5,-227.83 1001.91,-232.27"/>
</g>
<!-- GoalsList -->
<g id="node43" class="node">
<title>GoalsList</title>
<path fill="none" stroke="#2c3e50" d="M113.88,-221C113.88,-221 28.12,-221 28.12,-221 22.12,-221 16.12,-215 16.12,-209 16.12,-209 16.12,-197 16.12,-197 16.12,-191 22.12,-185 28.12,-185 28.12,-185 113.88,-185 113.88,-185 119.88,-185 125.88,-191 125.88,-197 125.88,-197 125.88,-209 125.88,-209 125.88,-215 119.88,-221 113.88,-221"/>
<text xml:space="preserve" text-anchor="middle" x="71" y="-205.5" font-family="Arial" font-size="10.00">Goals List</text>
<text xml:space="preserve" text-anchor="middle" x="71" y="-193.5" font-family="Arial" font-size="10.00">(Revenue, Profit, etc)</text>
</g>
<!-- GoalsCard&#45;&gt;GoalsList -->
<g id="edge41" class="edge">
<title>GoalsCard&#45;&gt;GoalsList</title>
<path fill="none" stroke="#34495e" d="M436.68,-269.09C429.39,-266 421.58,-263.23 414,-261.5 383.76,-254.6 164.2,-263.94 135,-253.5 120.49,-248.31 106.67,-238.48 95.61,-228.94"/>
<polygon fill="#34495e" stroke="#34495e" points="98.24,-226.6 88.48,-222.47 93.53,-231.78 98.24,-226.6"/>
</g>
<!-- MilestoneTracker -->
<g id="node44" class="node">
<title>MilestoneTracker</title>
<path fill="none" stroke="#2c3e50" d="M242.25,-221C242.25,-221 155.75,-221 155.75,-221 149.75,-221 143.75,-215 143.75,-209 143.75,-209 143.75,-197 143.75,-197 143.75,-191 149.75,-185 155.75,-185 155.75,-185 242.25,-185 242.25,-185 248.25,-185 254.25,-191 254.25,-197 254.25,-197 254.25,-209 254.25,-209 254.25,-215 248.25,-221 242.25,-221"/>
<text xml:space="preserve" text-anchor="middle" x="199" y="-205.5" font-family="Arial" font-size="10.00">Milestone Timeline</text>
<text xml:space="preserve" text-anchor="middle" x="199" y="-193.5" font-family="Arial" font-size="10.00">(M1→M3→M6→M12)</text>
</g>
<!-- GoalsCard&#45;&gt;MilestoneTracker -->
<g id="edge42" class="edge">
<title>GoalsCard&#45;&gt;MilestoneTracker</title>
<path fill="none" stroke="#34495e" d="M436.35,-269.1C429.14,-266.06 421.45,-263.3 414,-261.5 381.55,-253.68 295.33,-265.01 264,-253.5 249.4,-248.14 235.38,-238.28 224.12,-228.77"/>
<polygon fill="#34495e" stroke="#34495e" points="226.65,-226.34 216.85,-222.31 222,-231.57 226.65,-226.34"/>
</g>
<!-- BenchmarkComparison -->
<g id="node45" class="node">
<title>BenchmarkComparison</title>
<path fill="none" stroke="#2c3e50" d="M381.5,-221C381.5,-221 284.5,-221 284.5,-221 278.5,-221 272.5,-215 272.5,-209 272.5,-209 272.5,-197 272.5,-197 272.5,-191 278.5,-185 284.5,-185 284.5,-185 381.5,-185 381.5,-185 387.5,-185 393.5,-191 393.5,-197 393.5,-197 393.5,-209 393.5,-209 393.5,-215 387.5,-221 381.5,-221"/>
<text xml:space="preserve" text-anchor="middle" x="333" y="-205.5" font-family="Arial" font-size="10.00">Benchmark Comparison</text>
<text xml:space="preserve" text-anchor="middle" x="333" y="-193.5" font-family="Arial" font-size="10.00">(You vs Average)</text>
</g>
<!-- GoalsCard&#45;&gt;BenchmarkComparison -->
<g id="edge43" class="edge">
<title>GoalsCard&#45;&gt;BenchmarkComparison</title>
<path fill="none" stroke="#34495e" d="M431.27,-269.12C421.54,-264.37 411.25,-259.01 402,-253.5 389.23,-245.9 375.83,-236.61 364.26,-228.14"/>
<polygon fill="#34495e" stroke="#34495e" points="366.36,-225.34 356.25,-222.18 362.18,-230.96 366.36,-225.34"/>
</g>
<!-- ProgressDashboard -->
<g id="node46" class="node">
<title>ProgressDashboard</title>
<path fill="none" stroke="#2c3e50" d="M504.62,-221C504.62,-221 423.38,-221 423.38,-221 417.38,-221 411.38,-215 411.38,-209 411.38,-209 411.38,-197 411.38,-197 411.38,-191 417.38,-185 423.38,-185 423.38,-185 504.62,-185 504.62,-185 510.62,-185 516.62,-191 516.62,-197 516.62,-197 516.62,-209 516.62,-209 516.62,-215 510.62,-221 504.62,-221"/>
<text xml:space="preserve" text-anchor="middle" x="464" y="-205.5" font-family="Arial" font-size="10.00">Progress Dashboard</text>
<text xml:space="preserve" text-anchor="middle" x="464" y="-193.5" font-family="Arial" font-size="10.00">(Visual Indicators)</text>
</g>
<!-- GoalsCard&#45;&gt;ProgressDashboard -->
<g id="edge44" class="edge">
<title>GoalsCard&#45;&gt;ProgressDashboard</title>
<path fill="none" stroke="#34495e" d="M468.73,-269C467.96,-258.5 466.97,-244.89 466.1,-232.83"/>
<polygon fill="#34495e" stroke="#34495e" points="469.6,-232.7 465.38,-222.98 462.62,-233.21 469.6,-232.7"/>
</g>
<!-- GameTime -->
<g id="node59" class="node">
<title>GameTime</title>
<path fill="none" stroke="#2c3e50" d="M2490.88,-136.5C2490.88,-136.5 2417.12,-136.5 2417.12,-136.5 2411.12,-136.5 2405.12,-130.5 2405.12,-124.5 2405.12,-124.5 2405.12,-112.5 2405.12,-112.5 2405.12,-106.5 2411.12,-100.5 2417.12,-100.5 2417.12,-100.5 2490.88,-100.5 2490.88,-100.5 2496.88,-100.5 2502.88,-106.5 2502.88,-112.5 2502.88,-112.5 2502.88,-124.5 2502.88,-124.5 2502.88,-130.5 2496.88,-136.5 2490.88,-136.5"/>
<text xml:space="preserve" text-anchor="middle" x="2454" y="-121" font-family="Arial" font-size="10.00">Game Time</text>
<text xml:space="preserve" text-anchor="middle" x="2454" y="-109" font-family="Arial" font-size="10.00">(Day/Week/Month)</text>
</g>
<!-- SimHeader&#45;&gt;GameTime -->
<g id="edge62" class="edge">
<title>SimHeader&#45;&gt;GameTime</title>
<path fill="none" stroke="#34495e" d="M2390.39,-349.56C2477.04,-334.09 2640.11,-299.51 2674,-253.5 2694.16,-226.12 2697.44,-201.63 2674,-177 2661.57,-163.95 2528.75,-175.65 2512,-169 2498.68,-163.71 2486.25,-154.04 2476.34,-144.64"/>
<polygon fill="#34495e" stroke="#34495e" points="2478.92,-142.27 2469.39,-137.64 2473.95,-147.2 2478.92,-142.27"/>
</g>
<!-- OperationsView -->
<g id="node23" class="node">
<title>OperationsView</title>
<path fill="none" stroke="#2c3e50" d="M2113.62,-305.5C2113.62,-305.5 2014.38,-305.5 2014.38,-305.5 2008.38,-305.5 2002.38,-299.5 2002.38,-293.5 2002.38,-293.5 2002.38,-281.5 2002.38,-281.5 2002.38,-275.5 2008.38,-269.5 2014.38,-269.5 2014.38,-269.5 2113.62,-269.5 2113.62,-269.5 2119.62,-269.5 2125.62,-275.5 2125.62,-281.5 2125.62,-281.5 2125.62,-293.5 2125.62,-293.5 2125.62,-299.5 2119.62,-305.5 2113.62,-305.5"/>
<text xml:space="preserve" text-anchor="middle" x="2064" y="-290" font-family="Arial" font-size="10.00">Operations Tab</text>
<text xml:space="preserve" text-anchor="middle" x="2064" y="-278" font-family="Arial" font-size="10.00">(Inventory, Staff, Orders)</text>
</g>
<!-- SimNav&#45;&gt;OperationsView -->
<g id="edge21" class="edge">
<title>SimNav&#45;&gt;OperationsView</title>
<path fill="none" stroke="#34495e" d="M1925.96,-341.02C1950.75,-331.58 1981.55,-319.87 2007.76,-309.89"/>
<polygon fill="#34495e" stroke="#34495e" points="2008.79,-313.25 2016.9,-306.42 2006.31,-306.7 2008.79,-313.25"/>
</g>
<!-- MarketView -->
<g id="node24" class="node">
<title>MarketView</title>
<path fill="none" stroke="#2c3e50" d="M2465.88,-305.5C2465.88,-305.5 2338.12,-305.5 2338.12,-305.5 2332.12,-305.5 2326.12,-299.5 2326.12,-293.5 2326.12,-293.5 2326.12,-281.5 2326.12,-281.5 2326.12,-275.5 2332.12,-269.5 2338.12,-269.5 2338.12,-269.5 2465.88,-269.5 2465.88,-269.5 2471.88,-269.5 2477.88,-275.5 2477.88,-281.5 2477.88,-281.5 2477.88,-293.5 2477.88,-293.5 2477.88,-299.5 2471.88,-305.5 2465.88,-305.5"/>
<text xml:space="preserve" text-anchor="middle" x="2402" y="-290" font-family="Arial" font-size="10.00">Market Tab</text>
<text xml:space="preserve" text-anchor="middle" x="2402" y="-278" font-family="Arial" font-size="10.00">(Prices, Demand, Competitors)</text>
</g>
<!-- SimNav&#45;&gt;MarketView -->
<g id="edge22" class="edge">
<title>SimNav&#45;&gt;MarketView</title>
<path fill="none" stroke="#34495e" d="M1963.87,-347.25C2060.06,-334.35 2217.04,-313.3 2314.67,-300.21"/>
<polygon fill="#34495e" stroke="#34495e" points="2315.03,-303.69 2324.48,-298.9 2314.1,-296.76 2315.03,-303.69"/>
</g>
<!-- FinanceView -->
<g id="node25" class="node">
<title>FinanceView</title>
<path fill="none" stroke="#2c3e50" d="M1680.5,-305.5C1680.5,-305.5 1571.5,-305.5 1571.5,-305.5 1565.5,-305.5 1559.5,-299.5 1559.5,-293.5 1559.5,-293.5 1559.5,-281.5 1559.5,-281.5 1559.5,-275.5 1565.5,-269.5 1571.5,-269.5 1571.5,-269.5 1680.5,-269.5 1680.5,-269.5 1686.5,-269.5 1692.5,-275.5 1692.5,-281.5 1692.5,-281.5 1692.5,-293.5 1692.5,-293.5 1692.5,-299.5 1686.5,-305.5 1680.5,-305.5"/>
<text xml:space="preserve" text-anchor="middle" x="1626" y="-290" font-family="Arial" font-size="10.00">Finance Tab</text>
<text xml:space="preserve" text-anchor="middle" x="1626" y="-278" font-family="Arial" font-size="10.00">(Income, Expenses, Profit)</text>
</g>
<!-- SimNav&#45;&gt;FinanceView -->
<g id="edge23" class="edge">
<title>SimNav&#45;&gt;FinanceView</title>
<path fill="none" stroke="#34495e" d="M1816.56,-341.02C1781.12,-331.25 1736.78,-319.03 1699.79,-308.84"/>
<polygon fill="#34495e" stroke="#34495e" points="1701.1,-305.57 1690.53,-306.28 1699.24,-312.31 1701.1,-305.57"/>
</g>
<!-- TaxView -->
<g id="node26" class="node">
<title>TaxView</title>
<path fill="none" stroke="#2c3e50" d="M1945.75,-305.5C1945.75,-305.5 1814.25,-305.5 1814.25,-305.5 1808.25,-305.5 1802.25,-299.5 1802.25,-293.5 1802.25,-293.5 1802.25,-281.5 1802.25,-281.5 1802.25,-275.5 1808.25,-269.5 1814.25,-269.5 1814.25,-269.5 1945.75,-269.5 1945.75,-269.5 1951.75,-269.5 1957.75,-275.5 1957.75,-281.5 1957.75,-281.5 1957.75,-293.5 1957.75,-293.5 1957.75,-299.5 1951.75,-305.5 1945.75,-305.5"/>
<text xml:space="preserve" text-anchor="middle" x="1880" y="-290" font-family="Arial" font-size="10.00">Tax Tab</text>
<text xml:space="preserve" text-anchor="middle" x="1880" y="-278" font-family="Arial" font-size="10.00">(GST, Income Tax, Compliance)</text>
</g>
<!-- SimNav&#45;&gt;TaxView -->
<g id="edge24" class="edge">
<title>SimNav&#45;&gt;TaxView</title>
<path fill="none" stroke="#34495e" d="M1880,-341.2C1880,-333.91 1880,-325.23 1880,-317.04"/>
<polygon fill="#34495e" stroke="#34495e" points="1883.5,-317.12 1880,-307.12 1876.5,-317.12 1883.5,-317.12"/>
</g>
<!-- InventoryMgmt -->
<g id="node27" class="node">
<title>InventoryMgmt</title>
<path fill="none" stroke="#2c3e50" d="M2225.5,-221C2225.5,-221 2152.5,-221 2152.5,-221 2146.5,-221 2140.5,-215 2140.5,-209 2140.5,-209 2140.5,-197 2140.5,-197 2140.5,-191 2146.5,-185 2152.5,-185 2152.5,-185 2225.5,-185 2225.5,-185 2231.5,-185 2237.5,-191 2237.5,-197 2237.5,-197 2237.5,-209 2237.5,-209 2237.5,-215 2231.5,-221 2225.5,-221"/>
<text xml:space="preserve" text-anchor="middle" x="2189" y="-205.5" font-family="Arial" font-size="10.00">Inventory Manager</text>
<text xml:space="preserve" text-anchor="middle" x="2189" y="-193.5" font-family="Arial" font-size="10.00">(Stock, Reorder)</text>
</g>
<!-- OperationsView&#45;&gt;InventoryMgmt -->
<g id="edge25" class="edge">
<title>OperationsView&#45;&gt;InventoryMgmt</title>
<path fill="none" stroke="#34495e" d="M2103.53,-269.06C2112.79,-264.43 2122.44,-259.13 2131,-253.5 2142.01,-246.26 2153.22,-237.16 2162.82,-228.75"/>
<polygon fill="#34495e" stroke="#34495e" points="2164.9,-231.59 2170,-222.31 2160.22,-226.38 2164.9,-231.59"/>
</g>
<!-- EmployeePanel -->
<g id="node28" class="node">
<title>EmployeePanel</title>
<path fill="none" stroke="#2c3e50" d="M2330.62,-221C2330.62,-221 2267.38,-221 2267.38,-221 2261.38,-221 2255.38,-215 2255.38,-209 2255.38,-209 2255.38,-197 2255.38,-197 2255.38,-191 2261.38,-185 2267.38,-185 2267.38,-185 2330.62,-185 2330.62,-185 2336.62,-185 2342.62,-191 2342.62,-197 2342.62,-197 2342.62,-209 2342.62,-209 2342.62,-215 2336.62,-221 2330.62,-221"/>
<text xml:space="preserve" text-anchor="middle" x="2299" y="-205.5" font-family="Arial" font-size="10.00">Employee Panel</text>
<text xml:space="preserve" text-anchor="middle" x="2299" y="-193.5" font-family="Arial" font-size="10.00">(Hire, Manage)</text>
</g>
<!-- OperationsView&#45;&gt;EmployeePanel -->
<g id="edge26" class="edge">
<title>OperationsView&#45;&gt;EmployeePanel</title>
<path fill="none" stroke="#34495e" d="M2125.73,-284.23C2162.61,-280.77 2209.43,-272.56 2247,-253.5 2258.46,-247.69 2269.12,-238.53 2277.76,-229.67"/>
<polygon fill="#34495e" stroke="#34495e" points="2280.17,-232.22 2284.37,-222.49 2275.02,-227.47 2280.17,-232.22"/>
</g>
<!-- OrderQueue -->
<g id="node29" class="node">
<title>OrderQueue</title>
<path fill="none" stroke="#2c3e50" d="M2110.25,-221C2110.25,-221 2017.75,-221 2017.75,-221 2011.75,-221 2005.75,-215 2005.75,-209 2005.75,-209 2005.75,-197 2005.75,-197 2005.75,-191 2011.75,-185 2017.75,-185 2017.75,-185 2110.25,-185 2110.25,-185 2116.25,-185 2122.25,-191 2122.25,-197 2122.25,-197 2122.25,-209 2122.25,-209 2122.25,-215 2116.25,-221 2110.25,-221"/>
<text xml:space="preserve" text-anchor="middle" x="2064" y="-205.5" font-family="Arial" font-size="10.00">Order Queue</text>
<text xml:space="preserve" text-anchor="middle" x="2064" y="-193.5" font-family="Arial" font-size="10.00">(Incoming, Processing)</text>
</g>
<!-- OperationsView&#45;&gt;OrderQueue -->
<g id="edge27" class="edge">
<title>OperationsView&#45;&gt;OrderQueue</title>
<path fill="none" stroke="#34495e" d="M2064,-269C2064,-258.5 2064,-244.89 2064,-232.83"/>
<polygon fill="#34495e" stroke="#34495e" points="2067.5,-232.98 2064,-222.98 2060.5,-232.98 2067.5,-232.98"/>
</g>
<!-- SimulationEngine -->
<g id="node64" class="node">
<title>SimulationEngine</title>
<path fill="none" stroke="#2c3e50" d="M1378.38,-136.5C1378.38,-136.5 1307.62,-136.5 1307.62,-136.5 1301.62,-136.5 1295.62,-130.5 1295.62,-124.5 1295.62,-124.5 1295.62,-112.5 1295.62,-112.5 1295.62,-106.5 1301.62,-100.5 1307.62,-100.5 1307.62,-100.5 1378.38,-100.5 1378.38,-100.5 1384.38,-100.5 1390.38,-106.5 1390.38,-112.5 1390.38,-112.5 1390.38,-124.5 1390.38,-124.5 1390.38,-130.5 1384.38,-136.5 1378.38,-136.5"/>
<text xml:space="preserve" text-anchor="middle" x="1343" y="-121" font-family="Arial" font-size="10.00">Simulation Engine</text>
<text xml:space="preserve" text-anchor="middle" x="1343" y="-109" font-family="Arial" font-size="10.00">(Business Logic)</text>
</g>
<!-- OperationsView&#45;&gt;SimulationEngine -->
<g id="edge63" class="edge">
<title>OperationsView&#45;&gt;SimulationEngine</title>
<path fill="none" stroke="#34495e" d="M2005.45,-269.03C1992.88,-265.95 1979.58,-263.19 1967,-261.5 1951.69,-259.45 1424.1,-261.68 1411,-253.5 1406.01,-250.38 1374.24,-185.03 1355.94,-146.76"/>
<polygon fill="#34495e" stroke="#34495e" points="1359.29,-145.65 1351.83,-138.13 1352.97,-148.66 1359.29,-145.65"/>
</g>
<!-- PriceChart -->
<g id="node30" class="node">
<title>PriceChart</title>
<path fill="none" stroke="#2c3e50" d="M2552.5,-221C2552.5,-221 2473.5,-221 2473.5,-221 2467.5,-221 2461.5,-215 2461.5,-209 2461.5,-209 2461.5,-197 2461.5,-197 2461.5,-191 2467.5,-185 2473.5,-185 2473.5,-185 2552.5,-185 2552.5,-185 2558.5,-185 2564.5,-191 2564.5,-197 2564.5,-197 2564.5,-209 2564.5,-209 2564.5,-215 2558.5,-221 2552.5,-221"/>
<text xml:space="preserve" text-anchor="middle" x="2513" y="-205.5" font-family="Arial" font-size="10.00">Price Chart</text>
<text xml:space="preserve" text-anchor="middle" x="2513" y="-193.5" font-family="Arial" font-size="10.00">(Commodity Prices)</text>
</g>
<!-- MarketView&#45;&gt;PriceChart -->
<g id="edge28" class="edge">
<title>MarketView&#45;&gt;PriceChart</title>
<path fill="none" stroke="#34495e" d="M2429.32,-269.17C2436.78,-264.25 2444.79,-258.79 2452,-253.5 2462.61,-245.72 2473.89,-236.78 2483.82,-228.65"/>
<polygon fill="#34495e" stroke="#34495e" points="2485.86,-231.5 2491.34,-222.43 2481.4,-226.11 2485.86,-231.5"/>
</g>
<!-- CompetitorList -->
<g id="node31" class="node">
<title>CompetitorList</title>
<path fill="none" stroke="#2c3e50" d="M2653.38,-221C2653.38,-221 2594.62,-221 2594.62,-221 2588.62,-221 2582.62,-215 2582.62,-209 2582.62,-209 2582.62,-197 2582.62,-197 2582.62,-191 2588.62,-185 2594.62,-185 2594.62,-185 2653.38,-185 2653.38,-185 2659.38,-185 2665.38,-191 2665.38,-197 2665.38,-197 2665.38,-209 2665.38,-209 2665.38,-215 2659.38,-221 2653.38,-221"/>
<text xml:space="preserve" text-anchor="middle" x="2624" y="-205.5" font-family="Arial" font-size="10.00">Competitor List</text>
<text xml:space="preserve" text-anchor="middle" x="2624" y="-193.5" font-family="Arial" font-size="10.00">(Activity Feed)</text>
</g>
<!-- MarketView&#45;&gt;CompetitorList -->
<g id="edge29" class="edge">
<title>MarketView&#45;&gt;CompetitorList</title>
<path fill="none" stroke="#34495e" d="M2478,-281.64C2509.15,-277.23 2544.68,-268.95 2574,-253.5 2585.02,-247.69 2595.2,-238.65 2603.45,-229.88"/>
<polygon fill="#34495e" stroke="#34495e" points="2606.02,-232.27 2610.03,-222.46 2600.78,-227.63 2606.02,-232.27"/>
</g>
<!-- CustomerDemand -->
<g id="node32" class="node">
<title>CustomerDemand</title>
<path fill="none" stroke="#2c3e50" d="M2431,-221C2431,-221 2373,-221 2373,-221 2367,-221 2361,-215 2361,-209 2361,-209 2361,-197 2361,-197 2361,-191 2367,-185 2373,-185 2373,-185 2431,-185 2431,-185 2437,-185 2443,-191 2443,-197 2443,-197 2443,-209 2443,-209 2443,-215 2437,-221 2431,-221"/>
<text xml:space="preserve" text-anchor="middle" x="2402" y="-205.5" font-family="Arial" font-size="10.00">Demand Graph</text>
<text xml:space="preserve" text-anchor="middle" x="2402" y="-193.5" font-family="Arial" font-size="10.00">(Trending)</text>
</g>
<!-- MarketView&#45;&gt;CustomerDemand -->
<g id="edge30" class="edge">
<title>MarketView&#45;&gt;CustomerDemand</title>
<path fill="none" stroke="#34495e" d="M2402,-269C2402,-258.5 2402,-244.89 2402,-232.83"/>
<polygon fill="#34495e" stroke="#34495e" points="2405.5,-232.98 2402,-222.98 2398.5,-232.98 2405.5,-232.98"/>
</g>
<!-- MarketView&#45;&gt;SimulationEngine -->
<g id="edge64" class="edge">
<title>MarketView&#45;&gt;SimulationEngine</title>
<path fill="none" stroke="#34495e" d="M2325.87,-277.71C2272.52,-271.95 2199.51,-264.89 2135,-261.5 2116,-260.5 1466.42,-263.12 1450,-253.5 1416.16,-233.66 1430.56,-207.59 1406,-177 1400.28,-169.88 1385.44,-156.26 1371.6,-144.07"/>
<polygon fill="#34495e" stroke="#34495e" points="1374.17,-141.67 1364.34,-137.73 1369.57,-146.94 1374.17,-141.67"/>
</g>
<!-- IncomeStmt -->
<g id="node33" class="node">
<title>IncomeStmt</title>
<path fill="none" stroke="#2c3e50" d="M1543.12,-221C1543.12,-221 1470.88,-221 1470.88,-221 1464.88,-221 1458.88,-215 1458.88,-209 1458.88,-209 1458.88,-197 1458.88,-197 1458.88,-191 1464.88,-185 1470.88,-185 1470.88,-185 1543.12,-185 1543.12,-185 1549.12,-185 1555.12,-191 1555.12,-197 1555.12,-197 1555.12,-209 1555.12,-209 1555.12,-215 1549.12,-221 1543.12,-221"/>
<text xml:space="preserve" text-anchor="middle" x="1507" y="-205.5" font-family="Arial" font-size="10.00">Income Statement</text>
<text xml:space="preserve" text-anchor="middle" x="1507" y="-193.5" font-family="Arial" font-size="10.00">(Month, Year)</text>
</g>
<!-- FinanceView&#45;&gt;IncomeStmt -->
<g id="edge31" class="edge">
<title>FinanceView&#45;&gt;IncomeStmt</title>
<path fill="none" stroke="#34495e" d="M1590.1,-269.16C1581.34,-264.45 1572.14,-259.09 1564,-253.5 1553.36,-246.19 1542.47,-237.17 1533.09,-228.85"/>
<polygon fill="#34495e" stroke="#34495e" points="1535.5,-226.31 1525.75,-222.17 1530.79,-231.49 1535.5,-226.31"/>
</g>
<!-- ExpenseBreakdown -->
<g id="node34" class="node">
<title>ExpenseBreakdown</title>
<path fill="none" stroke="#2c3e50" d="M1667,-221C1667,-221 1585,-221 1585,-221 1579,-221 1573,-215 1573,-209 1573,-209 1573,-197 1573,-197 1573,-191 1579,-185 1585,-185 1585,-185 1667,-185 1667,-185 1673,-185 1679,-191 1679,-197 1679,-197 1679,-209 1679,-209 1679,-215 1673,-221 1667,-221"/>
<text xml:space="preserve" text-anchor="middle" x="1626" y="-205.5" font-family="Arial" font-size="10.00">Expense Breakdown</text>
<text xml:space="preserve" text-anchor="middle" x="1626" y="-193.5" font-family="Arial" font-size="10.00">(Chart)</text>
</g>
<!-- FinanceView&#45;&gt;ExpenseBreakdown -->
<g id="edge32" class="edge">
<title>FinanceView&#45;&gt;ExpenseBreakdown</title>
<path fill="none" stroke="#34495e" d="M1626,-269C1626,-258.5 1626,-244.89 1626,-232.83"/>
<polygon fill="#34495e" stroke="#34495e" points="1629.5,-232.98 1626,-222.98 1622.5,-232.98 1629.5,-232.98"/>
</g>
<!-- CashFlow -->
<g id="node35" class="node">
<title>CashFlow</title>
<path fill="none" stroke="#2c3e50" d="M1787.12,-221C1787.12,-221 1708.88,-221 1708.88,-221 1702.88,-221 1696.88,-215 1696.88,-209 1696.88,-209 1696.88,-197 1696.88,-197 1696.88,-191 1702.88,-185 1708.88,-185 1708.88,-185 1787.12,-185 1787.12,-185 1793.12,-185 1799.12,-191 1799.12,-197 1799.12,-197 1799.12,-209 1799.12,-209 1799.12,-215 1793.12,-221 1787.12,-221"/>
<text xml:space="preserve" text-anchor="middle" x="1748" y="-205.5" font-family="Arial" font-size="10.00">Cash Flow Timeline</text>
<text xml:space="preserve" text-anchor="middle" x="1748" y="-193.5" font-family="Arial" font-size="10.00">(Projection)</text>
</g>
<!-- FinanceView&#45;&gt;CashFlow -->
<g id="edge33" class="edge">
<title>FinanceView&#45;&gt;CashFlow</title>
<path fill="none" stroke="#34495e" d="M1661.8,-269.02C1670.57,-264.31 1679.79,-258.99 1688,-253.5 1699.09,-246.09 1710.55,-237.02 1720.45,-228.69"/>
<polygon fill="#34495e" stroke="#34495e" points="1722.59,-231.47 1727.89,-222.3 1718.03,-226.16 1722.59,-231.47"/>
</g>
<!-- FinanceView&#45;&gt;SimulationEngine -->
<g id="edge65" class="edge">
<title>FinanceView&#45;&gt;SimulationEngine</title>
<path fill="none" stroke="#34495e" d="M1559.15,-286.36C1492.9,-284.77 1397.58,-278.1 1371,-253.5 1342.21,-226.85 1338.9,-178.85 1340.19,-148.11"/>
<polygon fill="#34495e" stroke="#34495e" points="1343.67,-148.59 1340.8,-138.39 1336.68,-148.15 1343.67,-148.59"/>
</g>
<!-- TaxCalculator -->
<g id="node36" class="node">
<title>TaxCalculator</title>
<path fill="none" stroke="#2c3e50" d="M1975.5,-221C1975.5,-221 1920.5,-221 1920.5,-221 1914.5,-221 1908.5,-215 1908.5,-209 1908.5,-209 1908.5,-197 1908.5,-197 1908.5,-191 1914.5,-185 1920.5,-185 1920.5,-185 1975.5,-185 1975.5,-185 1981.5,-185 1987.5,-191 1987.5,-197 1987.5,-197 1987.5,-209 1987.5,-209 1987.5,-215 1981.5,-221 1975.5,-221"/>
<text xml:space="preserve" text-anchor="middle" x="1948" y="-205.5" font-family="Arial" font-size="10.00">Tax Calculator</text>
<text xml:space="preserve" text-anchor="middle" x="1948" y="-193.5" font-family="Arial" font-size="10.00">(Liability)</text>
</g>
<!-- TaxView&#45;&gt;TaxCalculator -->
<g id="edge34" class="edge">
<title>TaxView&#45;&gt;TaxCalculator</title>
<path fill="none" stroke="#34495e" d="M1894.42,-269C1903.71,-257.74 1915.95,-242.89 1926.39,-230.22"/>
<polygon fill="#34495e" stroke="#34495e" points="1928.98,-232.58 1932.64,-222.64 1923.58,-228.13 1928.98,-232.58"/>
</g>
<!-- TaxCalendar -->
<g id="node37" class="node">
<title>TaxCalendar</title>
<path fill="none" stroke="#2c3e50" d="M1878.88,-221C1878.88,-221 1829.12,-221 1829.12,-221 1823.12,-221 1817.12,-215 1817.12,-209 1817.12,-209 1817.12,-197 1817.12,-197 1817.12,-191 1823.12,-185 1829.12,-185 1829.12,-185 1878.88,-185 1878.88,-185 1884.88,-185 1890.88,-191 1890.88,-197 1890.88,-197 1890.88,-209 1890.88,-209 1890.88,-215 1884.88,-221 1878.88,-221"/>
<text xml:space="preserve" text-anchor="middle" x="1854" y="-205.5" font-family="Arial" font-size="10.00">Tax Calendar</text>
<text xml:space="preserve" text-anchor="middle" x="1854" y="-193.5" font-family="Arial" font-size="10.00">(Due Dates)</text>
</g>
<!-- TaxView&#45;&gt;TaxCalendar -->
<g id="edge35" class="edge">
<title>TaxView&#45;&gt;TaxCalendar</title>
<path fill="none" stroke="#34495e" d="M1874.49,-269C1871.11,-258.28 1866.71,-244.32 1862.85,-232.08"/>
<polygon fill="#34495e" stroke="#34495e" points="1866.3,-231.4 1859.96,-222.91 1859.63,-233.5 1866.3,-231.4"/>
</g>
<!-- SimulationState -->
<g id="node57" class="node">
<title>SimulationState</title>
<path fill="none" stroke="#2c3e50" d="M2265.12,-136.5C2265.12,-136.5 2162.88,-136.5 2162.88,-136.5 2156.88,-136.5 2150.88,-130.5 2150.88,-124.5 2150.88,-124.5 2150.88,-112.5 2150.88,-112.5 2150.88,-106.5 2156.88,-100.5 2162.88,-100.5 2162.88,-100.5 2265.12,-100.5 2265.12,-100.5 2271.12,-100.5 2277.12,-106.5 2277.12,-112.5 2277.12,-112.5 2277.12,-124.5 2277.12,-124.5 2277.12,-130.5 2271.12,-136.5 2265.12,-136.5"/>
<text xml:space="preserve" text-anchor="middle" x="2214" y="-121" font-family="Arial" font-size="10.00">Simulation State</text>
<text xml:space="preserve" text-anchor="middle" x="2214" y="-109" font-family="Arial" font-size="10.00">(Inventory, Orders, Cash)</text>
</g>
<!-- InventoryMgmt&#45;&gt;SimulationState -->
<g id="edge52" class="edge">
<title>InventoryMgmt&#45;&gt;SimulationState</title>
<path fill="none" stroke="#34495e" d="M2194.3,-184.5C2197.52,-173.89 2201.7,-160.1 2205.38,-147.96"/>
<polygon fill="#34495e" stroke="#34495e" points="2208.72,-149 2208.27,-138.42 2202.02,-146.97 2208.72,-149"/>
</g>
<!-- EmployeePanel&#45;&gt;SimulationState -->
<g id="edge53" class="edge">
<title>EmployeePanel&#45;&gt;SimulationState</title>
<path fill="none" stroke="#34495e" d="M2280.97,-184.5C2269.14,-173.02 2253.47,-157.81 2240.26,-144.99"/>
<polygon fill="#34495e" stroke="#34495e" points="2242.7,-142.48 2233.09,-138.03 2237.82,-147.5 2242.7,-142.48"/>
</g>
<!-- OrderQueue&#45;&gt;SimulationState -->
<g id="edge54" class="edge">
<title>OrderQueue&#45;&gt;SimulationState</title>
<path fill="none" stroke="#34495e" d="M2109.28,-184.67C2120.2,-179.99 2131.68,-174.65 2142,-169 2155.65,-161.52 2169.92,-152.09 2182.12,-143.47"/>
<polygon fill="#34495e" stroke="#34495e" points="2184.11,-146.35 2190.18,-137.67 2180.02,-140.67 2184.11,-146.35"/>
</g>
<!-- MarketState -->
<g id="node58" class="node">
<title>MarketState</title>
<path fill="none" stroke="#2c3e50" d="M2375.25,-136.5C2375.25,-136.5 2306.75,-136.5 2306.75,-136.5 2300.75,-136.5 2294.75,-130.5 2294.75,-124.5 2294.75,-124.5 2294.75,-112.5 2294.75,-112.5 2294.75,-106.5 2300.75,-100.5 2306.75,-100.5 2306.75,-100.5 2375.25,-100.5 2375.25,-100.5 2381.25,-100.5 2387.25,-106.5 2387.25,-112.5 2387.25,-112.5 2387.25,-124.5 2387.25,-124.5 2387.25,-130.5 2381.25,-136.5 2375.25,-136.5"/>
<text xml:space="preserve" text-anchor="middle" x="2341" y="-121" font-family="Arial" font-size="10.00">Market State</text>
<text xml:space="preserve" text-anchor="middle" x="2341" y="-109" font-family="Arial" font-size="10.00">(Prices, Demand)</text>
</g>
<!-- PriceChart&#45;&gt;MarketState -->
<g id="edge55" class="edge">
<title>PriceChart&#45;&gt;MarketState</title>
<path fill="none" stroke="#34495e" d="M2474.45,-184.53C2467.1,-181.68 2459.4,-179.01 2452,-177 2427.74,-170.4 2418.78,-179.65 2396,-169 2383.7,-163.25 2372.19,-153.82 2362.91,-144.72"/>
<polygon fill="#34495e" stroke="#34495e" points="2365.56,-142.43 2356.1,-137.66 2360.52,-147.29 2365.56,-142.43"/>
</g>
<!-- CompetitorList&#45;&gt;MarketState -->
<g id="edge56" class="edge">
<title>CompetitorList&#45;&gt;MarketState</title>
<path fill="none" stroke="#34495e" d="M2594.12,-184.54C2587.68,-181.5 2580.76,-178.76 2574,-177 2535.68,-167.04 2432.64,-184.01 2396,-169 2383.26,-163.78 2371.54,-154.25 2362.23,-144.94"/>
<polygon fill="#34495e" stroke="#34495e" points="2364.82,-142.59 2355.43,-137.68 2359.71,-147.37 2364.82,-142.59"/>
</g>
<!-- CustomerDemand&#45;&gt;MarketState -->
<g id="edge57" class="edge">
<title>CustomerDemand&#45;&gt;MarketState</title>
<path fill="none" stroke="#34495e" d="M2389.06,-184.5C2380.81,-173.35 2369.96,-158.67 2360.66,-146.09"/>
<polygon fill="#34495e" stroke="#34495e" points="2363.58,-144.15 2354.82,-138.19 2357.95,-148.31 2363.58,-144.15"/>
</g>
<!-- IncomeStmt&#45;&gt;SimulationState -->
<g id="edge58" class="edge">
<title>IncomeStmt&#45;&gt;SimulationState</title>
<path fill="none" stroke="#34495e" d="M1540.92,-184.5C1548.34,-181.42 1556.29,-178.67 1564,-177 1626.77,-163.39 2080.8,-188.47 2142,-169 2158.28,-163.82 2174.18,-153.61 2186.87,-143.81"/>
<polygon fill="#34495e" stroke="#34495e" points="2188.77,-146.78 2194.34,-137.77 2184.36,-141.34 2188.77,-146.78"/>
</g>
<!-- ExpenseBreakdown&#45;&gt;SimulationState -->
<g id="edge59" class="edge">
<title>ExpenseBreakdown&#45;&gt;SimulationState</title>
<path fill="none" stroke="#34495e" d="M1663.02,-184.53C1671.09,-181.44 1679.7,-178.69 1688,-177 1737.44,-166.95 2093.95,-184.39 2142,-169 2158.27,-163.79 2174.17,-153.58 2186.87,-143.78"/>
<polygon fill="#34495e" stroke="#34495e" points="2188.75,-146.75 2194.33,-137.74 2184.35,-141.31 2188.75,-146.75"/>
</g>
<!-- CashFlow&#45;&gt;SimulationState -->
<g id="edge60" class="edge">
<title>CashFlow&#45;&gt;SimulationState</title>
<path fill="none" stroke="#34495e" d="M1783.79,-184.56C1791.6,-181.48 1799.94,-178.71 1808,-177 1844.31,-169.28 2106.68,-180.43 2142,-169 2158.14,-163.77 2173.92,-153.66 2186.58,-143.94"/>
<polygon fill="#34495e" stroke="#34495e" points="2188.43,-146.94 2194.02,-137.95 2184.04,-141.49 2188.43,-146.94"/>
</g>
<!-- TaxCalculator_Util -->
<g id="node63" class="node">
<title>TaxCalculator_Util</title>
<path fill="none" stroke="#2c3e50" d="M1493.88,-136.5C1493.88,-136.5 1420.12,-136.5 1420.12,-136.5 1414.12,-136.5 1408.12,-130.5 1408.12,-124.5 1408.12,-124.5 1408.12,-112.5 1408.12,-112.5 1408.12,-106.5 1414.12,-100.5 1420.12,-100.5 1420.12,-100.5 1493.88,-100.5 1493.88,-100.5 1499.88,-100.5 1505.88,-106.5 1505.88,-112.5 1505.88,-112.5 1505.88,-124.5 1505.88,-124.5 1505.88,-130.5 1499.88,-136.5 1493.88,-136.5"/>
<text xml:space="preserve" text-anchor="middle" x="1457" y="-121" font-family="Arial" font-size="10.00">Tax Calculator</text>
<text xml:space="preserve" text-anchor="middle" x="1457" y="-109" font-family="Arial" font-size="10.00">(GST, Income Tax)</text>
</g>
<!-- TaxCalculator&#45;&gt;TaxCalculator_Util -->
<g id="edge61" class="edge">
<title>TaxCalculator&#45;&gt;TaxCalculator_Util</title>
<path fill="none" stroke="#34495e" d="M1918.48,-184.58C1912.52,-181.66 1906.18,-178.94 1900,-177 1767.73,-135.41 1604.15,-123.87 1517.5,-120.69"/>
<polygon fill="#34495e" stroke="#34495e" points="1517.67,-117.19 1507.56,-120.35 1517.44,-124.19 1517.67,-117.19"/>
</g>
<!-- Nudges&#45;&gt;Notifications -->
<g id="edge69" class="edge">
<title>Nudges&#45;&gt;Notifications</title>
<path fill="none" stroke="#34495e" d="M1040.9,-184.5C1056.37,-172.69 1076.99,-156.94 1094.07,-143.89"/>
<polygon fill="#34495e" stroke="#34495e" points="1096.1,-146.74 1101.93,-137.89 1091.85,-141.18 1096.1,-146.74"/>
</g>
<!-- TrendCharts&#45;&gt;DataViz -->
<g id="edge67" class="edge">
<title>TrendCharts&#45;&gt;DataViz</title>
<path fill="none" stroke="#34495e" d="M1157.61,-341.31C1170.93,-300.5 1204.56,-197.46 1220.86,-147.51"/>
<polygon fill="#34495e" stroke="#34495e" points="1224.09,-148.88 1223.87,-138.29 1217.44,-146.71 1224.09,-148.88"/>
</g>
<!-- BusinessSelect -->
<g id="node51" class="node">
<title>BusinessSelect</title>
<path fill="none" stroke="#2c3e50" d="M1828.62,-682.5C1828.62,-682.5 1771.38,-682.5 1771.38,-682.5 1765.38,-682.5 1759.38,-676.5 1759.38,-670.5 1759.38,-670.5 1759.38,-658.5 1759.38,-658.5 1759.38,-652.5 1765.38,-646.5 1771.38,-646.5 1771.38,-646.5 1828.62,-646.5 1828.62,-646.5 1834.62,-646.5 1840.62,-652.5 1840.62,-658.5 1840.62,-658.5 1840.62,-670.5 1840.62,-670.5 1840.62,-676.5 1834.62,-682.5 1828.62,-682.5"/>
<text xml:space="preserve" text-anchor="middle" x="1800" y="-667" font-family="Arial" font-size="10.00">Business Type</text>
<text xml:space="preserve" text-anchor="middle" x="1800" y="-655" font-family="Arial" font-size="10.00">Selector Modal</text>
</g>
<!-- ScenarioBuilder -->
<g id="node52" class="node">
<title>ScenarioBuilder</title>
<path fill="none" stroke="#2c3e50" d="M1935.75,-682.5C1935.75,-682.5 1870.25,-682.5 1870.25,-682.5 1864.25,-682.5 1858.25,-676.5 1858.25,-670.5 1858.25,-670.5 1858.25,-658.5 1858.25,-658.5 1858.25,-652.5 1864.25,-646.5 1870.25,-646.5 1870.25,-646.5 1935.75,-646.5 1935.75,-646.5 1941.75,-646.5 1947.75,-652.5 1947.75,-658.5 1947.75,-658.5 1947.75,-670.5 1947.75,-670.5 1947.75,-676.5 1941.75,-682.5 1935.75,-682.5"/>
<text xml:space="preserve" text-anchor="middle" x="1903" y="-667" font-family="Arial" font-size="10.00">What&#45;If Scenario</text>
<text xml:space="preserve" text-anchor="middle" x="1903" y="-655" font-family="Arial" font-size="10.00">Builder</text>
</g>
<!-- DecisionDialog -->
<g id="node53" class="node">
<title>DecisionDialog</title>
<path fill="none" stroke="#2c3e50" d="M2033.88,-682.5C2033.88,-682.5 1978.12,-682.5 1978.12,-682.5 1972.12,-682.5 1966.12,-676.5 1966.12,-670.5 1966.12,-670.5 1966.12,-658.5 1966.12,-658.5 1966.12,-652.5 1972.12,-646.5 1978.12,-646.5 1978.12,-646.5 2033.88,-646.5 2033.88,-646.5 2039.88,-646.5 2045.88,-652.5 2045.88,-658.5 2045.88,-658.5 2045.88,-670.5 2045.88,-670.5 2045.88,-676.5 2039.88,-682.5 2033.88,-682.5"/>
<text xml:space="preserve" text-anchor="middle" x="2006" y="-667" font-family="Arial" font-size="10.00">Decision Point</text>
<text xml:space="preserve" text-anchor="middle" x="2006" y="-655" font-family="Arial" font-size="10.00">Dialog</text>
</g>
<!-- HelpTooltips -->
<g id="node54" class="node">
<title>HelpTooltips</title>
<path fill="none" stroke="#2c3e50" d="M2138.25,-682.5C2138.25,-682.5 2075.75,-682.5 2075.75,-682.5 2069.75,-682.5 2063.75,-676.5 2063.75,-670.5 2063.75,-670.5 2063.75,-658.5 2063.75,-658.5 2063.75,-652.5 2069.75,-646.5 2075.75,-646.5 2075.75,-646.5 2138.25,-646.5 2138.25,-646.5 2144.25,-646.5 2150.25,-652.5 2150.25,-658.5 2150.25,-658.5 2150.25,-670.5 2150.25,-670.5 2150.25,-676.5 2144.25,-682.5 2138.25,-682.5"/>
<text xml:space="preserve" text-anchor="middle" x="2107" y="-667" font-family="Arial" font-size="10.00">Contextual Help</text>
<text xml:space="preserve" text-anchor="middle" x="2107" y="-655" font-family="Arial" font-size="10.00">Tooltips</text>
</g>
<!-- AuthState -->
<g id="node55" class="node">
<title>AuthState</title>
<path fill="none" stroke="#2c3e50" d="M1980.88,-136.5C1980.88,-136.5 1901.12,-136.5 1901.12,-136.5 1895.12,-136.5 1889.12,-130.5 1889.12,-124.5 1889.12,-124.5 1889.12,-112.5 1889.12,-112.5 1889.12,-106.5 1895.12,-100.5 1901.12,-100.5 1901.12,-100.5 1980.88,-100.5 1980.88,-100.5 1986.88,-100.5 1992.88,-106.5 1992.88,-112.5 1992.88,-112.5 1992.88,-124.5 1992.88,-124.5 1992.88,-130.5 1986.88,-136.5 1980.88,-136.5"/>
<text xml:space="preserve" text-anchor="middle" x="1941" y="-121" font-family="Arial" font-size="10.00">Auth State</text>
<text xml:space="preserve" text-anchor="middle" x="1941" y="-109" font-family="Arial" font-size="10.00">(User, Login Status)</text>
</g>
<!-- LocalStorage -->
<g id="node61" class="node">
<title>LocalStorage</title>
<path fill="none" stroke="#2c3e50" d="M2139.38,-52C2139.38,-52 2062.62,-52 2062.62,-52 2056.62,-52 2050.62,-46 2050.62,-40 2050.62,-40 2050.62,-28 2050.62,-28 2050.62,-22 2056.62,-16 2062.62,-16 2062.62,-16 2139.38,-16 2139.38,-16 2145.38,-16 2151.38,-22 2151.38,-28 2151.38,-28 2151.38,-40 2151.38,-40 2151.38,-46 2145.38,-52 2139.38,-52"/>
<text xml:space="preserve" text-anchor="middle" x="2101" y="-36.5" font-family="Arial" font-size="10.00">LocalStorage</text>
<text xml:space="preserve" text-anchor="middle" x="2101" y="-24.5" font-family="Arial" font-size="10.00">(Auth, Preferences)</text>
</g>
<!-- AuthState&#45;&gt;LocalStorage -->
<g id="edge49" class="edge">
<title>AuthState&#45;&gt;LocalStorage</title>
<path fill="none" stroke="#34495e" d="M1974.93,-100C1998.9,-87.64 2031.24,-70.97 2057.17,-57.6"/>
<polygon fill="#34495e" stroke="#34495e" points="2058.49,-60.86 2065.77,-53.16 2055.28,-54.64 2058.49,-60.86"/>
</g>
<!-- BusinessState -->
<g id="node56" class="node">
<title>BusinessState</title>
<path fill="none" stroke="#2c3e50" d="M2121.25,-136.5C2121.25,-136.5 2022.75,-136.5 2022.75,-136.5 2016.75,-136.5 2010.75,-130.5 2010.75,-124.5 2010.75,-124.5 2010.75,-112.5 2010.75,-112.5 2010.75,-106.5 2016.75,-100.5 2022.75,-100.5 2022.75,-100.5 2121.25,-100.5 2121.25,-100.5 2127.25,-100.5 2133.25,-106.5 2133.25,-112.5 2133.25,-112.5 2133.25,-124.5 2133.25,-124.5 2133.25,-130.5 2127.25,-136.5 2121.25,-136.5"/>
<text xml:space="preserve" text-anchor="middle" x="2072" y="-121" font-family="Arial" font-size="10.00">Business State</text>
<text xml:space="preserve" text-anchor="middle" x="2072" y="-109" font-family="Arial" font-size="10.00">(Type, Capital, Location)</text>
</g>
<!-- IndexedDB -->
<g id="node62" class="node">
<title>IndexedDB</title>
<path fill="none" stroke="#2c3e50" d="M2246.38,-52C2246.38,-52 2181.62,-52 2181.62,-52 2175.62,-52 2169.62,-46 2169.62,-40 2169.62,-40 2169.62,-28 2169.62,-28 2169.62,-22 2175.62,-16 2181.62,-16 2181.62,-16 2246.38,-16 2246.38,-16 2252.38,-16 2258.38,-22 2258.38,-28 2258.38,-28 2258.38,-40 2258.38,-40 2258.38,-46 2252.38,-52 2246.38,-52"/>
<text xml:space="preserve" text-anchor="middle" x="2214" y="-36.5" font-family="Arial" font-size="10.00">IndexedDB</text>
<text xml:space="preserve" text-anchor="middle" x="2214" y="-24.5" font-family="Arial" font-size="10.00">(Large Datasets)</text>
</g>
<!-- SimulationState&#45;&gt;IndexedDB -->
<g id="edge50" class="edge">
<title>SimulationState&#45;&gt;IndexedDB</title>
<path fill="none" stroke="#34495e" d="M2214,-100C2214,-89.5 2214,-75.89 2214,-63.83"/>
<polygon fill="#34495e" stroke="#34495e" points="2217.5,-63.98 2214,-53.98 2210.5,-63.98 2217.5,-63.98"/>
</g>
<!-- MarketState&#45;&gt;IndexedDB -->
<g id="edge51" class="edge">
<title>MarketState&#45;&gt;IndexedDB</title>
<path fill="none" stroke="#34495e" d="M2314.07,-100C2295.55,-87.97 2270.73,-71.85 2250.44,-58.67"/>
<polygon fill="#34495e" stroke="#34495e" points="2252.46,-55.81 2242.16,-53.3 2248.64,-61.68 2252.46,-55.81"/>
</g>
<!-- UIState -->
<g id="node60" class="node">
<title>UIState</title>
<path fill="none" stroke="#2c3e50" d="M2627.38,-136.5C2627.38,-136.5 2532.62,-136.5 2532.62,-136.5 2526.62,-136.5 2520.62,-130.5 2520.62,-124.5 2520.62,-124.5 2520.62,-112.5 2520.62,-112.5 2520.62,-106.5 2526.62,-100.5 2532.62,-100.5 2532.62,-100.5 2627.38,-100.5 2627.38,-100.5 2633.38,-100.5 2639.38,-106.5 2639.38,-112.5 2639.38,-112.5 2639.38,-124.5 2639.38,-124.5 2639.38,-130.5 2633.38,-136.5 2627.38,-136.5"/>
<text xml:space="preserve" text-anchor="middle" x="2580" y="-121" font-family="Arial" font-size="10.00">UI State</text>
<text xml:space="preserve" text-anchor="middle" x="2580" y="-109" font-family="Arial" font-size="10.00">(Modals, Tabs, Sidebar)</text>
</g>
</g>
</svg>
