<?xml version="1.0" encoding="UTF-8" standalone="no"?>
<!DOCTYPE svg PUBLIC "-//W3C//DTD SVG 1.1//EN"
 "http://www.w3.org/Graphics/SVG/1.1/DTD/svg11.dtd">
<!-- Generated by graphviz version 14.0.4 (20251115.1723)
 -->
<!-- Title: DhanaadhyaGapDependencies Pages: 1 -->
<svg width="891pt" height="547pt"
 viewBox="0.00 0.00 891.00 547.00" xmlns="http://www.w3.org/2000/svg" xmlns:xlink="http://www.w3.org/1999/xlink">
<g id="graph0" class="graph" transform="scale(1 1) rotate(0) translate(4 543.37)">
<title>DhanaadhyaGapDependencies</title>
<polygon fill="white" stroke="none" points="-4,4 -4,-543.37 886.86,-543.37 886.86,4 -4,4"/>
<!-- MVP -->
<g id="node1" class="node">
<title>MVP</title>
<ellipse fill="lightcoral" stroke="black" cx="503.86" cy="-513.56" rx="68.06" ry="25.81"/>
<text xml:space="preserve" text-anchor="middle" x="503.86" y="-516.41" font-family="Arial" font-size="12.00">MVP Core</text>
<text xml:space="preserve" text-anchor="middle" x="503.86" y="-502.16" font-family="Arial" font-size="12.00">Must Complete</text>
</g>
<!-- P1 -->
<g id="node2" class="node">
<title>P1</title>
<polygon fill="red" stroke="black" points="228.99,-376 120.74,-376 120.74,-340 228.99,-340 228.99,-376"/>
<text xml:space="preserve" text-anchor="middle" x="174.86" y="-359.95" font-family="Arial" font-size="9.00">PRIORITY 1</text>
<text xml:space="preserve" text-anchor="middle" x="174.86" y="-349.45" font-family="Arial" font-size="9.00">CRITICAL BLOCKERS</text>
</g>
<!-- MVP&#45;&gt;P1 -->
<g id="edge1" class="edge">
<title>MVP&#45;&gt;P1</title>
<path fill="none" stroke="black" d="M461.86,-492.96C400.49,-464.31 286.64,-411.17 222.32,-381.15"/>
<polygon fill="black" stroke="black" points="223.97,-378.06 213.42,-377 221,-384.4 223.97,-378.06"/>
</g>
<!-- P2 -->
<g id="node7" class="node">
<title>P2</title>
<polygon fill="orange" stroke="black" points="102.61,-376 7.11,-376 7.11,-340 102.61,-340 102.61,-376"/>
<text xml:space="preserve" text-anchor="middle" x="54.86" y="-359.95" font-family="Arial" font-size="9.00">PRIORITY 2</text>
<text xml:space="preserve" text-anchor="middle" x="54.86" y="-349.45" font-family="Arial" font-size="9.00">MUST&#45;HAVE (Beta)</text>
</g>
<!-- MVP&#45;&gt;P2 -->
<g id="edge6" class="edge">
<title>MVP&#45;&gt;P2</title>
<path fill="none" stroke="black" d="M449,-497.95C405.96,-486.16 344.7,-468.64 291.86,-450.75 227.37,-428.91 154.5,-400.06 106.8,-380.59"/>
<polygon fill="black" stroke="black" points="108.4,-377.46 97.82,-376.91 105.75,-383.94 108.4,-377.46"/>
</g>
<!-- P3 -->
<g id="node12" class="node">
<title>P3</title>
<polygon fill="yellow" stroke="black" points="634.24,-450.75 521.49,-450.75 521.49,-414.75 634.24,-414.75 634.24,-450.75"/>
<text xml:space="preserve" text-anchor="middle" x="577.86" y="-434.7" font-family="Arial" font-size="9.00">PRIORITY 3</text>
<text xml:space="preserve" text-anchor="middle" x="577.86" y="-424.2" font-family="Arial" font-size="9.00">SHOULD&#45;HAVE (Scale)</text>
</g>
<!-- MVP&#45;&gt;P3 -->
<g id="edge11" class="edge">
<title>MVP&#45;&gt;P3</title>
<path fill="none" stroke="black" d="M526.06,-488.91C534.8,-479.61 544.85,-468.9 553.76,-459.41"/>
<polygon fill="black" stroke="black" points="556.23,-461.9 560.52,-452.22 551.12,-457.11 556.23,-461.9"/>
</g>
<!-- P4 -->
<g id="node17" class="node">
<title>P4</title>
<polygon fill="lightblue" stroke="black" points="880.99,-376 766.74,-376 766.74,-340 880.99,-340 880.99,-376"/>
<text xml:space="preserve" text-anchor="middle" x="823.86" y="-359.95" font-family="Arial" font-size="9.00">PRIORITY 4</text>
<text xml:space="preserve" text-anchor="middle" x="823.86" y="-349.45" font-family="Arial" font-size="9.00">NICE&#45;TO&#45;HAVE (Future)</text>
</g>
<!-- MVP&#45;&gt;P4 -->
<g id="edge16" class="edge">
<title>MVP&#45;&gt;P4</title>
<path fill="none" stroke="black" d="M547.88,-493.5C575.31,-481.49 611.28,-465.52 642.86,-450.75 692.2,-427.68 704.37,-421.54 752.86,-396.75 762.26,-391.94 772.31,-386.68 781.8,-381.65"/>
<polygon fill="black" stroke="black" points="783.3,-384.82 790.48,-377.03 780.01,-378.64 783.3,-384.82"/>
</g>
<!-- Onboard -->
<g id="node3" class="node">
<title>Onboard</title>
<path fill="lightcoral" stroke="black" d="M454.11,-292.12C454.11,-292.12 403.61,-292.12 403.61,-292.12 397.61,-292.12 391.61,-286.12 391.61,-280.12 391.61,-280.12 391.61,-264.62 391.61,-264.62 391.61,-258.62 397.61,-252.62 403.61,-252.62 403.61,-252.62 454.11,-252.62 454.11,-252.62 460.11,-252.62 466.11,-258.62 466.11,-264.62 466.11,-264.62 466.11,-280.12 466.11,-280.12 466.11,-286.12 460.11,-292.12 454.11,-292.12"/>
<text xml:space="preserve" text-anchor="middle" x="428.86" y="-279.57" font-family="Arial" font-size="9.00">1. Onboarding</text>
<text xml:space="preserve" text-anchor="middle" x="428.86" y="-269.07" font-family="Arial" font-size="9.00">Tutorial</text>
<text xml:space="preserve" text-anchor="middle" x="428.86" y="-258.57" font-family="Arial" font-size="9.00">(5&#45;min)</text>
</g>
<!-- P1&#45;&gt;Onboard -->
<g id="edge2" class="edge">
<title>P1&#45;&gt;Onboard</title>
<path fill="none" stroke="black" d="M169.71,-339.92C167.89,-330.11 167.78,-318.24 174.86,-310.5 205.44,-277.09 333.7,-302.54 377.86,-292.5 378.69,-292.31 379.53,-292.11 380.36,-291.9"/>
<polygon fill="black" stroke="black" points="381.24,-295.29 389.88,-289.16 379.3,-288.57 381.24,-295.29"/>
</g>
<!-- FailureRec -->
<g id="node4" class="node">
<title>FailureRec</title>
<path fill="lightcoral" stroke="black" d="M376.99,-206.5C376.99,-206.5 340.74,-206.5 340.74,-206.5 334.74,-206.5 328.74,-200.5 328.74,-194.5 328.74,-194.5 328.74,-179 328.74,-179 328.74,-173 334.74,-167 340.74,-167 340.74,-167 376.99,-167 376.99,-167 382.99,-167 388.99,-173 388.99,-179 388.99,-179 388.99,-194.5 388.99,-194.5 388.99,-200.5 382.99,-206.5 376.99,-206.5"/>
<text xml:space="preserve" text-anchor="middle" x="358.86" y="-193.95" font-family="Arial" font-size="9.00">2. Failure</text>
<text xml:space="preserve" text-anchor="middle" x="358.86" y="-183.45" font-family="Arial" font-size="9.00">Recovery</text>
<text xml:space="preserve" text-anchor="middle" x="358.86" y="-172.95" font-family="Arial" font-size="9.00">Mechanics</text>
</g>
<!-- P1&#45;&gt;FailureRec -->
<g id="edge3" class="edge">
<title>P1&#45;&gt;FailureRec</title>
<path fill="none" stroke="black" d="M152.48,-339.55C144.68,-331.26 138.78,-320.9 142.86,-310.5 143.67,-308.45 195.04,-253.5 196.86,-252.25 234.1,-226.72 282.93,-209.04 317.21,-198.74"/>
<polygon fill="black" stroke="black" points="318.16,-202.1 326.79,-195.95 316.21,-195.38 318.16,-202.1"/>
</g>
<!-- RealWorld -->
<g id="node5" class="node">
<title>RealWorld</title>
<path fill="lightcoral" stroke="black" d="M543.99,-292.5C543.99,-292.5 495.74,-292.5 495.74,-292.5 489.74,-292.5 483.74,-286.5 483.74,-280.5 483.74,-280.5 483.74,-264.25 483.74,-264.25 483.74,-258.25 489.74,-252.25 495.74,-252.25 495.74,-252.25 543.99,-252.25 543.99,-252.25 549.99,-252.25 555.99,-258.25 555.99,-264.25 555.99,-264.25 555.99,-280.5 555.99,-280.5 555.99,-286.5 549.99,-292.5 543.99,-292.5"/>
<text xml:space="preserve" text-anchor="middle" x="519.86" y="-279.95" font-family="Arial" font-size="9.00">3. Real&#45;World</text>
<text xml:space="preserve" text-anchor="middle" x="519.86" y="-269.45" font-family="Arial" font-size="9.00">Playbook</text>
<text xml:space="preserve" text-anchor="middle" x="519.86" y="-258.95" font-family="Arial" font-size="9.00">✓ Bridge</text>
</g>
<!-- P1&#45;&gt;RealWorld -->
<g id="edge4" class="edge">
<title>P1&#45;&gt;RealWorld</title>
<path fill="none" stroke="black" d="M181.61,-339.82C186.64,-329.45 194.61,-317.01 205.86,-310.5 255.08,-282.01 400.73,-303.92 472.51,-292.24"/>
<polygon fill="black" stroke="black" points="472.76,-295.76 481.88,-290.36 471.39,-288.9 472.76,-295.76"/>
</g>
<!-- Support -->
<g id="node6" class="node">
<title>Support</title>
<path fill="lightcoral" stroke="black" d="M271.99,-292.12C271.99,-292.12 217.74,-292.12 217.74,-292.12 211.74,-292.12 205.74,-286.12 205.74,-280.12 205.74,-280.12 205.74,-264.62 205.74,-264.62 205.74,-258.62 211.74,-252.62 217.74,-252.62 217.74,-252.62 271.99,-252.62 271.99,-252.62 277.99,-252.62 283.99,-258.62 283.99,-264.62 283.99,-264.62 283.99,-280.12 283.99,-280.12 283.99,-286.12 277.99,-292.12 271.99,-292.12"/>
<text xml:space="preserve" text-anchor="middle" x="244.86" y="-279.57" font-family="Arial" font-size="9.00">4. Support</text>
<text xml:space="preserve" text-anchor="middle" x="244.86" y="-269.07" font-family="Arial" font-size="9.00">System</text>
<text xml:space="preserve" text-anchor="middle" x="244.86" y="-258.57" font-family="Arial" font-size="9.00">(ChatBot+FAQ)</text>
</g>
<!-- P1&#45;&gt;Support -->
<g id="edge5" class="edge">
<title>P1&#45;&gt;Support</title>
<path fill="none" stroke="black" d="M156.3,-339.71C148.94,-330.73 143.56,-319.73 149.86,-310.5 151.37,-308.29 172.59,-299.91 194.59,-291.67"/>
<polygon fill="black" stroke="black" points="195.8,-294.95 203.95,-288.19 193.36,-288.39 195.8,-294.95"/>
</g>
<!-- Onboard&#45;&gt;FailureRec -->
<g id="edge20" class="edge">
<title>Onboard&#45;&gt;FailureRec</title>
<path fill="none" stroke="black" d="M412.98,-252.4C403.91,-241.57 392.38,-227.79 382.29,-215.74"/>
<polygon fill="black" stroke="black" points="385,-213.52 375.9,-208.1 379.63,-218.02 385,-213.52"/>
<text xml:space="preserve" text-anchor="middle" x="409.84" y="-226.65" font-family="Arial" font-size="8.00">enables</text>
</g>
<!-- Personalization -->
<g id="node13" class="node">
<title>Personalization</title>
<path fill="lightyellow" stroke="black" d="M761.61,-121.25C761.61,-121.25 696.11,-121.25 696.11,-121.25 690.11,-121.25 684.11,-115.25 684.11,-109.25 684.11,-109.25 684.11,-93.75 684.11,-93.75 684.11,-87.75 690.11,-81.75 696.11,-81.75 696.11,-81.75 761.61,-81.75 761.61,-81.75 767.61,-81.75 773.61,-87.75 773.61,-93.75 773.61,-93.75 773.61,-109.25 773.61,-109.25 773.61,-115.25 767.61,-121.25 761.61,-121.25"/>
<text xml:space="preserve" text-anchor="middle" x="728.86" y="-108.7" font-family="Arial" font-size="9.00">9. Personalization</text>
<text xml:space="preserve" text-anchor="middle" x="728.86" y="-98.2" font-family="Arial" font-size="9.00">Quiz</text>
<text xml:space="preserve" text-anchor="middle" x="728.86" y="-87.7" font-family="Arial" font-size="9.00">(Difficulty+Demo)</text>
</g>
<!-- FailureRec&#45;&gt;Personalization -->
<g id="edge21" class="edge">
<title>FailureRec&#45;&gt;Personalization</title>
<path fill="none" stroke="black" d="M389.46,-178.87C451.59,-164.89 593.35,-132.99 672.6,-115.16"/>
<polygon fill="black" stroke="black" points="673.36,-118.58 682.35,-112.97 671.83,-111.75 673.36,-118.58"/>
<text xml:space="preserve" text-anchor="middle" x="569.58" y="-141.4" font-family="Arial" font-size="8.00">requires</text>
</g>
<!-- Content -->
<g id="node8" class="node">
<title>Content</title>
<path fill="orange" stroke="black" d="M161.74,-206.5C161.74,-206.5 123.99,-206.5 123.99,-206.5 117.99,-206.5 111.99,-200.5 111.99,-194.5 111.99,-194.5 111.99,-179 111.99,-179 111.99,-173 117.99,-167 123.99,-167 123.99,-167 161.74,-167 161.74,-167 167.74,-167 173.74,-173 173.74,-179 173.74,-179 173.74,-194.5 173.74,-194.5 173.74,-200.5 167.74,-206.5 161.74,-206.5"/>
<text xml:space="preserve" text-anchor="middle" x="142.86" y="-193.95" font-family="Arial" font-size="9.00">5. Content</text>
<text xml:space="preserve" text-anchor="middle" x="142.86" y="-183.45" font-family="Arial" font-size="9.00">Roadmap</text>
<text xml:space="preserve" text-anchor="middle" x="142.86" y="-172.95" font-family="Arial" font-size="9.00">(50 pieces)</text>
</g>
<!-- Support&#45;&gt;Content -->
<g id="edge22" class="edge">
<title>Support&#45;&gt;Content</title>
<path fill="none" stroke="black" d="M221.46,-252.19C207.6,-240.82 189.84,-226.26 174.71,-213.86"/>
<polygon fill="black" stroke="black" points="177.28,-211.44 167.32,-207.81 172.84,-216.85 177.28,-211.44"/>
<text xml:space="preserve" text-anchor="middle" x="206.67" y="-226.65" font-family="Arial" font-size="8.00">feeds</text>
</g>
<!-- P2&#45;&gt;Content -->
<g id="edge7" class="edge">
<title>P2&#45;&gt;Content</title>
<path fill="none" stroke="black" d="M55.92,-339.65C57.87,-317.98 63.38,-280.36 78.86,-252.25 86.62,-238.16 98.36,-225.05 109.67,-214.39"/>
<polygon fill="black" stroke="black" points="111.96,-217.04 117.04,-207.75 107.27,-211.84 111.96,-217.04"/>
</g>
<!-- Premium -->
<g id="node9" class="node">
<title>Premium</title>
<path fill="orange" stroke="black" d="M76.36,-206.5C76.36,-206.5 27.36,-206.5 27.36,-206.5 21.36,-206.5 15.36,-200.5 15.36,-194.5 15.36,-194.5 15.36,-179 15.36,-179 15.36,-173 21.36,-167 27.36,-167 27.36,-167 76.36,-167 76.36,-167 82.36,-167 88.36,-173 88.36,-179 88.36,-179 88.36,-194.5 88.36,-194.5 88.36,-200.5 82.36,-206.5 76.36,-206.5"/>
<text xml:space="preserve" text-anchor="middle" x="51.86" y="-193.95" font-family="Arial" font-size="9.00">6. Premium</text>
<text xml:space="preserve" text-anchor="middle" x="51.86" y="-183.45" font-family="Arial" font-size="9.00">Tier Definition</text>
<text xml:space="preserve" text-anchor="middle" x="51.86" y="-172.95" font-family="Arial" font-size="9.00">(1&#45;2 options)</text>
</g>
<!-- P2&#45;&gt;Premium -->
<g id="edge8" class="edge">
<title>P2&#45;&gt;Premium</title>
<path fill="none" stroke="black" d="M49.69,-339.59C48.13,-333.52 46.63,-326.64 45.86,-320.25 41.65,-285.36 44.59,-244.97 47.66,-218.05"/>
<polygon fill="black" stroke="black" points="51.12,-218.55 48.86,-208.2 44.17,-217.7 51.12,-218.55"/>
</g>
<!-- B2B -->
<g id="node10" class="node">
<title>B2B</title>
<path fill="orange" stroke="black" d="M68.49,-121.25C68.49,-121.25 35.24,-121.25 35.24,-121.25 29.24,-121.25 23.24,-115.25 23.24,-109.25 23.24,-109.25 23.24,-93.75 23.24,-93.75 23.24,-87.75 29.24,-81.75 35.24,-81.75 35.24,-81.75 68.49,-81.75 68.49,-81.75 74.49,-81.75 80.49,-87.75 80.49,-93.75 80.49,-93.75 80.49,-109.25 80.49,-109.25 80.49,-115.25 74.49,-121.25 68.49,-121.25"/>
<text xml:space="preserve" text-anchor="middle" x="51.86" y="-108.7" font-family="Arial" font-size="9.00">7. B2B</text>
<text xml:space="preserve" text-anchor="middle" x="51.86" y="-98.2" font-family="Arial" font-size="9.00">Partners</text>
<text xml:space="preserve" text-anchor="middle" x="51.86" y="-87.7" font-family="Arial" font-size="9.00">(5 targets)</text>
</g>
<!-- P2&#45;&gt;B2B -->
<g id="edge9" class="edge">
<title>P2&#45;&gt;B2B</title>
<path fill="none" stroke="black" d="M43.78,-339.52C23.85,-305.81 -14.18,-229.62 5.86,-167 10.08,-153.83 18.08,-141.05 26.24,-130.4"/>
<polygon fill="black" stroke="black" points="28.83,-132.76 32.41,-122.79 23.39,-128.35 28.83,-132.76"/>
</g>
<!-- Analytics -->
<g id="node11" class="node">
<title>Analytics</title>
<path fill="orange" stroke="black" d="M138.11,-292.12C138.11,-292.12 99.61,-292.12 99.61,-292.12 93.61,-292.12 87.61,-286.12 87.61,-280.12 87.61,-280.12 87.61,-264.62 87.61,-264.62 87.61,-258.62 93.61,-252.62 99.61,-252.62 99.61,-252.62 138.11,-252.62 138.11,-252.62 144.11,-252.62 150.11,-258.62 150.11,-264.62 150.11,-264.62 150.11,-280.12 150.11,-280.12 150.11,-286.12 144.11,-292.12 138.11,-292.12"/>
<text xml:space="preserve" text-anchor="middle" x="118.86" y="-279.57" font-family="Arial" font-size="9.00">8. Analytics</text>
<text xml:space="preserve" text-anchor="middle" x="118.86" y="-269.07" font-family="Arial" font-size="9.00">Dashboard</text>
<text xml:space="preserve" text-anchor="middle" x="118.86" y="-258.57" font-family="Arial" font-size="9.00">(Tracking)</text>
</g>
<!-- P2&#45;&gt;Analytics -->
<g id="edge10" class="edge">
<title>P2&#45;&gt;Analytics</title>
<path fill="none" stroke="black" d="M68.12,-339.67C76.61,-328.59 87.81,-313.95 97.53,-301.25"/>
<polygon fill="black" stroke="black" points="100.06,-303.7 103.36,-293.63 94.5,-299.45 100.06,-303.7"/>
</g>
<!-- Replayability -->
<g id="node15" class="node">
<title>Replayability</title>
<path fill="lightyellow" stroke="black" d="M514.61,-121.25C514.61,-121.25 455.11,-121.25 455.11,-121.25 449.11,-121.25 443.11,-115.25 443.11,-109.25 443.11,-109.25 443.11,-93.75 443.11,-93.75 443.11,-87.75 449.11,-81.75 455.11,-81.75 455.11,-81.75 514.61,-81.75 514.61,-81.75 520.61,-81.75 526.61,-87.75 526.61,-93.75 526.61,-93.75 526.61,-109.25 526.61,-109.25 526.61,-115.25 520.61,-121.25 514.61,-121.25"/>
<text xml:space="preserve" text-anchor="middle" x="484.86" y="-108.7" font-family="Arial" font-size="9.00">11. Replayability</text>
<text xml:space="preserve" text-anchor="middle" x="484.86" y="-98.2" font-family="Arial" font-size="9.00">&amp; Progression</text>
<text xml:space="preserve" text-anchor="middle" x="484.86" y="-87.7" font-family="Arial" font-size="9.00">(New Game+)</text>
</g>
<!-- Content&#45;&gt;Replayability -->
<g id="edge23" class="edge">
<title>Content&#45;&gt;Replayability</title>
<path fill="none" stroke="black" d="M174.12,-178.14C232.66,-163.89 359.41,-133.04 431.64,-115.45"/>
<polygon fill="black" stroke="black" points="432.39,-118.88 441.28,-113.11 430.73,-112.07 432.39,-118.88"/>
<text xml:space="preserve" text-anchor="middle" x="337.99" y="-141.4" font-family="Arial" font-size="8.00">enables</text>
</g>
<!-- Premium&#45;&gt;B2B -->
<g id="edge25" class="edge">
<title>Premium&#45;&gt;B2B</title>
<path fill="none" stroke="black" d="M51.86,-166.86C51.86,-156.82 51.86,-144.23 51.86,-132.86"/>
<polygon fill="black" stroke="black" points="55.36,-133.12 51.86,-123.12 48.36,-133.12 55.36,-133.12"/>
<text xml:space="preserve" text-anchor="middle" x="65.74" y="-141.4" font-family="Arial" font-size="8.00">enables</text>
</g>
<!-- Localization -->
<g id="node19" class="node">
<title>Localization</title>
<path fill="lightcyan" stroke="black" d="M498.11,-36C498.11,-36 441.61,-36 441.61,-36 435.61,-36 429.61,-30 429.61,-24 429.61,-24 429.61,-12 429.61,-12 429.61,-6 435.61,0 441.61,0 441.61,0 498.11,0 498.11,0 504.11,0 510.11,-6 510.11,-12 510.11,-12 510.11,-24 510.11,-24 510.11,-30 504.11,-36 498.11,-36"/>
<text xml:space="preserve" text-anchor="middle" x="469.86" y="-19.95" font-family="Arial" font-size="9.00">14. Localization</text>
<text xml:space="preserve" text-anchor="middle" x="469.86" y="-9.45" font-family="Arial" font-size="9.00">(Hindi+2 langs)</text>
</g>
<!-- B2B&#45;&gt;Localization -->
<g id="edge26" class="edge">
<title>B2B&#45;&gt;Localization</title>
<path fill="none" stroke="black" d="M80.92,-94.83C150.9,-81.19 329.49,-46.37 418.22,-29.07"/>
<polygon fill="black" stroke="black" points="418.72,-32.54 427.87,-27.19 417.38,-25.67 418.72,-32.54"/>
<text xml:space="preserve" text-anchor="middle" x="300.51" y="-56.15" font-family="Arial" font-size="8.00">requires</text>
</g>
<!-- Analytics&#45;&gt;Premium -->
<g id="edge24" class="edge">
<title>Analytics&#45;&gt;Premium</title>
<path fill="none" stroke="black" d="M101.22,-252.43C96.07,-246.7 90.5,-240.31 85.61,-234.25 80.92,-228.44 76.09,-222.06 71.61,-215.93"/>
<polygon fill="black" stroke="black" points="74.47,-213.92 65.79,-207.86 68.8,-218.02 74.47,-213.92"/>
<text xml:space="preserve" text-anchor="middle" x="103.24" y="-226.65" font-family="Arial" font-size="8.00">measures</text>
</g>
<!-- P3&#45;&gt;Personalization -->
<g id="edge12" class="edge">
<title>P3&#45;&gt;Personalization</title>
<path fill="none" stroke="black" d="M627.48,-414.39C674.79,-397.1 738.86,-371.38 738.86,-359 738.86,-359 738.86,-359 738.86,-185.75 738.86,-168.12 736.62,-148.53 734.26,-132.79"/>
<polygon fill="black" stroke="black" points="737.75,-132.42 732.71,-123.09 730.84,-133.52 737.75,-132.42"/>
</g>
<!-- Regional -->
<g id="node14" class="node">
<title>Regional</title>
<path fill="lightyellow" stroke="black" d="M600.11,-377.75C600.11,-377.75 555.61,-377.75 555.61,-377.75 549.61,-377.75 543.61,-371.75 543.61,-365.75 543.61,-365.75 543.61,-350.25 543.61,-350.25 543.61,-344.25 549.61,-338.25 555.61,-338.25 555.61,-338.25 600.11,-338.25 600.11,-338.25 606.11,-338.25 612.11,-344.25 612.11,-350.25 612.11,-350.25 612.11,-365.75 612.11,-365.75 612.11,-371.75 606.11,-377.75 600.11,-377.75"/>
<text xml:space="preserve" text-anchor="middle" x="577.86" y="-365.2" font-family="Arial" font-size="9.00">10. Regional</text>
<text xml:space="preserve" text-anchor="middle" x="577.86" y="-354.7" font-family="Arial" font-size="9.00">Variation</text>
<text xml:space="preserve" text-anchor="middle" x="577.86" y="-344.2" font-family="Arial" font-size="9.00">(3 metros)</text>
</g>
<!-- P3&#45;&gt;Regional -->
<g id="edge13" class="edge">
<title>P3&#45;&gt;Regional</title>
<path fill="none" stroke="black" d="M577.86,-414.51C577.86,-407 577.86,-397.97 577.86,-389.39"/>
<polygon fill="black" stroke="black" points="581.36,-389.68 577.86,-379.68 574.36,-389.68 581.36,-389.68"/>
</g>
<!-- P3&#45;&gt;Replayability -->
<g id="edge14" class="edge">
<title>P3&#45;&gt;Replayability</title>
<path fill="none" stroke="black" d="M606.01,-414.33C639.41,-391.35 687.87,-349.26 664.86,-310.5 656.33,-296.13 644.58,-303.34 631.86,-292.5 575.36,-244.34 526.36,-171.29 501.75,-131.25"/>
<polygon fill="black" stroke="black" points="504.85,-129.62 496.67,-122.88 498.86,-133.24 504.85,-129.62"/>
</g>
<!-- Community -->
<g id="node16" class="node">
<title>Community</title>
<path fill="lightyellow" stroke="black" d="M497.61,-377.75C497.61,-377.75 444.11,-377.75 444.11,-377.75 438.11,-377.75 432.11,-371.75 432.11,-365.75 432.11,-365.75 432.11,-350.25 432.11,-350.25 432.11,-344.25 438.11,-338.25 444.11,-338.25 444.11,-338.25 497.61,-338.25 497.61,-338.25 503.61,-338.25 509.61,-344.25 509.61,-350.25 509.61,-350.25 509.61,-365.75 509.61,-365.75 509.61,-371.75 503.61,-377.75 497.61,-377.75"/>
<text xml:space="preserve" text-anchor="middle" x="470.86" y="-365.2" font-family="Arial" font-size="9.00">12. Community</text>
<text xml:space="preserve" text-anchor="middle" x="470.86" y="-354.7" font-family="Arial" font-size="9.00">Features</text>
<text xml:space="preserve" text-anchor="middle" x="470.86" y="-344.2" font-family="Arial" font-size="9.00">(Forums)</text>
</g>
<!-- P3&#45;&gt;Community -->
<g id="edge15" class="edge">
<title>P3&#45;&gt;Community</title>
<path fill="none" stroke="black" d="M552.23,-414.32C539.05,-405.36 522.73,-394.26 508.17,-384.37"/>
<polygon fill="black" stroke="black" points="510.4,-381.65 500.16,-378.92 506.47,-387.44 510.4,-381.65"/>
</g>
<!-- Regional&#45;&gt;RealWorld -->
<g id="edge27" class="edge">
<title>Regional&#45;&gt;RealWorld</title>
<path fill="none" stroke="black" d="M570.61,-338.13C566.83,-329.36 561.76,-319.02 555.86,-310.5 553.65,-307.3 551.15,-304.13 548.53,-301.05"/>
<polygon fill="black" stroke="black" points="551.3,-298.89 541.98,-293.86 546.12,-303.61 551.3,-298.89"/>
<text xml:space="preserve" text-anchor="middle" x="571.53" y="-312.65" font-family="Arial" font-size="8.00">feeds</text>
</g>
<!-- Community&#45;&gt;Onboard -->
<g id="edge28" class="edge">
<title>Community&#45;&gt;Onboard</title>
<path fill="none" stroke="black" d="M452.66,-337.89C448.28,-332.51 443.98,-326.43 440.86,-320.25 438.19,-314.95 436.07,-309 434.42,-303.17"/>
<polygon fill="black" stroke="black" points="437.89,-302.65 432.12,-293.76 431.09,-304.31 437.89,-302.65"/>
<text xml:space="preserve" text-anchor="middle" x="461.86" y="-312.65" font-family="Arial" font-size="8.00">depends on</text>
</g>
<!-- Privacy -->
<g id="node18" class="node">
<title>Privacy</title>
<path fill="lightcyan" stroke="black" d="M698.49,-292.12C698.49,-292.12 653.24,-292.12 653.24,-292.12 647.24,-292.12 641.24,-286.12 641.24,-280.12 641.24,-280.12 641.24,-264.62 641.24,-264.62 641.24,-258.62 647.24,-252.62 653.24,-252.62 653.24,-252.62 698.49,-252.62 698.49,-252.62 704.49,-252.62 710.49,-258.62 710.49,-264.62 710.49,-264.62 710.49,-280.12 710.49,-280.12 710.49,-286.12 704.49,-292.12 698.49,-292.12"/>
<text xml:space="preserve" text-anchor="middle" x="675.86" y="-279.57" font-family="Arial" font-size="9.00">13. Privacy &amp;</text>
<text xml:space="preserve" text-anchor="middle" x="675.86" y="-269.07" font-family="Arial" font-size="9.00">Compliance</text>
<text xml:space="preserve" text-anchor="middle" x="675.86" y="-258.57" font-family="Arial" font-size="9.00">(Legal)</text>
</g>
<!-- P4&#45;&gt;Privacy -->
<g id="edge17" class="edge">
<title>P4&#45;&gt;Privacy</title>
<path fill="none" stroke="black" d="M793.2,-339.67C771.93,-327.66 743.3,-311.48 719.65,-298.11"/>
<polygon fill="black" stroke="black" points="721.59,-295.19 711.16,-293.32 718.15,-301.29 721.59,-295.19"/>
</g>
<!-- P4&#45;&gt;Localization -->
<g id="edge18" class="edge">
<title>P4&#45;&gt;Localization</title>
<path fill="none" stroke="black" d="M845.83,-339.57C862.61,-324.16 882.86,-300.03 882.86,-273.38 882.86,-273.38 882.86,-273.38 882.86,-100.5 882.86,-27.71 632.8,-18.85 521.83,-18.51"/>
<polygon fill="black" stroke="black" points="522.11,-15.01 512.11,-18.5 522.1,-22.01 522.11,-15.01"/>
</g>
<!-- WellnessGuide -->
<g id="node20" class="node">
<title>WellnessGuide</title>
<path fill="lightcyan" stroke="black" d="M842.86,-292.12C842.86,-292.12 778.86,-292.12 778.86,-292.12 772.86,-292.12 766.86,-286.12 766.86,-280.12 766.86,-280.12 766.86,-264.62 766.86,-264.62 766.86,-258.62 772.86,-252.62 778.86,-252.62 778.86,-252.62 842.86,-252.62 842.86,-252.62 848.86,-252.62 854.86,-258.62 854.86,-264.62 854.86,-264.62 854.86,-280.12 854.86,-280.12 854.86,-286.12 848.86,-292.12 842.86,-292.12"/>
<text xml:space="preserve" text-anchor="middle" x="810.86" y="-279.57" font-family="Arial" font-size="9.00">15. Mental Health</text>
<text xml:space="preserve" text-anchor="middle" x="810.86" y="-269.07" font-family="Arial" font-size="9.00">Guidance</text>
<text xml:space="preserve" text-anchor="middle" x="810.86" y="-258.57" font-family="Arial" font-size="9.00">(Wellness)</text>
</g>
<!-- P4&#45;&gt;WellnessGuide -->
<g id="edge19" class="edge">
<title>P4&#45;&gt;WellnessGuide</title>
<path fill="none" stroke="black" d="M821.17,-339.67C819.55,-329.23 817.43,-315.65 815.54,-303.49"/>
<polygon fill="black" stroke="black" points="819.05,-303.27 814.06,-293.92 812.13,-304.34 819.05,-303.27"/>
</g>
<!-- RiskLayer -->
<g id="node21" class="node">
<title>RiskLayer</title>
<ellipse fill="red" stroke="black" cx="328.86" cy="-358" rx="73.09" ry="18"/>
<text xml:space="preserve" text-anchor="middle" x="328.86" y="-354.3" font-family="Arial" font-size="11.00">RISKS TO LAUNCH</text>
</g>
<!-- RiskLayer&#45;&gt;Onboard -->
<g id="edge29" class="edge">
<title>RiskLayer&#45;&gt;Onboard</title>
<path fill="none" stroke="black" d="M343.09,-340.18C351.32,-330.92 362.14,-319.51 372.86,-310.5 377.55,-306.56 382.67,-302.67 387.85,-298.98"/>
<polygon fill="black" stroke="black" points="389.64,-302 395.9,-293.45 385.68,-296.23 389.64,-302"/>
<text xml:space="preserve" text-anchor="middle" x="402.86" y="-312.65" font-family="Arial" font-size="8.00">⚠️ 70% drop&#45;off</text>
</g>
<!-- RiskLayer&#45;&gt;FailureRec -->
<g id="edge30" class="edge">
<title>RiskLayer&#45;&gt;FailureRec</title>
<path fill="none" stroke="black" d="M327.86,-339.73C327.05,-318.78 326.92,-282.52 333.36,-252.25 335.86,-240.54 340.26,-228.19 344.71,-217.47"/>
<polygon fill="black" stroke="black" points="347.89,-218.93 348.69,-208.37 341.48,-216.13 347.89,-218.93"/>
<text xml:space="preserve" text-anchor="middle" x="358.11" y="-269.65" font-family="Arial" font-size="8.00">⚠️ Users quit</text>
</g>
<!-- RiskLayer&#45;&gt;RealWorld -->
<g id="edge31" class="edge">
<title>RiskLayer&#45;&gt;RealWorld</title>
<path fill="none" stroke="black" d="M383.8,-345.73C424.5,-337.07 474.32,-325.71 482.86,-320.25 490.19,-315.57 496.69,-308.92 502.11,-302.1"/>
<polygon fill="black" stroke="black" points="504.89,-304.24 507.93,-294.09 499.23,-300.12 504.89,-304.24"/>
<text xml:space="preserve" text-anchor="middle" x="518.9" y="-312.65" font-family="Arial" font-size="8.00">⚠️ No impact</text>
</g>
<!-- RiskLayer&#45;&gt;Support -->
<g id="edge32" class="edge">
<title>RiskLayer&#45;&gt;Support</title>
<path fill="none" stroke="black" d="M299.96,-340.99C290.97,-335.18 281.44,-328.1 273.86,-320.25 268.71,-314.92 264.03,-308.52 259.99,-302.2"/>
<polygon fill="black" stroke="black" points="263.11,-300.59 254.99,-293.77 257.09,-304.16 263.11,-300.59"/>
<text xml:space="preserve" text-anchor="middle" x="291.86" y="-312.65" font-family="Arial" font-size="8.00">⚠️ Churn</text>
</g>
<!-- RiskLayer&#45;&gt;Analytics -->
<g id="edge33" class="edge">
<title>RiskLayer&#45;&gt;Analytics</title>
<path fill="none" stroke="black" d="M289.26,-342.48C271.43,-335.85 250.16,-327.8 231.11,-320.25 207.71,-310.97 181.76,-300.16 160.71,-291.27"/>
<polygon fill="black" stroke="black" points="162.16,-288.08 151.58,-287.4 159.42,-294.53 162.16,-288.08"/>
<text xml:space="preserve" text-anchor="middle" x="246.49" y="-312.65" font-family="Arial" font-size="8.00">⚠️ Blind</text>
</g>
<!-- RiskLayer&#45;&gt;Privacy -->
<g id="edge34" class="edge">
<title>RiskLayer&#45;&gt;Privacy</title>
<path fill="none" stroke="black" d="M382.41,-345.49C395.59,-342.88 409.71,-340.29 422.86,-338.25 494.45,-327.15 515.51,-341.18 584.86,-320.25 602.31,-314.98 620.38,-306.42 635.77,-298.04"/>
<polygon fill="black" stroke="black" points="637.14,-301.28 644.15,-293.33 633.72,-295.18 637.14,-301.28"/>
<text xml:space="preserve" text-anchor="middle" x="634.71" y="-312.65" font-family="Arial" font-size="8.00">⚠️ Regulatory</text>
</g>
</g>
</svg>
