<?xml version="1.0" encoding="UTF-8" standalone="no"?>
<!DOCTYPE svg PUBLIC "-//W3C//DTD SVG 1.1//EN"
 "http://www.w3.org/Graphics/SVG/1.1/DTD/svg11.dtd">
<!-- Generated by graphviz version 14.0.4 (20251115.1723)
 -->
<!-- Title: DhanaadhyaSystemFlow Pages: 1 -->
<svg width="2446pt" height="558pt"
 viewBox="0.00 0.00 2446.00 558.00" xmlns="http://www.w3.org/2000/svg" xmlns:xlink="http://www.w3.org/1999/xlink">
<g id="graph0" class="graph" transform="scale(1 1) rotate(0) translate(4 554)">
<title>DhanaadhyaSystemFlow</title>
<polygon fill="white" stroke="none" points="-4,4 -4,-554 2442.4,-554 2442.4,4 -4,4"/>
<!-- Landing -->
<g id="node1" class="node">
<title>Landing</title>
<ellipse fill="lightgreen" stroke="black" cx="70.18" cy="-433.5" rx="70.18" ry="27.93"/>
<text xml:space="preserve" text-anchor="middle" x="70.18" y="-435.95" font-family="Arial" font-size="14.00">Landing Page</text>
<text xml:space="preserve" text-anchor="middle" x="70.18" y="-420.2" font-family="Arial" font-size="14.00">60&#45;sec Demo</text>
</g>
<!-- Register -->
<g id="node2" class="node">
<title>Register</title>
<ellipse fill="lightgreen" stroke="black" cx="249.13" cy="-433.5" rx="71.77" ry="27.93"/>
<text xml:space="preserve" text-anchor="middle" x="249.13" y="-435.95" font-family="Arial" font-size="14.00">Registration &amp;</text>
<text xml:space="preserve" text-anchor="middle" x="249.13" y="-420.2" font-family="Arial" font-size="14.00">Authentication</text>
</g>
<!-- Landing&#45;&gt;Register -->
<g id="edge1" class="edge">
<title>Landing&#45;&gt;Register</title>
<path fill="none" stroke="black" d="M140.61,-433.5C148.8,-433.5 157.21,-433.5 165.56,-433.5"/>
<polygon fill="black" stroke="black" points="165.35,-437 175.35,-433.5 165.35,-430 165.35,-437"/>
</g>
<!-- Onboarding -->
<g id="node3" class="node">
<title>Onboarding</title>
<path fill="lightyellow" stroke="black" d="M433.15,-461.12C433.15,-461.12 369.9,-461.12 369.9,-461.12 363.9,-461.12 357.9,-455.12 357.9,-449.12 357.9,-449.12 357.9,-417.88 357.9,-417.88 357.9,-411.88 363.9,-405.88 369.9,-405.88 369.9,-405.88 433.15,-405.88 433.15,-405.88 439.15,-405.88 445.15,-411.88 445.15,-417.88 445.15,-417.88 445.15,-449.12 445.15,-449.12 445.15,-455.12 439.15,-461.12 433.15,-461.12"/>
<text xml:space="preserve" text-anchor="middle" x="401.53" y="-443.82" font-family="Arial" font-size="14.00">Onboarding</text>
<text xml:space="preserve" text-anchor="middle" x="401.53" y="-428.07" font-family="Arial" font-size="14.00">Tutorial</text>
<text xml:space="preserve" text-anchor="middle" x="401.53" y="-412.32" font-family="Arial" font-size="14.00">(5 min)</text>
</g>
<!-- Register&#45;&gt;Onboarding -->
<g id="edge2" class="edge">
<title>Register&#45;&gt;Onboarding</title>
<path fill="none" stroke="black" d="M321.37,-433.5C329.83,-433.5 338.36,-433.5 346.53,-433.5"/>
<polygon fill="black" stroke="black" points="346.27,-437 356.27,-433.5 346.27,-430 346.27,-437"/>
</g>
<!-- BizSelect -->
<g id="node4" class="node">
<title>BizSelect</title>
<path fill="lightblue" stroke="black" d="M615.15,-453.25C615.15,-453.25 494.15,-453.25 494.15,-453.25 488.15,-453.25 482.15,-447.25 482.15,-441.25 482.15,-441.25 482.15,-425.75 482.15,-425.75 482.15,-419.75 488.15,-413.75 494.15,-413.75 494.15,-413.75 615.15,-413.75 615.15,-413.75 621.15,-413.75 627.15,-419.75 627.15,-425.75 627.15,-425.75 627.15,-441.25 627.15,-441.25 627.15,-447.25 621.15,-453.25 615.15,-453.25"/>
<text xml:space="preserve" text-anchor="middle" x="554.65" y="-435.95" font-family="Arial" font-size="14.00">Select Business Type</text>
<text xml:space="preserve" text-anchor="middle" x="554.65" y="-420.2" font-family="Arial" font-size="14.00">&amp; Location</text>
</g>
<!-- Onboarding&#45;&gt;BizSelect -->
<g id="edge3" class="edge">
<title>Onboarding&#45;&gt;BizSelect</title>
<path fill="none" stroke="black" d="M445.43,-433.5C453.32,-433.5 461.79,-433.5 470.4,-433.5"/>
<polygon fill="black" stroke="black" points="470.25,-437 480.25,-433.5 470.25,-430 470.25,-437"/>
</g>
<!-- CapitalInput -->
<g id="node5" class="node">
<title>CapitalInput</title>
<path fill="lightblue" stroke="black" d="M764.9,-381.25C764.9,-381.25 676.15,-381.25 676.15,-381.25 670.15,-381.25 664.15,-375.25 664.15,-369.25 664.15,-369.25 664.15,-353.75 664.15,-353.75 664.15,-347.75 670.15,-341.75 676.15,-341.75 676.15,-341.75 764.9,-341.75 764.9,-341.75 770.9,-341.75 776.9,-347.75 776.9,-353.75 776.9,-353.75 776.9,-369.25 776.9,-369.25 776.9,-375.25 770.9,-381.25 764.9,-381.25"/>
<text xml:space="preserve" text-anchor="middle" x="720.53" y="-363.95" font-family="Arial" font-size="14.00">Choose Starting</text>
<text xml:space="preserve" text-anchor="middle" x="720.53" y="-348.2" font-family="Arial" font-size="14.00">Capital &amp; Loan</text>
</g>
<!-- BizSelect&#45;&gt;CapitalInput -->
<g id="edge4" class="edge">
<title>BizSelect&#45;&gt;CapitalInput</title>
<path fill="none" stroke="black" d="M601.74,-413.25C620.76,-404.9 642.98,-395.13 662.98,-386.35"/>
<polygon fill="black" stroke="black" points="664.37,-389.56 672.12,-382.33 661.56,-383.15 664.37,-389.56"/>
</g>
<!-- SimEngine -->
<g id="node6" class="node">
<title>SimEngine</title>
<path fill="lightcyan" stroke="black" d="M916.15,-306.75C916.15,-306.75 825.9,-306.75 825.9,-306.75 819.9,-306.75 813.9,-300.75 813.9,-294.75 813.9,-294.75 813.9,-282.25 813.9,-282.25 813.9,-276.25 819.9,-270.25 825.9,-270.25 825.9,-270.25 916.15,-270.25 916.15,-270.25 922.15,-270.25 928.15,-276.25 928.15,-282.25 928.15,-282.25 928.15,-294.75 928.15,-294.75 928.15,-300.75 922.15,-306.75 916.15,-306.75"/>
<text xml:space="preserve" text-anchor="middle" x="871.03" y="-291.35" font-family="Arial" font-size="12.00">Simulation Engine</text>
<text xml:space="preserve" text-anchor="middle" x="871.03" y="-277.1" font-family="Arial" font-size="12.00">(365 days)</text>
</g>
<!-- CapitalInput&#45;&gt;SimEngine -->
<g id="edge5" class="edge">
<title>CapitalInput&#45;&gt;SimEngine</title>
<path fill="none" stroke="black" d="M762.5,-341.36C780.83,-332.35 802.56,-321.67 821.68,-312.27"/>
<polygon fill="black" stroke="black" points="823.2,-315.42 830.63,-307.87 820.12,-309.14 823.2,-315.42"/>
</g>
<!-- DailyOps -->
<g id="node7" class="node">
<title>DailyOps</title>
<path fill="lightblue" stroke="black" d="M1397.4,-222C1397.4,-222 1257.65,-222 1257.65,-222 1251.65,-222 1245.65,-216 1245.65,-210 1245.65,-210 1245.65,-163 1245.65,-163 1245.65,-157 1251.65,-151 1257.65,-151 1257.65,-151 1397.4,-151 1397.4,-151 1403.4,-151 1409.4,-157 1409.4,-163 1409.4,-163 1409.4,-210 1409.4,-210 1409.4,-216 1403.4,-222 1397.4,-222"/>
<text xml:space="preserve" text-anchor="middle" x="1327.53" y="-204.7" font-family="Arial" font-size="14.00">Daily Operations</text>
<text xml:space="preserve" text-anchor="middle" x="1327.53" y="-188.95" font-family="Arial" font-size="14.00">&#45; Track transactions</text>
<text xml:space="preserve" text-anchor="middle" x="1327.53" y="-173.2" font-family="Arial" font-size="14.00">&#45; Update inventory</text>
<text xml:space="preserve" text-anchor="middle" x="1327.53" y="-157.45" font-family="Arial" font-size="14.00">&#45; Handle customer credit</text>
</g>
<!-- SimEngine&#45;&gt;DailyOps -->
<g id="edge6" class="edge">
<title>SimEngine&#45;&gt;DailyOps</title>
<path fill="none" stroke="black" d="M885.43,-269.78C907.4,-240.87 954.2,-186.54 1009.15,-165.5 1081.3,-137.88 1169.38,-146.72 1234.43,-160.42"/>
<polygon fill="black" stroke="black" points="1233.49,-163.8 1244,-162.52 1234.99,-156.96 1233.49,-163.8"/>
</g>
<!-- Decisions -->
<g id="node8" class="node">
<title>Decisions</title>
<path fill="lightblue" stroke="black" d="M2426.4,-279.88C2426.4,-279.88 2341.4,-279.88 2341.4,-279.88 2335.4,-279.88 2329.4,-273.88 2329.4,-267.88 2329.4,-267.88 2329.4,-205.12 2329.4,-205.12 2329.4,-199.12 2335.4,-193.12 2341.4,-193.12 2341.4,-193.12 2426.4,-193.12 2426.4,-193.12 2432.4,-193.12 2438.4,-199.12 2438.4,-205.12 2438.4,-205.12 2438.4,-267.88 2438.4,-267.88 2438.4,-273.88 2432.4,-279.88 2426.4,-279.88"/>
<text xml:space="preserve" text-anchor="middle" x="2383.9" y="-262.57" font-family="Arial" font-size="14.00">Decision Points</text>
<text xml:space="preserve" text-anchor="middle" x="2383.9" y="-246.82" font-family="Arial" font-size="14.00">&#45; Pricing</text>
<text xml:space="preserve" text-anchor="middle" x="2383.9" y="-231.07" font-family="Arial" font-size="14.00">&#45; Inventory</text>
<text xml:space="preserve" text-anchor="middle" x="2383.9" y="-215.32" font-family="Arial" font-size="14.00">&#45; Marketing</text>
<text xml:space="preserve" text-anchor="middle" x="2383.9" y="-199.57" font-family="Arial" font-size="14.00">&#45; Cost control</text>
</g>
<!-- SimEngine&#45;&gt;Decisions -->
<g id="edge7" class="edge">
<title>SimEngine&#45;&gt;Decisions</title>
<path fill="none" stroke="black" d="M928.45,-288.5C969.52,-288.5 1026.47,-288.5 1076.53,-288.5 1076.53,-288.5 1076.53,-288.5 2231.4,-288.5 2260.98,-288.5 2292.12,-279.53 2318.43,-269.03"/>
<polygon fill="black" stroke="black" points="2319.73,-272.29 2327.62,-265.21 2317.04,-265.82 2319.73,-272.29"/>
</g>
<!-- MarketSim -->
<g id="node9" class="node">
<title>MarketSim</title>
<path fill="lightblue" stroke="black" d="M1133.9,-260.88C1133.9,-260.88 1021.15,-260.88 1021.15,-260.88 1015.15,-260.88 1009.15,-254.88 1009.15,-248.88 1009.15,-248.88 1009.15,-186.12 1009.15,-186.12 1009.15,-180.12 1015.15,-174.12 1021.15,-174.12 1021.15,-174.12 1133.9,-174.12 1133.9,-174.12 1139.9,-174.12 1145.9,-180.12 1145.9,-186.12 1145.9,-186.12 1145.9,-248.88 1145.9,-248.88 1145.9,-254.88 1139.9,-260.88 1133.9,-260.88"/>
<text xml:space="preserve" text-anchor="middle" x="1077.53" y="-243.57" font-family="Arial" font-size="14.00">Market Simulator</text>
<text xml:space="preserve" text-anchor="middle" x="1077.53" y="-227.82" font-family="Arial" font-size="14.00">&#45; Customer demand</text>
<text xml:space="preserve" text-anchor="middle" x="1077.53" y="-212.07" font-family="Arial" font-size="14.00">&#45; Competitor activity</text>
<text xml:space="preserve" text-anchor="middle" x="1077.53" y="-196.32" font-family="Arial" font-size="14.00">&#45; Supply shocks</text>
<text xml:space="preserve" text-anchor="middle" x="1077.53" y="-180.57" font-family="Arial" font-size="14.00">&#45; Seasonality</text>
</g>
<!-- SimEngine&#45;&gt;MarketSim -->
<g id="edge8" class="edge">
<title>SimEngine&#45;&gt;MarketSim</title>
<path fill="none" stroke="black" d="M926.03,-269.75C947.99,-262.13 973.8,-253.17 997.79,-244.84"/>
<polygon fill="black" stroke="black" points="998.93,-248.15 1007.23,-241.56 996.64,-241.53 998.93,-248.15"/>
</g>
<!-- Graduation -->
<g id="node18" class="node">
<title>Graduation</title>
<ellipse fill="lightgreen" stroke="black" cx="1077.53" cy="-361.5" rx="68.06" ry="39.07"/>
<text xml:space="preserve" text-anchor="middle" x="1077.53" y="-371.82" font-family="Arial" font-size="14.00">Graduation</text>
<text xml:space="preserve" text-anchor="middle" x="1077.53" y="-356.07" font-family="Arial" font-size="14.00">✓ Certificate</text>
<text xml:space="preserve" text-anchor="middle" x="1077.53" y="-340.32" font-family="Arial" font-size="14.00">✓ Playbook</text>
</g>
<!-- SimEngine&#45;&gt;Graduation -->
<g id="edge22" class="edge">
<title>SimEngine&#45;&gt;Graduation</title>
<path fill="none" stroke="black" d="M924.43,-307.2C950.02,-316.34 981.14,-327.45 1008.54,-337.23"/>
<polygon fill="black" stroke="black" points="1007.21,-340.47 1017.81,-340.54 1009.57,-333.88 1007.21,-340.47"/>
<text xml:space="preserve" text-anchor="middle" x="968.65" y="-355.87" font-family="Arial" font-size="10.00">Day 365</text>
<text xml:space="preserve" text-anchor="middle" x="968.65" y="-343.87" font-family="Arial" font-size="10.00">or</text>
<text xml:space="preserve" text-anchor="middle" x="968.65" y="-331.87" font-family="Arial" font-size="10.00">Goals Met</text>
</g>
<!-- FinCalc -->
<g id="node10" class="node">
<title>FinCalc</title>
<path fill="lightblue" stroke="black" d="M1577.53,-222C1577.53,-222 1467.03,-222 1467.03,-222 1461.03,-222 1455.03,-216 1455.03,-210 1455.03,-210 1455.03,-163 1455.03,-163 1455.03,-157 1461.03,-151 1467.03,-151 1467.03,-151 1577.53,-151 1577.53,-151 1583.53,-151 1589.53,-157 1589.53,-163 1589.53,-163 1589.53,-210 1589.53,-210 1589.53,-216 1583.53,-222 1577.53,-222"/>
<text xml:space="preserve" text-anchor="middle" x="1522.28" y="-204.7" font-family="Arial" font-size="14.00">Financial Calculator</text>
<text xml:space="preserve" text-anchor="middle" x="1522.28" y="-188.95" font-family="Arial" font-size="14.00">&#45; Revenue/COGS</text>
<text xml:space="preserve" text-anchor="middle" x="1522.28" y="-173.2" font-family="Arial" font-size="14.00">&#45; Margins</text>
<text xml:space="preserve" text-anchor="middle" x="1522.28" y="-157.45" font-family="Arial" font-size="14.00">&#45; Cash flow</text>
</g>
<!-- DailyOps&#45;&gt;FinCalc -->
<g id="edge9" class="edge">
<title>DailyOps&#45;&gt;FinCalc</title>
<path fill="none" stroke="black" d="M1409.71,-186.5C1420.86,-186.5 1432.29,-186.5 1443.38,-186.5"/>
<polygon fill="black" stroke="black" points="1443.27,-190 1453.27,-186.5 1443.27,-183 1443.27,-190"/>
</g>
<!-- Decisions&#45;&gt;FinCalc -->
<g id="edge10" class="edge">
<title>Decisions&#45;&gt;FinCalc</title>
<path fill="none" stroke="black" d="M2329.03,-243.91C2300.14,-247.27 2263.89,-250.5 2231.4,-250.5 1703.65,-250.5 1703.65,-250.5 1703.65,-250.5 1668.43,-250.5 1631.44,-239.52 1600.2,-226.66"/>
<polygon fill="black" stroke="black" points="1601.8,-223.54 1591.22,-222.84 1599.05,-229.98 1601.8,-223.54"/>
</g>
<!-- MarketSim&#45;&gt;DailyOps -->
<g id="edge11" class="edge">
<title>MarketSim&#45;&gt;DailyOps</title>
<path fill="none" stroke="black" d="M1146.3,-209.03C1173.26,-205.66 1204.73,-201.72 1233.76,-198.1"/>
<polygon fill="black" stroke="black" points="1234.18,-201.57 1243.67,-196.86 1233.31,-194.62 1234.18,-201.57"/>
</g>
<!-- Dashboard -->
<g id="node13" class="node">
<title>Dashboard</title>
<path fill="lightpink" stroke="black" d="M1742.65,-94.88C1742.65,-94.88 1666.65,-94.88 1666.65,-94.88 1660.65,-94.88 1654.65,-88.88 1654.65,-82.88 1654.65,-82.88 1654.65,-20.12 1654.65,-20.12 1654.65,-14.12 1660.65,-8.12 1666.65,-8.12 1666.65,-8.12 1742.65,-8.12 1742.65,-8.12 1748.65,-8.12 1754.65,-14.12 1754.65,-20.12 1754.65,-20.12 1754.65,-82.88 1754.65,-82.88 1754.65,-88.88 1748.65,-94.88 1742.65,-94.88"/>
<text xml:space="preserve" text-anchor="middle" x="1704.65" y="-77.58" font-family="Arial" font-size="14.00">Dashboard</text>
<text xml:space="preserve" text-anchor="middle" x="1704.65" y="-61.83" font-family="Arial" font-size="14.00">&#45; Health score</text>
<text xml:space="preserve" text-anchor="middle" x="1704.65" y="-46.08" font-family="Arial" font-size="14.00">&#45; Key metrics</text>
<text xml:space="preserve" text-anchor="middle" x="1704.65" y="-30.32" font-family="Arial" font-size="14.00">&#45; Alerts</text>
<text xml:space="preserve" text-anchor="middle" x="1704.65" y="-14.57" font-family="Arial" font-size="14.00">&#45; Forecasts</text>
</g>
<!-- FinCalc&#45;&gt;Dashboard -->
<g id="edge12" class="edge">
<title>FinCalc&#45;&gt;Dashboard</title>
<path fill="none" stroke="black" d="M1571.14,-150.68C1593.91,-133.64 1621.33,-113.12 1645.3,-95.17"/>
<polygon fill="black" stroke="black" points="1647.19,-98.13 1653.1,-89.34 1642.99,-92.53 1647.19,-98.13"/>
</g>
<!-- Goals -->
<g id="node16" class="node">
<title>Goals</title>
<path fill="lightpink" stroke="black" d="M1762.15,-222C1762.15,-222 1647.15,-222 1647.15,-222 1641.15,-222 1635.15,-216 1635.15,-210 1635.15,-210 1635.15,-163 1635.15,-163 1635.15,-157 1641.15,-151 1647.15,-151 1647.15,-151 1762.15,-151 1762.15,-151 1768.15,-151 1774.15,-157 1774.15,-163 1774.15,-163 1774.15,-210 1774.15,-210 1774.15,-216 1768.15,-222 1762.15,-222"/>
<text xml:space="preserve" text-anchor="middle" x="1704.65" y="-204.7" font-family="Arial" font-size="14.00">Goals Dashboard</text>
<text xml:space="preserve" text-anchor="middle" x="1704.65" y="-188.95" font-family="Arial" font-size="14.00">&#45; Milestone progress</text>
<text xml:space="preserve" text-anchor="middle" x="1704.65" y="-173.2" font-family="Arial" font-size="14.00">&#45; Target tracking</text>
<text xml:space="preserve" text-anchor="middle" x="1704.65" y="-157.45" font-family="Arial" font-size="14.00">&#45; Adaptive goals</text>
</g>
<!-- FinCalc&#45;&gt;Goals -->
<g id="edge13" class="edge">
<title>FinCalc&#45;&gt;Goals</title>
<path fill="none" stroke="black" d="M1589.93,-186.5C1600.92,-186.5 1612.41,-186.5 1623.68,-186.5"/>
<polygon fill="black" stroke="black" points="1623.35,-190 1633.35,-186.5 1623.35,-183 1623.35,-190"/>
</g>
<!-- TaxEngine -->
<g id="node11" class="node">
<title>TaxEngine</title>
<path fill="lightblue" stroke="black" d="M1586.15,-116C1586.15,-116 1458.4,-116 1458.4,-116 1452.4,-116 1446.4,-110 1446.4,-104 1446.4,-104 1446.4,-57 1446.4,-57 1446.4,-51 1452.4,-45 1458.4,-45 1458.4,-45 1586.15,-45 1586.15,-45 1592.15,-45 1598.15,-51 1598.15,-57 1598.15,-57 1598.15,-104 1598.15,-104 1598.15,-110 1592.15,-116 1586.15,-116"/>
<text xml:space="preserve" text-anchor="middle" x="1522.28" y="-98.7" font-family="Arial" font-size="14.00">Tax Engine</text>
<text xml:space="preserve" text-anchor="middle" x="1522.28" y="-82.95" font-family="Arial" font-size="14.00">&#45; GST calculation</text>
<text xml:space="preserve" text-anchor="middle" x="1522.28" y="-67.2" font-family="Arial" font-size="14.00">&#45; Income tax</text>
<text xml:space="preserve" text-anchor="middle" x="1522.28" y="-51.45" font-family="Arial" font-size="14.00">&#45; Compliance calendar</text>
</g>
<!-- TaxEngine&#45;&gt;Dashboard -->
<g id="edge14" class="edge">
<title>TaxEngine&#45;&gt;Dashboard</title>
<path fill="none" stroke="black" d="M1598.47,-68.41C1613.34,-66.02 1628.77,-63.54 1643.09,-61.24"/>
<polygon fill="black" stroke="black" points="1643.48,-64.72 1652.8,-59.68 1642.37,-57.81 1643.48,-64.72"/>
</g>
<!-- FocusGuide -->
<g id="node14" class="node">
<title>FocusGuide</title>
<path fill="lightpink" stroke="black" d="M2280.4,-198.88C2280.4,-198.88 2180.4,-198.88 2180.4,-198.88 2174.4,-198.88 2168.4,-192.88 2168.4,-186.88 2168.4,-186.88 2168.4,-124.12 2168.4,-124.12 2168.4,-118.12 2174.4,-112.12 2180.4,-112.12 2180.4,-112.12 2280.4,-112.12 2280.4,-112.12 2286.4,-112.12 2292.4,-118.12 2292.4,-124.12 2292.4,-124.12 2292.4,-186.88 2292.4,-186.88 2292.4,-192.88 2286.4,-198.88 2280.4,-198.88"/>
<text xml:space="preserve" text-anchor="middle" x="2230.4" y="-181.57" font-family="Arial" font-size="14.00">Focus Guide</text>
<text xml:space="preserve" text-anchor="middle" x="2230.4" y="-165.82" font-family="Arial" font-size="14.00">&#45; Daily checklist</text>
<text xml:space="preserve" text-anchor="middle" x="2230.4" y="-150.07" font-family="Arial" font-size="14.00">&#45; Weekly review</text>
<text xml:space="preserve" text-anchor="middle" x="2230.4" y="-134.32" font-family="Arial" font-size="14.00">&#45; Monthly strategy</text>
<text xml:space="preserve" text-anchor="middle" x="2230.4" y="-118.58" font-family="Arial" font-size="14.00">&#45; Smart nudges</text>
</g>
<!-- TaxEngine&#45;&gt;FocusGuide -->
<g id="edge15" class="edge">
<title>TaxEngine&#45;&gt;FocusGuide</title>
<path fill="none" stroke="black" d="M1598.6,-97.19C1610.78,-99.54 1623.29,-101.75 1635.15,-103.5 1822.11,-131.11 2044.48,-145.78 2156.78,-151.93"/>
<polygon fill="black" stroke="black" points="2156.27,-155.41 2166.45,-152.45 2156.65,-148.42 2156.27,-155.41"/>
</g>
<!-- GoalTracker -->
<g id="node12" class="node">
<title>GoalTracker</title>
<path fill="lightblue" stroke="black" d="M119.81,-550C119.81,-550 20.56,-550 20.56,-550 14.56,-550 8.56,-544 8.56,-538 8.56,-538 8.56,-491 8.56,-491 8.56,-485 14.56,-479 20.56,-479 20.56,-479 119.81,-479 119.81,-479 125.81,-479 131.81,-485 131.81,-491 131.81,-491 131.81,-538 131.81,-538 131.81,-544 125.81,-550 119.81,-550"/>
<text xml:space="preserve" text-anchor="middle" x="70.18" y="-532.7" font-family="Arial" font-size="14.00">Goal Tracker</text>
<text xml:space="preserve" text-anchor="middle" x="70.18" y="-516.95" font-family="Arial" font-size="14.00">&#45; Revenue targets</text>
<text xml:space="preserve" text-anchor="middle" x="70.18" y="-501.2" font-family="Arial" font-size="14.00">&#45; Profit targets</text>
<text xml:space="preserve" text-anchor="middle" x="70.18" y="-485.45" font-family="Arial" font-size="14.00">&#45; KPI tracking</text>
</g>
<!-- DecisionSupport -->
<g id="node15" class="node">
<title>DecisionSupport</title>
<path fill="lightpink" stroke="black" d="M2138.4,-71C2138.4,-71 2024.15,-71 2024.15,-71 2018.15,-71 2012.15,-65 2012.15,-59 2012.15,-59 2012.15,-12 2012.15,-12 2012.15,-6 2018.15,0 2024.15,0 2024.15,0 2138.4,0 2138.4,0 2144.4,0 2150.4,-6 2150.4,-12 2150.4,-12 2150.4,-59 2150.4,-59 2150.4,-65 2144.4,-71 2138.4,-71"/>
<text xml:space="preserve" text-anchor="middle" x="2081.28" y="-53.7" font-family="Arial" font-size="14.00">Decision Support</text>
<text xml:space="preserve" text-anchor="middle" x="2081.28" y="-37.95" font-family="Arial" font-size="14.00">&#45; What&#45;if analysis</text>
<text xml:space="preserve" text-anchor="middle" x="2081.28" y="-22.2" font-family="Arial" font-size="14.00">&#45; Benchmarking</text>
<text xml:space="preserve" text-anchor="middle" x="2081.28" y="-6.45" font-family="Arial" font-size="14.00">&#45; Recommendations</text>
</g>
<!-- Dashboard&#45;&gt;DecisionSupport -->
<g id="edge16" class="edge">
<title>Dashboard&#45;&gt;DecisionSupport</title>
<path fill="none" stroke="black" d="M1755.04,-43.53C1781.53,-39.66 1814.79,-35.43 1844.65,-33.5 1910.96,-29.22 1927.71,-32.73 1994.15,-33.5 1996.34,-33.53 1998.56,-33.55 2000.8,-33.59"/>
<polygon fill="black" stroke="black" points="2000.54,-37.08 2010.6,-33.75 2000.66,-30.08 2000.54,-37.08"/>
</g>
<!-- Analytics -->
<g id="node17" class="node">
<title>Analytics</title>
<path fill="lightblue" stroke="black" d="M1982.15,-114C1982.15,-114 1856.65,-114 1856.65,-114 1850.65,-114 1844.65,-108 1844.65,-102 1844.65,-102 1844.65,-55 1844.65,-55 1844.65,-49 1850.65,-43 1856.65,-43 1856.65,-43 1982.15,-43 1982.15,-43 1988.15,-43 1994.15,-49 1994.15,-55 1994.15,-55 1994.15,-102 1994.15,-102 1994.15,-108 1988.15,-114 1982.15,-114"/>
<text xml:space="preserve" text-anchor="middle" x="1919.4" y="-96.7" font-family="Arial" font-size="14.00">Analytics Engine</text>
<text xml:space="preserve" text-anchor="middle" x="1919.4" y="-80.95" font-family="Arial" font-size="14.00">&#45; User behavior</text>
<text xml:space="preserve" text-anchor="middle" x="1919.4" y="-65.2" font-family="Arial" font-size="14.00">&#45; Engagement metrics</text>
<text xml:space="preserve" text-anchor="middle" x="1919.4" y="-49.45" font-family="Arial" font-size="14.00">&#45; Learning outcomes</text>
</g>
<!-- Dashboard&#45;&gt;Analytics -->
<g id="edge20" class="edge">
<title>Dashboard&#45;&gt;Analytics</title>
<path fill="none" stroke="black" d="M1755.01,-59.26C1767.14,-61.07 1780.11,-62.93 1792.15,-64.5 1805.31,-66.22 1819.25,-67.9 1832.89,-69.47"/>
<polygon fill="black" stroke="black" points="1832.41,-72.94 1842.74,-70.59 1833.2,-65.98 1832.41,-72.94"/>
</g>
<!-- FocusGuide&#45;&gt;Decisions -->
<g id="edge18" class="edge">
<title>FocusGuide&#45;&gt;Decisions</title>
<path fill="none" stroke="black" d="M2292.59,-188.21C2301.42,-192.93 2310.52,-197.8 2319.4,-202.55"/>
<polygon fill="black" stroke="black" points="2317.49,-205.5 2327.96,-207.12 2320.79,-199.32 2317.49,-205.5"/>
</g>
<!-- DecisionSupport&#45;&gt;Decisions -->
<g id="edge19" class="edge">
<title>DecisionSupport&#45;&gt;Decisions</title>
<path fill="none" stroke="black" d="M2150.48,-45.8C2194.4,-55.12 2250.83,-72.34 2292.4,-103.5 2319.97,-124.16 2341.98,-155.79 2357.39,-183.02"/>
<polygon fill="black" stroke="black" points="2354.17,-184.41 2362.04,-191.5 2360.3,-181.05 2354.17,-184.41"/>
</g>
<!-- Goals&#45;&gt;FocusGuide -->
<g id="edge17" class="edge">
<title>Goals&#45;&gt;FocusGuide</title>
<path fill="none" stroke="black" d="M1774.39,-182.43C1873.4,-176.57 2055.34,-165.8 2156.58,-159.81"/>
<polygon fill="black" stroke="black" points="2156.63,-163.31 2166.4,-159.23 2156.21,-156.33 2156.63,-163.31"/>
</g>
<!-- Goals&#45;&gt;Analytics -->
<g id="edge21" class="edge">
<title>Goals&#45;&gt;Analytics</title>
<path fill="none" stroke="black" d="M1774.43,-151.58C1794.57,-141.36 1816.77,-130.09 1837.58,-119.53"/>
<polygon fill="black" stroke="black" points="1838.99,-122.74 1846.32,-115.09 1835.82,-116.5 1838.99,-122.74"/>
</g>
<!-- Analytics&#45;&gt;Dashboard -->
<g id="edge28" class="edge">
<title>Analytics&#45;&gt;Dashboard</title>
<path fill="none" stroke="black" d="M1844.25,-52.97C1838.35,-51.58 1832.43,-50.39 1826.65,-49.5 1807.22,-46.5 1785.82,-45.96 1766.49,-46.49"/>
<polygon fill="black" stroke="black" points="1766.44,-42.99 1756.58,-46.86 1766.71,-49.98 1766.44,-42.99"/>
<text xml:space="preserve" text-anchor="middle" x="1809.4" y="-52" font-family="Arial" font-size="10.00">Insights</text>
</g>
<!-- Analytics&#45;&gt;FocusGuide -->
<g id="edge29" class="edge">
<title>Analytics&#45;&gt;FocusGuide</title>
<path fill="none" stroke="black" d="M1994.48,-85.13C2040.21,-90.59 2099.64,-100.18 2150.4,-116.5 2152.77,-117.26 2155.15,-118.08 2157.54,-118.95"/>
<polygon fill="black" stroke="black" points="2156.03,-122.12 2166.62,-122.51 2158.58,-115.6 2156.03,-122.12"/>
<text xml:space="preserve" text-anchor="middle" x="2081.28" y="-119" font-family="Arial" font-size="10.00">Personalization</text>
</g>
<!-- Restart -->
<g id="node19" class="node">
<title>Restart</title>
<ellipse fill="lightyellow" stroke="black" cx="1327.53" cy="-433.5" rx="44.72" ry="27.93"/>
<text xml:space="preserve" text-anchor="middle" x="1327.53" y="-435.95" font-family="Arial" font-size="14.00">Restart/</text>
<text xml:space="preserve" text-anchor="middle" x="1327.53" y="-420.2" font-family="Arial" font-size="14.00">Redo</text>
</g>
<!-- Graduation&#45;&gt;Restart -->
<g id="edge23" class="edge">
<title>Graduation&#45;&gt;Restart</title>
<path fill="none" stroke="black" d="M1138.88,-379.02C1180.73,-391.17 1235.84,-407.17 1275.5,-418.69"/>
<polygon fill="black" stroke="black" points="1274.48,-422.03 1285.06,-421.46 1276.43,-415.31 1274.48,-422.03"/>
<text xml:space="preserve" text-anchor="middle" x="1195.78" y="-406.45" font-family="Arial" font-size="10.00">Try Again</text>
</g>
<!-- NewBiz -->
<g id="node20" class="node">
<title>NewBiz</title>
<ellipse fill="lightyellow" stroke="black" cx="1327.53" cy="-507.5" rx="73.36" ry="27.93"/>
<text xml:space="preserve" text-anchor="middle" x="1327.53" y="-509.95" font-family="Arial" font-size="14.00">Try New</text>
<text xml:space="preserve" text-anchor="middle" x="1327.53" y="-494.2" font-family="Arial" font-size="14.00">Business Type</text>
</g>
<!-- Graduation&#45;&gt;NewBiz -->
<g id="edge24" class="edge">
<title>Graduation&#45;&gt;NewBiz</title>
<path fill="none" stroke="black" d="M1120.93,-392.03C1154,-415.12 1201.57,-446.79 1245.65,-470.5 1252.76,-474.32 1260.33,-478.12 1267.89,-481.76"/>
<polygon fill="black" stroke="black" points="1266.23,-484.84 1276.76,-485.94 1269.21,-478.51 1266.23,-484.84"/>
<text xml:space="preserve" text-anchor="middle" x="1195.78" y="-462.49" font-family="Arial" font-size="10.00">New Business</text>
</g>
<!-- Premium -->
<g id="node21" class="node">
<title>Premium</title>
<path fill="gold" stroke="black" d="M1385.4,-388C1385.4,-388 1269.65,-388 1269.65,-388 1263.65,-388 1257.65,-382 1257.65,-376 1257.65,-376 1257.65,-329 1257.65,-329 1257.65,-323 1263.65,-317 1269.65,-317 1269.65,-317 1385.4,-317 1385.4,-317 1391.4,-317 1397.4,-323 1397.4,-329 1397.4,-329 1397.4,-376 1397.4,-376 1397.4,-382 1391.4,-388 1385.4,-388"/>
<text xml:space="preserve" text-anchor="middle" x="1327.53" y="-370.7" font-family="Arial" font-size="14.00">Premium Features</text>
<text xml:space="preserve" text-anchor="middle" x="1327.53" y="-354.95" font-family="Arial" font-size="14.00">&#45; Expert consultation</text>
<text xml:space="preserve" text-anchor="middle" x="1327.53" y="-339.2" font-family="Arial" font-size="14.00">&#45; Advanced analytics</text>
<text xml:space="preserve" text-anchor="middle" x="1327.53" y="-323.45" font-family="Arial" font-size="14.00">&#45; Real&#45;world tools</text>
</g>
<!-- Graduation&#45;&gt;Premium -->
<g id="edge25" class="edge">
<title>Graduation&#45;&gt;Premium</title>
<path fill="none" stroke="black" d="M1145.64,-359.06C1176.57,-357.94 1213.52,-356.6 1245.94,-355.42"/>
<polygon fill="black" stroke="black" points="1245.82,-358.93 1255.69,-355.07 1245.57,-351.94 1245.82,-358.93"/>
<text xml:space="preserve" text-anchor="middle" x="1195.78" y="-360.83" font-family="Arial" font-size="10.00">Get Help</text>
</g>
<!-- Restart&#45;&gt;BizSelect -->
<g id="edge26" class="edge">
<title>Restart&#45;&gt;BizSelect</title>
<path fill="none" stroke="black" d="M1282.63,-433.5C1233.06,-433.5 1150,-433.5 1078.53,-433.5 719.53,-433.5 719.53,-433.5 719.53,-433.5 693.26,-433.5 664.62,-433.5 638.74,-433.5"/>
<polygon fill="black" stroke="black" points="638.96,-430 628.96,-433.5 638.96,-437 638.96,-430"/>
</g>
<!-- NewBiz&#45;&gt;BizSelect -->
<g id="edge27" class="edge">
<title>NewBiz&#45;&gt;BizSelect</title>
<path fill="none" stroke="black" d="M1253.83,-505.71C1204.4,-504.65 1137.52,-503.5 1078.53,-503.5 719.53,-503.5 719.53,-503.5 719.53,-503.5 673.27,-503.5 625.14,-479.62 593.11,-459.75"/>
<polygon fill="black" stroke="black" points="595.29,-456.99 584.98,-454.56 591.52,-462.89 595.29,-456.99"/>
</g>
</g>
</svg>
