<?xml version="1.0" encoding="UTF-8" standalone="no"?>
<!DOCTYPE svg PUBLIC "-//W3C//DTD SVG 1.1//EN"
 "http://www.w3.org/Graphics/SVG/1.1/DTD/svg11.dtd">
<!-- Generated by graphviz version 14.0.4 (20251115.1723)
 -->
<!-- Title: DhanaadhyaTechArchitecture Pages: 1 -->
<svg width="1798pt" height="571pt"
 viewBox="0.00 0.00 1798.00 571.00" xmlns="http://www.w3.org/2000/svg" xmlns:xlink="http://www.w3.org/1999/xlink">
<g id="graph0" class="graph" transform="scale(1 1) rotate(0) translate(4 566.93)">
<title>DhanaadhyaTechArchitecture</title>
<polygon fill="white" stroke="none" points="-4,4 -4,-566.93 1793.5,-566.93 1793.5,4 -4,4"/>
<!-- FrontendLayer -->
<g id="node1" class="node">
<title>FrontendLayer</title>
<polygon fill="lightblue" stroke="black" points="563.75,-562.93 424.75,-562.93 424.75,-526.93 563.75,-526.93 563.75,-562.93"/>
<text xml:space="preserve" text-anchor="middle" x="494.25" y="-539.51" font-family="Arial" font-size="14.00">FRONTEND LAYER</text>
</g>
<!-- Web -->
<g id="node2" class="node">
<title>Web</title>
<path fill="lightyellow" stroke="black" d="M645.88,-490.93C645.88,-490.93 576.62,-490.93 576.62,-490.93 570.62,-490.93 564.62,-484.93 564.62,-478.93 564.62,-478.93 564.62,-416.18 564.62,-416.18 564.62,-410.18 570.62,-404.18 576.62,-404.18 576.62,-404.18 645.88,-404.18 645.88,-404.18 651.88,-404.18 657.88,-410.18 657.88,-416.18 657.88,-416.18 657.88,-478.93 657.88,-478.93 657.88,-484.93 651.88,-490.93 645.88,-490.93"/>
<text xml:space="preserve" text-anchor="middle" x="611.25" y="-473.63" font-family="Arial" font-size="14.00">Web App</text>
<text xml:space="preserve" text-anchor="middle" x="611.25" y="-457.88" font-family="Arial" font-size="14.00">(React/Vue)</text>
<text xml:space="preserve" text-anchor="middle" x="611.25" y="-442.13" font-family="Arial" font-size="14.00">Dashboard</text>
<text xml:space="preserve" text-anchor="middle" x="611.25" y="-426.38" font-family="Arial" font-size="14.00">Focus Guide</text>
<text xml:space="preserve" text-anchor="middle" x="611.25" y="-410.63" font-family="Arial" font-size="14.00">Reports</text>
</g>
<!-- FrontendLayer&#45;&gt;Web -->
<g id="edge1" class="edge">
<title>FrontendLayer&#45;&gt;Web</title>
<path fill="none" stroke="black" d="M515.71,-526.44C526.96,-517.27 541.32,-505.56 555.47,-494.03"/>
<polygon fill="black" stroke="black" points="557.51,-496.88 563.05,-487.85 553.09,-491.45 557.51,-496.88"/>
</g>
<!-- Mobile -->
<g id="node3" class="node">
<title>Mobile</title>
<path fill="lightyellow" stroke="black" d="M534.5,-490.93C534.5,-490.93 454,-490.93 454,-490.93 448,-490.93 442,-484.93 442,-478.93 442,-478.93 442,-416.18 442,-416.18 442,-410.18 448,-404.18 454,-404.18 454,-404.18 534.5,-404.18 534.5,-404.18 540.5,-404.18 546.5,-410.18 546.5,-416.18 546.5,-416.18 546.5,-478.93 546.5,-478.93 546.5,-484.93 540.5,-490.93 534.5,-490.93"/>
<text xml:space="preserve" text-anchor="middle" x="494.25" y="-473.63" font-family="Arial" font-size="14.00">Mobile App</text>
<text xml:space="preserve" text-anchor="middle" x="494.25" y="-457.88" font-family="Arial" font-size="14.00">(React Native)</text>
<text xml:space="preserve" text-anchor="middle" x="494.25" y="-442.13" font-family="Arial" font-size="14.00">Same features</text>
<text xml:space="preserve" text-anchor="middle" x="494.25" y="-426.38" font-family="Arial" font-size="14.00">Optimized for</text>
<text xml:space="preserve" text-anchor="middle" x="494.25" y="-410.63" font-family="Arial" font-size="14.00">small screens</text>
</g>
<!-- FrontendLayer&#45;&gt;Mobile -->
<g id="edge2" class="edge">
<title>FrontendLayer&#45;&gt;Mobile</title>
<path fill="none" stroke="black" d="M494.25,-526.44C494.25,-519.56 494.25,-511.26 494.25,-502.67"/>
<polygon fill="black" stroke="black" points="497.75,-502.82 494.25,-492.82 490.75,-502.82 497.75,-502.82"/>
</g>
<!-- PWA -->
<g id="node4" class="node">
<title>PWA</title>
<path fill="lightyellow" stroke="black" d="M412.12,-483.06C412.12,-483.06 314.38,-483.06 314.38,-483.06 308.38,-483.06 302.38,-477.06 302.38,-471.06 302.38,-471.06 302.38,-424.06 302.38,-424.06 302.38,-418.06 308.38,-412.06 314.38,-412.06 314.38,-412.06 412.12,-412.06 412.12,-412.06 418.12,-412.06 424.12,-418.06 424.12,-424.06 424.12,-424.06 424.12,-471.06 424.12,-471.06 424.12,-477.06 418.12,-483.06 412.12,-483.06"/>
<text xml:space="preserve" text-anchor="middle" x="363.25" y="-465.76" font-family="Arial" font-size="14.00">Progressive</text>
<text xml:space="preserve" text-anchor="middle" x="363.25" y="-450.01" font-family="Arial" font-size="14.00">Web App</text>
<text xml:space="preserve" text-anchor="middle" x="363.25" y="-434.26" font-family="Arial" font-size="14.00">Offline support</text>
<text xml:space="preserve" text-anchor="middle" x="363.25" y="-418.51" font-family="Arial" font-size="14.00">SyncWhenOnline</text>
</g>
<!-- FrontendLayer&#45;&gt;PWA -->
<g id="edge3" class="edge">
<title>FrontendLayer&#45;&gt;PWA</title>
<path fill="none" stroke="black" d="M470.22,-526.44C456.2,-516.23 437.86,-502.88 420.34,-490.12"/>
<polygon fill="black" stroke="black" points="422.65,-487.47 412.5,-484.42 418.52,-493.13 422.65,-487.47"/>
</g>
<!-- API -->
<g id="node5" class="node">
<title>API</title>
<ellipse fill="lightgreen" stroke="black" cx="494.25" cy="-306.84" rx="86.09" ry="61.34"/>
<text xml:space="preserve" text-anchor="middle" x="494.25" y="-332.92" font-family="Arial" font-size="14.00">API Gateway</text>
<text xml:space="preserve" text-anchor="middle" x="494.25" y="-317.17" font-family="Arial" font-size="14.00">(REST/GraphQL)</text>
<text xml:space="preserve" text-anchor="middle" x="494.25" y="-301.42" font-family="Arial" font-size="14.00">Authentication</text>
<text xml:space="preserve" text-anchor="middle" x="494.25" y="-285.67" font-family="Arial" font-size="14.00">Rate limiting</text>
<text xml:space="preserve" text-anchor="middle" x="494.25" y="-269.92" font-family="Arial" font-size="14.00">Caching</text>
</g>
<!-- Web&#45;&gt;API -->
<g id="edge4" class="edge">
<title>Web&#45;&gt;API</title>
<path fill="none" stroke="black" d="M575.19,-403.81C565.79,-392.66 555.48,-380.43 545.46,-368.55"/>
<polygon fill="black" stroke="black" points="548.32,-366.52 539.2,-361.14 542.97,-371.04 548.32,-366.52"/>
</g>
<!-- Analytics -->
<g id="node19" class="node">
<title>Analytics</title>
<path fill="lightcyan" stroke="black" d="M104.5,-86.75C104.5,-86.75 12,-86.75 12,-86.75 6,-86.75 0,-80.75 0,-74.75 0,-74.75 0,-12 0,-12 0,-6 6,0 12,0 12,0 104.5,0 104.5,0 110.5,0 116.5,-6 116.5,-12 116.5,-12 116.5,-74.75 116.5,-74.75 116.5,-80.75 110.5,-86.75 104.5,-86.75"/>
<text xml:space="preserve" text-anchor="middle" x="58.25" y="-69.45" font-family="Arial" font-size="14.00">Analytics</text>
<text xml:space="preserve" text-anchor="middle" x="58.25" y="-53.7" font-family="Arial" font-size="14.00">(Mixpanel/GA)</text>
<text xml:space="preserve" text-anchor="middle" x="58.25" y="-37.95" font-family="Arial" font-size="14.00">&#45; User behavior</text>
<text xml:space="preserve" text-anchor="middle" x="58.25" y="-22.2" font-family="Arial" font-size="14.00">&#45; Funnel tracking</text>
<text xml:space="preserve" text-anchor="middle" x="58.25" y="-6.45" font-family="Arial" font-size="14.00">&#45; Engagement</text>
</g>
<!-- Web&#45;&gt;Analytics -->
<g id="edge35" class="edge">
<title>Web&#45;&gt;Analytics</title>
<path fill="none" stroke="black" d="M564.15,-408.84C561.21,-407.15 558.23,-405.58 555.25,-404.18 490.79,-374.05 465.56,-393.99 399.25,-368.18 265.95,-316.3 211.89,-318.48 119.25,-209.5 92.28,-177.77 76.74,-133.04 68.1,-98.14"/>
<polygon fill="black" stroke="black" points="71.57,-97.59 65.88,-88.65 64.75,-99.19 71.57,-97.59"/>
</g>
<!-- Language -->
<g id="node30" class="node">
<title>Language</title>
<path fill="lightyellow" stroke="black" d="M692.62,-342.34C692.62,-342.34 609.88,-342.34 609.88,-342.34 603.88,-342.34 597.88,-336.34 597.88,-330.34 597.88,-330.34 597.88,-283.34 597.88,-283.34 597.88,-277.34 603.88,-271.34 609.88,-271.34 609.88,-271.34 692.62,-271.34 692.62,-271.34 698.62,-271.34 704.62,-277.34 704.62,-283.34 704.62,-283.34 704.62,-330.34 704.62,-330.34 704.62,-336.34 698.62,-342.34 692.62,-342.34"/>
<text xml:space="preserve" text-anchor="middle" x="651.25" y="-325.04" font-family="Arial" font-size="14.00">Localization</text>
<text xml:space="preserve" text-anchor="middle" x="651.25" y="-309.29" font-family="Arial" font-size="14.00">&#45; Hindi</text>
<text xml:space="preserve" text-anchor="middle" x="651.25" y="-293.54" font-family="Arial" font-size="14.00">&#45; Regional lang</text>
<text xml:space="preserve" text-anchor="middle" x="651.25" y="-277.79" font-family="Arial" font-size="14.00">&#45; RTL support</text>
</g>
<!-- Web&#45;&gt;Language -->
<g id="edge46" class="edge">
<title>Web&#45;&gt;Language</title>
<path fill="none" stroke="black" d="M623.58,-403.81C628.17,-387.9 633.39,-369.78 638.05,-353.61"/>
<polygon fill="black" stroke="black" points="641.35,-354.81 640.76,-344.23 634.62,-352.87 641.35,-354.81"/>
</g>
<!-- Mobile&#45;&gt;API -->
<g id="edge5" class="edge">
<title>Mobile&#45;&gt;API</title>
<path fill="none" stroke="black" d="M494.25,-403.81C494.25,-396.23 494.25,-388.16 494.25,-380.03"/>
<polygon fill="black" stroke="black" points="497.75,-380.07 494.25,-370.07 490.75,-380.07 497.75,-380.07"/>
</g>
<!-- Mobile&#45;&gt;Analytics -->
<g id="edge36" class="edge">
<title>Mobile&#45;&gt;Analytics</title>
<path fill="none" stroke="black" d="M441.55,-407.71C438.8,-406.4 436.03,-405.21 433.25,-404.18 360.35,-377.15 139.68,-423.7 85.25,-368.18 15.62,-297.16 29.1,-170.36 44.23,-98.32"/>
<polygon fill="black" stroke="black" points="47.61,-99.24 46.34,-88.72 40.78,-97.74 47.61,-99.24"/>
</g>
<!-- Mobile&#45;&gt;Language -->
<g id="edge47" class="edge">
<title>Mobile&#45;&gt;Language</title>
<path fill="none" stroke="black" d="M546.67,-404.6C560.7,-393.03 575.72,-380.31 589.25,-368.18 595.54,-362.54 602.06,-356.47 608.41,-350.42"/>
<polygon fill="black" stroke="black" points="610.44,-353.32 615.23,-343.86 605.59,-348.27 610.44,-353.32"/>
</g>
<!-- PWA&#45;&gt;API -->
<g id="edge6" class="edge">
<title>PWA&#45;&gt;API</title>
<path fill="none" stroke="black" d="M395.97,-411.91C409,-398.11 424.37,-381.83 439.04,-366.3"/>
<polygon fill="black" stroke="black" points="441.27,-369.04 445.59,-359.37 436.18,-364.24 441.27,-369.04"/>
</g>
<!-- SimService -->
<g id="node7" class="node">
<title>SimService</title>
<path fill="lightyellow" stroke="black" d="M1087.12,-209.5C1087.12,-209.5 983.38,-209.5 983.38,-209.5 977.38,-209.5 971.38,-203.5 971.38,-197.5 971.38,-197.5 971.38,-134.75 971.38,-134.75 971.38,-128.75 977.38,-122.75 983.38,-122.75 983.38,-122.75 1087.12,-122.75 1087.12,-122.75 1093.12,-122.75 1099.12,-128.75 1099.12,-134.75 1099.12,-134.75 1099.12,-197.5 1099.12,-197.5 1099.12,-203.5 1093.12,-209.5 1087.12,-209.5"/>
<text xml:space="preserve" text-anchor="middle" x="1035.25" y="-192.2" font-family="Arial" font-size="14.00">Simulation Engine</text>
<text xml:space="preserve" text-anchor="middle" x="1035.25" y="-176.45" font-family="Arial" font-size="14.00">Service</text>
<text xml:space="preserve" text-anchor="middle" x="1035.25" y="-160.7" font-family="Arial" font-size="14.00">&#45; Business logic</text>
<text xml:space="preserve" text-anchor="middle" x="1035.25" y="-144.95" font-family="Arial" font-size="14.00">&#45; Daily cycles</text>
<text xml:space="preserve" text-anchor="middle" x="1035.25" y="-129.2" font-family="Arial" font-size="14.00">&#45; Event processing</text>
</g>
<!-- API&#45;&gt;SimService -->
<g id="edge12" class="edge">
<title>API&#45;&gt;SimService</title>
<path fill="none" stroke="black" d="M553.93,-262.09C565.2,-255.55 577.24,-249.63 589.25,-245.5 743.37,-192.53 801.2,-257.57 960.41,-209.63"/>
<polygon fill="black" stroke="black" points="961.1,-213.08 969.6,-206.76 959.02,-206.4 961.1,-213.08"/>
</g>
<!-- TaxService -->
<g id="node8" class="node">
<title>TaxService</title>
<path fill="lightyellow" stroke="black" d="M542.38,-209.5C542.38,-209.5 446.12,-209.5 446.12,-209.5 440.12,-209.5 434.12,-203.5 434.12,-197.5 434.12,-197.5 434.12,-134.75 434.12,-134.75 434.12,-128.75 440.12,-122.75 446.12,-122.75 446.12,-122.75 542.38,-122.75 542.38,-122.75 548.38,-122.75 554.38,-128.75 554.38,-134.75 554.38,-134.75 554.38,-197.5 554.38,-197.5 554.38,-203.5 548.38,-209.5 542.38,-209.5"/>
<text xml:space="preserve" text-anchor="middle" x="494.25" y="-192.2" font-family="Arial" font-size="14.00">Tax Engine</text>
<text xml:space="preserve" text-anchor="middle" x="494.25" y="-176.45" font-family="Arial" font-size="14.00">Service</text>
<text xml:space="preserve" text-anchor="middle" x="494.25" y="-160.7" font-family="Arial" font-size="14.00">&#45; GST calculation</text>
<text xml:space="preserve" text-anchor="middle" x="494.25" y="-144.95" font-family="Arial" font-size="14.00">&#45; Compliance</text>
<text xml:space="preserve" text-anchor="middle" x="494.25" y="-129.2" font-family="Arial" font-size="14.00">&#45; Penalties</text>
</g>
<!-- API&#45;&gt;TaxService -->
<g id="edge13" class="edge">
<title>API&#45;&gt;TaxService</title>
<path fill="none" stroke="black" d="M494.25,-245.4C494.25,-237.36 494.25,-229.15 494.25,-221.22"/>
<polygon fill="black" stroke="black" points="497.75,-221.37 494.25,-211.37 490.75,-221.37 497.75,-221.37"/>
</g>
<!-- ForecastService -->
<g id="node9" class="node">
<title>ForecastService</title>
<path fill="lightyellow" stroke="black" d="M941.38,-209.5C941.38,-209.5 827.12,-209.5 827.12,-209.5 821.12,-209.5 815.12,-203.5 815.12,-197.5 815.12,-197.5 815.12,-134.75 815.12,-134.75 815.12,-128.75 821.12,-122.75 827.12,-122.75 827.12,-122.75 941.38,-122.75 941.38,-122.75 947.38,-122.75 953.38,-128.75 953.38,-134.75 953.38,-134.75 953.38,-197.5 953.38,-197.5 953.38,-203.5 947.38,-209.5 941.38,-209.5"/>
<text xml:space="preserve" text-anchor="middle" x="884.25" y="-192.2" font-family="Arial" font-size="14.00">Forecast &amp;</text>
<text xml:space="preserve" text-anchor="middle" x="884.25" y="-176.45" font-family="Arial" font-size="14.00">Analytics Service</text>
<text xml:space="preserve" text-anchor="middle" x="884.25" y="-160.7" font-family="Arial" font-size="14.00">&#45; Predictions</text>
<text xml:space="preserve" text-anchor="middle" x="884.25" y="-144.95" font-family="Arial" font-size="14.00">&#45; Recommendations</text>
<text xml:space="preserve" text-anchor="middle" x="884.25" y="-129.2" font-family="Arial" font-size="14.00">&#45; Insights</text>
</g>
<!-- API&#45;&gt;ForecastService -->
<g id="edge14" class="edge">
<title>API&#45;&gt;ForecastService</title>
<path fill="none" stroke="black" d="M554.44,-262.62C565.61,-256.07 577.48,-250 589.25,-245.5 676.86,-211.97 710.68,-238.82 804.24,-209.4"/>
<polygon fill="black" stroke="black" points="805.18,-212.77 813.59,-206.32 802.99,-206.12 805.18,-212.77"/>
</g>
<!-- UserService -->
<g id="node10" class="node">
<title>UserService</title>
<path fill="lightyellow" stroke="black" d="M784.75,-209.5C784.75,-209.5 699.75,-209.5 699.75,-209.5 693.75,-209.5 687.75,-203.5 687.75,-197.5 687.75,-197.5 687.75,-134.75 687.75,-134.75 687.75,-128.75 693.75,-122.75 699.75,-122.75 699.75,-122.75 784.75,-122.75 784.75,-122.75 790.75,-122.75 796.75,-128.75 796.75,-134.75 796.75,-134.75 796.75,-197.5 796.75,-197.5 796.75,-203.5 790.75,-209.5 784.75,-209.5"/>
<text xml:space="preserve" text-anchor="middle" x="742.25" y="-192.2" font-family="Arial" font-size="14.00">User Service</text>
<text xml:space="preserve" text-anchor="middle" x="742.25" y="-176.45" font-family="Arial" font-size="14.00">&#45; Auth</text>
<text xml:space="preserve" text-anchor="middle" x="742.25" y="-160.7" font-family="Arial" font-size="14.00">&#45; Profile</text>
<text xml:space="preserve" text-anchor="middle" x="742.25" y="-144.95" font-family="Arial" font-size="14.00">&#45; Progress</text>
<text xml:space="preserve" text-anchor="middle" x="742.25" y="-129.2" font-family="Arial" font-size="14.00">&#45; Achievements</text>
</g>
<!-- API&#45;&gt;UserService -->
<g id="edge15" class="edge">
<title>API&#45;&gt;UserService</title>
<path fill="none" stroke="black" d="M556.42,-264.11C567.17,-257.54 578.39,-251.09 589.25,-245.5 624.38,-227.43 638.38,-229 677.58,-209.49"/>
<polygon fill="black" stroke="black" points="678.89,-212.75 686.17,-205.06 675.68,-206.53 678.89,-212.75"/>
</g>
<!-- NotificationService -->
<g id="node11" class="node">
<title>NotificationService</title>
<path fill="lightyellow" stroke="black" d="M226.5,-209.5C226.5,-209.5 140,-209.5 140,-209.5 134,-209.5 128,-203.5 128,-197.5 128,-197.5 128,-134.75 128,-134.75 128,-128.75 134,-122.75 140,-122.75 140,-122.75 226.5,-122.75 226.5,-122.75 232.5,-122.75 238.5,-128.75 238.5,-134.75 238.5,-134.75 238.5,-197.5 238.5,-197.5 238.5,-203.5 232.5,-209.5 226.5,-209.5"/>
<text xml:space="preserve" text-anchor="middle" x="183.25" y="-192.2" font-family="Arial" font-size="14.00">Notification</text>
<text xml:space="preserve" text-anchor="middle" x="183.25" y="-176.45" font-family="Arial" font-size="14.00">Service</text>
<text xml:space="preserve" text-anchor="middle" x="183.25" y="-160.7" font-family="Arial" font-size="14.00">&#45; Push alerts</text>
<text xml:space="preserve" text-anchor="middle" x="183.25" y="-144.95" font-family="Arial" font-size="14.00">&#45; Email</text>
<text xml:space="preserve" text-anchor="middle" x="183.25" y="-129.2" font-family="Arial" font-size="14.00">&#45; In&#45;app nudges</text>
</g>
<!-- API&#45;&gt;NotificationService -->
<g id="edge16" class="edge">
<title>API&#45;&gt;NotificationService</title>
<path fill="none" stroke="black" d="M416.18,-280.2C369.24,-263.69 308.59,-240.4 248.67,-209.97"/>
<polygon fill="black" stroke="black" points="250.51,-206.98 240.02,-205.52 247.31,-213.21 250.51,-206.98"/>
</g>
<!-- BackendLayer -->
<g id="node6" class="node">
<title>BackendLayer</title>
<polygon fill="lightcyan" stroke="black" points="851.5,-324.84 723,-324.84 723,-288.84 851.5,-288.84 851.5,-324.84"/>
<text xml:space="preserve" text-anchor="middle" x="787.25" y="-301.42" font-family="Arial" font-size="14.00">BACKEND LAYER</text>
</g>
<!-- BackendLayer&#45;&gt;SimService -->
<g id="edge7" class="edge">
<title>BackendLayer&#45;&gt;SimService</title>
<path fill="none" stroke="black" d="M819.3,-288.48C852.5,-270.44 906.08,-241.14 961.25,-210.03"/>
<polygon fill="black" stroke="black" points="962.9,-213.12 969.89,-205.16 959.46,-207.03 962.9,-213.12"/>
</g>
<!-- BackendLayer&#45;&gt;TaxService -->
<g id="edge8" class="edge">
<title>BackendLayer&#45;&gt;TaxService</title>
<path fill="none" stroke="black" d="M770.59,-288.5C756.53,-274.85 735.24,-256.39 713.25,-245.5 654.93,-216.62 629.24,-233.8 565.26,-209.85"/>
<polygon fill="black" stroke="black" points="566.64,-206.64 556.06,-206.2 564.06,-213.14 566.64,-206.64"/>
</g>
<!-- BackendLayer&#45;&gt;ForecastService -->
<g id="edge9" class="edge">
<title>BackendLayer&#45;&gt;ForecastService</title>
<path fill="none" stroke="black" d="M799.34,-288.55C811.5,-271.17 830.85,-243.49 848.01,-218.95"/>
<polygon fill="black" stroke="black" points="850.73,-221.16 853.6,-210.96 845,-217.15 850.73,-221.16"/>
</g>
<!-- BackendLayer&#45;&gt;UserService -->
<g id="edge10" class="edge">
<title>BackendLayer&#45;&gt;UserService</title>
<path fill="none" stroke="black" d="M781.64,-288.55C776.13,-271.55 767.42,-244.7 759.59,-220.57"/>
<polygon fill="black" stroke="black" points="762.95,-219.59 756.54,-211.16 756.29,-221.75 762.95,-219.59"/>
</g>
<!-- BackendLayer&#45;&gt;NotificationService -->
<g id="edge11" class="edge">
<title>BackendLayer&#45;&gt;NotificationService</title>
<path fill="none" stroke="black" d="M771.84,-288.41C758.06,-274.12 736.49,-254.8 713.25,-245.5 523.78,-169.69 446.44,-273.24 249.64,-209.8"/>
<polygon fill="black" stroke="black" points="250.99,-206.56 240.4,-206.71 248.77,-213.2 250.99,-206.56"/>
</g>
<!-- PrimaryDB -->
<g id="node13" class="node">
<title>PrimaryDB</title>
<path fill="lightyellow" stroke="black" d="M855.12,-86.75C855.12,-86.75 775.38,-86.75 775.38,-86.75 769.38,-86.75 763.38,-80.75 763.38,-74.75 763.38,-74.75 763.38,-12 763.38,-12 763.38,-6 769.38,0 775.38,0 775.38,0 855.12,0 855.12,0 861.12,0 867.12,-6 867.12,-12 867.12,-12 867.12,-74.75 867.12,-74.75 867.12,-80.75 861.12,-86.75 855.12,-86.75"/>
<text xml:space="preserve" text-anchor="middle" x="815.25" y="-69.45" font-family="Arial" font-size="14.00">Primary DB</text>
<text xml:space="preserve" text-anchor="middle" x="815.25" y="-53.7" font-family="Arial" font-size="14.00">(PostgreSQL)</text>
<text xml:space="preserve" text-anchor="middle" x="815.25" y="-37.95" font-family="Arial" font-size="14.00">Business state</text>
<text xml:space="preserve" text-anchor="middle" x="815.25" y="-22.2" font-family="Arial" font-size="14.00">User data</text>
<text xml:space="preserve" text-anchor="middle" x="815.25" y="-6.45" font-family="Arial" font-size="14.00">Transactions</text>
</g>
<!-- SimService&#45;&gt;PrimaryDB -->
<g id="edge20" class="edge">
<title>SimService&#45;&gt;PrimaryDB</title>
<path fill="none" stroke="black" d="M971.01,-127.23C968.07,-125.69 965.14,-124.18 962.25,-122.75 928.04,-105.75 914.69,-106.44 877.4,-87.02"/>
<polygon fill="black" stroke="black" points="879.17,-84 868.71,-82.34 875.85,-90.16 879.17,-84"/>
</g>
<!-- Cache -->
<g id="node14" class="node">
<title>Cache</title>
<path fill="lightyellow" stroke="black" d="M991.25,-86.75C991.25,-86.75 897.25,-86.75 897.25,-86.75 891.25,-86.75 885.25,-80.75 885.25,-74.75 885.25,-74.75 885.25,-12 885.25,-12 885.25,-6 891.25,0 897.25,0 897.25,0 991.25,0 991.25,0 997.25,0 1003.25,-6 1003.25,-12 1003.25,-12 1003.25,-74.75 1003.25,-74.75 1003.25,-80.75 997.25,-86.75 991.25,-86.75"/>
<text xml:space="preserve" text-anchor="middle" x="944.25" y="-69.45" font-family="Arial" font-size="14.00">Cache</text>
<text xml:space="preserve" text-anchor="middle" x="944.25" y="-53.7" font-family="Arial" font-size="14.00">(Redis)</text>
<text xml:space="preserve" text-anchor="middle" x="944.25" y="-37.95" font-family="Arial" font-size="14.00">Session data</text>
<text xml:space="preserve" text-anchor="middle" x="944.25" y="-22.2" font-family="Arial" font-size="14.00">Frequent queries</text>
<text xml:space="preserve" text-anchor="middle" x="944.25" y="-6.45" font-family="Arial" font-size="14.00">Leaderboards</text>
</g>
<!-- SimService&#45;&gt;Cache -->
<g id="edge24" class="edge">
<title>SimService&#45;&gt;Cache</title>
<path fill="none" stroke="black" d="M1003.17,-122.55C996.71,-113.99 989.86,-104.89 983.2,-96.06"/>
<polygon fill="black" stroke="black" points="986.07,-94.06 977.26,-88.18 980.48,-98.27 986.07,-94.06"/>
</g>
<!-- MarketData -->
<g id="node18" class="node">
<title>MarketData</title>
<path fill="lightcyan" stroke="black" d="M733.12,-78.88C733.12,-78.88 623.38,-78.88 623.38,-78.88 617.38,-78.88 611.38,-72.88 611.38,-66.88 611.38,-66.88 611.38,-19.88 611.38,-19.88 611.38,-13.88 617.38,-7.88 623.38,-7.88 623.38,-7.88 733.12,-7.88 733.12,-7.88 739.12,-7.88 745.12,-13.88 745.12,-19.88 745.12,-19.88 745.12,-66.88 745.12,-66.88 745.12,-72.88 739.12,-78.88 733.12,-78.88"/>
<text xml:space="preserve" text-anchor="middle" x="678.25" y="-61.58" font-family="Arial" font-size="14.00">Market Data APIs</text>
<text xml:space="preserve" text-anchor="middle" x="678.25" y="-45.83" font-family="Arial" font-size="14.00">&#45; Commodity prices</text>
<text xml:space="preserve" text-anchor="middle" x="678.25" y="-30.07" font-family="Arial" font-size="14.00">&#45; Weather data</text>
<text xml:space="preserve" text-anchor="middle" x="678.25" y="-14.32" font-family="Arial" font-size="14.00">&#45; Economic indices</text>
</g>
<!-- SimService&#45;&gt;MarketData -->
<g id="edge32" class="edge">
<title>SimService&#45;&gt;MarketData</title>
<path fill="none" stroke="black" d="M970.95,-126.22C968.05,-124.97 965.14,-123.8 962.25,-122.75 874.08,-90.7 842.7,-118.04 754.25,-86.75 751.73,-85.86 749.19,-84.89 746.65,-83.85"/>
<polygon fill="black" stroke="black" points="748.19,-80.7 737.63,-79.88 745.37,-87.11 748.19,-80.7"/>
</g>
<!-- StateConfig -->
<g id="node28" class="node">
<title>StateConfig</title>
<path fill="lightyellow" stroke="black" d="M1251.25,-78.88C1251.25,-78.88 1169.25,-78.88 1169.25,-78.88 1163.25,-78.88 1157.25,-72.88 1157.25,-66.88 1157.25,-66.88 1157.25,-19.88 1157.25,-19.88 1157.25,-13.88 1163.25,-7.88 1169.25,-7.88 1169.25,-7.88 1251.25,-7.88 1251.25,-7.88 1257.25,-7.88 1263.25,-13.88 1263.25,-19.88 1263.25,-19.88 1263.25,-66.88 1263.25,-66.88 1263.25,-72.88 1257.25,-78.88 1251.25,-78.88"/>
<text xml:space="preserve" text-anchor="middle" x="1210.25" y="-61.58" font-family="Arial" font-size="14.00">State Data</text>
<text xml:space="preserve" text-anchor="middle" x="1210.25" y="-45.83" font-family="Arial" font-size="14.00">&#45; Tax rates</text>
<text xml:space="preserve" text-anchor="middle" x="1210.25" y="-30.07" font-family="Arial" font-size="14.00">&#45; License costs</text>
<text xml:space="preserve" text-anchor="middle" x="1210.25" y="-14.32" font-family="Arial" font-size="14.00">&#45; Wage rates</text>
</g>
<!-- SimService&#45;&gt;StateConfig -->
<g id="edge44" class="edge">
<title>SimService&#45;&gt;StateConfig</title>
<path fill="none" stroke="black" d="M1096.95,-122.55C1114.3,-110.58 1133.14,-97.58 1150.39,-85.68"/>
<polygon fill="black" stroke="black" points="1152.29,-88.62 1158.54,-80.06 1148.32,-82.86 1152.29,-88.62"/>
</g>
<!-- LocalMarket -->
<g id="node29" class="node">
<title>LocalMarket</title>
<path fill="lightyellow" stroke="black" d="M1126.88,-78.88C1126.88,-78.88 1033.62,-78.88 1033.62,-78.88 1027.62,-78.88 1021.62,-72.88 1021.62,-66.88 1021.62,-66.88 1021.62,-19.88 1021.62,-19.88 1021.62,-13.88 1027.62,-7.88 1033.62,-7.88 1033.62,-7.88 1126.88,-7.88 1126.88,-7.88 1132.88,-7.88 1138.88,-13.88 1138.88,-19.88 1138.88,-19.88 1138.88,-66.88 1138.88,-66.88 1138.88,-72.88 1132.88,-78.88 1126.88,-78.88"/>
<text xml:space="preserve" text-anchor="middle" x="1080.25" y="-61.58" font-family="Arial" font-size="14.00">Local Market</text>
<text xml:space="preserve" text-anchor="middle" x="1080.25" y="-45.83" font-family="Arial" font-size="14.00">&#45; Regional prices</text>
<text xml:space="preserve" text-anchor="middle" x="1080.25" y="-30.07" font-family="Arial" font-size="14.00">&#45; Seasonal data</text>
<text xml:space="preserve" text-anchor="middle" x="1080.25" y="-14.32" font-family="Arial" font-size="14.00">&#45; Competition</text>
</g>
<!-- SimService&#45;&gt;LocalMarket -->
<g id="edge45" class="edge">
<title>SimService&#45;&gt;LocalMarket</title>
<path fill="none" stroke="black" d="M1051.12,-122.55C1055.1,-111.86 1059.39,-100.35 1063.42,-89.53"/>
<polygon fill="black" stroke="black" points="1066.6,-91.01 1066.82,-80.42 1060.04,-88.57 1066.6,-91.01"/>
</g>
<!-- TaxService&#45;&gt;PrimaryDB -->
<g id="edge21" class="edge">
<title>TaxService&#45;&gt;PrimaryDB</title>
<path fill="none" stroke="black" d="M554.58,-126.43C557.47,-125.1 560.36,-123.86 563.25,-122.75 640.53,-92.91 671.97,-117.89 752.53,-86.87"/>
<polygon fill="black" stroke="black" points="753.79,-90.14 761.74,-83.14 751.16,-83.65 753.79,-90.14"/>
</g>
<!-- GovData -->
<g id="node17" class="node">
<title>GovData</title>
<path fill="lightcyan" stroke="black" d="M467.75,-78.88C467.75,-78.88 382.75,-78.88 382.75,-78.88 376.75,-78.88 370.75,-72.88 370.75,-66.88 370.75,-66.88 370.75,-19.88 370.75,-19.88 370.75,-13.88 376.75,-7.88 382.75,-7.88 382.75,-7.88 467.75,-7.88 467.75,-7.88 473.75,-7.88 479.75,-13.88 479.75,-19.88 479.75,-19.88 479.75,-66.88 479.75,-66.88 479.75,-72.88 473.75,-78.88 467.75,-78.88"/>
<text xml:space="preserve" text-anchor="middle" x="425.25" y="-61.58" font-family="Arial" font-size="14.00">Govt Data APIs</text>
<text xml:space="preserve" text-anchor="middle" x="425.25" y="-45.83" font-family="Arial" font-size="14.00">&#45; GST rates</text>
<text xml:space="preserve" text-anchor="middle" x="425.25" y="-30.07" font-family="Arial" font-size="14.00">&#45; Tax laws</text>
<text xml:space="preserve" text-anchor="middle" x="425.25" y="-14.32" font-family="Arial" font-size="14.00">&#45; License info</text>
</g>
<!-- TaxService&#45;&gt;GovData -->
<g id="edge31" class="edge">
<title>TaxService&#45;&gt;GovData</title>
<path fill="none" stroke="black" d="M469.92,-122.55C463.68,-111.64 456.96,-99.87 450.67,-88.86"/>
<polygon fill="black" stroke="black" points="453.79,-87.26 445.79,-80.32 447.71,-90.74 453.79,-87.26"/>
</g>
<!-- ForecastService&#45;&gt;PrimaryDB -->
<g id="edge22" class="edge">
<title>ForecastService&#45;&gt;PrimaryDB</title>
<path fill="none" stroke="black" d="M859.92,-122.55C855.18,-114.26 850.16,-105.47 845.26,-96.89"/>
<polygon fill="black" stroke="black" points="848.34,-95.23 840.34,-88.28 842.26,-98.7 848.34,-95.23"/>
</g>
<!-- ForecastService&#45;&gt;Cache -->
<g id="edge25" class="edge">
<title>ForecastService&#45;&gt;Cache</title>
<path fill="none" stroke="black" d="M905.4,-122.55C909.48,-114.35 913.8,-105.66 918.01,-97.17"/>
<polygon fill="black" stroke="black" points="921.1,-98.84 922.41,-88.32 914.83,-95.72 921.1,-98.84"/>
</g>
<!-- UserService&#45;&gt;PrimaryDB -->
<g id="edge23" class="edge">
<title>UserService&#45;&gt;PrimaryDB</title>
<path fill="none" stroke="black" d="M767.99,-122.55C773.06,-114.17 778.43,-105.28 783.67,-96.61"/>
<polygon fill="black" stroke="black" points="786.54,-98.63 788.72,-88.26 780.55,-95.01 786.54,-98.63"/>
</g>
<!-- Email -->
<g id="node20" class="node">
<title>Email</title>
<path fill="lightcyan" stroke="black" d="M221.88,-86.75C221.88,-86.75 146.62,-86.75 146.62,-86.75 140.62,-86.75 134.62,-80.75 134.62,-74.75 134.62,-74.75 134.62,-12 134.62,-12 134.62,-6 140.62,0 146.62,0 146.62,0 221.88,0 221.88,0 227.88,0 233.88,-6 233.88,-12 233.88,-12 233.88,-74.75 233.88,-74.75 233.88,-80.75 227.88,-86.75 221.88,-86.75"/>
<text xml:space="preserve" text-anchor="middle" x="184.25" y="-69.45" font-family="Arial" font-size="14.00">Email Service</text>
<text xml:space="preserve" text-anchor="middle" x="184.25" y="-53.7" font-family="Arial" font-size="14.00">(SendGrid)</text>
<text xml:space="preserve" text-anchor="middle" x="184.25" y="-37.95" font-family="Arial" font-size="14.00">&#45; Newsletters</text>
<text xml:space="preserve" text-anchor="middle" x="184.25" y="-22.2" font-family="Arial" font-size="14.00">&#45; Alerts</text>
<text xml:space="preserve" text-anchor="middle" x="184.25" y="-6.45" font-family="Arial" font-size="14.00">&#45; Reports</text>
</g>
<!-- NotificationService&#45;&gt;Email -->
<g id="edge33" class="edge">
<title>NotificationService&#45;&gt;Email</title>
<path fill="none" stroke="black" d="M183.6,-122.55C183.67,-114.71 183.74,-106.42 183.8,-98.29"/>
<polygon fill="black" stroke="black" points="187.3,-98.51 183.88,-88.48 180.3,-98.45 187.3,-98.51"/>
</g>
<!-- Push -->
<g id="node21" class="node">
<title>Push</title>
<path fill="lightcyan" stroke="black" d="M341,-86.75C341,-86.75 263.5,-86.75 263.5,-86.75 257.5,-86.75 251.5,-80.75 251.5,-74.75 251.5,-74.75 251.5,-12 251.5,-12 251.5,-6 257.5,0 263.5,0 263.5,0 341,0 341,0 347,0 353,-6 353,-12 353,-12 353,-74.75 353,-74.75 353,-80.75 347,-86.75 341,-86.75"/>
<text xml:space="preserve" text-anchor="middle" x="302.25" y="-69.45" font-family="Arial" font-size="14.00">Push Service</text>
<text xml:space="preserve" text-anchor="middle" x="302.25" y="-53.7" font-family="Arial" font-size="14.00">(Firebase)</text>
<text xml:space="preserve" text-anchor="middle" x="302.25" y="-37.95" font-family="Arial" font-size="14.00">&#45; Mobile alerts</text>
<text xml:space="preserve" text-anchor="middle" x="302.25" y="-22.2" font-family="Arial" font-size="14.00">&#45; Reminders</text>
<text xml:space="preserve" text-anchor="middle" x="302.25" y="-6.45" font-family="Arial" font-size="14.00">&#45; Notifications</text>
</g>
<!-- NotificationService&#45;&gt;Push -->
<g id="edge34" class="edge">
<title>NotificationService&#45;&gt;Push</title>
<path fill="none" stroke="black" d="M225.2,-122.55C234,-113.63 243.36,-104.13 252.42,-94.94"/>
<polygon fill="black" stroke="black" points="254.68,-97.63 259.21,-88.05 249.7,-92.71 254.68,-97.63"/>
</g>
<!-- DataLayer -->
<g id="node12" class="node">
<title>DataLayer</title>
<polygon fill="gold" stroke="black" points="669.75,-184.12 572.75,-184.12 572.75,-148.12 669.75,-148.12 669.75,-184.12"/>
<text xml:space="preserve" text-anchor="middle" x="621.25" y="-160.7" font-family="Arial" font-size="14.00">DATA LAYER</text>
</g>
<!-- DataLayer&#45;&gt;PrimaryDB -->
<g id="edge17" class="edge">
<title>DataLayer&#45;&gt;PrimaryDB</title>
<path fill="none" stroke="black" d="M642.48,-147.78C652.91,-139.67 665.88,-130.18 678.25,-122.75 707.54,-105.16 719.76,-105.29 753.05,-87.11"/>
<polygon fill="black" stroke="black" points="754.74,-90.17 761.72,-82.21 751.29,-84.08 754.74,-90.17"/>
</g>
<!-- DataLayer&#45;&gt;Cache -->
<g id="edge18" class="edge">
<title>DataLayer&#45;&gt;Cache</title>
<path fill="none" stroke="black" d="M639.9,-147.8C650.41,-138.97 664.22,-128.84 678.25,-122.75 757.01,-88.56 790.13,-116.53 874.05,-87.09"/>
<polygon fill="black" stroke="black" points="875.25,-90.38 883.41,-83.63 872.81,-83.82 875.25,-90.38"/>
</g>
<!-- FileStorage -->
<g id="node15" class="node">
<title>FileStorage</title>
<path fill="lightyellow" stroke="black" d="M581,-86.75C581,-86.75 509.5,-86.75 509.5,-86.75 503.5,-86.75 497.5,-80.75 497.5,-74.75 497.5,-74.75 497.5,-12 497.5,-12 497.5,-6 503.5,0 509.5,0 509.5,0 581,0 581,0 587,0 593,-6 593,-12 593,-12 593,-74.75 593,-74.75 593,-80.75 587,-86.75 581,-86.75"/>
<text xml:space="preserve" text-anchor="middle" x="545.25" y="-69.45" font-family="Arial" font-size="14.00">File Storage</text>
<text xml:space="preserve" text-anchor="middle" x="545.25" y="-53.7" font-family="Arial" font-size="14.00">(S3)</text>
<text xml:space="preserve" text-anchor="middle" x="545.25" y="-37.95" font-family="Arial" font-size="14.00">User uploads</text>
<text xml:space="preserve" text-anchor="middle" x="545.25" y="-22.2" font-family="Arial" font-size="14.00">Reports</text>
<text xml:space="preserve" text-anchor="middle" x="545.25" y="-6.45" font-family="Arial" font-size="14.00">Exports</text>
</g>
<!-- DataLayer&#45;&gt;FileStorage -->
<g id="edge19" class="edge">
<title>DataLayer&#45;&gt;FileStorage</title>
<path fill="none" stroke="black" d="M610.36,-147.82C601.94,-134.45 589.82,-115.18 578.31,-96.9"/>
<polygon fill="black" stroke="black" points="581.28,-95.05 572.99,-88.45 575.36,-98.78 581.28,-95.05"/>
</g>
<!-- ExtLayer -->
<g id="node16" class="node">
<title>ExtLayer</title>
<polygon fill="pink" stroke="black" points="415.88,-184.12 256.62,-184.12 256.62,-148.12 415.88,-148.12 415.88,-184.12"/>
<text xml:space="preserve" text-anchor="middle" x="336.25" y="-160.7" font-family="Arial" font-size="14.00">EXTERNAL SERVICES</text>
</g>
<!-- ExtLayer&#45;&gt;GovData -->
<g id="edge26" class="edge">
<title>ExtLayer&#45;&gt;GovData</title>
<path fill="none" stroke="black" d="M349,-147.82C360.42,-132.33 377.66,-108.94 392.87,-88.31"/>
<polygon fill="black" stroke="black" points="395.66,-90.42 398.78,-80.29 390.03,-86.26 395.66,-90.42"/>
</g>
<!-- ExtLayer&#45;&gt;MarketData -->
<g id="edge27" class="edge">
<title>ExtLayer&#45;&gt;MarketData</title>
<path fill="none" stroke="black" d="M368.01,-147.68C384.65,-139.14 405.61,-129.31 425.25,-122.75 501.39,-97.31 526.97,-114.63 602.25,-86.75 604.61,-85.88 606.98,-84.94 609.36,-83.94"/>
<polygon fill="black" stroke="black" points="610.69,-87.19 618.38,-79.9 607.83,-80.8 610.69,-87.19"/>
</g>
<!-- ExtLayer&#45;&gt;Analytics -->
<g id="edge28" class="edge">
<title>ExtLayer&#45;&gt;Analytics</title>
<path fill="none" stroke="black" d="M302.99,-147.75C286.49,-139.54 266.11,-129.97 247.25,-122.75 197.65,-103.76 179.02,-109.27 127.36,-87.33"/>
<polygon fill="black" stroke="black" points="128.88,-84.18 118.32,-83.34 126.06,-90.58 128.88,-84.18"/>
</g>
<!-- ExtLayer&#45;&gt;Email -->
<g id="edge29" class="edge">
<title>ExtLayer&#45;&gt;Email</title>
<path fill="none" stroke="black" d="M314.47,-147.82C295.82,-133.01 268.08,-110.97 242.99,-91.04"/>
<polygon fill="black" stroke="black" points="245.43,-88.51 235.43,-85.03 241.08,-93.99 245.43,-88.51"/>
</g>
<!-- ExtLayer&#45;&gt;Push -->
<g id="edge30" class="edge">
<title>ExtLayer&#45;&gt;Push</title>
<path fill="none" stroke="black" d="M331.38,-147.82C327.7,-134.76 322.44,-116.07 317.4,-98.16"/>
<polygon fill="black" stroke="black" points="320.79,-97.31 314.71,-88.63 314.05,-99.2 320.79,-97.31"/>
</g>
<!-- InfraLayer -->
<g id="node22" class="node">
<title>InfraLayer</title>
<polygon fill="orange" stroke="black" points="1571.12,-562.93 1431.38,-562.93 1431.38,-526.93 1571.12,-526.93 1571.12,-562.93"/>
<text xml:space="preserve" text-anchor="middle" x="1501.25" y="-539.51" font-family="Arial" font-size="14.00">INFRASTRUCTURE</text>
</g>
<!-- Containerization -->
<g id="node23" class="node">
<title>Containerization</title>
<path fill="lightyellow" stroke="black" d="M1350.38,-483.06C1350.38,-483.06 1260.12,-483.06 1260.12,-483.06 1254.12,-483.06 1248.12,-477.06 1248.12,-471.06 1248.12,-471.06 1248.12,-424.06 1248.12,-424.06 1248.12,-418.06 1254.12,-412.06 1260.12,-412.06 1260.12,-412.06 1350.38,-412.06 1350.38,-412.06 1356.38,-412.06 1362.38,-418.06 1362.38,-424.06 1362.38,-424.06 1362.38,-471.06 1362.38,-471.06 1362.38,-477.06 1356.38,-483.06 1350.38,-483.06"/>
<text xml:space="preserve" text-anchor="middle" x="1305.25" y="-465.76" font-family="Arial" font-size="14.00">Containers</text>
<text xml:space="preserve" text-anchor="middle" x="1305.25" y="-450.01" font-family="Arial" font-size="14.00">(Docker)</text>
<text xml:space="preserve" text-anchor="middle" x="1305.25" y="-434.26" font-family="Arial" font-size="14.00">Service isolation</text>
<text xml:space="preserve" text-anchor="middle" x="1305.25" y="-418.51" font-family="Arial" font-size="14.00">Scalability</text>
</g>
<!-- InfraLayer&#45;&gt;Containerization -->
<g id="edge37" class="edge">
<title>InfraLayer&#45;&gt;Containerization</title>
<path fill="none" stroke="black" d="M1452.45,-526.48C1427.65,-517 1397.31,-504.47 1371.25,-490.93 1369.99,-490.28 1368.73,-489.61 1367.46,-488.93"/>
<polygon fill="black" stroke="black" points="1369.45,-486.03 1359.02,-484.18 1366.02,-492.13 1369.45,-486.03"/>
</g>
<!-- Orchestration -->
<g id="node24" class="node">
<title>Orchestration</title>
<path fill="lightyellow" stroke="black" d="M1476,-490.93C1476,-490.93 1392.5,-490.93 1392.5,-490.93 1386.5,-490.93 1380.5,-484.93 1380.5,-478.93 1380.5,-478.93 1380.5,-416.18 1380.5,-416.18 1380.5,-410.18 1386.5,-404.18 1392.5,-404.18 1392.5,-404.18 1476,-404.18 1476,-404.18 1482,-404.18 1488,-410.18 1488,-416.18 1488,-416.18 1488,-478.93 1488,-478.93 1488,-484.93 1482,-490.93 1476,-490.93"/>
<text xml:space="preserve" text-anchor="middle" x="1434.25" y="-473.63" font-family="Arial" font-size="14.00">Orchestration</text>
<text xml:space="preserve" text-anchor="middle" x="1434.25" y="-457.88" font-family="Arial" font-size="14.00">(Kubernetes)</text>
<text xml:space="preserve" text-anchor="middle" x="1434.25" y="-442.13" font-family="Arial" font-size="14.00">Auto&#45;scaling</text>
<text xml:space="preserve" text-anchor="middle" x="1434.25" y="-426.38" font-family="Arial" font-size="14.00">Load balancing</text>
<text xml:space="preserve" text-anchor="middle" x="1434.25" y="-410.63" font-family="Arial" font-size="14.00">Health checks</text>
</g>
<!-- InfraLayer&#45;&gt;Orchestration -->
<g id="edge38" class="edge">
<title>InfraLayer&#45;&gt;Orchestration</title>
<path fill="none" stroke="black" d="M1488.96,-526.44C1483.75,-519.02 1477.37,-509.94 1470.83,-500.64"/>
<polygon fill="black" stroke="black" points="1473.77,-498.72 1465.15,-492.55 1468.04,-502.74 1473.77,-498.72"/>
</g>
<!-- CDN -->
<g id="node25" class="node">
<title>CDN</title>
<path fill="lightyellow" stroke="black" d="M1618.62,-490.93C1618.62,-490.93 1517.88,-490.93 1517.88,-490.93 1511.88,-490.93 1505.88,-484.93 1505.88,-478.93 1505.88,-478.93 1505.88,-416.18 1505.88,-416.18 1505.88,-410.18 1511.88,-404.18 1517.88,-404.18 1517.88,-404.18 1618.62,-404.18 1618.62,-404.18 1624.62,-404.18 1630.62,-410.18 1630.62,-416.18 1630.62,-416.18 1630.62,-478.93 1630.62,-478.93 1630.62,-484.93 1624.62,-490.93 1618.62,-490.93"/>
<text xml:space="preserve" text-anchor="middle" x="1568.25" y="-473.63" font-family="Arial" font-size="14.00">CDN</text>
<text xml:space="preserve" text-anchor="middle" x="1568.25" y="-457.88" font-family="Arial" font-size="14.00">(Cloudflare)</text>
<text xml:space="preserve" text-anchor="middle" x="1568.25" y="-442.13" font-family="Arial" font-size="14.00">Global distribution</text>
<text xml:space="preserve" text-anchor="middle" x="1568.25" y="-426.38" font-family="Arial" font-size="14.00">DDoS protection</text>
<text xml:space="preserve" text-anchor="middle" x="1568.25" y="-410.63" font-family="Arial" font-size="14.00">Caching</text>
</g>
<!-- InfraLayer&#45;&gt;CDN -->
<g id="edge39" class="edge">
<title>InfraLayer&#45;&gt;CDN</title>
<path fill="none" stroke="black" d="M1513.54,-526.44C1518.75,-519.02 1525.13,-509.94 1531.67,-500.64"/>
<polygon fill="black" stroke="black" points="1534.46,-502.74 1537.35,-492.55 1528.73,-498.72 1534.46,-502.74"/>
</g>
<!-- Monitoring -->
<g id="node26" class="node">
<title>Monitoring</title>
<path fill="lightyellow" stroke="black" d="M1777.5,-490.93C1777.5,-490.93 1661,-490.93 1661,-490.93 1655,-490.93 1649,-484.93 1649,-478.93 1649,-478.93 1649,-416.18 1649,-416.18 1649,-410.18 1655,-404.18 1661,-404.18 1661,-404.18 1777.5,-404.18 1777.5,-404.18 1783.5,-404.18 1789.5,-410.18 1789.5,-416.18 1789.5,-416.18 1789.5,-478.93 1789.5,-478.93 1789.5,-484.93 1783.5,-490.93 1777.5,-490.93"/>
<text xml:space="preserve" text-anchor="middle" x="1719.25" y="-473.63" font-family="Arial" font-size="14.00">Monitoring</text>
<text xml:space="preserve" text-anchor="middle" x="1719.25" y="-457.88" font-family="Arial" font-size="14.00">(Datadog/New Relic)</text>
<text xml:space="preserve" text-anchor="middle" x="1719.25" y="-442.13" font-family="Arial" font-size="14.00">Performance</text>
<text xml:space="preserve" text-anchor="middle" x="1719.25" y="-426.38" font-family="Arial" font-size="14.00">Errors</text>
<text xml:space="preserve" text-anchor="middle" x="1719.25" y="-410.63" font-family="Arial" font-size="14.00">Uptime</text>
</g>
<!-- InfraLayer&#45;&gt;Monitoring -->
<g id="edge40" class="edge">
<title>InfraLayer&#45;&gt;Monitoring</title>
<path fill="none" stroke="black" d="M1551.02,-526.46C1575.15,-517.62 1604.64,-506.27 1638.62,-491.07"/>
<polygon fill="black" stroke="black" points="1639.76,-494.4 1647.43,-487.08 1636.88,-488.02 1639.76,-494.4"/>
</g>
<!-- RegionLayer -->
<g id="node27" class="node">
<title>RegionLayer</title>
<polygon fill="lightgreen" stroke="black" points="1230.12,-465.56 1024.38,-465.56 1024.38,-429.56 1230.12,-429.56 1230.12,-465.56"/>
<text xml:space="preserve" text-anchor="middle" x="1127.25" y="-442.13" font-family="Arial" font-size="14.00">REGIONAL CONFIGURATION</text>
</g>
<!-- RegionLayer&#45;&gt;StateConfig -->
<g id="edge41" class="edge">
<title>RegionLayer&#45;&gt;StateConfig</title>
<path fill="none" stroke="black" d="M1130.82,-429.28C1142.89,-370.8 1182.46,-179.04 1200.78,-90.25"/>
<polygon fill="black" stroke="black" points="1204.17,-91.17 1202.76,-80.67 1197.31,-89.76 1204.17,-91.17"/>
</g>
<!-- RegionLayer&#45;&gt;LocalMarket -->
<g id="edge42" class="edge">
<title>RegionLayer&#45;&gt;LocalMarket</title>
<path fill="none" stroke="black" d="M1127.95,-429.13C1129.55,-380.24 1131.68,-237.8 1108.25,-122.75 1106.05,-111.93 1102.66,-100.58 1099,-89.98"/>
<polygon fill="black" stroke="black" points="1102.33,-88.9 1095.63,-80.69 1095.75,-91.29 1102.33,-88.9"/>
</g>
<!-- RegionLayer&#45;&gt;Language -->
<g id="edge43" class="edge">
<title>RegionLayer&#45;&gt;Language</title>
<path fill="none" stroke="black" d="M1023.95,-443.19C937.05,-436.67 811.73,-418.4 714.25,-368.18 705.15,-363.5 696.47,-357.08 688.62,-350.18"/>
<polygon fill="black" stroke="black" points="691.25,-347.84 681.55,-343.58 686.47,-352.96 691.25,-347.84"/>
</g>
</g>
</svg>
