<?xml version="1.0" encoding="UTF-8" standalone="no"?>
<!DOCTYPE svg PUBLIC "-//W3C//DTD SVG 1.1//EN"
 "http://www.w3.org/Graphics/SVG/1.1/DTD/svg11.dtd">
<!-- Generated by graphviz version 14.0.4 (20251115.1723)
 -->
<!-- Title: DhanaadhyaUserJourney Pages: 1 -->
<svg width="2969pt" height="395pt"
 viewBox="0.00 0.00 2969.00 395.00" xmlns="http://www.w3.org/2000/svg" xmlns:xlink="http://www.w3.org/1999/xlink">
<g id="graph0" class="graph" transform="scale(1 1) rotate(0) translate(4 391)">
<title>DhanaadhyaUserJourney</title>
<polygon fill="white" stroke="none" points="-4,4 -4,-391 2965.05,-391 2965.05,4 -4,4"/>
<!-- Stage1 -->
<g id="node1" class="node">
<title>Stage1</title>
<ellipse fill="lightblue" stroke="black" cx="45.79" cy="-65" rx="45.79" ry="22.63"/>
<text xml:space="preserve" text-anchor="middle" x="45.79" y="-67.5" font-family="Arial" font-size="10.00">STAGE 1</text>
<text xml:space="preserve" text-anchor="middle" x="45.79" y="-55.5" font-family="Arial" font-size="10.00">Awareness</text>
</g>
<!-- Unaware -->
<g id="node2" class="node">
<title>Unaware</title>
<path fill="lightgrey" stroke="black" d="M201.57,-83C201.57,-83 140.57,-83 140.57,-83 134.57,-83 128.57,-77 128.57,-71 128.57,-71 128.57,-59 128.57,-59 128.57,-53 134.57,-47 140.57,-47 140.57,-47 201.57,-47 201.57,-47 207.57,-47 213.57,-53 213.57,-59 213.57,-59 213.57,-71 213.57,-71 213.57,-77 207.57,-83 201.57,-83"/>
<text xml:space="preserve" text-anchor="middle" x="171.07" y="-67.5" font-family="Arial" font-size="10.00">Unaware of</text>
<text xml:space="preserve" text-anchor="middle" x="171.07" y="-55.5" font-family="Arial" font-size="10.00">Business Risks</text>
</g>
<!-- Stage1&#45;&gt;Unaware -->
<g id="edge1" class="edge">
<title>Stage1&#45;&gt;Unaware</title>
<path fill="none" stroke="black" d="M91.99,-65C100.03,-65 108.46,-65 116.7,-65"/>
<polygon fill="black" stroke="black" points="116.63,-68.5 126.63,-65 116.63,-61.5 116.63,-68.5"/>
</g>
<!-- Demo -->
<g id="node3" class="node">
<title>Demo</title>
<path fill="lightgrey" stroke="black" d="M314.57,-83C314.57,-83 262.57,-83 262.57,-83 256.57,-83 250.57,-77 250.57,-71 250.57,-71 250.57,-59 250.57,-59 250.57,-53 256.57,-47 262.57,-47 262.57,-47 314.57,-47 314.57,-47 320.57,-47 326.57,-53 326.57,-59 326.57,-59 326.57,-71 326.57,-71 326.57,-77 320.57,-83 314.57,-83"/>
<text xml:space="preserve" text-anchor="middle" x="288.57" y="-67.5" font-family="Arial" font-size="10.00">Watch 60&#45;sec</text>
<text xml:space="preserve" text-anchor="middle" x="288.57" y="-55.5" font-family="Arial" font-size="10.00">Demo</text>
</g>
<!-- Unaware&#45;&gt;Demo -->
<g id="edge2" class="edge">
<title>Unaware&#45;&gt;Demo</title>
<path fill="none" stroke="black" d="M213.77,-65C221.85,-65 230.39,-65 238.67,-65"/>
<polygon fill="black" stroke="black" points="238.64,-68.5 248.64,-65 238.64,-61.5 238.64,-68.5"/>
</g>
<!-- Interested -->
<g id="node4" class="node">
<title>Interested</title>
<path fill="lightgrey" stroke="black" d="M421.57,-83C421.57,-83 375.57,-83 375.57,-83 369.57,-83 363.57,-77 363.57,-71 363.57,-71 363.57,-59 363.57,-59 363.57,-53 369.57,-47 375.57,-47 375.57,-47 421.57,-47 421.57,-47 427.57,-47 433.57,-53 433.57,-59 433.57,-59 433.57,-71 433.57,-71 433.57,-77 427.57,-83 421.57,-83"/>
<text xml:space="preserve" text-anchor="middle" x="398.57" y="-67.5" font-family="Arial" font-size="10.00">Interested in</text>
<text xml:space="preserve" text-anchor="middle" x="398.57" y="-55.5" font-family="Arial" font-size="10.00">Learning</text>
</g>
<!-- Demo&#45;&gt;Interested -->
<g id="edge3" class="edge">
<title>Demo&#45;&gt;Interested</title>
<path fill="none" stroke="black" d="M327.04,-65C335.07,-65 343.65,-65 351.95,-65"/>
<polygon fill="black" stroke="black" points="351.91,-68.5 361.91,-65 351.91,-61.5 351.91,-68.5"/>
</g>
<!-- Stage2 -->
<g id="node5" class="node">
<title>Stage2</title>
<ellipse fill="lightgreen" stroke="black" cx="516.89" cy="-65" rx="46.32" ry="22.63"/>
<text xml:space="preserve" text-anchor="middle" x="516.89" y="-67.5" font-family="Arial" font-size="10.00">STAGE 2</text>
<text xml:space="preserve" text-anchor="middle" x="516.89" y="-55.5" font-family="Arial" font-size="10.00">Onboarding</text>
</g>
<!-- Interested&#45;&gt;Stage2 -->
<g id="edge4" class="edge">
<title>Interested&#45;&gt;Stage2</title>
<path fill="none" stroke="black" d="M433.84,-65C441.67,-65 450.2,-65 458.71,-65"/>
<polygon fill="black" stroke="black" points="458.7,-68.5 468.7,-65 458.7,-61.5 458.7,-68.5"/>
</g>
<!-- Register -->
<g id="node6" class="node">
<title>Register</title>
<path fill="lightgrey" stroke="black" d="M671.7,-83C671.7,-83 612.2,-83 612.2,-83 606.2,-83 600.2,-77 600.2,-71 600.2,-71 600.2,-59 600.2,-59 600.2,-53 606.2,-47 612.2,-47 612.2,-47 671.7,-47 671.7,-47 677.7,-47 683.7,-53 683.7,-59 683.7,-59 683.7,-71 683.7,-71 683.7,-77 677.7,-83 671.7,-83"/>
<text xml:space="preserve" text-anchor="middle" x="641.95" y="-61.5" font-family="Arial" font-size="10.00">Create Account</text>
</g>
<!-- Stage2&#45;&gt;Register -->
<g id="edge5" class="edge">
<title>Stage2&#45;&gt;Register</title>
<path fill="none" stroke="black" d="M563.36,-65C571.46,-65 579.96,-65 588.23,-65"/>
<polygon fill="black" stroke="black" points="588.22,-68.5 598.22,-65 588.22,-61.5 588.22,-68.5"/>
</g>
<!-- Tutorial -->
<g id="node7" class="node">
<title>Tutorial</title>
<path fill="lightgrey" stroke="black" d="M797.45,-83C797.45,-83 732.7,-83 732.7,-83 726.7,-83 720.7,-77 720.7,-71 720.7,-71 720.7,-59 720.7,-59 720.7,-53 726.7,-47 732.7,-47 732.7,-47 797.45,-47 797.45,-47 803.45,-47 809.45,-53 809.45,-59 809.45,-59 809.45,-71 809.45,-71 809.45,-77 803.45,-83 797.45,-83"/>
<text xml:space="preserve" text-anchor="middle" x="765.08" y="-67.5" font-family="Arial" font-size="10.00">5&#45;min Interactive</text>
<text xml:space="preserve" text-anchor="middle" x="765.08" y="-55.5" font-family="Arial" font-size="10.00">Tutorial</text>
</g>
<!-- Register&#45;&gt;Tutorial -->
<g id="edge6" class="edge">
<title>Register&#45;&gt;Tutorial</title>
<path fill="none" stroke="black" d="M683.96,-65C691.98,-65 700.51,-65 708.91,-65"/>
<polygon fill="black" stroke="black" points="708.69,-68.5 718.69,-65 708.69,-61.5 708.69,-68.5"/>
</g>
<!-- BizSelect -->
<g id="node8" class="node">
<title>BizSelect</title>
<path fill="lightgrey" stroke="black" d="M955.2,-110C955.2,-110 891.95,-110 891.95,-110 885.95,-110 879.95,-104 879.95,-98 879.95,-98 879.95,-86 879.95,-86 879.95,-80 885.95,-74 891.95,-74 891.95,-74 955.2,-74 955.2,-74 961.2,-74 967.2,-80 967.2,-86 967.2,-86 967.2,-98 967.2,-98 967.2,-104 961.2,-110 955.2,-110"/>
<text xml:space="preserve" text-anchor="middle" x="923.58" y="-94.5" font-family="Arial" font-size="10.00">Select Business</text>
<text xml:space="preserve" text-anchor="middle" x="923.58" y="-82.5" font-family="Arial" font-size="10.00">&amp; Location</text>
</g>
<!-- Tutorial&#45;&gt;BizSelect -->
<g id="edge7" class="edge">
<title>Tutorial&#45;&gt;BizSelect</title>
<path fill="none" stroke="black" d="M809.67,-72.52C827.81,-75.65 849.05,-79.32 868.2,-82.62"/>
<polygon fill="black" stroke="black" points="867.55,-86.06 878,-84.31 868.74,-79.16 867.55,-86.06"/>
</g>
<!-- Confused -->
<g id="node27" class="node">
<title>Confused</title>
<path fill="lightgrey" stroke="black" d="M954.08,-56C954.08,-56 893.08,-56 893.08,-56 887.08,-56 881.08,-50 881.08,-44 881.08,-44 881.08,-32 881.08,-32 881.08,-26 887.08,-20 893.08,-20 893.08,-20 954.08,-20 954.08,-20 960.08,-20 966.08,-26 966.08,-32 966.08,-32 966.08,-44 966.08,-44 966.08,-50 960.08,-56 954.08,-56"/>
<text xml:space="preserve" text-anchor="middle" x="923.58" y="-40.5" font-family="Arial" font-size="10.00">Confused about</text>
<text xml:space="preserve" text-anchor="middle" x="923.58" y="-28.5" font-family="Arial" font-size="10.00">next steps</text>
</g>
<!-- Tutorial&#45;&gt;Confused -->
<g id="edge27" class="edge">
<title>Tutorial&#45;&gt;Confused</title>
<path fill="none" stroke="black" stroke-dasharray="5,2" d="M809.67,-57.48C828.27,-54.27 850.14,-50.5 869.66,-47.13"/>
<polygon fill="black" stroke="black" points="870.08,-50.61 879.34,-45.46 868.89,-43.71 870.08,-50.61"/>
<text xml:space="preserve" text-anchor="middle" x="844.7" y="-55.87" font-family="Arial" font-size="9.00">Poor UX</text>
</g>
<!-- Setup -->
<g id="node9" class="node">
<title>Setup</title>
<path fill="lightgrey" stroke="black" d="M1085.45,-144C1085.45,-144 1016.2,-144 1016.2,-144 1010.2,-144 1004.2,-138 1004.2,-132 1004.2,-132 1004.2,-120 1004.2,-120 1004.2,-114 1010.2,-108 1016.2,-108 1016.2,-108 1085.45,-108 1085.45,-108 1091.45,-108 1097.45,-114 1097.45,-120 1097.45,-120 1097.45,-132 1097.45,-132 1097.45,-138 1091.45,-144 1085.45,-144"/>
<text xml:space="preserve" text-anchor="middle" x="1050.83" y="-128.5" font-family="Arial" font-size="10.00">Choose Capital &amp;</text>
<text xml:space="preserve" text-anchor="middle" x="1050.83" y="-116.5" font-family="Arial" font-size="10.00">Starting Position</text>
</g>
<!-- BizSelect&#45;&gt;Setup -->
<g id="edge8" class="edge">
<title>BizSelect&#45;&gt;Setup</title>
<path fill="none" stroke="black" d="M967.68,-103.7C975.85,-105.92 984.51,-108.27 993.02,-110.58"/>
<polygon fill="black" stroke="black" points="992.05,-113.94 1002.62,-113.19 993.88,-107.19 992.05,-113.94"/>
</g>
<!-- Stage3 -->
<g id="node10" class="node">
<title>Stage3</title>
<ellipse fill="lightyellow" stroke="black" cx="1287.59" cy="-130" rx="78.14" ry="22.63"/>
<text xml:space="preserve" text-anchor="middle" x="1287.59" y="-132.5" font-family="Arial" font-size="10.00">STAGE 3</text>
<text xml:space="preserve" text-anchor="middle" x="1287.59" y="-120.5" font-family="Arial" font-size="10.00">Simulation (365 days)</text>
</g>
<!-- Setup&#45;&gt;Stage3 -->
<g id="edge9" class="edge">
<title>Setup&#45;&gt;Stage3</title>
<path fill="none" stroke="black" d="M1097.93,-126.79C1126.36,-127.27 1163.77,-127.91 1197.78,-128.49"/>
<polygon fill="black" stroke="black" points="1197.59,-131.98 1207.65,-128.66 1197.71,-124.99 1197.59,-131.98"/>
</g>
<!-- Launch -->
<g id="node11" class="node">
<title>Launch</title>
<path fill="lightgrey" stroke="black" d="M1486.97,-162C1486.97,-162 1414.72,-162 1414.72,-162 1408.72,-162 1402.72,-156 1402.72,-150 1402.72,-150 1402.72,-118 1402.72,-118 1402.72,-112 1408.72,-106 1414.72,-106 1414.72,-106 1486.97,-106 1486.97,-106 1492.97,-106 1498.97,-112 1498.97,-118 1498.97,-118 1498.97,-150 1498.97,-150 1498.97,-156 1492.97,-162 1486.97,-162"/>
<text xml:space="preserve" text-anchor="middle" x="1450.85" y="-148.5" font-family="Arial" font-size="10.00">Phase 1: Launch</text>
<text xml:space="preserve" text-anchor="middle" x="1450.85" y="-136.5" font-family="Arial" font-size="10.00">(Days 1&#45;30)</text>
<text xml:space="preserve" text-anchor="middle" x="1450.85" y="-124.5" font-family="Arial" font-size="10.00">❌ Negative profit</text>
<text xml:space="preserve" text-anchor="middle" x="1450.85" y="-112.5" font-family="Arial" font-size="10.00">OK at start</text>
</g>
<!-- Stage3&#45;&gt;Launch -->
<g id="edge10" class="edge">
<title>Stage3&#45;&gt;Launch</title>
<path fill="none" stroke="black" d="M1365.91,-131.92C1374.37,-132.13 1382.88,-132.34 1391.07,-132.54"/>
<polygon fill="black" stroke="black" points="1390.78,-136.04 1400.87,-132.79 1390.96,-129.04 1390.78,-136.04"/>
</g>
<!-- Growth -->
<g id="node12" class="node">
<title>Growth</title>
<path fill="lightgrey" stroke="black" d="M1683.35,-321.38C1683.35,-321.38 1609.6,-321.38 1609.6,-321.38 1603.6,-321.38 1597.6,-315.38 1597.6,-309.38 1597.6,-309.38 1597.6,-288.62 1597.6,-288.62 1597.6,-282.62 1603.6,-276.62 1609.6,-276.62 1609.6,-276.62 1683.35,-276.62 1683.35,-276.62 1689.35,-276.62 1695.35,-282.62 1695.35,-288.62 1695.35,-288.62 1695.35,-309.38 1695.35,-309.38 1695.35,-315.38 1689.35,-321.38 1683.35,-321.38"/>
<text xml:space="preserve" text-anchor="middle" x="1646.47" y="-307.88" font-family="Arial" font-size="10.00">Phase 2: Growth</text>
<text xml:space="preserve" text-anchor="middle" x="1646.47" y="-295.88" font-family="Arial" font-size="10.00">(Days 31&#45;120)</text>
<text xml:space="preserve" text-anchor="middle" x="1646.47" y="-283.88" font-family="Arial" font-size="10.00">✓ Hit profitability</text>
</g>
<!-- Launch&#45;&gt;Growth -->
<g id="edge11" class="edge">
<title>Launch&#45;&gt;Growth</title>
<path fill="none" stroke="black" d="M1485.13,-162.36C1520.02,-192.09 1574.61,-238.62 1610.22,-268.96"/>
<polygon fill="black" stroke="black" points="1607.81,-271.5 1617.69,-275.32 1612.35,-266.17 1607.81,-271.5"/>
</g>
<!-- DailyLoop -->
<g id="node15" class="node">
<title>DailyLoop</title>
<path fill="lightgrey" stroke="black" d="M1689.72,-217C1689.72,-217 1603.22,-217 1603.22,-217 1597.22,-217 1591.22,-211 1591.22,-205 1591.22,-205 1591.22,-173 1591.22,-173 1591.22,-167 1597.22,-161 1603.22,-161 1603.22,-161 1689.72,-161 1689.72,-161 1695.72,-161 1701.72,-167 1701.72,-173 1701.72,-173 1701.72,-205 1701.72,-205 1701.72,-211 1695.72,-217 1689.72,-217"/>
<text xml:space="preserve" text-anchor="middle" x="1646.47" y="-203.5" font-family="Arial" font-size="10.00">Daily Loop</text>
<text xml:space="preserve" text-anchor="middle" x="1646.47" y="-191.5" font-family="Arial" font-size="10.00">• Check dashboard</text>
<text xml:space="preserve" text-anchor="middle" x="1646.47" y="-179.5" font-family="Arial" font-size="10.00">• Make decisions</text>
<text xml:space="preserve" text-anchor="middle" x="1646.47" y="-167.5" font-family="Arial" font-size="10.00">• Face consequences</text>
</g>
<!-- Launch&#45;&gt;DailyLoop -->
<g id="edge14" class="edge">
<title>Launch&#45;&gt;DailyLoop</title>
<path fill="none" stroke="black" d="M1499.21,-147.45C1523.62,-154.39 1553.75,-162.95 1580.31,-170.49"/>
<polygon fill="black" stroke="black" points="1579.03,-173.77 1589.61,-173.13 1580.94,-167.03 1579.03,-173.77"/>
</g>
<!-- Stuck -->
<g id="node28" class="node">
<title>Stuck</title>
<path fill="lightgrey" stroke="black" d="M1664.6,-105C1664.6,-105 1628.35,-105 1628.35,-105 1622.35,-105 1616.35,-99 1616.35,-93 1616.35,-93 1616.35,-81 1616.35,-81 1616.35,-75 1622.35,-69 1628.35,-69 1628.35,-69 1664.6,-69 1664.6,-69 1670.6,-69 1676.6,-75 1676.6,-81 1676.6,-81 1676.6,-93 1676.6,-93 1676.6,-99 1670.6,-105 1664.6,-105"/>
<text xml:space="preserve" text-anchor="middle" x="1646.47" y="-89.5" font-family="Arial" font-size="10.00">Stuck in</text>
<text xml:space="preserve" text-anchor="middle" x="1646.47" y="-77.5" font-family="Arial" font-size="10.00">simulation</text>
</g>
<!-- Launch&#45;&gt;Stuck -->
<g id="edge30" class="edge">
<title>Launch&#45;&gt;Stuck</title>
<path fill="none" stroke="black" stroke-dasharray="5,2" d="M1499.12,-114.18C1505.07,-112.07 1511.12,-110.12 1516.97,-108.5 1545.9,-100.51 1579.36,-95.03 1604.88,-91.6"/>
<polygon fill="black" stroke="black" points="1605.03,-95.11 1614.5,-90.36 1604.14,-88.17 1605.03,-95.11"/>
<text xml:space="preserve" text-anchor="middle" x="1545.1" y="-110.45" font-family="Arial" font-size="9.00">Business fails</text>
</g>
<!-- Engage -->
<g id="node31" class="node">
<title>Engage</title>
<path fill="gold" stroke="black" d="M2252.47,-364C2252.47,-364 2171.22,-364 2171.22,-364 2165.22,-364 2159.22,-358 2159.22,-352 2159.22,-352 2159.22,-308 2159.22,-308 2159.22,-302 2165.22,-296 2171.22,-296 2171.22,-296 2252.47,-296 2252.47,-296 2258.47,-296 2264.47,-302 2264.47,-308 2264.47,-308 2264.47,-352 2264.47,-352 2264.47,-358 2258.47,-364 2252.47,-364"/>
<text xml:space="preserve" text-anchor="middle" x="2211.85" y="-350.5" font-family="Arial" font-size="10.00">Engagement Drivers</text>
<text xml:space="preserve" text-anchor="middle" x="2211.85" y="-338.5" font-family="Arial" font-size="10.00">• Daily/weekly goals</text>
<text xml:space="preserve" text-anchor="middle" x="2211.85" y="-326.5" font-family="Arial" font-size="10.00">• Badges &amp; streaks</text>
<text xml:space="preserve" text-anchor="middle" x="2211.85" y="-314.5" font-family="Arial" font-size="10.00">• Leaderboards</text>
<text xml:space="preserve" text-anchor="middle" x="2211.85" y="-302.5" font-family="Arial" font-size="10.00">• Nudges &amp; hints</text>
</g>
<!-- Launch&#45;&gt;Engage -->
<g id="edge34" class="edge">
<title>Launch&#45;&gt;Engage</title>
<path fill="none" stroke="black" d="M1458.87,-162.04C1477.23,-227.91 1533.19,-387 1645.47,-387 1645.47,-387 1645.47,-387 2070.22,-387 2097.07,-387 2124.83,-377.97 2148.52,-367.09"/>
<polygon fill="black" stroke="black" points="2149.9,-370.31 2157.39,-362.82 2146.86,-364 2149.9,-370.31"/>
</g>
<!-- Optimize -->
<g id="node13" class="node">
<title>Optimize</title>
<path fill="lightgrey" stroke="black" d="M1903.72,-321.38C1903.72,-321.38 1813.47,-321.38 1813.47,-321.38 1807.47,-321.38 1801.47,-315.38 1801.47,-309.38 1801.47,-309.38 1801.47,-288.62 1801.47,-288.62 1801.47,-282.62 1807.47,-276.62 1813.47,-276.62 1813.47,-276.62 1903.72,-276.62 1903.72,-276.62 1909.72,-276.62 1915.72,-282.62 1915.72,-288.62 1915.72,-288.62 1915.72,-309.38 1915.72,-309.38 1915.72,-315.38 1909.72,-321.38 1903.72,-321.38"/>
<text xml:space="preserve" text-anchor="middle" x="1858.6" y="-307.88" font-family="Arial" font-size="10.00">Phase 3: Optimize</text>
<text xml:space="preserve" text-anchor="middle" x="1858.6" y="-295.88" font-family="Arial" font-size="10.00">(Days 121&#45;250)</text>
<text xml:space="preserve" text-anchor="middle" x="1858.6" y="-283.88" font-family="Arial" font-size="10.00">✓ Maximize margins</text>
</g>
<!-- Growth&#45;&gt;Optimize -->
<g id="edge12" class="edge">
<title>Growth&#45;&gt;Optimize</title>
<path fill="none" stroke="black" d="M1695.68,-299C1723.51,-299 1758.95,-299 1789.57,-299"/>
<polygon fill="black" stroke="black" points="1789.54,-302.5 1799.54,-299 1789.54,-295.5 1789.54,-302.5"/>
</g>
<!-- Growth&#45;&gt;Engage -->
<g id="edge35" class="edge">
<title>Growth&#45;&gt;Engage</title>
<path fill="none" stroke="black" d="M1695.65,-311.26C1725.83,-318.3 1765.65,-326.43 1801.47,-330 1923.48,-342.16 2066.96,-337.93 2147.56,-333.88"/>
<polygon fill="black" stroke="black" points="2147.67,-337.38 2157.47,-333.36 2147.3,-330.39 2147.67,-337.38"/>
</g>
<!-- Scale -->
<g id="node14" class="node">
<title>Scale</title>
<path fill="lightgrey" stroke="black" d="M2110.22,-321.38C2110.22,-321.38 2028.22,-321.38 2028.22,-321.38 2022.22,-321.38 2016.22,-315.38 2016.22,-309.38 2016.22,-309.38 2016.22,-288.62 2016.22,-288.62 2016.22,-282.62 2022.22,-276.62 2028.22,-276.62 2028.22,-276.62 2110.22,-276.62 2110.22,-276.62 2116.22,-276.62 2122.22,-282.62 2122.22,-288.62 2122.22,-288.62 2122.22,-309.38 2122.22,-309.38 2122.22,-315.38 2116.22,-321.38 2110.22,-321.38"/>
<text xml:space="preserve" text-anchor="middle" x="2069.22" y="-307.88" font-family="Arial" font-size="10.00">Phase 4: Scale</text>
<text xml:space="preserve" text-anchor="middle" x="2069.22" y="-295.88" font-family="Arial" font-size="10.00">(Days 251&#45;365)</text>
<text xml:space="preserve" text-anchor="middle" x="2069.22" y="-283.88" font-family="Arial" font-size="10.00">✓ Ready to launch</text>
</g>
<!-- Optimize&#45;&gt;Scale -->
<g id="edge13" class="edge">
<title>Optimize&#45;&gt;Scale</title>
<path fill="none" stroke="black" d="M1916.05,-299C1943.42,-299 1976.39,-299 2004.64,-299"/>
<polygon fill="black" stroke="black" points="2004.5,-302.5 2014.5,-299 2004.5,-295.5 2004.5,-302.5"/>
</g>
<!-- Optimize&#45;&gt;Engage -->
<g id="edge36" class="edge">
<title>Optimize&#45;&gt;Engage</title>
<path fill="none" stroke="black" d="M1916.2,-278.96C1970.27,-262.91 2053.47,-246.34 2122.22,-268 2136.64,-272.54 2150.75,-280.36 2163.32,-288.94"/>
<polygon fill="black" stroke="black" points="2161.22,-291.74 2171.39,-294.72 2165.3,-286.05 2161.22,-291.74"/>
</g>
<!-- Stage4 -->
<g id="node18" class="node">
<title>Stage4</title>
<ellipse fill="lightgreen" stroke="black" cx="2211.85" cy="-217" rx="44.72" ry="22.63"/>
<text xml:space="preserve" text-anchor="middle" x="2211.85" y="-219.5" font-family="Arial" font-size="10.00">STAGE 4</text>
<text xml:space="preserve" text-anchor="middle" x="2211.85" y="-207.5" font-family="Arial" font-size="10.00">Graduation</text>
</g>
<!-- Scale&#45;&gt;Stage4 -->
<g id="edge18" class="edge">
<title>Scale&#45;&gt;Stage4</title>
<path fill="none" stroke="black" d="M2109.39,-276.16C2128.91,-264.78 2152.44,-251.06 2171.92,-239.7"/>
<polygon fill="black" stroke="black" points="2173.51,-242.82 2180.39,-234.76 2169.99,-236.77 2173.51,-242.82"/>
</g>
<!-- Scale&#45;&gt;Engage -->
<g id="edge37" class="edge">
<title>Scale&#45;&gt;Engage</title>
<path fill="none" stroke="black" d="M2122.59,-310.54C2130.84,-312.36 2139.45,-314.26 2147.91,-316.13"/>
<polygon fill="black" stroke="black" points="2146.91,-319.49 2157.43,-318.22 2148.42,-312.65 2146.91,-319.49"/>
</g>
<!-- WeeklyLoop -->
<g id="node16" class="node">
<title>WeeklyLoop</title>
<path fill="lightgrey" stroke="black" d="M1892.1,-259C1892.1,-259 1825.1,-259 1825.1,-259 1819.1,-259 1813.1,-253 1813.1,-247 1813.1,-247 1813.1,-215 1813.1,-215 1813.1,-209 1819.1,-203 1825.1,-203 1825.1,-203 1892.1,-203 1892.1,-203 1898.1,-203 1904.1,-209 1904.1,-215 1904.1,-215 1904.1,-247 1904.1,-247 1904.1,-253 1898.1,-259 1892.1,-259"/>
<text xml:space="preserve" text-anchor="middle" x="1858.6" y="-245.5" font-family="Arial" font-size="10.00">Weekly Loop</text>
<text xml:space="preserve" text-anchor="middle" x="1858.6" y="-233.5" font-family="Arial" font-size="10.00">• Deep analysis</text>
<text xml:space="preserve" text-anchor="middle" x="1858.6" y="-221.5" font-family="Arial" font-size="10.00">• Review metrics</text>
<text xml:space="preserve" text-anchor="middle" x="1858.6" y="-209.5" font-family="Arial" font-size="10.00">• Plan ahead</text>
</g>
<!-- DailyLoop&#45;&gt;WeeklyLoop -->
<g id="edge15" class="edge">
<title>DailyLoop&#45;&gt;WeeklyLoop</title>
<path fill="none" stroke="black" d="M1702.13,-199.93C1732.78,-206.05 1770.93,-213.68 1801.77,-219.84"/>
<polygon fill="black" stroke="black" points="1800.79,-223.21 1811.28,-221.74 1802.16,-216.35 1800.79,-223.21"/>
</g>
<!-- MonthlyLoop -->
<g id="node17" class="node">
<title>MonthlyLoop</title>
<path fill="lightgrey" stroke="black" d="M2107.22,-212C2107.22,-212 2031.22,-212 2031.22,-212 2025.22,-212 2019.22,-206 2019.22,-200 2019.22,-200 2019.22,-168 2019.22,-168 2019.22,-162 2025.22,-156 2031.22,-156 2031.22,-156 2107.22,-156 2107.22,-156 2113.22,-156 2119.22,-162 2119.22,-168 2119.22,-168 2119.22,-200 2119.22,-200 2119.22,-206 2113.22,-212 2107.22,-212"/>
<text xml:space="preserve" text-anchor="middle" x="2069.22" y="-198.5" font-family="Arial" font-size="10.00">Monthly Loop</text>
<text xml:space="preserve" text-anchor="middle" x="2069.22" y="-186.5" font-family="Arial" font-size="10.00">• Strategy review</text>
<text xml:space="preserve" text-anchor="middle" x="2069.22" y="-174.5" font-family="Arial" font-size="10.00">• Goal adjustment</text>
<text xml:space="preserve" text-anchor="middle" x="2069.22" y="-162.5" font-family="Arial" font-size="10.00">• Scenario planning</text>
</g>
<!-- WeeklyLoop&#45;&gt;MonthlyLoop -->
<g id="edge16" class="edge">
<title>WeeklyLoop&#45;&gt;MonthlyLoop</title>
<path fill="none" stroke="black" d="M1904.35,-220.92C1934.58,-214.11 1974.84,-205.04 2007.89,-197.59"/>
<polygon fill="black" stroke="black" points="2008.33,-201.08 2017.32,-195.47 2006.79,-194.25 2008.33,-201.08"/>
</g>
<!-- MonthlyLoop&#45;&gt;DailyLoop -->
<g id="edge17" class="edge">
<title>MonthlyLoop&#45;&gt;DailyLoop</title>
<path fill="none" stroke="black" d="M2018.77,-183.8C1988.93,-183.68 1950.14,-183.56 1915.72,-183.5 1864.94,-183.42 1852.24,-182.59 1801.47,-183.5 1772.57,-184.02 1740.62,-185.08 1713.36,-186.13"/>
<polygon fill="black" stroke="black" points="1713.35,-182.63 1703.49,-186.52 1713.62,-189.62 1713.35,-182.63"/>
<text xml:space="preserve" text-anchor="middle" x="1858.6" y="-185.45" font-family="Arial" font-size="9.00">Repeat</text>
</g>
<!-- Complete -->
<g id="node19" class="node">
<title>Complete</title>
<path fill="lightgrey" stroke="black" d="M2369.22,-237C2369.22,-237 2313.47,-237 2313.47,-237 2307.47,-237 2301.47,-231 2301.47,-225 2301.47,-225 2301.47,-205 2301.47,-205 2301.47,-199 2307.47,-193 2313.47,-193 2313.47,-193 2369.22,-193 2369.22,-193 2375.22,-193 2381.22,-199 2381.22,-205 2381.22,-205 2381.22,-225 2381.22,-225 2381.22,-231 2375.22,-237 2369.22,-237"/>
<text xml:space="preserve" text-anchor="middle" x="2341.35" y="-223.5" font-family="Arial" font-size="10.00">Complete</text>
<text xml:space="preserve" text-anchor="middle" x="2341.35" y="-211.5" font-family="Arial" font-size="10.00">365 days or</text>
<text xml:space="preserve" text-anchor="middle" x="2341.35" y="-199.5" font-family="Arial" font-size="10.00">Achieve Goals</text>
</g>
<!-- Stage4&#45;&gt;Complete -->
<g id="edge19" class="edge">
<title>Stage4&#45;&gt;Complete</title>
<path fill="none" stroke="black" d="M2256.73,-216.31C2267.42,-216.14 2278.94,-215.96 2289.91,-215.79"/>
<polygon fill="black" stroke="black" points="2289.63,-219.3 2299.57,-215.64 2289.52,-212.3 2289.63,-219.3"/>
</g>
<!-- Celebrate -->
<g id="node20" class="node">
<title>Celebrate</title>
<path fill="lightgrey" stroke="black" d="M2502.47,-227.75C2502.47,-227.75 2430.22,-227.75 2430.22,-227.75 2424.22,-227.75 2418.22,-221.75 2418.22,-215.75 2418.22,-215.75 2418.22,-194.25 2418.22,-194.25 2418.22,-188.25 2424.22,-182.25 2430.22,-182.25 2430.22,-182.25 2502.47,-182.25 2502.47,-182.25 2508.47,-182.25 2514.47,-188.25 2514.47,-194.25 2514.47,-194.25 2514.47,-215.75 2514.47,-215.75 2514.47,-221.75 2508.47,-227.75 2502.47,-227.75"/>
<text xml:space="preserve" text-anchor="middle" x="2466.35" y="-214.25" font-family="Arial" font-size="10.00">🎓 Certificate</text>
<text xml:space="preserve" text-anchor="middle" x="2466.35" y="-202.25" font-family="Arial" font-size="10.00">✓ Badges</text>
<text xml:space="preserve" text-anchor="middle" x="2466.35" y="-189.5" font-family="Arial" font-size="10.00">✓ Achievements</text>
</g>
<!-- Complete&#45;&gt;Celebrate -->
<g id="edge20" class="edge">
<title>Complete&#45;&gt;Celebrate</title>
<path fill="none" stroke="black" d="M2381.6,-211.81C2389.53,-211.16 2398.03,-210.47 2406.46,-209.79"/>
<polygon fill="black" stroke="black" points="2406.66,-213.28 2416.35,-208.98 2406.1,-206.31 2406.66,-213.28"/>
</g>
<!-- Stage5 -->
<g id="node21" class="node">
<title>Stage5</title>
<ellipse fill="lightcyan" stroke="black" cx="2612.64" cy="-186" rx="61.16" ry="22.63"/>
<text xml:space="preserve" text-anchor="middle" x="2612.64" y="-188.5" font-family="Arial" font-size="10.00">STAGE 5</text>
<text xml:space="preserve" text-anchor="middle" x="2612.64" y="-176.5" font-family="Arial" font-size="10.00">Post&#45;Graduation</text>
</g>
<!-- Celebrate&#45;&gt;Stage5 -->
<g id="edge21" class="edge">
<title>Celebrate&#45;&gt;Stage5</title>
<path fill="none" stroke="black" d="M2514.59,-198.78C2523.75,-197.57 2533.52,-196.29 2543.19,-195.01"/>
<polygon fill="black" stroke="black" points="2543.51,-198.5 2552.97,-193.73 2542.6,-191.56 2543.51,-198.5"/>
</g>
<!-- RealWorld -->
<g id="node22" class="node">
<title>RealWorld</title>
<path fill="lightgrey" stroke="black" d="M2786.05,-186.12C2786.05,-186.12 2722.8,-186.12 2722.8,-186.12 2716.8,-186.12 2710.8,-180.12 2710.8,-174.12 2710.8,-174.12 2710.8,-127.88 2710.8,-127.88 2710.8,-121.88 2716.8,-115.88 2722.8,-115.88 2722.8,-115.88 2786.05,-115.88 2786.05,-115.88 2792.05,-115.88 2798.05,-121.88 2798.05,-127.88 2798.05,-127.88 2798.05,-174.12 2798.05,-174.12 2798.05,-180.12 2792.05,-186.12 2786.05,-186.12"/>
<text xml:space="preserve" text-anchor="middle" x="2754.43" y="-172.62" font-family="Arial" font-size="10.00">Real&#45;World</text>
<text xml:space="preserve" text-anchor="middle" x="2754.43" y="-160.62" font-family="Arial" font-size="10.00">Playbook</text>
<text xml:space="preserve" text-anchor="middle" x="2754.43" y="-148.62" font-family="Arial" font-size="10.00">✓ Registration</text>
<text xml:space="preserve" text-anchor="middle" x="2754.43" y="-135.88" font-family="Arial" font-size="10.00">✓ GST Setup</text>
<text xml:space="preserve" text-anchor="middle" x="2754.43" y="-123.12" font-family="Arial" font-size="10.00">✓ Tools</text>
</g>
<!-- Stage5&#45;&gt;RealWorld -->
<g id="edge22" class="edge">
<title>Stage5&#45;&gt;RealWorld</title>
<path fill="none" stroke="black" d="M2664.1,-173.36C2675.6,-170.49 2687.86,-167.42 2699.5,-164.5"/>
<polygon fill="black" stroke="black" points="2700.1,-167.96 2708.95,-162.14 2698.4,-161.17 2700.1,-167.96"/>
</g>
<!-- Explore -->
<g id="node24" class="node">
<title>Explore</title>
<path fill="lightgrey" stroke="black" d="M2782.3,-71C2782.3,-71 2726.55,-71 2726.55,-71 2720.55,-71 2714.55,-65 2714.55,-59 2714.55,-59 2714.55,-47 2714.55,-47 2714.55,-41 2720.55,-35 2726.55,-35 2726.55,-35 2782.3,-35 2782.3,-35 2788.3,-35 2794.3,-41 2794.3,-47 2794.3,-47 2794.3,-59 2794.3,-59 2794.3,-65 2788.3,-71 2782.3,-71"/>
<text xml:space="preserve" text-anchor="middle" x="2754.43" y="-55.5" font-family="Arial" font-size="10.00">Explore New</text>
<text xml:space="preserve" text-anchor="middle" x="2754.43" y="-43.5" font-family="Arial" font-size="10.00">Business Type</text>
</g>
<!-- Stage5&#45;&gt;Explore -->
<g id="edge23" class="edge">
<title>Stage5&#45;&gt;Explore</title>
<path fill="none" stroke="black" d="M2636.1,-164.63C2660.61,-141.31 2699.86,-103.96 2726.13,-78.97"/>
<polygon fill="black" stroke="black" points="2728.24,-81.79 2733.08,-72.36 2723.42,-76.72 2728.24,-81.79"/>
</g>
<!-- Premium -->
<g id="node25" class="node">
<title>Premium</title>
<path fill="lightgrey" stroke="black" d="M2774.43,-240C2774.43,-240 2734.43,-240 2734.43,-240 2728.43,-240 2722.43,-234 2722.43,-228 2722.43,-228 2722.43,-216 2722.43,-216 2722.43,-210 2728.43,-204 2734.43,-204 2734.43,-204 2774.43,-204 2774.43,-204 2780.43,-204 2786.43,-210 2786.43,-216 2786.43,-216 2786.43,-228 2786.43,-228 2786.43,-234 2780.43,-240 2774.43,-240"/>
<text xml:space="preserve" text-anchor="middle" x="2754.43" y="-224.5" font-family="Arial" font-size="10.00">Upgrade to</text>
<text xml:space="preserve" text-anchor="middle" x="2754.43" y="-212.5" font-family="Arial" font-size="10.00">Premium</text>
</g>
<!-- Stage5&#45;&gt;Premium -->
<g id="edge24" class="edge">
<title>Stage5&#45;&gt;Premium</title>
<path fill="none" stroke="black" d="M2663.71,-198.9C2679.19,-202.88 2696.09,-207.23 2711,-211.07"/>
<polygon fill="black" stroke="black" points="2709.94,-214.42 2720.5,-213.52 2711.69,-207.64 2709.94,-214.42"/>
</g>
<!-- StartBiz -->
<g id="node23" class="node">
<title>StartBiz</title>
<path fill="lightgrey" stroke="black" d="M2949.05,-169C2949.05,-169 2912.8,-169 2912.8,-169 2906.8,-169 2900.8,-163 2900.8,-157 2900.8,-157 2900.8,-145 2900.8,-145 2900.8,-139 2906.8,-133 2912.8,-133 2912.8,-133 2949.05,-133 2949.05,-133 2955.05,-133 2961.05,-139 2961.05,-145 2961.05,-145 2961.05,-157 2961.05,-157 2961.05,-163 2955.05,-169 2949.05,-169"/>
<text xml:space="preserve" text-anchor="middle" x="2930.93" y="-153.5" font-family="Arial" font-size="10.00">Start Real</text>
<text xml:space="preserve" text-anchor="middle" x="2930.93" y="-141.5" font-family="Arial" font-size="10.00">Business</text>
</g>
<!-- RealWorld&#45;&gt;StartBiz -->
<g id="edge25" class="edge">
<title>RealWorld&#45;&gt;StartBiz</title>
<path fill="none" stroke="black" d="M2798.11,-151C2825.92,-151 2861.99,-151 2889.37,-151"/>
<polygon fill="black" stroke="black" points="2889,-154.5 2899,-151 2889,-147.5 2889,-154.5"/>
<text xml:space="preserve" text-anchor="middle" x="2849.43" y="-152.95" font-family="Arial" font-size="9.00">Apply Learnings</text>
</g>
<!-- Explore&#45;&gt;BizSelect -->
<g id="edge26" class="edge">
<title>Explore&#45;&gt;BizSelect</title>
<path fill="none" stroke="black" d="M2723.84,-34.61C2696.35,-19.3 2653.74,0 2613.64,0 1750.6,0 1750.6,0 1750.6,0 1584.51,0 1550.8,-76 1384.72,-76 1049.83,-76 1049.83,-76 1049.83,-76 1026.4,-76 1000.7,-78.79 978.72,-82.04"/>
<polygon fill="black" stroke="black" points="978.43,-78.54 969.08,-83.53 979.5,-85.46 978.43,-78.54"/>
<text xml:space="preserve" text-anchor="middle" x="1965.97" y="-1.95" font-family="Arial" font-size="9.00">New Simulation</text>
</g>
<!-- Dropout -->
<g id="node26" class="node">
<title>Dropout</title>
<path fill="lightcoral" stroke="black" d="M1179.45,-56C1179.45,-56 1127.45,-56 1127.45,-56 1121.45,-56 1115.45,-50 1115.45,-44 1115.45,-44 1115.45,-32 1115.45,-32 1115.45,-26 1121.45,-20 1127.45,-20 1127.45,-20 1179.45,-20 1179.45,-20 1185.45,-20 1191.45,-26 1191.45,-32 1191.45,-32 1191.45,-44 1191.45,-44 1191.45,-50 1185.45,-56 1179.45,-56"/>
<text xml:space="preserve" text-anchor="middle" x="1153.45" y="-34.5" font-family="Arial" font-size="10.00">Dropout Point</text>
</g>
<!-- Quit -->
<g id="node29" class="node">
<title>Quit</title>
<path fill="lightgrey" stroke="black" d="M1880.85,-64C1880.85,-64 1836.35,-64 1836.35,-64 1830.35,-64 1824.35,-58 1824.35,-52 1824.35,-52 1824.35,-40 1824.35,-40 1824.35,-34 1830.35,-28 1836.35,-28 1836.35,-28 1880.85,-28 1880.85,-28 1886.85,-28 1892.85,-34 1892.85,-40 1892.85,-40 1892.85,-52 1892.85,-52 1892.85,-58 1886.85,-64 1880.85,-64"/>
<text xml:space="preserve" text-anchor="middle" x="1858.6" y="-48.5" font-family="Arial" font-size="10.00">Quit without</text>
<text xml:space="preserve" text-anchor="middle" x="1858.6" y="-36.5" font-family="Arial" font-size="10.00">completing</text>
</g>
<!-- Dropout&#45;&gt;Quit -->
<g id="edge29" class="edge">
<title>Dropout&#45;&gt;Quit</title>
<path fill="none" stroke="black" stroke-dasharray="5,2" d="M1191.78,-38C1237.15,-38 1316.06,-38 1383.72,-38 1383.72,-38 1383.72,-38 1647.47,-38 1704.53,-38 1770.25,-40.98 1812.78,-43.31"/>
<polygon fill="black" stroke="black" points="1812.44,-46.79 1822.62,-43.86 1812.83,-39.8 1812.44,-46.79"/>
</g>
<!-- Confused&#45;&gt;Dropout -->
<g id="edge28" class="edge">
<title>Confused&#45;&gt;Dropout</title>
<path fill="none" stroke="black" stroke-dasharray="5,2" d="M966.37,-38C1005.16,-38 1062.91,-38 1103.77,-38"/>
<polygon fill="black" stroke="black" points="1103.56,-41.5 1113.56,-38 1103.56,-34.5 1103.56,-41.5"/>
</g>
<!-- Stuck&#45;&gt;Quit -->
<g id="edge31" class="edge">
<title>Stuck&#45;&gt;Quit</title>
<path fill="none" stroke="black" stroke-dasharray="5,2" d="M1676.69,-81.3C1712.04,-74.4 1771.94,-62.71 1813.06,-54.69"/>
<polygon fill="black" stroke="black" points="1813.49,-58.17 1822.63,-52.82 1812.15,-51.3 1813.49,-58.17"/>
</g>
<!-- Recovery -->
<g id="node30" class="node">
<title>Recovery</title>
<path fill="lightgrey" stroke="black" d="M1889.85,-138C1889.85,-138 1827.35,-138 1827.35,-138 1821.35,-138 1815.35,-132 1815.35,-126 1815.35,-126 1815.35,-94 1815.35,-94 1815.35,-88 1821.35,-82 1827.35,-82 1827.35,-82 1889.85,-82 1889.85,-82 1895.85,-82 1901.85,-88 1901.85,-94 1901.85,-94 1901.85,-126 1901.85,-126 1901.85,-132 1895.85,-138 1889.85,-138"/>
<text xml:space="preserve" text-anchor="middle" x="1858.6" y="-124.5" font-family="Arial" font-size="10.00">Recovery</text>
<text xml:space="preserve" text-anchor="middle" x="1858.6" y="-112.5" font-family="Arial" font-size="10.00">• Analyze failure</text>
<text xml:space="preserve" text-anchor="middle" x="1858.6" y="-100.5" font-family="Arial" font-size="10.00">• Restart</text>
<text xml:space="preserve" text-anchor="middle" x="1858.6" y="-88.5" font-family="Arial" font-size="10.00">• New strategy</text>
</g>
<!-- Stuck&#45;&gt;Recovery -->
<g id="edge32" class="edge">
<title>Stuck&#45;&gt;Recovery</title>
<path fill="none" stroke="black" stroke-dasharray="1,5" d="M1676.69,-90.2C1709.5,-93.79 1763.44,-99.69 1803.9,-104.12"/>
<polygon fill="black" stroke="black" points="1803.37,-107.58 1813.69,-105.19 1804.13,-100.63 1803.37,-107.58"/>
<text xml:space="preserve" text-anchor="middle" x="1751.6" y="-103.19" font-family="Arial" font-size="9.00">Second chance</text>
</g>
<!-- Recovery&#45;&gt;Launch -->
<g id="edge33" class="edge">
<title>Recovery&#45;&gt;Launch</title>
<path fill="none" stroke="black" stroke-dasharray="1,5" d="M1814.89,-113.65C1804.6,-114.48 1793.65,-115.31 1783.47,-116 1688.09,-122.45 1577.16,-128.09 1510.83,-131.27"/>
<polygon fill="black" stroke="black" points="1510.71,-127.77 1500.89,-131.75 1511.04,-134.77 1510.71,-127.77"/>
</g>
</g>
</svg>
