<?xml version="1.0" encoding="UTF-8" standalone="no"?>
<!DOCTYPE svg PUBLIC "-//W3C//DTD SVG 1.1//EN"
 "http://www.w3.org/Graphics/SVG/1.1/DTD/svg11.dtd">
<!-- Generated by graphviz version 14.0.4 (20251115.1723)
 -->
<!-- Title: WidgetSystemArchitecture Pages: 1 -->
<svg width="1968pt" height="209pt"
 viewBox="0.00 0.00 1968.00 209.00" xmlns="http://www.w3.org/2000/svg" xmlns:xlink="http://www.w3.org/1999/xlink">
<g id="graph0" class="graph" transform="scale(1 1) rotate(0) translate(4 204.5)">
<title>WidgetSystemArchitecture</title>
<polygon fill="#f8f9fa" stroke="none" points="-4,4 -4,-204.5 1964,-204.5 1964,4 -4,4"/>
<g id="clust2" class="cluster">
<title>cluster_metric_widgets</title>
<polygon fill="#e8f8f5" stroke="#2c3e50" points="8,-8 8,-84.5 348,-84.5 348,-8 8,-8"/>
<text xml:space="preserve" text-anchor="middle" x="178" y="-67.2" font-family="Times New Roman,serif" font-size="14.00">Metric Widgets</text>
</g>
<g id="clust3" class="cluster">
<title>cluster_chart_widgets</title>
<polygon fill="#fef5e7" stroke="#2c3e50" points="356,-8 356,-84.5 820,-84.5 820,-8 356,-8"/>
<text xml:space="preserve" text-anchor="middle" x="588" y="-67.2" font-family="Times New Roman,serif" font-size="14.00">Chart Widgets</text>
</g>
<g id="clust4" class="cluster">
<title>cluster_data_widgets</title>
<polygon fill="#f4ecf7" stroke="#2c3e50" points="828,-8 828,-84.5 1151,-84.5 1151,-8 828,-8"/>
<text xml:space="preserve" text-anchor="middle" x="989.5" y="-67.2" font-family="Times New Roman,serif" font-size="14.00">Data Widgets</text>
</g>
<g id="clust5" class="cluster">
<title>cluster_interaction_widgets</title>
<polygon fill="#e8f4f8" stroke="#2c3e50" points="1159,-8 1159,-84.5 1564,-84.5 1564,-8 1159,-8"/>
<text xml:space="preserve" text-anchor="middle" x="1361.5" y="-67.2" font-family="Times New Roman,serif" font-size="14.00">Interaction Widgets</text>
</g>
<g id="clust6" class="cluster">
<title>cluster_composite_widgets</title>
<polygon fill="#f3e5f5" stroke="#2c3e50" points="1572,-8 1572,-84.5 1952,-84.5 1952,-8 1572,-8"/>
<text xml:space="preserve" text-anchor="middle" x="1762" y="-67.2" font-family="Times New Roman,serif" font-size="14.00">Composite Widgets</text>
</g>
<!-- WidgetSystem -->
<g id="node1" class="node">
<title>WidgetSystem</title>
<path fill="#3498db" stroke="#2c3e50" d="M1253,-200.5C1253,-200.5 1159,-200.5 1159,-200.5 1153,-200.5 1147,-194.5 1147,-188.5 1147,-188.5 1147,-176.5 1147,-176.5 1147,-170.5 1153,-164.5 1159,-164.5 1159,-164.5 1253,-164.5 1253,-164.5 1259,-164.5 1265,-170.5 1265,-176.5 1265,-176.5 1265,-188.5 1265,-188.5 1265,-194.5 1259,-200.5 1253,-200.5"/>
<text xml:space="preserve" text-anchor="middle" x="1206" y="-185.55" font-family="Arial" font-size="11.00" fill="white">Widget System</text>
<text xml:space="preserve" text-anchor="middle" x="1206" y="-172.05" font-family="Arial" font-size="11.00" fill="white">(Reusable UI Blocks)</text>
</g>
<!-- WidgetBase -->
<g id="node2" class="node">
<title>WidgetBase</title>
<path fill="#2c3e50" stroke="#2c3e50" d="M1041.88,-128.5C1041.88,-128.5 962.12,-128.5 962.12,-128.5 956.12,-128.5 950.12,-122.5 950.12,-116.5 950.12,-116.5 950.12,-104.5 950.12,-104.5 950.12,-98.5 956.12,-92.5 962.12,-92.5 962.12,-92.5 1041.88,-92.5 1041.88,-92.5 1047.88,-92.5 1053.88,-98.5 1053.88,-104.5 1053.88,-104.5 1053.88,-116.5 1053.88,-116.5 1053.88,-122.5 1047.88,-128.5 1041.88,-128.5"/>
<text xml:space="preserve" text-anchor="middle" x="1002" y="-112.45" font-family="Arial" font-size="9.00">Widget Base</text>
<text xml:space="preserve" text-anchor="middle" x="1002" y="-101.95" font-family="Arial" font-size="9.00">(Props, State, Layout)</text>
</g>
<!-- WidgetSystem&#45;&gt;WidgetBase -->
<g id="edge1" class="edge">
<title>WidgetSystem&#45;&gt;WidgetBase</title>
<path fill="none" stroke="#34495e" d="M1155.05,-164.02C1127.2,-154.46 1092.5,-142.55 1063.19,-132.5"/>
<polygon fill="#34495e" stroke="#34495e" points="1064.68,-129.31 1054.09,-129.37 1062.41,-135.93 1064.68,-129.31"/>
</g>
<!-- WidgetRegistry -->
<g id="node3" class="node">
<title>WidgetRegistry</title>
<path fill="#2c3e50" stroke="#2c3e50" d="M1188.25,-128.5C1188.25,-128.5 1083.75,-128.5 1083.75,-128.5 1077.75,-128.5 1071.75,-122.5 1071.75,-116.5 1071.75,-116.5 1071.75,-104.5 1071.75,-104.5 1071.75,-98.5 1077.75,-92.5 1083.75,-92.5 1083.75,-92.5 1188.25,-92.5 1188.25,-92.5 1194.25,-92.5 1200.25,-98.5 1200.25,-104.5 1200.25,-104.5 1200.25,-116.5 1200.25,-116.5 1200.25,-122.5 1194.25,-128.5 1188.25,-128.5"/>
<text xml:space="preserve" text-anchor="middle" x="1136" y="-112.45" font-family="Arial" font-size="9.00">Widget Registry</text>
<text xml:space="preserve" text-anchor="middle" x="1136" y="-101.95" font-family="Arial" font-size="9.00">(Discovery &amp; Configuration)</text>
</g>
<!-- WidgetSystem&#45;&gt;WidgetRegistry -->
<g id="edge2" class="edge">
<title>WidgetSystem&#45;&gt;WidgetRegistry</title>
<path fill="none" stroke="#34495e" d="M1188.7,-164.2C1180.39,-155.89 1170.28,-145.78 1161.14,-136.64"/>
<polygon fill="#34495e" stroke="#34495e" points="1163.72,-134.27 1154.17,-129.67 1158.77,-139.22 1163.72,-134.27"/>
</g>
<!-- DragDrop -->
<g id="node4" class="node">
<title>DragDrop</title>
<path fill="#2c3e50" stroke="#2c3e50" d="M1323.62,-128.5C1323.62,-128.5 1230.38,-128.5 1230.38,-128.5 1224.38,-128.5 1218.38,-122.5 1218.38,-116.5 1218.38,-116.5 1218.38,-104.5 1218.38,-104.5 1218.38,-98.5 1224.38,-92.5 1230.38,-92.5 1230.38,-92.5 1323.62,-92.5 1323.62,-92.5 1329.62,-92.5 1335.62,-98.5 1335.62,-104.5 1335.62,-104.5 1335.62,-116.5 1335.62,-116.5 1335.62,-122.5 1329.62,-128.5 1323.62,-128.5"/>
<text xml:space="preserve" text-anchor="middle" x="1277" y="-112.45" font-family="Arial" font-size="9.00">Drag &amp; Drop</text>
<text xml:space="preserve" text-anchor="middle" x="1277" y="-101.95" font-family="Arial" font-size="9.00">(Widget Rearrangement)</text>
</g>
<!-- WidgetSystem&#45;&gt;DragDrop -->
<g id="edge3" class="edge">
<title>WidgetSystem&#45;&gt;DragDrop</title>
<path fill="none" stroke="#34495e" d="M1223.55,-164.2C1231.98,-155.89 1242.23,-145.78 1251.5,-136.64"/>
<polygon fill="#34495e" stroke="#34495e" points="1253.91,-139.18 1258.57,-129.67 1249,-134.2 1253.91,-139.18"/>
</g>
<!-- Responsive -->
<g id="node5" class="node">
<title>Responsive</title>
<path fill="#2c3e50" stroke="#2c3e50" d="M1434.25,-128.5C1434.25,-128.5 1365.75,-128.5 1365.75,-128.5 1359.75,-128.5 1353.75,-122.5 1353.75,-116.5 1353.75,-116.5 1353.75,-104.5 1353.75,-104.5 1353.75,-98.5 1359.75,-92.5 1365.75,-92.5 1365.75,-92.5 1434.25,-92.5 1434.25,-92.5 1440.25,-92.5 1446.25,-98.5 1446.25,-104.5 1446.25,-104.5 1446.25,-116.5 1446.25,-116.5 1446.25,-122.5 1440.25,-128.5 1434.25,-128.5"/>
<text xml:space="preserve" text-anchor="middle" x="1400" y="-112.45" font-family="Arial" font-size="9.00">Responsive Grid</text>
<text xml:space="preserve" text-anchor="middle" x="1400" y="-101.95" font-family="Arial" font-size="9.00">(12&#45;column layout)</text>
</g>
<!-- WidgetSystem&#45;&gt;Responsive -->
<g id="edge4" class="edge">
<title>WidgetSystem&#45;&gt;Responsive</title>
<path fill="none" stroke="#34495e" d="M1254.45,-164.02C1281.32,-154.32 1314.89,-142.21 1343.01,-132.06"/>
<polygon fill="#34495e" stroke="#34495e" points="1343.86,-135.48 1352.08,-128.79 1341.48,-128.89 1343.86,-135.48"/>
</g>
<!-- MetricCard -->
<g id="node6" class="node">
<title>MetricCard</title>
<path fill="#2c3e50" stroke="#2c3e50" d="M95.88,-52C95.88,-52 28.12,-52 28.12,-52 22.12,-52 16.12,-46 16.12,-40 16.12,-40 16.12,-28 16.12,-28 16.12,-22 22.12,-16 28.12,-16 28.12,-16 95.88,-16 95.88,-16 101.88,-16 107.88,-22 107.88,-28 107.88,-28 107.88,-40 107.88,-40 107.88,-46 101.88,-52 95.88,-52"/>
<text xml:space="preserve" text-anchor="middle" x="62" y="-35.95" font-family="Arial" font-size="9.00">MetricCard Widget</text>
<text xml:space="preserve" text-anchor="middle" x="62" y="-25.45" font-family="Arial" font-size="9.00">(Value + Trend)</text>
</g>
<!-- WidgetBase&#45;&gt;MetricCard -->
<g id="edge5" class="edge">
<title>WidgetBase&#45;&gt;MetricCard</title>
<path fill="none" stroke="#34495e" d="M949.65,-109.02C765.39,-107.19 155.73,-99.99 117,-84.5 104.22,-79.39 92.49,-69.88 83.19,-60.55"/>
<polygon fill="#34495e" stroke="#34495e" points="85.77,-58.19 76.39,-53.27 80.66,-62.97 85.77,-58.19"/>
</g>
<!-- HealthScore -->
<g id="node7" class="node">
<title>HealthScore</title>
<path fill="#2c3e50" stroke="#2c3e50" d="M211.88,-52C211.88,-52 138.12,-52 138.12,-52 132.12,-52 126.12,-46 126.12,-40 126.12,-40 126.12,-28 126.12,-28 126.12,-22 132.12,-16 138.12,-16 138.12,-16 211.88,-16 211.88,-16 217.88,-16 223.88,-22 223.88,-28 223.88,-28 223.88,-40 223.88,-40 223.88,-46 217.88,-52 211.88,-52"/>
<text xml:space="preserve" text-anchor="middle" x="175" y="-35.95" font-family="Arial" font-size="9.00">HealthScore Widget</text>
<text xml:space="preserve" text-anchor="middle" x="175" y="-25.45" font-family="Arial" font-size="9.00">(1&#45;10 Circle)</text>
</g>
<!-- WidgetBase&#45;&gt;HealthScore -->
<g id="edge6" class="edge">
<title>WidgetBase&#45;&gt;HealthScore</title>
<path fill="none" stroke="#34495e" d="M949.81,-109.8C787.64,-110.44 299.33,-110.19 233,-84.5 219.63,-79.32 207.2,-69.67 197.3,-60.25"/>
<polygon fill="#34495e" stroke="#34495e" points="199.87,-57.88 190.35,-53.23 194.9,-62.8 199.87,-57.88"/>
</g>
<!-- ProgressBar -->
<g id="node8" class="node">
<title>ProgressBar</title>
<path fill="#2c3e50" stroke="#2c3e50" d="M327.88,-52C327.88,-52 254.12,-52 254.12,-52 248.12,-52 242.12,-46 242.12,-40 242.12,-40 242.12,-28 242.12,-28 242.12,-22 248.12,-16 254.12,-16 254.12,-16 327.88,-16 327.88,-16 333.88,-16 339.88,-22 339.88,-28 339.88,-28 339.88,-40 339.88,-40 339.88,-46 333.88,-52 327.88,-52"/>
<text xml:space="preserve" text-anchor="middle" x="291" y="-35.95" font-family="Arial" font-size="9.00">ProgressBar Widget</text>
<text xml:space="preserve" text-anchor="middle" x="291" y="-25.45" font-family="Arial" font-size="9.00">(Goal Progress)</text>
</g>
<!-- WidgetBase&#45;&gt;ProgressBar -->
<g id="edge7" class="edge">
<title>WidgetBase&#45;&gt;ProgressBar</title>
<path fill="none" stroke="#34495e" d="M949.64,-109.38C805.04,-108.79 407.19,-105.28 352,-84.5 338.04,-79.24 324.87,-69.44 314.37,-59.94"/>
<polygon fill="#34495e" stroke="#34495e" points="316.95,-57.57 307.31,-53.18 312.11,-62.63 316.95,-57.57"/>
</g>
<!-- LineChart -->
<g id="node9" class="node">
<title>LineChart</title>
<path fill="#2c3e50" stroke="#2c3e50" d="M451.62,-52C451.62,-52 376.38,-52 376.38,-52 370.38,-52 364.38,-46 364.38,-40 364.38,-40 364.38,-28 364.38,-28 364.38,-22 370.38,-16 376.38,-16 376.38,-16 451.62,-16 451.62,-16 457.62,-16 463.62,-22 463.62,-28 463.62,-28 463.62,-40 463.62,-40 463.62,-46 457.62,-52 451.62,-52"/>
<text xml:space="preserve" text-anchor="middle" x="414" y="-35.95" font-family="Arial" font-size="9.00">LineChart Widget</text>
<text xml:space="preserve" text-anchor="middle" x="414" y="-25.45" font-family="Arial" font-size="9.00">(Revenue, Forecast)</text>
</g>
<!-- WidgetBase&#45;&gt;LineChart -->
<g id="edge8" class="edge">
<title>WidgetBase&#45;&gt;LineChart</title>
<path fill="none" stroke="#34495e" d="M949.88,-108.93C825.14,-107.28 516.57,-101.53 473,-84.5 459.52,-79.23 446.88,-69.56 436.79,-60.16"/>
<polygon fill="#34495e" stroke="#34495e" points="439.27,-57.69 429.7,-53.15 434.35,-62.67 439.27,-57.69"/>
</g>
<!-- PieChart -->
<g id="node10" class="node">
<title>PieChart</title>
<path fill="#2c3e50" stroke="#2c3e50" d="M576.38,-52C576.38,-52 493.62,-52 493.62,-52 487.62,-52 481.62,-46 481.62,-40 481.62,-40 481.62,-28 481.62,-28 481.62,-22 487.62,-16 493.62,-16 493.62,-16 576.38,-16 576.38,-16 582.38,-16 588.38,-22 588.38,-28 588.38,-28 588.38,-40 588.38,-40 588.38,-46 582.38,-52 576.38,-52"/>
<text xml:space="preserve" text-anchor="middle" x="535" y="-35.95" font-family="Arial" font-size="9.00">PieChart Widget</text>
<text xml:space="preserve" text-anchor="middle" x="535" y="-25.45" font-family="Arial" font-size="9.00">(Expense Breakdown)</text>
</g>
<!-- WidgetBase&#45;&gt;PieChart -->
<g id="edge9" class="edge">
<title>WidgetBase&#45;&gt;PieChart</title>
<path fill="none" stroke="#34495e" d="M949.81,-110.16C855.35,-110.71 659.94,-108.75 597,-84.5 582.94,-79.08 569.58,-69.26 558.88,-59.78"/>
<polygon fill="#34495e" stroke="#34495e" points="561.37,-57.32 551.68,-53.04 556.59,-62.43 561.37,-57.32"/>
</g>
<!-- BarChart -->
<g id="node11" class="node">
<title>BarChart</title>
<path fill="#2c3e50" stroke="#2c3e50" d="M677.75,-52C677.75,-52 618.25,-52 618.25,-52 612.25,-52 606.25,-46 606.25,-40 606.25,-40 606.25,-28 606.25,-28 606.25,-22 612.25,-16 618.25,-16 618.25,-16 677.75,-16 677.75,-16 683.75,-16 689.75,-22 689.75,-28 689.75,-28 689.75,-40 689.75,-40 689.75,-46 683.75,-52 677.75,-52"/>
<text xml:space="preserve" text-anchor="middle" x="648" y="-35.95" font-family="Arial" font-size="9.00">BarChart Widget</text>
<text xml:space="preserve" text-anchor="middle" x="648" y="-25.45" font-family="Arial" font-size="9.00">(Comparison)</text>
</g>
<!-- WidgetBase&#45;&gt;BarChart -->
<g id="edge10" class="edge">
<title>WidgetBase&#45;&gt;BarChart</title>
<path fill="none" stroke="#34495e" d="M949.8,-109.4C875.21,-108.55 742.37,-104.2 699,-84.5 687.25,-79.16 676.59,-69.93 668.09,-60.87"/>
<polygon fill="#34495e" stroke="#34495e" points="670.86,-58.72 661.63,-53.5 665.6,-63.33 670.86,-58.72"/>
</g>
<!-- TimelineChart -->
<g id="node12" class="node">
<title>TimelineChart</title>
<path fill="#2c3e50" stroke="#2c3e50" d="M800.25,-52C800.25,-52 719.75,-52 719.75,-52 713.75,-52 707.75,-46 707.75,-40 707.75,-40 707.75,-28 707.75,-28 707.75,-22 713.75,-16 719.75,-16 719.75,-16 800.25,-16 800.25,-16 806.25,-16 812.25,-22 812.25,-28 812.25,-28 812.25,-40 812.25,-40 812.25,-46 806.25,-52 800.25,-52"/>
<text xml:space="preserve" text-anchor="middle" x="760" y="-35.95" font-family="Arial" font-size="9.00">TimelineChart Widget</text>
<text xml:space="preserve" text-anchor="middle" x="760" y="-25.45" font-family="Arial" font-size="9.00">(Milestones)</text>
</g>
<!-- WidgetBase&#45;&gt;TimelineChart -->
<g id="edge11" class="edge">
<title>WidgetBase&#45;&gt;TimelineChart</title>
<path fill="none" stroke="#34495e" d="M949.88,-109.19C913.37,-107.31 864.11,-101.41 824,-84.5 810.15,-78.66 796.69,-69.05 785.72,-59.84"/>
<polygon fill="#34495e" stroke="#34495e" points="788.09,-57.27 778.27,-53.3 783.47,-62.53 788.09,-57.27"/>
</g>
<!-- TableWidget -->
<g id="node13" class="node">
<title>TableWidget</title>
<path fill="#2c3e50" stroke="#2c3e50" d="M933.5,-52C933.5,-52 848.5,-52 848.5,-52 842.5,-52 836.5,-46 836.5,-40 836.5,-40 836.5,-28 836.5,-28 836.5,-22 842.5,-16 848.5,-16 848.5,-16 933.5,-16 933.5,-16 939.5,-16 945.5,-22 945.5,-28 945.5,-28 945.5,-40 945.5,-40 945.5,-46 939.5,-52 933.5,-52"/>
<text xml:space="preserve" text-anchor="middle" x="891" y="-35.95" font-family="Arial" font-size="9.00">Table Widget</text>
<text xml:space="preserve" text-anchor="middle" x="891" y="-25.45" font-family="Arial" font-size="9.00">(Inventory, Employees)</text>
</g>
<!-- WidgetBase&#45;&gt;TableWidget -->
<g id="edge12" class="edge">
<title>WidgetBase&#45;&gt;TableWidget</title>
<path fill="none" stroke="#34495e" d="M966.7,-92.08C962.35,-89.65 958.03,-87.1 954,-84.5 942.34,-76.97 930.2,-67.8 919.72,-59.4"/>
<polygon fill="#34495e" stroke="#34495e" points="922.13,-56.85 912.17,-53.23 917.71,-62.27 922.13,-56.85"/>
</g>
<!-- ListWidget -->
<g id="node14" class="node">
<title>ListWidget</title>
<path fill="#2c3e50" stroke="#2c3e50" d="M1028.75,-52C1028.75,-52 975.25,-52 975.25,-52 969.25,-52 963.25,-46 963.25,-40 963.25,-40 963.25,-28 963.25,-28 963.25,-22 969.25,-16 975.25,-16 975.25,-16 1028.75,-16 1028.75,-16 1034.75,-16 1040.75,-22 1040.75,-28 1040.75,-28 1040.75,-40 1040.75,-40 1040.75,-46 1034.75,-52 1028.75,-52"/>
<text xml:space="preserve" text-anchor="middle" x="1002" y="-35.95" font-family="Arial" font-size="9.00">List Widget</text>
<text xml:space="preserve" text-anchor="middle" x="1002" y="-25.45" font-family="Arial" font-size="9.00">(Orders, Alerts)</text>
</g>
<!-- WidgetBase&#45;&gt;ListWidget -->
<g id="edge13" class="edge">
<title>WidgetBase&#45;&gt;ListWidget</title>
<path fill="none" stroke="#34495e" d="M1002,-92.22C1002,-83.82 1002,-73.49 1002,-63.93"/>
<polygon fill="#34495e" stroke="#34495e" points="1005.5,-63.96 1002,-53.96 998.5,-63.96 1005.5,-63.96"/>
</g>
<!-- CardGrid -->
<g id="node15" class="node">
<title>CardGrid</title>
<path fill="#2c3e50" stroke="#2c3e50" d="M1131.12,-52C1131.12,-52 1070.88,-52 1070.88,-52 1064.88,-52 1058.88,-46 1058.88,-40 1058.88,-40 1058.88,-28 1058.88,-28 1058.88,-22 1064.88,-16 1070.88,-16 1070.88,-16 1131.12,-16 1131.12,-16 1137.12,-16 1143.12,-22 1143.12,-28 1143.12,-28 1143.12,-40 1143.12,-40 1143.12,-46 1137.12,-52 1131.12,-52"/>
<text xml:space="preserve" text-anchor="middle" x="1101" y="-35.95" font-family="Arial" font-size="9.00">CardGrid Widget</text>
<text xml:space="preserve" text-anchor="middle" x="1101" y="-25.45" font-family="Arial" font-size="9.00">(Cards in Grid)</text>
</g>
<!-- WidgetBase&#45;&gt;CardGrid -->
<g id="edge14" class="edge">
<title>WidgetBase&#45;&gt;CardGrid</title>
<path fill="none" stroke="#34495e" d="M1038.33,-92.04C1042.37,-89.67 1046.34,-87.14 1050,-84.5 1059.65,-77.53 1069.27,-68.78 1077.52,-60.59"/>
<polygon fill="#34495e" stroke="#34495e" points="1080.02,-63.03 1084.49,-53.43 1075.01,-58.15 1080.02,-63.03"/>
</g>
<!-- ChecklistWidget -->
<g id="node16" class="node">
<title>ChecklistWidget</title>
<path fill="#2c3e50" stroke="#2c3e50" d="M1239.12,-52C1239.12,-52 1178.88,-52 1178.88,-52 1172.88,-52 1166.88,-46 1166.88,-40 1166.88,-40 1166.88,-28 1166.88,-28 1166.88,-22 1172.88,-16 1178.88,-16 1178.88,-16 1239.12,-16 1239.12,-16 1245.12,-16 1251.12,-22 1251.12,-28 1251.12,-28 1251.12,-40 1251.12,-40 1251.12,-46 1245.12,-52 1239.12,-52"/>
<text xml:space="preserve" text-anchor="middle" x="1209" y="-35.95" font-family="Arial" font-size="9.00">Checklist Widget</text>
<text xml:space="preserve" text-anchor="middle" x="1209" y="-25.45" font-family="Arial" font-size="9.00">(Tasks)</text>
</g>
<!-- WidgetBase&#45;&gt;ChecklistWidget -->
<g id="edge15" class="edge">
<title>WidgetBase&#45;&gt;ChecklistWidget</title>
<path fill="none" stroke="#34495e" d="M1054.1,-94.3C1057.1,-93.64 1060.08,-93.03 1063,-92.5 1103.39,-85.18 1117.43,-101.02 1155,-84.5 1167.3,-79.09 1178.65,-69.71 1187.73,-60.57"/>
<polygon fill="#34495e" stroke="#34495e" points="1190.1,-63.16 1194.36,-53.46 1184.98,-58.38 1190.1,-63.16"/>
</g>
<!-- FormWidget -->
<g id="node17" class="node">
<title>FormWidget</title>
<path fill="#2c3e50" stroke="#2c3e50" d="M1326.62,-52C1326.62,-52 1281.38,-52 1281.38,-52 1275.38,-52 1269.38,-46 1269.38,-40 1269.38,-40 1269.38,-28 1269.38,-28 1269.38,-22 1275.38,-16 1281.38,-16 1281.38,-16 1326.62,-16 1326.62,-16 1332.62,-16 1338.62,-22 1338.62,-28 1338.62,-28 1338.62,-40 1338.62,-40 1338.62,-46 1332.62,-52 1326.62,-52"/>
<text xml:space="preserve" text-anchor="middle" x="1304" y="-35.95" font-family="Arial" font-size="9.00">Form Widget</text>
<text xml:space="preserve" text-anchor="middle" x="1304" y="-25.45" font-family="Arial" font-size="9.00">(Input Fields)</text>
</g>
<!-- WidgetBase&#45;&gt;FormWidget -->
<g id="edge16" class="edge">
<title>WidgetBase&#45;&gt;FormWidget</title>
<path fill="none" stroke="#34495e" d="M1054.07,-94.14C1057.08,-93.52 1060.07,-92.96 1063,-92.5 1084.64,-89.09 1240.2,-93.88 1260,-84.5 1270.8,-79.39 1280.08,-70.27 1287.3,-61.24"/>
<polygon fill="#34495e" stroke="#34495e" points="1290.06,-63.39 1293.15,-53.26 1284.41,-59.25 1290.06,-63.39"/>
</g>
<!-- TabsWidget -->
<g id="node18" class="node">
<title>TabsWidget</title>
<path fill="#2c3e50" stroke="#2c3e50" d="M1427.75,-52C1427.75,-52 1368.25,-52 1368.25,-52 1362.25,-52 1356.25,-46 1356.25,-40 1356.25,-40 1356.25,-28 1356.25,-28 1356.25,-22 1362.25,-16 1368.25,-16 1368.25,-16 1427.75,-16 1427.75,-16 1433.75,-16 1439.75,-22 1439.75,-28 1439.75,-28 1439.75,-40 1439.75,-40 1439.75,-46 1433.75,-52 1427.75,-52"/>
<text xml:space="preserve" text-anchor="middle" x="1398" y="-35.95" font-family="Arial" font-size="9.00">Tabs Widget</text>
<text xml:space="preserve" text-anchor="middle" x="1398" y="-25.45" font-family="Arial" font-size="9.00">(Tab Navigation)</text>
</g>
<!-- WidgetBase&#45;&gt;TabsWidget -->
<g id="edge17" class="edge">
<title>WidgetBase&#45;&gt;TabsWidget</title>
<path fill="none" stroke="#34495e" d="M1054.06,-94.09C1057.07,-93.48 1060.06,-92.94 1063,-92.5 1094.32,-87.77 1318.87,-96.96 1348,-84.5 1359.91,-79.4 1370.54,-70.03 1378.9,-60.8"/>
<polygon fill="#34495e" stroke="#34495e" points="1381.45,-63.2 1385.22,-53.29 1376.1,-58.69 1381.45,-63.2"/>
</g>
<!-- ButtonGroup -->
<g id="node19" class="node">
<title>ButtonGroup</title>
<path fill="#2c3e50" stroke="#2c3e50" d="M1544.25,-52C1544.25,-52 1469.75,-52 1469.75,-52 1463.75,-52 1457.75,-46 1457.75,-40 1457.75,-40 1457.75,-28 1457.75,-28 1457.75,-22 1463.75,-16 1469.75,-16 1469.75,-16 1544.25,-16 1544.25,-16 1550.25,-16 1556.25,-22 1556.25,-28 1556.25,-28 1556.25,-40 1556.25,-40 1556.25,-46 1550.25,-52 1544.25,-52"/>
<text xml:space="preserve" text-anchor="middle" x="1507" y="-35.95" font-family="Arial" font-size="9.00">ButtonGroup Widget</text>
<text xml:space="preserve" text-anchor="middle" x="1507" y="-25.45" font-family="Arial" font-size="9.00">(Actions)</text>
</g>
<!-- WidgetBase&#45;&gt;ButtonGroup -->
<g id="edge18" class="edge">
<title>WidgetBase&#45;&gt;ButtonGroup</title>
<path fill="none" stroke="#34495e" d="M1054.06,-94.07C1057.07,-93.46 1060.06,-92.93 1063,-92.5 1105.44,-86.25 1408.91,-99.76 1449,-84.5 1462.4,-79.4 1474.84,-69.76 1484.73,-60.33"/>
<polygon fill="#34495e" stroke="#34495e" points="1487.14,-62.87 1491.67,-53.3 1482.16,-57.96 1487.14,-62.87"/>
</g>
<!-- AlarmCard -->
<g id="node20" class="node">
<title>AlarmCard</title>
<path fill="#2c3e50" stroke="#2c3e50" d="M1659.5,-52C1659.5,-52 1592.5,-52 1592.5,-52 1586.5,-52 1580.5,-46 1580.5,-40 1580.5,-40 1580.5,-28 1580.5,-28 1580.5,-22 1586.5,-16 1592.5,-16 1592.5,-16 1659.5,-16 1659.5,-16 1665.5,-16 1671.5,-22 1671.5,-28 1671.5,-28 1671.5,-40 1671.5,-40 1671.5,-46 1665.5,-52 1659.5,-52"/>
<text xml:space="preserve" text-anchor="middle" x="1626" y="-35.95" font-family="Arial" font-size="9.00">AlarmCard Widget</text>
<text xml:space="preserve" text-anchor="middle" x="1626" y="-25.45" font-family="Arial" font-size="9.00">(Alert + Action)</text>
</g>
<!-- WidgetBase&#45;&gt;AlarmCard -->
<g id="edge19" class="edge">
<title>WidgetBase&#45;&gt;AlarmCard</title>
<path fill="none" stroke="#34495e" d="M1054.06,-94.05C1057.07,-93.45 1060.06,-92.93 1063,-92.5 1090.77,-88.48 1541.75,-94.42 1568,-84.5 1581.41,-79.43 1593.85,-69.8 1603.75,-60.36"/>
<polygon fill="#34495e" stroke="#34495e" points="1606.16,-62.9 1610.68,-53.32 1601.17,-57.99 1606.16,-62.9"/>
</g>
<!-- RecommendWidget -->
<g id="node21" class="node">
<title>RecommendWidget</title>
<path fill="#2c3e50" stroke="#2c3e50" d="M1780.88,-52C1780.88,-52 1701.12,-52 1701.12,-52 1695.12,-52 1689.12,-46 1689.12,-40 1689.12,-40 1689.12,-28 1689.12,-28 1689.12,-22 1695.12,-16 1701.12,-16 1701.12,-16 1780.88,-16 1780.88,-16 1786.88,-16 1792.88,-22 1792.88,-28 1792.88,-28 1792.88,-40 1792.88,-40 1792.88,-46 1786.88,-52 1780.88,-52"/>
<text xml:space="preserve" text-anchor="middle" x="1741" y="-35.95" font-family="Arial" font-size="9.00">Recommend Widget</text>
<text xml:space="preserve" text-anchor="middle" x="1741" y="-25.45" font-family="Arial" font-size="9.00">(Rec. + Why + Action)</text>
</g>
<!-- WidgetBase&#45;&gt;RecommendWidget -->
<g id="edge20" class="edge">
<title>WidgetBase&#45;&gt;RecommendWidget</title>
<path fill="none" stroke="#34495e" d="M1054.05,-94.04C1057.06,-93.44 1060.06,-92.92 1063,-92.5 1096.99,-87.63 1648.76,-96.32 1681,-84.5 1694.87,-79.42 1707.84,-69.64 1718.15,-60.11"/>
<polygon fill="#34495e" stroke="#34495e" points="1720.37,-62.83 1725.06,-53.33 1715.47,-57.83 1720.37,-62.83"/>
</g>
<!-- GoalCard -->
<g id="node22" class="node">
<title>GoalCard</title>
<path fill="#2c3e50" stroke="#2c3e50" d="M1931.5,-52C1931.5,-52 1822.5,-52 1822.5,-52 1816.5,-52 1810.5,-46 1810.5,-40 1810.5,-40 1810.5,-28 1810.5,-28 1810.5,-22 1816.5,-16 1822.5,-16 1822.5,-16 1931.5,-16 1931.5,-16 1937.5,-16 1943.5,-22 1943.5,-28 1943.5,-28 1943.5,-40 1943.5,-40 1943.5,-46 1937.5,-52 1931.5,-52"/>
<text xml:space="preserve" text-anchor="middle" x="1877" y="-35.95" font-family="Arial" font-size="9.00">GoalCard Widget</text>
<text xml:space="preserve" text-anchor="middle" x="1877" y="-25.45" font-family="Arial" font-size="9.00">(Goal + Progress + Timeline)</text>
</g>
<!-- WidgetBase&#45;&gt;GoalCard -->
<g id="edge21" class="edge">
<title>WidgetBase&#45;&gt;GoalCard</title>
<path fill="none" stroke="#34495e" d="M1054.05,-94.03C1057.06,-93.44 1060.06,-92.92 1063,-92.5 1103.65,-86.72 1762.74,-96.52 1802,-84.5 1818.81,-79.35 1835.34,-69.15 1848.6,-59.34"/>
<polygon fill="#34495e" stroke="#34495e" points="1850.67,-62.16 1856.43,-53.27 1846.38,-56.63 1850.67,-62.16"/>
</g>
</g>
</svg>
